<svg viewBox="0 0 1024.000000 1024.000000" height="1024px" width="1024px" xmlns="http://www.w3.org/2000/svg" xmlns:xlink="http://www.w3.org/1999/xlink">
  <defs>
    <filter id="blur" x="0" y="0" height="110%" width="110%">
      <feColorMatrix result="matrixOut" in="SourceAlpha" type="matrix" values="0 0 0 0 0.2 0 0 0 0 0.2 0 0 0 0 0.2 0 0 0 1 0" />
      <feGaussianBlur in="matrixOut" stdDeviation="5" />
    </filter>
  </defs>
  <use xlink:href="#border" x="15" y="15" filter="url(#blur)"  />
  <path id="border" stroke-width="5" stroke="#a0a0a0" fill="#fff" d="M 405.5 36 C 406.1 38 407.1 38.4 410 38 C 410.8 37.9 412.5 39.1 413.8 40.7 L 416.1 43.5 L 418.1 40.7 C 420.7 37.2 424.4 37.1 426.6 40.5 C 427.8 42.3 429.1 43 431.5 43 C 434 43 435 43.5 435.5 45 C 436.4 47.8 445.4 47.9 447.8 45.1 C 448.8 44 450.6 42.9 451.9 42.5 C 454.1 41.8 454.2 42 453.6 44.6 C 452.3 50.4 452.3 50.5 456.2 50.8 C 459.1 51 460.1 50.7 461 49.1 C 462 47.1 463 47 475.8 47 C 488.4 47 489.6 47.2 490.8 49 C 492.9 52.4 497 51.5 501 47 C 504.9 42.5 506.4 42.1 508 45 C 508.9 46.6 510.1 47 514.5 47 C 519 47 520 47.3 520.5 49 C 520.8 50.1 521.8 51 522.5 51 C 523.3 51 524.4 50.1 525 49 C 525.7 47.7 527.1 47 528.9 47 C 530.7 47 532.3 46.2 533.2 44.8 C 535.6 41.2 545.3 41.4 546.3 45 C 547 47.9 552.1 47.7 554.6 44.7 C 556.5 42.6 560.1 42 566.2 42.9 C 566.6 43 567.2 43.9 567.5 45 C 568.3 47.5 571 47.6 571.7 45.1 C 572 44 573.4 42.9 574.8 42.5 C 577 42 577.9 42.4 579.8 44.7 L 582.1 47.5 L 583.9 45.2 C 585 44 586.3 43 586.8 43 C 587.3 43 588.5 44 589.4 45.2 L 591 47.5 L 592.6 45.2 C 593.6 43.9 595.3 43 597 43 C 600.3 43 602.3 41 601 39 C 600.4 38.2 600 36.7 600 35.7 C 600 34.2 601.2 34 610.9 34 C 620.9 34 621.9 34.2 623.2 36.2 C 624.5 38.1 625.4 38.3 631 38.1 C 636.6 37.9 637.6 38.2 640.1 40.6 C 641.8 42.2 643.5 43 644.5 42.7 C 645.4 42.3 646.9 43 648.2 44.5 L 650.4 47 L 674.2 47 L 698 47 L 699.5 44.6 C 701 42.4 701.6 42.3 709.5 42.4 C 714.1 42.5 718.2 42.9 718.6 43.3 C 720 44.7 716.7 46.9 712.7 47.2 C 709.8 47.4 708.5 48 708.5 49 C 708.5 50.2 710.2 50.6 716.2 50.8 C 723.1 51.1 724 50.9 725 49 C 726.4 46.4 728.6 46.4 730 49 C 731 50.8 732.1 51 742.6 51 C 753.7 51 754.1 50.9 755.1 48.6 C 756.2 46.4 756.7 46.2 761.4 46.7 C 766.2 47.2 766.6 47.1 767.8 44.6 C 769.3 41.3 770.3 41.3 772.4 44.5 C 773.9 46.8 774.7 47 781 47 C 787.6 47 788.1 46.8 789 44.5 C 789.5 43.1 790.4 42 791 42 C 791.5 42 792.7 43.1 793.6 44.5 L 795.2 47 L 815.1 47 L 835 47 L 836 44.5 C 836.5 43.1 837.6 42 838.3 42 C 839.1 42 840.2 43.1 840.8 44.5 L 842 47 L 859.6 47 C 876.6 47 877.2 47.1 879.1 49.2 C 881 51.4 881.1 51.4 882.3 49.7 C 885.9 44.3 885.8 44.3 887 47.7 C 888.7 52.3 890.6 51.8 893.2 46 C 894.5 43.3 896 41 896.7 41 C 897.3 41 898.8 42.3 900 44 C 903.2 48.5 909 47.7 909 42.7 C 909 41.3 909.4 41 910.8 41.6 C 911.7 42 917.2 42.4 922.9 42.6 C 932 42.8 933.4 43.1 934.7 44.9 C 936 46.9 937 47 954 47 C 971 47 971.9 47.1 972.5 49 C 973.4 52 976 51.4 977.1 48 C 978.8 43.2 980 44.1 982.4 51.8 C 983 53.7 982.7 54.2 980.1 55.1 C 976.5 56.4 976.1 58.4 979 60 C 980.2 60.7 981 62.1 981 63.7 C 981 65.3 982 67.3 983.4 68.5 C 985.1 69.9 986 72 986.4 75.2 C 986.9 79.6 986.8 80 984.6 80.6 C 981.2 81.4 980.7 83.6 983.4 85.7 C 985.1 87 985.9 88.9 986.4 92.2 C 986.9 96.6 986.8 97 984.6 97.6 C 981.1 98.4 980.6 100.7 983.6 102.6 C 985.7 104 986 105 985.9 108.6 C 985.7 111.9 986.2 113.5 987.7 115.2 C 989.6 117.2 989.9 119 990.1 128.9 C 990.5 140.1 990.4 140.3 988.1 141.2 C 985.9 142 985.8 142.4 986.3 148 C 986.7 152.7 986.5 154 985.4 154 C 984.7 154 983.4 155 982.5 156.3 C 981.7 157.6 979.2 159.6 977 160.9 C 972.5 163.4 972 164.9 975 166.8 C 976.7 167.8 977 169.1 977 174.9 C 977 182.1 978.3 184.6 981.4 183.4 C 983.7 182.5 986 184.8 986 188 C 986 189.6 986.8 191.4 987.9 192.1 C 989.4 193.2 989.9 195.2 990.3 202.2 C 990.8 211.6 990.4 212.3 985.9 209.9 C 982.9 208.3 981 210.4 981 215.5 C 981 220.4 982.4 222 986.6 221.7 C 988.9 221.5 989.6 221.9 989.8 223.7 C 990 225.1 989.5 226 988.1 226.5 C 985.9 227.2 985.6 227.9 986 231.7 C 986.1 233 985.7 234 985.1 234 C 983.5 234 981 237 981 239.1 C 981 240.1 982.1 242 983.5 243.2 C 985 244.5 986 246.4 986 248.1 C 986 249.9 986.7 251.3 988 252 C 989.6 252.9 990 254.1 990 258.5 C 990 263 989.7 264 988 264.5 C 986.2 265.1 986 266 986 274.9 C 986 284.4 985.9 284.7 983.5 285.8 C 980.3 287.3 980.3 288.3 983.6 290.4 C 985.9 292 986.1 292.6 985.9 298.6 C 985.7 304 986 305.4 987.8 307.3 C 989 308.6 990 310.6 990 311.8 C 990 313.1 991.8 315.6 994.3 317.9 L 998.5 321.8 L 998.4 331 C 998.3 339.1 998.1 340.3 996.1 341.6 C 994.9 342.4 994 344.2 994 345.6 C 994 348 992.5 348.7 990.4 347.2 C 988.5 345.9 988 343 989.3 340.9 C 990.3 339.3 990.2 338.8 989.1 338.1 C 988.1 337.5 986.7 338.2 984.3 340.4 C 981.1 343.6 981 343.9 981 352.1 C 981 360.3 981.1 360.6 984.2 363.5 C 986.3 365.5 988.4 366.5 990.4 366.5 L 993.5 366.5 L 993.8 378.7 C 994 389.7 994.3 391.1 996 392 C 998.6 393.4 998.6 396.6 996 397.3 C 994.4 397.7 994 398.7 994 402.4 C 994 406.9 993.9 407 990.9 407 C 989.2 407 986.9 406.5 985.8 405.9 C 984.2 405.1 983.4 405.1 982.3 406.3 C 980.9 407.6 981.1 408 983.4 409.5 C 985.8 411.1 986 411.8 986 418.6 C 986 424.9 986.3 426.1 988 427 C 990.8 428.5 990.7 433.3 987.8 435.2 C 985.2 437 986 440.6 988.8 439.5 C 993.8 437.4 994 437.5 994 442.3 C 994 446 994.4 447.1 996.5 448.4 C 999.7 450.5 999.7 453.4 996.5 456.2 C 995 457.5 994 459.4 994 461.1 C 994 462.7 993.1 464.4 991.8 465.4 L 989.5 467 L 991.8 468.6 C 994.5 470.6 994.6 472.7 992 473.5 C 989.4 474.3 989.4 476.6 992 478 C 994.6 479.4 994.6 481.7 992 482.5 C 990.5 483 990 484 990 486.5 C 990 489 989.5 490 988 490.5 C 985.7 491.2 985.8 490.6 986 503.7 C 986.1 513.5 986.1 514 983.5 516.2 C 980.9 518.4 980.9 518.7 981.1 529.4 C 981.3 539.7 981.2 540.4 979.2 541.8 C 976.3 543.7 976.4 547.7 979.4 550.5 C 981 552 981.7 553.5 981.3 554.8 C 981 556.2 981.6 557.3 983.4 558.5 C 985.8 560.1 986 560.8 986 567.6 C 986 573.9 986.3 575.1 988 576 C 989.8 577 990 578.1 990 586.5 C 990 594.9 989.8 596 988 597 C 986.9 597.6 986 598.7 986 599.5 C 986 600.3 986.9 601.4 988 602 C 989.9 603 990 604.1 990 626.9 C 990 650.6 990 650.7 987.6 652.9 C 985.7 654.7 985.3 655.8 985.7 659.4 C 986.2 663.1 985.9 663.8 983.6 665.3 C 980.8 667.2 981 669.5 984.1 670.3 C 986 670.8 986.1 671.7 985.9 686.6 C 985.8 701.7 985.9 702.5 987.9 703.9 C 990.7 705.7 990.7 710.5 988 712.2 C 986.9 712.9 986 714.6 986 715.9 C 986 719.6 980.2 725.5 976.6 725.5 C 973.9 725.5 973.5 725.9 973.2 728.5 C 973 730.1 971.7 732.7 970.3 734.2 C 967.3 737.3 967.7 741.5 971 742.5 C 972.8 743.1 973 744 973 753.1 C 973 761.7 973.2 763.2 974.8 763.7 C 975.7 764.1 977.1 765.2 977.8 766.2 C 978.5 767.2 979.8 768 980.7 768 C 981.8 768 982.1 768.7 981.7 770.7 C 981.1 774 982.5 777 984.6 777 C 985.9 777 986.1 778.9 985.9 788.7 C 985.8 799.6 985.9 800.5 987.9 801.8 C 989.7 803.1 990 804.2 990 810.5 C 990 816.8 989.7 817.9 987.8 819.2 C 985.9 820.5 985.7 821.5 985.7 827.5 C 985.8 834.2 986.6 836 990.2 837.2 C 992.4 838 989.6 843.7 985.4 847 C 980.6 850.8 980.4 851.9 984 853.7 C 986.3 854.8 986.3 855 986.1 870.2 C 985.9 885.2 985.9 885.5 983.5 887.3 C 979.3 890.4 981.1 897 985.9 895.7 C 987.6 895.3 987.6 895.6 986.6 899.1 C 985.9 901.3 984.4 903.7 983.2 904.6 C 981.3 905.9 981 907 981 912.9 C 981 919.7 982 922 985 922 C 986.3 922 986.5 923.9 986.2 935.7 C 985.9 949 985.8 949.6 983.4 951.4 C 981 953.1 980.9 953.7 981.1 962.1 C 981.3 970.7 981.2 971.1 978.4 973.8 C 975.8 976.2 971.5 979 970.3 979 C 970.1 979 969.4 977.6 968.8 975.9 C 967.3 971.6 964.6 972.4 964.2 977.3 C 963.9 980.8 963.7 981 960.6 981 C 958.1 981 956.8 981.7 955.5 983.6 C 954.4 985.3 953.2 986 952 985.7 C 949.8 985.1 949 985.7 946.7 989.2 C 944.5 992.7 943 992.8 943 989.6 C 943 988.2 942.5 986.8 941.9 986.4 C 940.6 985.6 927.5 985.8 924.8 986.6 C 923.7 986.9 922.7 986.2 921.8 984.3 C 920.1 980.8 918.9 980.8 917.2 984.2 C 915.5 987.8 914.4 987.7 913.1 984 C 911.8 980.2 910.5 980.2 908.5 984 C 906.8 987.3 903.4 988.1 902.8 985.2 C 902.6 984.3 903 982.6 903.7 981.4 C 906 977.8 903.5 976.9 892.9 977.2 L 883.5 977.5 L 883.2 981.2 C 882.9 984.3 882.4 985.1 880.4 985.6 C 879.1 985.9 876.9 985.9 875.5 985.6 C 873.4 985.1 872.2 985.7 868.7 989.4 L 864.4 993.8 L 850.7 994.1 C 837.2 994.5 837.1 994.5 836 992.2 C 835.1 990.1 834.4 989.9 829.6 990.2 C 824.7 990.5 824.1 990.3 821.6 987.4 C 820.2 985.6 819 983.7 819 983.1 C 819 981.3 814.4 980.7 801.9 981.2 C 793.2 981.5 790 981.3 790 980.4 C 790 979.8 789.3 978.6 788.4 977.9 C 787 976.8 786.5 977 784.8 979.3 C 783.3 981.3 782.3 981.9 780.6 981.4 C 778.9 981 777.9 981.5 776.6 983.4 C 775.2 985.6 774.2 986 770.1 986 C 766 986 765 985.6 763.5 983.4 C 762.2 981.4 761.6 981.1 760.4 982.1 C 759.6 982.7 759 983.9 759 984.6 C 759 986.9 756.4 986.2 754.6 983.5 C 753.3 981.5 752.1 981 748.5 981 C 744.9 981 743.7 981.5 742.4 983.5 C 740.3 986.7 735.1 987 734.3 984.1 C 733.5 981 731.2 980.8 729.3 983.6 C 727.8 985.9 727.2 986.1 720.8 985.8 C 714.7 985.6 713.8 985.8 712.4 987.8 C 711.2 989.6 709.9 990 705.7 990 C 700.7 989.9 700.3 989.7 697 985.4 C 693.6 981.1 693.4 981 689.3 981.6 C 685.5 982.2 685 982 685 980.3 C 685 979.3 685.5 977.9 686.1 977.3 C 688.6 974.8 686.3 973 680.6 973 C 676 973 675 972.7 673.6 970.5 C 671.3 967 668.7 967.4 664.6 971.7 C 661.8 974.7 661.2 976 661.7 978.2 C 662.1 980.2 661.9 981 660.8 981 C 660.1 981 657.4 983 655 985.5 L 650.6 990 L 635.4 990 C 621 990 620.2 989.9 618.8 987.9 C 617.5 985.8 616.8 985.7 600.2 985.9 C 583.6 986.1 583 986 583 984.1 C 583 983 583.4 981.8 584 981.5 C 585.5 980.6 585.2 978 583.5 977.4 C 582.5 977 580.5 978.4 577.9 981.4 L 573.8 986 L 554.5 986 L 535.2 986 L 533.5 983.4 L 531.8 980.7 L 529.3 983.5 L 526.7 986.2 L 524.5 983.4 L 522.3 980.6 L 520.5 983.3 C 519.1 985.5 518 986 514.4 986 C 509.9 986 509.9 986 511.5 980.4 C 512.5 977 510.1 976.4 507.3 979.4 C 505.5 981.4 504.3 981.9 502.5 981.4 C 499.2 980.6 495 981.7 495 983.4 C 495 984.2 494.3 985.1 493.4 985.4 C 490.3 986.6 488 986 486.3 983.4 C 484.8 981.1 484.1 980.8 480.3 981.3 C 476 981.8 473 980.4 473 977.9 C 473 976.1 469.8 977 469.3 979 C 469 980.3 467.9 981 466.5 981 C 465.2 981 463.5 981.3 462.6 981.6 C 460.8 982.3 460.4 985.5 462 986.5 C 462.6 986.8 463 987.9 463 988.8 C 463 990.2 462.1 990.4 457.4 990.2 C 452.7 989.9 451.7 989.4 450.8 987.4 C 449.9 985.6 450 984.4 451 982.6 C 452.8 979.2 451.7 977 448.1 977 C 446.1 977 444.7 977.7 444 979 C 442.6 981.6 440.4 981.6 439 978.9 C 438.1 977.4 437.1 977 434.7 977.2 C 431.3 977.5 430.9 978.7 432.5 983.7 C 433.2 985.8 432.9 986 429.4 986 C 427.2 986 424.4 985.7 423.1 985.3 C 420.9 984.7 420.8 984.4 421.4 978.9 L 422.1 973 L 416 973 C 410.3 973 410 973.1 410 975.4 C 410 976.8 410.4 978.1 411 978.5 C 411.5 978.8 411.7 979.6 411.4 980.3 C 411.1 981.2 407.3 981.4 396.5 981.2 L 382 980.8 L 378.5 984.6 C 376.6 986.7 375 988.8 375 989.2 C 375 989.6 370.7 990 365.5 990 C 356.6 990 355.9 989.9 353.6 987.4 C 351.8 985.3 350.6 984.9 348.7 985.4 C 347.3 985.7 345.8 986.9 345.5 988 C 344.6 990.8 338.4 990.8 337.5 988 C 336.7 985.4 333.4 985.4 332.7 988 C 332 990.6 329.3 990.6 328.5 988 C 328.2 986.9 327.2 986 326.5 986 C 325.7 986 324.6 986.9 324 988 C 323.2 989.6 321.9 990 318 990 C 314.1 990 312.8 990.4 312 992 C 310.6 994.6 308.4 994.6 307 992 C 306 990.2 304.9 990 294.7 990 C 288.5 990 282.9 989.6 282.1 989.1 C 281.2 988.5 281 987.3 281.4 985.7 C 282.2 982.2 280 980.6 275.1 981.4 C 271.7 981.9 270.9 981.7 269.2 979.5 C 267.4 977.3 266.5 977 260.1 977 C 254.1 977 252.9 976.7 252 975 C 251 973.2 249.9 973 241 973 C 235.3 973 231 973.4 231 973.9 C 231 974.5 229.9 976.1 228.5 977.6 C 227.1 979.1 226 980.6 226 981.1 C 226 981.5 222.7 981.6 218.8 981.4 C 210 980.8 208.1 981.7 209.8 985.5 C 213.1 992.6 209 992.9 203 986 L 198.7 981 L 183.1 981.2 L 167.5 981.5 L 166.3 984.1 C 165.1 986.5 164.7 986.6 160.5 986 C 155.9 985.3 154.9 985.8 153.7 989.2 C 152.8 991.7 151.1 991.4 149.8 988.5 C 148.4 985.3 146.3 985.3 144.8 988.6 C 143.8 990.6 143.1 991 141.1 990.5 C 139.7 990.2 137.7 989 136.8 987.9 C 135.2 986 134 985.9 109.2 986 L 83.3 986.1 L 79.1 981.5 L 75 977 L 64.2 977 C 53.1 977 51 977.7 51 981.2 C 51 983.3 50.1 983.4 46.5 981.8 C 42.4 979.9 38.8 971 42.3 971.3 C 44.1 971.5 51 967.8 51 966.7 C 51 965.3 45.1 960.2 42.8 959.4 C 40.4 958.7 40.3 955 42.8 955.7 C 46.5 956.6 48 951.5 45.6 945.9 C 45.1 944.7 45.7 944 47.9 943.2 C 51.8 941.8 51.9 939.5 48 938.1 C 44.2 936.8 44.1 934.2 47.8 933.8 L 50.5 933.5 L 50.5 921.5 L 50.5 909.5 L 44.8 909.2 C 40.2 909 38.7 908.5 37.5 906.7 C 36 904.6 36.1 904.5 39.2 904 C 43.5 903.3 44.2 899.9 40.7 896.1 C 39.4 894.7 38 892.4 37.7 891 C 37.2 888.8 37.5 888.2 40.1 887.3 L 43.2 886.1 L 42.8 876.3 C 42.5 870.9 42 865.8 41.6 864.9 C 41.1 863.6 41.6 863 43.9 862.2 C 47.4 861 48 858.4 45 857.5 C 42.7 856.8 42.9 857.1 42.4 850.7 C 42.1 846.4 42.3 845.8 44.5 845 C 46.9 844.1 48.1 841 46.1 841 C 44.3 841 42 837.9 42 835.5 C 42 834.2 43 832.5 44.6 831.5 C 46.6 830.2 47 829.3 46.6 827.4 C 46.1 825.5 46.5 824.7 48.5 823.8 C 51.7 822.4 51.7 820.2 48.5 819 C 45.6 817.9 45.2 815.2 47.8 814.3 C 48.7 814 50.3 813 51.2 812.1 C 52.1 811.2 53.6 809.9 54.5 809.2 C 56.8 807.3 56.3 804.3 53.5 802.4 C 51.9 801.4 51 799.8 51 798.2 C 51 796.6 49.7 794.3 47.9 792.4 C 45.3 789.7 44.2 789.2 41.9 789.7 C 37.7 790.5 36.8 787.4 40.4 784.7 L 43.2 782.7 L 42.9 764.1 C 42.5 744.1 42.3 744.9 47.7 746.5 C 51 747.5 52.1 744.2 49.2 742.2 C 47.8 741.3 47 739.7 47 738 C 47 736.3 46.2 734.7 44.8 733.8 C 42.7 732.4 42.6 731.8 42.9 719.2 L 43.2 706.2 L 40.6 704.5 C 37.4 702.4 37.3 700.8 40.3 699.5 C 42.4 698.6 42.5 697.9 42.6 687.1 C 42.7 676.4 42.8 675.6 45.1 673.8 L 47.5 671.9 L 45.2 670.3 C 42.5 668.4 42.4 666.9 45 665.2 C 46.3 664.4 47 662.9 47 661 C 47 659.1 47.7 657.7 49 657 C 50.9 656 51 654.9 51 635.6 C 51 614.1 50.8 613.4 46.5 615.1 C 42.6 616.6 40 616.1 39 613.6 C 38.5 612.2 37.2 610.6 36 610 C 34.2 609 34 608 34 600 C 34 592.8 34.3 591 35.4 591 C 36.2 591 37.2 591.5 37.5 592 C 37.8 592.5 39 593 40 593 C 42.4 593 43.1 590.3 42.7 583.7 L 42.4 578.9 L 46.8 579.6 C 50.7 580.2 51.2 580.1 50.8 578.4 C 50.4 576.5 48.8 576.2 44.5 577.3 C 42.5 577.8 42.5 577.4 42.8 567.1 C 43.1 556.5 43.1 556.3 40.6 554.6 C 38 553 38 552.8 38 540 C 38 527.3 38 527 40.6 524.6 C 42.9 522.6 43.2 521.6 42.7 518.5 C 42.2 515.4 42.5 514.4 44.5 512.5 C 47.6 509.7 47.7 505.6 44.9 503.6 C 41.6 501.3 41.5 493.4 44.7 490.7 C 47.9 487.9 48 479.9 44.9 477.8 C 43.2 476.7 42.8 475.3 42.6 469.7 L 42.4 462.9 L 46.7 458.9 L 51 455 L 51 445.5 C 51 437.1 50.8 436 49 435 C 46.3 433.6 46.3 428.5 49 426.8 C 50.3 425.9 51 424.4 51 422.2 C 51 418.7 48.7 416.9 46.7 418.9 C 46.1 419.5 44.8 420 43.9 420 C 42.5 420 42.3 419.2 42.8 415.5 C 43.3 410.7 41.8 409 38.3 410.5 C 34.1 412.3 33.3 411.8 34 408.1 C 34.5 404.9 34.9 404.5 37.5 404.5 C 39.2 404.5 42 403.4 43.8 402.1 L 47 399.6 L 47 385.8 C 47 373.1 47.1 372 49 371 C 50.8 370 51 368.9 51 360.5 C 51 352.1 50.8 351 49 350 C 47.3 349.1 47 347.9 47 341.8 C 47 335 46.9 334.7 43.3 331.4 C 41.3 329.5 39.2 328 38.8 328 C 38.4 328 38 324.6 38 320.5 C 38 313.6 38.2 312.9 40.6 311.4 C 42.9 309.8 43.1 309.2 42.8 302.9 C 42.6 296.9 42.8 296 44.8 294.3 C 47 292.6 47.1 292 46.8 279 C 46.5 266.1 46.4 265.5 44.3 264.5 C 41.1 263.1 41.2 258.6 44.5 256.4 C 46.8 254.9 47 254.2 47 247.4 C 47 240.5 46.8 239.9 44.7 239.1 C 42.5 238.2 42.3 237.7 42.5 230.9 C 42.7 224.7 43.1 223.4 45.1 221.9 C 47.1 220.4 47.2 220 46.1 218.6 C 45.4 217.7 44.1 217 43.4 217 C 40.9 217 41.7 211.2 44.5 209.4 C 46.6 208 47 207 47 202.5 C 47 198 47.3 197 49 196.5 C 50.1 196.1 51 195 51 193.8 C 51 192 50.6 191.8 46.9 192.3 C 43.4 192.8 42.7 192.5 42.3 190.9 C 42 189.9 41.4 189 40.9 189 C 40.4 189 39 187.9 37.8 186.5 C 36.6 185.1 35.1 184 34.5 184 C 33.7 184 33.5 180.4 33.8 171.7 C 34.1 161.1 34.4 159.3 36.1 158.1 C 38.7 156.2 38.5 154.2 35.5 153.4 C 32.3 152.6 32.3 150.6 35.5 149.2 C 36.9 148.5 38.3 147.3 38.6 146.5 C 39 145.6 40.5 145 42.2 145 C 44.1 145 46.2 144 48.1 142.1 C 50.5 139.6 51 138.4 51 134 C 51 128.7 49.1 126.5 46.7 128.9 C 46.1 129.5 44.5 130 43.2 130 C 41 130 40.8 129.7 41.5 126.7 C 41.9 125 42.3 122 42.4 120.1 C 42.5 117.8 43.3 116.2 44.8 115.2 C 47.9 113.2 47.8 108.3 44.7 107.1 C 43.4 106.6 41.8 105.5 41.1 104.6 C 40.4 103.7 38.9 103 37.8 103 C 36.2 103 36 102.6 36.6 101.2 C 37 100.3 37.6 95.9 37.8 91.5 C 38.1 84.6 38.5 83.2 40.6 81.2 C 41.9 79.9 43 77.8 43 76.5 C 43 73.9 40.4 71.9 38.1 72.8 C 35.8 73.6 37.6 67 40.6 63.9 C 42.8 61.6 43.1 60.5 42.9 55.1 C 42.8 51.7 43.1 48.5 43.6 48 C 44.1 47.5 50.8 46.9 58.5 46.7 C 66.2 46.5 73.5 46 74.7 45.6 C 76.5 44.9 76.9 45.2 77.2 47.7 C 77.5 50.5 77.5 50.5 85.4 50.8 C 90 51 93.8 50.6 94.4 50 C 96 48.4 96.7 48.8 97.9 52 C 99.2 56 100.8 55.8 104.9 51 C 108 47.4 108.7 47 113.1 47 C 116.9 47 118.2 46.5 119.4 44.8 C 120.8 42.8 121.7 42.6 127.9 42.8 C 134.2 43.1 134.9 42.9 136.6 40.7 C 137.9 39 139.9 38 142.8 37.5 C 146.8 36.9 147 37 147 39.2 C 147 40.5 146.5 42.1 145.9 42.7 C 145.2 43.4 145 44.6 145.3 45.4 C 146.2 47.6 151.5 47.5 153.2 45.2 C 154.3 43.8 159 41 160.4 41 C 160.6 41 161.3 42.3 161.9 44 C 163.1 47.6 164 47.7 166.7 44.6 C 168.4 42.7 169.8 42.2 173.7 42.2 C 177.8 42.1 178.7 42.5 179.5 44.3 C 180.4 46.2 181.3 46.5 185.6 46.4 C 190.2 46.3 190.9 46.5 191.9 48.6 C 193.2 51.5 195.6 51.7 196.5 49 C 197.1 47.2 198 47 206.8 47 C 212.1 47 217.4 46.7 218.6 46.4 C 220.1 46 220.9 46.5 221.8 48.6 C 222.9 50.8 223.5 51.1 226.1 50.6 C 228.6 50.1 229.2 50.4 230 52.5 C 231.1 55.5 234 55.8 234.7 53 C 235.4 50.4 238.3 50.4 239.5 53.1 C 240.5 55.2 241.1 55.3 255.8 55.3 C 270 55.2 271.3 55.1 273.4 53.1 C 276.5 50.2 284.6 50.1 285.5 53 C 285.8 54.1 286.9 55 287.8 55 C 288.8 55 290.1 54.1 290.8 53 C 291.6 51.7 293.1 51 294.9 51 C 297 51 298.1 51.6 298.5 53 C 298.8 54.1 299.4 55 299.8 55.1 C 300.2 55.1 304.5 55.2 309.4 55.3 C 317.6 55.5 318.4 55.3 319.8 53.2 C 320.8 51.7 322.2 51 324.4 51 C 326.4 51 327.9 50.3 328.8 49 C 329.6 47.7 331.1 47 333 47 C 334.9 47 336.3 47.7 337 49 C 337.6 50.1 338.7 51 339.5 51 C 340.2 51 341.2 50.1 341.5 49 C 342.1 47.1 343 47 359.9 47 L 377.6 47 L 382 42.5 C 386.5 37.9 386.5 37.9 392.9 38.1 C 398.6 38.3 399.6 38.1 400.8 36.2 C 402.6 33.5 404.7 33.4 405.5 36 Z"/>
</svg>
