<svg viewBox="0 0 171 16" xmlns="http://www.w3.org/2000/svg">
  <title>Contact Information</title>
  <path d="M 3.7 10.83 L 0.25 10.83 L 0.25 10.49 C 0.823 10.49 1.157 10.383 1.25 10.17 L 1.25 1.89 C 0.59 1.837 0.257 1.81 0.25 1.81 L 0.25 1.44 C 0.45 1.44 0.847 1.323 1.44 1.09 C 2.033 0.863 2.45 0.75 2.69 0.75 L 2.69 10.17 C 2.79 10.383 3.127 10.49 3.7 10.49 L 3.7 10.83 Z M 11.254 6.97 L 6.114 6.97 C 6.127 7.87 6.387 8.663 6.894 9.35 C 7.401 10.037 7.967 10.38 8.594 10.38 C 9.527 10.38 10.274 10.03 10.834 9.33 L 11.224 9.52 C 10.911 10.033 10.507 10.407 10.014 10.64 C 9.521 10.873 8.867 10.99 8.054 10.99 C 7.647 10.99 7.257 10.93 6.884 10.81 C 6.511 10.683 6.144 10.48 5.784 10.2 C 5.417 9.913 5.127 9.493 4.914 8.94 C 4.701 8.387 4.594 7.727 4.594 6.96 C 4.594 6.02 4.887 5.23 5.474 4.59 C 6.054 3.95 6.861 3.63 7.894 3.63 C 9.027 3.63 9.871 3.947 10.424 4.58 C 10.977 5.213 11.254 6.01 11.254 6.97 Z M 6.134 6.48 L 9.684 6.48 C 9.624 5.713 9.461 5.127 9.194 4.72 C 8.934 4.313 8.481 4.11 7.834 4.11 C 7.461 4.11 7.101 4.33 6.754 4.77 C 6.407 5.203 6.201 5.773 6.134 6.48 Z M 15.172 10.51 C 15.472 10.51 15.802 10.413 16.162 10.22 C 16.515 10.027 16.692 9.74 16.692 9.36 C 16.692 8.74 16.059 8.207 14.792 7.76 C 14.479 7.653 14.225 7.55 14.032 7.45 C 13.832 7.357 13.615 7.223 13.382 7.05 C 13.149 6.883 12.972 6.677 12.852 6.43 C 12.739 6.183 12.682 5.897 12.682 5.57 C 12.682 4.97 12.899 4.497 13.332 4.15 C 13.772 3.803 14.302 3.63 14.922 3.63 C 15.282 3.63 15.652 3.71 16.032 3.87 C 16.412 4.03 16.629 4.11 16.682 4.11 C 16.809 4.11 16.872 4.003 16.872 3.79 L 17.242 3.79 L 17.242 5.71 L 16.882 5.71 C 16.822 5.263 16.609 4.883 16.242 4.57 C 15.869 4.263 15.442 4.11 14.962 4.11 C 14.622 4.11 14.339 4.19 14.112 4.35 C 13.879 4.51 13.762 4.73 13.762 5.01 C 13.762 5.17 13.795 5.317 13.862 5.45 C 13.929 5.583 13.992 5.69 14.052 5.77 C 14.119 5.85 14.239 5.937 14.412 6.03 C 14.592 6.123 14.725 6.19 14.812 6.23 C 14.905 6.27 15.072 6.33 15.312 6.41 C 15.552 6.497 15.715 6.557 15.802 6.59 C 16.355 6.803 16.829 7.103 17.222 7.49 C 17.615 7.883 17.812 8.337 17.812 8.85 C 17.812 9.497 17.552 10.017 17.032 10.41 C 16.505 10.797 15.842 10.99 15.042 10.99 C 14.662 10.99 14.289 10.9 13.922 10.72 C 13.562 10.54 13.362 10.45 13.322 10.45 C 13.255 10.45 13.179 10.49 13.092 10.57 C 13.005 10.657 12.962 10.743 12.962 10.83 L 12.582 10.83 L 12.582 8.57 L 12.932 8.57 C 13.005 9.117 13.259 9.577 13.692 9.95 C 14.125 10.323 14.619 10.51 15.172 10.51 Z M 20.132 4.97 C 20.285 4.97 20.415 5.023 20.522 5.13 C 20.635 5.237 20.692 5.403 20.692 5.63 C 20.692 5.81 20.622 5.95 20.482 6.05 C 20.335 6.143 20.165 6.19 19.972 6.19 C 19.772 6.19 19.608 6.117 19.482 5.97 C 19.348 5.83 19.282 5.637 19.282 5.39 C 19.282 4.837 19.512 4.403 19.972 4.09 C 20.432 3.783 21.082 3.63 21.922 3.63 C 22.915 3.63 23.645 3.877 24.112 4.37 C 24.572 4.857 24.802 5.507 24.802 6.32 L 24.802 9.49 C 24.802 9.83 24.858 10.08 24.972 10.24 C 25.085 10.4 25.222 10.48 25.382 10.48 C 25.522 10.48 25.648 10.443 25.762 10.37 C 25.868 10.29 25.922 10.197 25.922 10.09 L 26.212 10.09 C 26.212 10.39 26.102 10.61 25.882 10.75 C 25.668 10.89 25.288 10.96 24.742 10.96 C 24.208 10.96 23.828 10.74 23.602 10.3 C 22.975 10.76 22.192 10.99 21.252 10.99 C 19.652 10.99 18.852 10.34 18.852 9.04 C 18.852 8.76 18.952 8.51 19.152 8.29 C 19.345 8.063 19.628 7.877 20.002 7.73 C 20.375 7.577 20.728 7.457 21.062 7.37 C 21.395 7.277 21.808 7.173 22.302 7.06 C 22.795 6.947 23.148 6.86 23.362 6.8 C 23.362 5.9 23.245 5.243 23.012 4.83 C 22.778 4.417 22.362 4.21 21.762 4.21 C 20.802 4.21 20.258 4.463 20.132 4.97 Z M 23.462 9.9 C 23.395 9.667 23.362 9.38 23.362 9.04 L 23.362 7.15 C 23.248 7.19 23.048 7.25 22.762 7.33 C 22.482 7.403 22.255 7.467 22.082 7.52 C 21.902 7.573 21.688 7.653 21.442 7.76 C 21.202 7.867 21.012 7.973 20.872 8.08 C 20.732 8.187 20.608 8.327 20.502 8.5 C 20.395 8.68 20.342 8.87 20.342 9.07 C 20.342 9.583 20.442 9.94 20.642 10.14 C 20.835 10.347 21.128 10.45 21.522 10.45 C 22.228 10.45 22.875 10.267 23.462 9.9 Z M 30.02 10.83 L 26.57 10.83 L 26.57 10.49 C 27.143 10.49 27.476 10.383 27.57 10.17 L 27.57 4.77 C 26.91 4.717 26.576 4.69 26.57 4.69 L 26.57 4.32 C 26.77 4.32 27.166 4.203 27.76 3.97 C 28.353 3.743 28.77 3.63 29.01 3.63 L 29.01 4.33 C 29.543 3.863 30.073 3.63 30.6 3.63 C 31.08 3.63 31.483 3.72 31.81 3.9 C 32.13 4.08 32.29 4.283 32.29 4.51 C 32.29 4.897 32.076 5.09 31.65 5.09 C 31.43 5.09 31.23 4.937 31.05 4.63 C 30.863 4.323 30.653 4.17 30.42 4.17 C 30.006 4.17 29.536 4.4 29.01 4.86 L 29.01 10.17 C 29.11 10.383 29.446 10.49 30.02 10.49 L 30.02 10.83 Z M 34.58 1.47 L 35.27 1.47 L 35.27 3.79 L 36.65 3.79 L 36.65 4.27 L 35.27 4.27 L 35.27 9.36 C 35.27 9.687 35.33 9.94 35.45 10.12 C 35.563 10.293 35.78 10.38 36.1 10.38 C 36.293 10.38 36.49 10.287 36.69 10.1 C 36.883 9.913 37.016 9.657 37.09 9.33 L 37.48 9.52 C 37.253 10.5 36.613 10.99 35.56 10.99 C 34.34 10.99 33.73 10.403 33.73 9.23 L 33.73 4.27 L 32.61 4.27 L 32.61 3.79 C 33.116 3.79 33.57 3.583 33.97 3.17 C 34.376 2.75 34.58 2.183 34.58 1.47 Z M 41.668 10.83 L 38.218 10.83 L 38.218 10.49 C 38.791 10.49 39.124 10.383 39.218 10.17 L 39.218 4.77 C 38.558 4.717 38.224 4.69 38.218 4.69 L 38.218 4.32 C 38.418 4.32 38.814 4.203 39.408 3.97 C 40.001 3.743 40.418 3.63 40.658 3.63 L 40.658 10.17 C 40.758 10.383 41.094 10.49 41.668 10.49 L 41.668 10.83 Z M 39.898 2.61 C 39.658 2.61 39.451 2.52 39.278 2.34 C 39.104 2.167 39.018 1.94 39.018 1.66 C 39.018 1.413 39.094 1.2 39.248 1.02 C 39.401 0.84 39.601 0.75 39.848 0.75 C 40.081 0.75 40.288 0.84 40.468 1.02 C 40.648 1.2 40.738 1.43 40.738 1.71 C 40.738 1.957 40.658 2.167 40.498 2.34 C 40.338 2.52 40.138 2.61 39.898 2.61 Z M 45.316 10.51 C 45.616 10.51 45.946 10.413 46.306 10.22 C 46.659 10.027 46.836 9.74 46.836 9.36 C 46.836 8.74 46.202 8.207 44.936 7.76 C 44.622 7.653 44.369 7.55 44.176 7.45 C 43.976 7.357 43.759 7.223 43.526 7.05 C 43.292 6.883 43.116 6.677 42.996 6.43 C 42.882 6.183 42.826 5.897 42.826 5.57 C 42.826 4.97 43.042 4.497 43.476 4.15 C 43.916 3.803 44.446 3.63 45.066 3.63 C 45.426 3.63 45.796 3.71 46.176 3.87 C 46.556 4.03 46.772 4.11 46.826 4.11 C 46.952 4.11 47.016 4.003 47.016 3.79 L 47.386 3.79 L 47.386 5.71 L 47.026 5.71 C 46.966 5.263 46.752 4.883 46.386 4.57 C 46.012 4.263 45.586 4.11 45.106 4.11 C 44.766 4.11 44.482 4.19 44.256 4.35 C 44.022 4.51 43.906 4.73 43.906 5.01 C 43.906 5.17 43.939 5.317 44.006 5.45 C 44.072 5.583 44.136 5.69 44.196 5.77 C 44.262 5.85 44.382 5.937 44.556 6.03 C 44.736 6.123 44.869 6.19 44.956 6.23 C 45.049 6.27 45.216 6.33 45.456 6.41 C 45.696 6.497 45.859 6.557 45.946 6.59 C 46.499 6.803 46.972 7.103 47.366 7.49 C 47.759 7.883 47.956 8.337 47.956 8.85 C 47.956 9.497 47.696 10.017 47.176 10.41 C 46.649 10.797 45.986 10.99 45.186 10.99 C 44.806 10.99 44.432 10.9 44.066 10.72 C 43.706 10.54 43.506 10.45 43.466 10.45 C 43.399 10.45 43.322 10.49 43.236 10.57 C 43.149 10.657 43.106 10.743 43.106 10.83 L 42.726 10.83 L 42.726 8.57 L 43.076 8.57 C 43.149 9.117 43.402 9.577 43.836 9.95 C 44.269 10.323 44.762 10.51 45.316 10.51 Z M 50.676 1.47 L 51.366 1.47 L 51.366 3.79 L 52.746 3.79 L 52.746 4.27 L 51.366 4.27 L 51.366 9.36 C 51.366 9.687 51.426 9.94 51.546 10.12 C 51.659 10.293 51.876 10.38 52.196 10.38 C 52.389 10.38 52.586 10.287 52.786 10.1 C 52.979 9.913 53.112 9.657 53.186 9.33 L 53.576 9.52 C 53.349 10.5 52.709 10.99 51.656 10.99 C 50.436 10.99 49.826 10.403 49.826 9.23 L 49.826 4.27 L 48.706 4.27 L 48.706 3.79 C 49.212 3.79 49.666 3.583 50.066 3.17 C 50.472 2.75 50.676 2.183 50.676 1.47 Z M 61.029 6.97 L 55.889 6.97 C 55.903 7.87 56.163 8.663 56.67 9.35 C 57.176 10.037 57.743 10.38 58.369 10.38 C 59.303 10.38 60.049 10.03 60.61 9.33 L 60.999 9.52 C 60.686 10.033 60.283 10.407 59.79 10.64 C 59.296 10.873 58.643 10.99 57.829 10.99 C 57.423 10.99 57.033 10.93 56.659 10.81 C 56.286 10.683 55.92 10.48 55.56 10.2 C 55.193 9.913 54.903 9.493 54.689 8.94 C 54.476 8.387 54.369 7.727 54.369 6.96 C 54.369 6.02 54.663 5.23 55.249 4.59 C 55.829 3.95 56.636 3.63 57.67 3.63 C 58.803 3.63 59.646 3.947 60.2 4.58 C 60.753 5.213 61.029 6.01 61.029 6.97 Z M 55.909 6.48 L 59.459 6.48 C 59.4 5.713 59.236 5.127 58.97 4.72 C 58.709 4.313 58.256 4.11 57.61 4.11 C 57.236 4.11 56.876 4.33 56.529 4.77 C 56.183 5.203 55.976 5.773 55.909 6.48 Z M 64.947 10.51 C 65.247 10.51 65.577 10.413 65.937 10.22 C 66.291 10.027 66.467 9.74 66.467 9.36 C 66.467 8.74 65.834 8.207 64.567 7.76 C 64.254 7.653 64.001 7.55 63.807 7.45 C 63.607 7.357 63.391 7.223 63.157 7.05 C 62.924 6.883 62.747 6.677 62.627 6.43 C 62.514 6.183 62.457 5.897 62.457 5.57 C 62.457 4.97 62.674 4.497 63.107 4.15 C 63.547 3.803 64.077 3.63 64.697 3.63 C 65.057 3.63 65.427 3.71 65.807 3.87 C 66.187 4.03 66.404 4.11 66.457 4.11 C 66.584 4.11 66.647 4.003 66.647 3.79 L 67.017 3.79 L 67.017 5.71 L 66.657 5.71 C 66.597 5.263 66.384 4.883 66.017 4.57 C 65.644 4.263 65.217 4.11 64.737 4.11 C 64.397 4.11 64.114 4.19 63.887 4.35 C 63.654 4.51 63.537 4.73 63.537 5.01 C 63.537 5.17 63.571 5.317 63.637 5.45 C 63.704 5.583 63.767 5.69 63.827 5.77 C 63.894 5.85 64.014 5.937 64.187 6.03 C 64.367 6.123 64.501 6.19 64.587 6.23 C 64.681 6.27 64.847 6.33 65.087 6.41 C 65.327 6.497 65.491 6.557 65.577 6.59 C 66.131 6.803 66.604 7.103 66.997 7.49 C 67.391 7.883 67.587 8.337 67.587 8.85 C 67.587 9.497 67.327 10.017 66.807 10.41 C 66.281 10.797 65.617 10.99 64.817 10.99 C 64.437 10.99 64.064 10.9 63.697 10.72 C 63.337 10.54 63.137 10.45 63.097 10.45 C 63.031 10.45 62.954 10.49 62.867 10.57 C 62.781 10.657 62.737 10.743 62.737 10.83 L 62.357 10.83 L 62.357 8.57 L 62.707 8.57 C 62.781 9.117 63.034 9.577 63.467 9.95 C 63.901 10.323 64.394 10.51 64.947 10.51 Z M 72.067 10.83 L 68.617 10.83 L 68.617 10.49 C 69.191 10.49 69.524 10.383 69.617 10.17 L 69.617 4.77 C 68.957 4.717 68.624 4.69 68.617 4.69 L 68.617 4.32 C 68.817 4.32 69.214 4.203 69.807 3.97 C 70.401 3.743 70.817 3.63 71.057 3.63 L 71.057 10.17 C 71.157 10.383 71.494 10.49 72.067 10.49 L 72.067 10.83 Z M 70.297 2.61 C 70.057 2.61 69.851 2.52 69.677 2.34 C 69.504 2.167 69.417 1.94 69.417 1.66 C 69.417 1.413 69.494 1.2 69.647 1.02 C 69.801 0.84 70.001 0.75 70.247 0.75 C 70.481 0.75 70.687 0.84 70.867 1.02 C 71.047 1.2 71.137 1.43 71.137 1.71 C 71.137 1.957 71.057 2.167 70.897 2.34 C 70.737 2.52 70.537 2.61 70.297 2.61 Z M 76.355 10.83 L 72.905 10.83 L 72.905 10.49 C 73.479 10.49 73.812 10.383 73.905 10.17 L 73.905 4.77 C 73.245 4.717 72.912 4.69 72.905 4.69 L 72.905 4.32 C 73.105 4.32 73.502 4.203 74.095 3.97 C 74.689 3.743 75.105 3.63 75.345 3.63 L 75.345 4.37 C 75.925 3.877 76.562 3.63 77.255 3.63 C 78.249 3.63 78.965 3.813 79.405 4.18 C 79.845 4.547 80.065 5.12 80.065 5.9 L 80.065 10.17 C 80.165 10.383 80.502 10.49 81.075 10.49 L 81.075 10.83 L 77.625 10.83 L 77.625 10.49 C 78.199 10.49 78.532 10.383 78.625 10.17 L 78.625 5.79 C 78.625 4.71 78.135 4.17 77.155 4.17 C 76.482 4.17 75.879 4.407 75.345 4.88 L 75.345 10.17 C 75.445 10.383 75.782 10.49 76.355 10.49 L 76.355 10.83 Z M 85.299 10.83 L 81.849 10.83 L 81.849 10.49 C 82.423 10.49 82.756 10.383 82.849 10.17 L 82.849 4.77 C 82.189 4.717 81.856 4.69 81.849 4.69 L 81.849 4.32 C 82.049 4.32 82.446 4.203 83.039 3.97 C 83.633 3.743 84.049 3.63 84.289 3.63 L 84.289 4.37 C 84.869 3.877 85.506 3.63 86.199 3.63 C 87.193 3.63 87.909 3.813 88.349 4.18 C 88.789 4.547 89.009 5.12 89.009 5.9 L 89.009 10.17 C 89.109 10.383 89.446 10.49 90.019 10.49 L 90.019 10.83 L 86.569 10.83 L 86.569 10.49 C 87.143 10.49 87.476 10.383 87.569 10.17 L 87.569 5.79 C 87.569 4.71 87.079 4.17 86.099 4.17 C 85.426 4.17 84.823 4.407 84.289 4.88 L 84.289 10.17 C 84.389 10.383 84.726 10.49 85.299 10.49 L 85.299 10.83 Z M 94.263 8.29 C 93.856 8.29 93.543 8.133 93.323 7.82 C 93.103 7.513 92.993 7.137 92.993 6.69 C 92.993 5.983 93.236 5.33 93.723 4.73 C 94.21 4.137 94.72 3.84 95.253 3.84 C 95.88 3.84 96.28 4.18 96.453 4.86 L 96.673 4.01 L 97.523 4.01 L 96.583 7.58 C 96.57 7.6 96.563 7.633 96.563 7.68 C 96.563 7.84 96.686 7.92 96.933 7.92 C 97.286 7.92 97.6 7.74 97.873 7.38 C 98.153 7.027 98.346 6.667 98.453 6.3 C 98.56 5.94 98.613 5.647 98.613 5.42 C 98.613 4.72 98.53 4.127 98.363 3.64 C 98.196 3.153 97.963 2.797 97.663 2.57 C 97.356 2.35 97.053 2.197 96.753 2.11 C 96.446 2.023 96.096 1.98 95.703 1.98 C 94.623 1.98 93.68 2.36 92.873 3.12 C 92.073 3.873 91.673 4.907 91.673 6.22 C 91.673 7.067 91.896 7.817 92.343 8.47 C 92.79 9.123 93.313 9.603 93.913 9.91 C 94.506 10.217 95.103 10.37 95.703 10.37 C 96.183 10.37 96.633 10.293 97.053 10.14 C 97.473 9.993 97.806 9.837 98.053 9.67 C 98.3 9.503 98.543 9.277 98.783 8.99 C 99.023 8.703 99.173 8.503 99.233 8.39 C 99.3 8.277 99.393 8.12 99.513 7.92 L 99.763 8.05 C 99.37 8.943 98.853 9.657 98.213 10.19 C 97.573 10.723 96.703 10.99 95.603 10.99 C 94.443 10.99 93.386 10.543 92.433 9.65 C 91.473 8.763 90.993 7.643 90.993 6.29 C 90.993 4.77 91.453 3.56 92.373 2.66 C 93.293 1.76 94.38 1.31 95.633 1.31 C 96.68 1.31 97.55 1.653 98.243 2.34 C 98.936 3.027 99.283 4.01 99.283 5.29 C 99.283 5.583 99.226 5.903 99.113 6.25 C 99.006 6.597 98.846 6.943 98.633 7.29 C 98.426 7.637 98.14 7.923 97.773 8.15 C 97.406 8.377 97 8.49 96.553 8.49 C 96.36 8.49 96.176 8.427 96.003 8.3 C 95.836 8.173 95.753 7.967 95.753 7.68 C 95.753 7.573 95.756 7.487 95.763 7.42 C 95.296 8 94.796 8.29 94.263 8.29 Z M 96.133 5.42 C 96.133 5.113 96.063 4.853 95.923 4.64 C 95.783 4.427 95.58 4.32 95.313 4.32 C 94.92 4.32 94.553 4.55 94.213 5.01 C 93.873 5.463 93.703 5.963 93.703 6.51 C 93.703 6.817 93.773 7.077 93.913 7.29 C 94.046 7.497 94.246 7.6 94.513 7.6 C 94.913 7.6 95.283 7.377 95.623 6.93 C 95.963 6.477 96.133 5.973 96.133 5.42 Z M 107.539 3.63 L 107.539 10.37 C 107.539 11.463 107.276 12.347 106.749 13.02 C 106.222 13.693 105.452 14.03 104.439 14.03 C 103.532 14.03 102.802 13.877 102.249 13.57 C 101.702 13.257 101.429 12.93 101.429 12.59 C 101.429 12.343 101.492 12.15 101.619 12.01 C 101.746 11.863 101.912 11.79 102.119 11.79 C 102.312 11.79 102.479 11.837 102.619 11.93 C 102.766 12.03 102.839 12.17 102.839 12.35 C 102.839 12.69 102.706 12.913 102.439 13.02 C 102.726 13.307 103.339 13.45 104.279 13.45 C 105.379 13.45 105.982 12.47 106.089 10.51 C 105.596 10.83 104.966 10.99 104.199 10.99 C 103.846 10.99 103.496 10.933 103.149 10.82 C 102.802 10.707 102.456 10.523 102.109 10.27 C 101.762 10.017 101.479 9.637 101.259 9.13 C 101.039 8.623 100.929 8.027 100.929 7.34 C 100.929 6.147 101.262 5.23 101.929 4.59 C 102.596 3.95 103.469 3.63 104.549 3.63 C 105.222 3.63 105.809 3.8 106.309 4.14 C 106.856 3.8 107.266 3.63 107.539 3.63 Z M 106.099 9.98 L 106.099 9.79 L 106.099 4.51 C 105.719 4.283 105.236 4.17 104.649 4.17 C 104.062 4.17 103.549 4.45 103.109 5.01 C 102.669 5.57 102.449 6.347 102.449 7.34 C 102.449 8.28 102.626 9.033 102.979 9.6 C 103.332 10.167 103.792 10.45 104.359 10.45 C 105.059 10.45 105.639 10.293 106.099 9.98 Z M 112.579 10.83 L 109.129 10.83 L 109.129 10.49 C 109.702 10.49 110.036 10.383 110.129 10.17 L 110.129 4.77 C 109.469 4.717 109.136 4.69 109.129 4.69 L 109.129 4.32 C 109.329 4.32 109.726 4.203 110.319 3.97 C 110.912 3.743 111.329 3.63 111.569 3.63 L 111.569 4.35 C 112.136 3.87 112.729 3.63 113.349 3.63 C 114.629 3.63 115.449 3.94 115.809 4.56 C 116.409 3.94 117.076 3.63 117.809 3.63 C 119.602 3.63 120.499 4.237 120.499 5.45 L 120.499 10.17 C 120.599 10.383 120.936 10.49 121.509 10.49 L 121.509 10.83 L 118.049 10.83 L 118.049 10.49 C 118.629 10.49 118.966 10.383 119.059 10.17 L 119.059 6.05 C 119.059 5.357 118.959 4.87 118.759 4.59 C 118.552 4.31 118.206 4.17 117.719 4.17 C 117.086 4.17 116.502 4.427 115.969 4.94 C 116.016 5.08 116.039 5.25 116.039 5.45 L 116.039 10.17 C 116.132 10.383 116.469 10.49 117.049 10.49 L 117.049 10.83 L 113.589 10.83 L 113.589 10.49 C 114.162 10.49 114.499 10.383 114.599 10.17 L 114.599 6.05 C 114.599 5.357 114.496 4.87 114.289 4.59 C 114.089 4.31 113.742 4.17 113.249 4.17 C 112.642 4.17 112.082 4.407 111.569 4.88 L 111.569 10.17 C 111.669 10.383 112.006 10.49 112.579 10.49 L 112.579 10.83 Z M 123.587 4.97 C 123.74 4.97 123.87 5.023 123.977 5.13 C 124.09 5.237 124.147 5.403 124.147 5.63 C 124.147 5.81 124.077 5.95 123.937 6.05 C 123.79 6.143 123.62 6.19 123.427 6.19 C 123.227 6.19 123.064 6.117 122.937 5.97 C 122.804 5.83 122.737 5.637 122.737 5.39 C 122.737 4.837 122.967 4.403 123.427 4.09 C 123.887 3.783 124.537 3.63 125.377 3.63 C 126.37 3.63 127.1 3.877 127.567 4.37 C 128.027 4.857 128.257 5.507 128.257 6.32 L 128.257 9.49 C 128.257 9.83 128.314 10.08 128.427 10.24 C 128.54 10.4 128.677 10.48 128.837 10.48 C 128.977 10.48 129.104 10.443 129.217 10.37 C 129.324 10.29 129.377 10.197 129.377 10.09 L 129.667 10.09 C 129.667 10.39 129.557 10.61 129.337 10.75 C 129.124 10.89 128.744 10.96 128.197 10.96 C 127.664 10.96 127.284 10.74 127.057 10.3 C 126.43 10.76 125.647 10.99 124.707 10.99 C 123.107 10.99 122.307 10.34 122.307 9.04 C 122.307 8.76 122.407 8.51 122.607 8.29 C 122.8 8.063 123.084 7.877 123.457 7.73 C 123.83 7.577 124.184 7.457 124.517 7.37 C 124.85 7.277 125.264 7.173 125.757 7.06 C 126.25 6.947 126.604 6.86 126.817 6.8 C 126.817 5.9 126.7 5.243 126.467 4.83 C 126.234 4.417 125.817 4.21 125.217 4.21 C 124.257 4.21 123.714 4.463 123.587 4.97 Z M 126.917 9.9 C 126.85 9.667 126.817 9.38 126.817 9.04 L 126.817 7.15 C 126.704 7.19 126.504 7.25 126.217 7.33 C 125.937 7.403 125.71 7.467 125.537 7.52 C 125.357 7.573 125.144 7.653 124.897 7.76 C 124.657 7.867 124.467 7.973 124.327 8.08 C 124.187 8.187 124.064 8.327 123.957 8.5 C 123.85 8.68 123.797 8.87 123.797 9.07 C 123.797 9.583 123.897 9.94 124.097 10.14 C 124.29 10.347 124.584 10.45 124.977 10.45 C 125.684 10.45 126.33 10.267 126.917 9.9 Z M 133.475 10.83 L 130.025 10.83 L 130.025 10.49 C 130.598 10.49 130.931 10.383 131.025 10.17 L 131.025 4.77 C 130.365 4.717 130.031 4.69 130.025 4.69 L 130.025 4.32 C 130.225 4.32 130.621 4.203 131.215 3.97 C 131.808 3.743 132.225 3.63 132.465 3.63 L 132.465 10.17 C 132.565 10.383 132.901 10.49 133.475 10.49 L 133.475 10.83 Z M 131.705 2.61 C 131.465 2.61 131.258 2.52 131.085 2.34 C 130.911 2.167 130.825 1.94 130.825 1.66 C 130.825 1.413 130.901 1.2 131.055 1.02 C 131.208 0.84 131.408 0.75 131.655 0.75 C 131.888 0.75 132.095 0.84 132.275 1.02 C 132.455 1.2 132.545 1.43 132.545 1.71 C 132.545 1.957 132.465 2.167 132.305 2.34 C 132.145 2.52 131.945 2.61 131.705 2.61 Z M 137.603 10.83 L 134.153 10.83 L 134.153 10.49 C 134.726 10.49 135.059 10.383 135.153 10.17 L 135.153 1.89 C 134.493 1.837 134.159 1.81 134.153 1.81 L 134.153 1.44 C 134.353 1.44 134.749 1.323 135.343 1.09 C 135.936 0.863 136.353 0.75 136.593 0.75 L 136.593 10.17 C 136.693 10.383 137.029 10.49 137.603 10.49 L 137.603 10.83 Z M 139.041 10.69 C 138.841 10.497 138.741 10.27 138.741 10.01 C 138.741 9.757 138.827 9.527 139.001 9.32 C 139.181 9.113 139.407 9.01 139.681 9.01 C 139.927 9.01 140.154 9.103 140.361 9.29 C 140.561 9.483 140.661 9.71 140.661 9.97 C 140.661 10.223 140.571 10.457 140.391 10.67 C 140.211 10.883 139.981 10.99 139.701 10.99 C 139.454 10.99 139.234 10.89 139.041 10.69 Z M 145.811 4.11 C 145.151 4.11 144.617 4.36 144.211 4.86 C 143.804 5.36 143.601 6.037 143.601 6.89 C 143.601 7.797 143.854 8.607 144.361 9.32 C 144.867 10.027 145.441 10.38 146.081 10.38 C 147.014 10.38 147.761 10.03 148.321 9.33 L 148.711 9.52 C 148.397 10.033 147.994 10.407 147.501 10.64 C 147.007 10.873 146.354 10.99 145.541 10.99 C 145.134 10.99 144.744 10.93 144.371 10.81 C 143.997 10.683 143.631 10.48 143.271 10.2 C 142.904 9.913 142.614 9.493 142.401 8.94 C 142.187 8.387 142.081 7.727 142.081 6.96 C 142.081 6.033 142.411 5.247 143.071 4.6 C 143.724 3.953 144.584 3.63 145.651 3.63 C 146.497 3.63 147.147 3.773 147.601 4.06 C 148.061 4.347 148.291 4.77 148.291 5.33 C 148.291 5.57 148.227 5.763 148.101 5.91 C 147.974 6.057 147.807 6.13 147.601 6.13 C 147.414 6.13 147.247 6.08 147.101 5.98 C 146.954 5.887 146.881 5.75 146.881 5.57 C 146.881 5.343 146.937 5.177 147.051 5.07 C 147.164 4.963 147.294 4.91 147.441 4.91 C 147.307 4.377 146.764 4.11 145.811 4.11 Z M 151.285 6.86 C 151.285 8.08 151.518 8.993 151.985 9.6 C 152.445 10.207 153.038 10.51 153.765 10.51 C 154.338 10.51 154.801 10.25 155.155 9.73 C 155.508 9.217 155.685 8.553 155.685 7.74 C 155.685 5.333 154.848 4.13 153.175 4.13 C 152.608 4.13 152.151 4.397 151.805 4.93 C 151.458 5.47 151.285 6.113 151.285 6.86 Z M 153.555 10.99 C 152.361 10.99 151.428 10.64 150.755 9.94 C 150.081 9.24 149.745 8.32 149.745 7.18 C 149.745 6.147 150.051 5.297 150.665 4.63 C 151.271 3.963 152.198 3.63 153.445 3.63 C 154.705 3.63 155.648 3.963 156.275 4.63 C 156.908 5.297 157.225 6.21 157.225 7.37 C 157.225 8.41 156.921 9.273 156.315 9.96 C 155.715 10.647 154.795 10.99 153.555 10.99 Z M 161.795 10.83 L 158.345 10.83 L 158.345 10.49 C 158.918 10.49 159.251 10.383 159.345 10.17 L 159.345 4.77 C 158.685 4.717 158.351 4.69 158.345 4.69 L 158.345 4.32 C 158.545 4.32 158.941 4.203 159.535 3.97 C 160.128 3.743 160.545 3.63 160.785 3.63 L 160.785 4.35 C 161.351 3.87 161.945 3.63 162.565 3.63 C 163.845 3.63 164.665 3.94 165.025 4.56 C 165.625 3.94 166.291 3.63 167.025 3.63 C 168.818 3.63 169.715 4.237 169.715 5.45 L 169.715 10.17 C 169.815 10.383 170.151 10.49 170.725 10.49 L 170.725 10.83 L 167.265 10.83 L 167.265 10.49 C 167.845 10.49 168.181 10.383 168.275 10.17 L 168.275 6.05 C 168.275 5.357 168.175 4.87 167.975 4.59 C 167.768 4.31 167.421 4.17 166.935 4.17 C 166.301 4.17 165.718 4.427 165.185 4.94 C 165.231 5.08 165.255 5.25 165.255 5.45 L 165.255 10.17 C 165.348 10.383 165.685 10.49 166.265 10.49 L 166.265 10.83 L 162.805 10.83 L 162.805 10.49 C 163.378 10.49 163.715 10.383 163.815 10.17 L 163.815 6.05 C 163.815 5.357 163.711 4.87 163.505 4.59 C 163.305 4.31 162.958 4.17 162.465 4.17 C 161.858 4.17 161.298 4.407 160.785 4.88 L 160.785 10.17 C 160.885 10.383 161.221 10.49 161.795 10.49 L 161.795 10.83 Z"/>
</svg>