<svg viewBox="0 0 145 35" xmlns="http://www.w3.org/2000/svg">
  <g transform="matrix(0.009223, 0, 0, 0.009223, -0.202906, 20.956738)">
    <path transform="matrix(1,0,0,1,-64,0)" d="M 3368 -1414 Q 3368 -1207 3136 -1057 Q 2930 -923 2711 -923 Q 2683 -923 2626 -935 Q 2569 -948 2539 -948 Q 2325 -784 2018 -784 Q 1983 -784 1942 -785 Q 1573 -396 1238 -221 Q 1451 -147 1543 -147 Q 1580 -147 1680 -162 Q 1780 -177 1784 -177 Q 1785 -177 1785 -177 Q 1766 -169 1607 -132 Q 1621 -133 1646 -131 Q 1672 -129 1684 -129 Q 1808 -129 1942 -207 Q 2002 -244 2162 -369 Q 2166 -363 2166 -359 Q 2166 -344 1914 -156 Q 1966 -156 2041 -204 Q 2098 -245 2157 -285 Q 2157 -298 2181 -294 Q 1957 -49 1552 -49 Q 1417 -49 1166 -163 L 1132 -163 Q 1064 -130 969 -102 Q 845 -63 744 -56 Q 723 -55 503 -55 Q 358 -55 249 -86 Q 86 -133 86 -236 Q 86 -402 432 -402 Q 662 -402 1029 -292 Q 1077 -275 1175 -245 Q 1176 -245 1181 -245 Q 1208 -245 1322 -344 Q 1417 -426 1638 -677 Q 1666 -707 1715 -770 L 1711 -776 Q 1663 -776 1566 -763 Q 1469 -751 1419 -751 Q 960 -751 960 -1064 Q 960 -1339 1276 -1505 Q 1537 -1643 1840 -1643 Q 1875 -1643 1944 -1631 Q 2013 -1620 2048 -1620 Q 2078 -1620 2137 -1627 Q 2197 -1634 2227 -1634 Q 2381 -1634 2466 -1589 Q 2500 -1571 2519 -1571 Q 2548 -1571 2607 -1590 Q 2666 -1610 2696 -1610 Q 2709 -1610 2735 -1607 Q 2762 -1604 2775 -1604 Q 2774 -1604 2840 -1616 Q 3002 -1643 3060 -1643 Q 3368 -1643 3368 -1414 M 1849 -217 L 1843 -212 L 1840 -215 Q 1840 -219 1843 -221 Q 1848 -220 1849 -217 M 1834 -208 Q 1831 -206 1829 -205 Q 1827 -204 1823 -203 Q 1822 -204 1822 -207 L 1822 -211 Q 1822 -214 1824 -214 Q 1826 -214 1829 -212 Q 1832 -211 1834 -208 M 2849 -1511 L 2849 -1515 Q 2848 -1521 2844 -1521 L 2843 -1521 Q 2838 -1521 2838 -1515 L 2838 -1511 Q 2838 -1507 2843 -1505 L 2844 -1505 Q 2849 -1507 2849 -1511 M 2795 -1571 Q 2795 -1577 2786 -1577 L 2784 -1577 Q 2775 -1577 2775 -1571 Q 2780 -1567 2786 -1564 Q 2789 -1567 2795 -1571 M 2849 -1472 Q 2848 -1475 2843 -1482 Q 2838 -1482 2838 -1473 L 2838 -1472 Q 2838 -1462 2843 -1462 Q 2847 -1468 2849 -1472 M 2840 -1438 L 2840 -1440 Q 2839 -1448 2835 -1448 L 2834 -1448 Q 2828 -1448 2828 -1440 L 2828 -1438 Q 2828 -1432 2832 -1432 L 2835 -1432 Q 2840 -1434 2840 -1438 M 2727 -1586 Q 2723 -1586 2717 -1587 Q 2711 -1589 2709 -1589 L 2684 -1589 Q 2653 -1589 2606 -1578 Q 2546 -1567 2546 -1548 Q 2546 -1548 2560 -1531 Q 2568 -1521 2580 -1521 Q 2598 -1521 2727 -1586 M 2827 -1503 Q 2827 -1537 2788 -1537 Q 2714 -1537 2614 -1472 L 2614 -1469 Q 2614 -1452 2623 -1417 Q 2632 -1383 2632 -1365 Q 2632 -1270 2530 -1163 Q 2628 -1199 2723 -1300 Q 2827 -1409 2827 -1503 M 3349 -1419 Q 3349 -1521 3258 -1580 Q 3181 -1629 3073 -1629 Q 2890 -1629 2809 -1580 Q 2828 -1571 2868 -1537 L 2868 -1494 Q 2868 -1370 2705 -1249 Q 2651 -1207 2542 -1132 Q 2435 -1065 2266 -973 Q 2130 -914 1985 -844 L 1985 -835 Q 2030 -826 2076 -826 Q 2194 -826 2313 -856 Q 2461 -896 2515 -966 L 2515 -973 Q 2515 -982 2507 -1001 Q 2499 -1020 2499 -1030 Q 2499 -1080 2539 -1080 Q 2573 -1080 2573 -1030 Q 2569 -1014 2555 -973 Q 2586 -957 2677 -957 Q 2891 -957 3105 -1081 Q 3349 -1223 3349 -1419 M 2548 -1505 Q 2533 -1530 2512 -1530 Q 2487 -1530 2406 -1481 Q 2325 -1432 2325 -1417 Q 2325 -1404 2336 -1384 Q 2347 -1365 2358 -1365 Q 2429 -1408 2548 -1505 M 2481 -1546 Q 2451 -1595 2309 -1595 L 2147 -1595 L 2123 -1586 Q 2223 -1525 2309 -1439 L 2481 -1546 M 2614 -1365 L 2614 -1387 Q 2614 -1457 2580 -1457 Q 2451 -1380 2383 -1301 Q 2408 -1220 2408 -1177 Q 2408 -1163 2392 -1163 Q 2386 -1164 2383 -1168 L 2358 -1261 L 2352 -1267 Q 2248 -1175 2162 -1064 L 2196 -1064 Q 2341 -1064 2468 -1141 Q 2614 -1229 2614 -1365 M 2548 -1007 L 2548 -1068 Q 2521 -1068 2521 -1034 Q 2521 -996 2537 -996 L 2539 -996 L 2548 -1007 M 2383 -1069 L 2383 -1072 Q 2382 -1080 2378 -1080 L 2377 -1080 Q 2371 -1080 2371 -1072 L 2371 -1069 Q 2371 -1064 2377 -1064 L 2378 -1064 Q 2383 -1065 2383 -1069 M 2365 -1060 L 2365 -1063 Q 2364 -1070 2360 -1070 L 2358 -1070 Q 2353 -1070 2352 -1063 L 2352 -1060 Q 2353 -1055 2357 -1055 L 2360 -1055 Q 2365 -1056 2365 -1060 M 2328 -1340 L 2295 -1389 Q 2244 -1380 2039 -1104 Q 2037 -1099 2033 -1089 Q 2129 -1176 2328 -1340 M 2343 -1055 L 2334 -1055 Q 2356 -1055 2138 -1030 Q 2112 -1003 2064 -942 Q 2199 -978 2343 -1055 M 2279 -1414 Q 2261 -1455 2175 -1517 Q 2090 -1580 2048 -1580 Q 2013 -1580 1910 -1537 Q 1607 -1410 1607 -1159 Q 1607 -1081 1662 -991 Q 1723 -889 1794 -889 Q 1806 -889 1951 -1095 Q 1892 -1163 1892 -1211 Q 1892 -1285 1942 -1285 Q 1917 -1245 1917 -1208 Q 1917 -1120 1966 -1120 Q 2143 -1322 2279 -1414 M 2138 -922 L 2138 -925 Q 2137 -932 2132 -932 L 2130 -932 Q 2127 -932 2125 -925 L 2125 -922 Q 2127 -917 2130 -917 L 2133 -917 Q 2137 -918 2138 -922 M 2119 -913 L 2119 -915 Q 2119 -923 2114 -923 L 2112 -923 Q 2108 -923 2107 -915 L 2107 -913 Q 2108 -908 2112 -908 L 2114 -908 Q 2119 -909 2119 -913 M 2095 -906 L 2095 -909 Q 2094 -917 2089 -917 L 2088 -917 Q 2084 -917 2082 -909 L 2082 -906 Q 2084 -899 2088 -899 L 2089 -899 Q 2094 -899 2095 -906 M 2080 -897 L 2080 -901 Q 2078 -908 2074 -908 L 2073 -908 Q 2068 -908 2067 -901 L 2067 -897 Q 2068 -893 2072 -892 L 2074 -892 Q 2080 -893 2080 -897 M 2058 -892 Q 2055 -896 2052 -896 L 2048 -892 Q 2050 -888 2052 -887 L 2058 -892 M 2033 -883 Q 2033 -889 2028 -889 Q 2025 -888 2024 -884 L 2024 -883 Q 2025 -879 2028 -878 L 2033 -883 M 1976 -1604 Q 1908 -1620 1819 -1620 Q 1595 -1620 1399 -1500 Q 1172 -1362 1172 -1154 Q 1172 -883 1604 -883 L 1720 -883 Q 1589 -1009 1589 -1156 Q 1589 -1320 1706 -1431 Q 1772 -1494 1966 -1595 Q 1970 -1597 1976 -1604 M 1738 -801 L 1715 -801 Q 1685 -801 1626 -796 Q 1567 -792 1537 -792 Q 1371 -792 1253 -857 Q 1107 -938 1107 -1091 Q 1107 -1349 1435 -1546 L 1426 -1546 Q 984 -1335 984 -1046 Q 984 -767 1423 -767 Q 1557 -767 1738 -801 M 863 -273 Q 861 -276 852 -276 L 848 -276 Q 841 -276 836 -272 Q 836 -263 849 -262 Q 863 -262 863 -273 M 824 -280 Q 820 -281 815 -283 L 792 -283 Q 779 -283 763 -279 Q 770 -273 787 -273 L 796 -273 Q 817 -273 822 -279 Q 824 -279 824 -280 M 750 -288 Q 749 -292 742 -292 L 737 -292 Q 731 -290 731 -288 Q 733 -283 740 -283 Q 750 -284 750 -288 M 905 -132 Q 902 -134 897 -135 L 895 -135 Q 889 -134 887 -132 Q 891 -128 896 -126 Q 901 -128 905 -132 M 1068 -188 Q 1035 -219 884 -242 Q 759 -260 681 -260 Q 577 -260 577 -178 L 577 -159 Q 577 -138 718 -138 L 797 -138 Q 996 -138 1068 -188 M 871 -122 L 616 -122 Q 635 -98 715 -98 L 758 -98 Q 777 -98 871 -122 M 561 -236 L 552 -236 Q 509 -236 509 -197 Q 509 -175 537 -163 L 561 -236 M 880 -310 Q 702 -383 430 -383 Q 116 -383 116 -249 Q 116 -154 268 -109 Q 372 -79 507 -79 Q 524 -79 559 -81 Q 594 -83 611 -83 Q 591 -89 542 -134 Q 494 -180 494 -197 Q 494 -220 518 -236 Q 629 -310 699 -310 L 880 -310 Z"/>
    <path transform="matrix(1,0,0,1,2125,0)" d="M 663 -288 Q 511 -143 448 -99 Q 309 0 181 0 Q 118 0 57 -36 Q -25 -84 -25 -125 Q -25 -268 -16 -301 Q 0 -331 21 -371 Q 27 -384 40 -412 Q 95 -524 233 -614 Q 372 -704 493 -704 Q 549 -704 549 -704 Q 582 -701 604 -661 Q 622 -627 622 -589 Q 622 -440 442 -337 Q 351 -284 138 -218 Q 122 -175 122 -135 Q 122 -64 208 -64 Q 324 -64 449 -138 Q 499 -168 654 -288 L 663 -288 M 559 -606 Q 559 -631 530 -656 L 491 -656 Q 433 -656 353 -605 Q 267 -550 267 -497 Q 285 -500 285 -500 Q 420 -560 550 -573 Q 559 -583 559 -606 M 518 -584 Q 518 -593 516 -606 Q 515 -620 515 -627 Q 505 -640 478 -640 Q 440 -640 417 -618 Q 274 -488 188 -285 L 188 -256 Q 263 -256 387 -368 Q 518 -488 518 -584 M 383 -98 L 383 -128 Q 348 -128 286 -89 Q 191 -33 188 -30 L 188 0 Q 267 0 383 -98 Z"/>
    <path transform="matrix(1,0,0,1,2778,0)" d="M 715 -285 Q 715 -270 699 -270 L 697 -267 L 693 -267 L 690 -270 Q 697 -275 708 -285 L 715 -285 M 414 -555 Q 411 -551 408 -550 Q 405 -551 405 -555 L 405 -556 Q 406 -561 408 -561 L 409 -561 Q 414 -560 414 -555 M 675 -251 Q 594 -153 421 -75 Q 253 0 127 0 Q -61 0 -61 -141 Q -61 -203 -14 -261 Q 33 -320 95 -320 Q 105 -320 121 -317 Q 137 -315 145 -315 L 145 -287 Q 145 -250 78 -199 Q 12 -149 12 -106 Q 12 -40 74 -40 Q 220 -40 323 -206 Q 340 -234 454 -498 L 454 -521 L 438 -521 Q 336 -443 174 -344 L 169 -360 Q 195 -383 248 -432 Q 247 -384 267 -384 Q 291 -384 372 -450 Q 454 -517 454 -537 Q 454 -555 439 -553 Q 449 -560 550 -637 Q 636 -704 654 -704 Q 675 -704 675 -689 Q 675 -648 616 -610 Q 535 -557 528 -547 Q 528 -515 525 -442 Q 518 -316 505 -271 Q 486 -206 414 -122 L 414 -107 Q 458 -108 666 -251 L 675 -251 Z"/>
    <path transform="matrix(1,0,0,1,3494,0)" d="M 3714 -1638 Q 3714 -1492 3520 -1343 Q 3366 -1223 3189 -1163 Q 3136 -1145 3028 -1107 L 2668 -650 Q 2516 -456 2426 -212 L 2426 -193 L 2433 -193 Q 2438 -193 2476 -203 Q 2625 -242 2752 -353 L 2761 -353 Q 2759 -301 2581 -197 Q 2384 -83 2356 -31 L 2211 -31 Q 2202 -59 2153 -59 L 1962 -59 Q 1938 -59 1938 -89 Q 1938 -107 1948 -107 L 2123 -107 L 2186 -147 L 2186 -150 Q 2186 -159 2110 -181 Q 2025 -206 1874 -297 Q 1389 79 856 79 Q 827 79 769 76 Q 711 74 684 74 Q 684 346 919 494 Q 1117 616 1408 616 Q 1615 616 1788 560 Q 2004 488 2098 346 Q 2132 296 2132 224 Q 2132 165 2089 98 L 2104 98 Q 2132 98 2153 156 Q 2171 204 2171 240 Q 2171 397 1946 521 Q 1754 625 1573 635 Q 1383 645 1356 645 Q 1113 638 927 533 Q 707 408 668 190 L 647 70 L 638 64 Q 418 25 286 -120 Q 150 -271 150 -491 L 150 -586 Q 150 -609 175 -685 Q 254 -934 507 -1095 Q 775 -1267 1116 -1267 Q 1376 -1267 1634 -1125 L 1643 -1125 Q 1653 -1136 1663 -1154 Q 1696 -1214 1748 -1258 Q 1774 -1279 1815 -1297 Q 1824 -1300 1843 -1306 L 1843 -1310 Q 1843 -1337 1824 -1390 Q 1806 -1443 1806 -1472 Q 1806 -1632 1914 -1722 Q 2015 -1806 2177 -1806 Q 2288 -1806 2375 -1762 Q 2485 -1706 2485 -1607 L 2476 -1607 Q 2423 -1772 2190 -1772 Q 2041 -1772 1948 -1696 Q 1849 -1612 1849 -1466 Q 1849 -1353 1892 -1313 Q 2032 -1297 2162 -1163 Q 2177 -1143 2211 -1107 Q 2253 -1068 2451 -1068 Q 2503 -1132 2696 -1319 Q 3163 -1772 3526 -1772 L 3603 -1772 Q 3657 -1772 3687 -1729 Q 3714 -1692 3714 -1638 M 3689 -1638 Q 3689 -1754 3533 -1754 Q 3430 -1754 3331 -1723 Q 3213 -1685 3166 -1616 Q 3154 -1598 3128 -1564 Q 3163 -1578 3289 -1664 Q 3375 -1724 3472 -1724 Q 3474 -1724 3480 -1722 Q 3487 -1720 3490 -1720 L 3506 -1702 Q 3327 -1702 3300 -1647 L 3316 -1647 Q 3231 -1619 3108 -1440 Q 3026 -1307 2944 -1175 Q 2933 -1155 2911 -1116 L 2935 -1116 Q 3177 -1383 3549 -1684 L 3549 -1693 Q 3549 -1710 3534 -1709 L 3603 -1720 Q 3500 -1629 3282 -1392 Q 3213 -1317 3076 -1163 L 3085 -1163 Q 3137 -1163 3310 -1263 Q 3448 -1341 3530 -1401 Q 3689 -1517 3689 -1638 M 3110 -1534 Q 3092 -1505 3051 -1453 Q 3073 -1478 3110 -1534 M 3071 -1564 Q 2951 -1494 2795 -1306 Q 2827 -1332 2892 -1382 Q 2789 -1280 2589 -1068 L 2632 -1068 Q 2693 -1068 2718 -1098 Q 2793 -1202 2947 -1408 L 2935 -1408 Q 2929 -1408 2922 -1405 Q 3017 -1485 3071 -1564 M 2903 -1072 Q 2901 -1083 2900 -1083 Q 2884 -1083 2884 -1061 Q 2884 -1059 2886 -1059 Q 2903 -1059 2903 -1072 M 2680 -1043 L 2573 -1043 L 2349 -774 Q 2354 -688 2374 -638 Q 2382 -617 2442 -586 L 2680 -1043 M 2426 -1043 Q 2396 -1043 2335 -1055 Q 2275 -1068 2245 -1068 L 2236 -1068 L 2227 -1059 Q 2219 -1072 2202 -1080 L 2196 -1080 Q 2209 -1048 2236 -1021 L 2236 -1059 L 2306 -901 Q 2310 -902 2349 -942 Q 2358 -968 2426 -1043 M 2252 -1011 L 2252 -1013 Q 2250 -1021 2246 -1021 L 2244 -1021 Q 2240 -1021 2239 -1013 L 2239 -1011 Q 2240 -1003 2244 -1003 L 2246 -1003 Q 2250 -1003 2252 -1011 M 2177 -1116 L 2177 -1125 Q 2065 -1261 1944 -1261 Q 1940 -1259 1933 -1258 Q 1956 -1227 2050 -1172 Q 2145 -1117 2177 -1116 M 1899 -1224 Q 1887 -1261 1867 -1261 Q 1781 -1261 1742 -1190 Q 1815 -1224 1899 -1224 M 2313 -650 L 2313 -740 L 2254 -681 L 2313 -650 M 2276 -869 Q 2274 -882 2261 -905 Q 2207 -994 2196 -1012 Q 2155 -1067 2104 -1098 Q 2029 -1143 1935 -1143 Q 1865 -1143 1806 -1117 Q 1732 -1086 1718 -1027 Q 1767 -930 1767 -849 Q 1767 -831 1762 -794 Q 1758 -758 1758 -740 Q 1788 -737 1946 -724 Q 2061 -715 2134 -715 L 2147 -715 L 2276 -869 M 2426 -552 L 2426 -561 Q 2420 -574 2377 -586 L 2377 -587 L 2375 -582 L 2371 -559 Q 2369 -531 2358 -448 Q 2356 -422 2356 -412 L 2356 -389 L 2426 -552 M 2334 -483 L 2334 -487 Q 2334 -494 2328 -500 Q 2326 -497 2325 -487 L 2325 -482 Q 2325 -468 2328 -464 Q 2334 -475 2334 -483 M 2322 -425 L 2322 -448 Q 2322 -434 2309 -396 Q 2296 -358 2297 -344 L 2295 -337 L 2297 -326 Q 2322 -335 2322 -425 M 2476 -163 L 2466 -163 Q 2401 -163 2392 -116 L 2395 -116 Q 2444 -116 2476 -163 M 1742 -849 L 1742 -880 Q 1742 -996 1693 -996 Q 1656 -919 1656 -731 Q 1716 -731 1733 -762 Q 1742 -781 1742 -849 M 2313 -546 L 2313 -604 Q 2267 -635 2227 -635 Q 2223 -635 1923 -331 L 1923 -326 Q 2032 -238 2227 -212 Q 2313 -398 2313 -546 M 2104 -659 Q 2043 -697 1862 -697 L 1797 -697 Q 1754 -697 1748 -693 Q 1699 -667 1699 -595 Q 1699 -556 1757 -472 Q 1815 -389 1849 -389 L 2104 -659 M 2186 -188 Q 2184 -190 2181 -190 L 2177 -188 Q 2180 -181 2184 -178 Q 2186 -181 2186 -188 M 1709 -693 L 1666 -693 L 1668 -688 Q 1668 -680 1671 -664 Q 1675 -649 1675 -641 L 1681 -641 L 1709 -693 M 2147 -193 Q 2147 -199 2141 -199 Q 2138 -198 2138 -194 L 2138 -191 Q 2138 -189 2140 -189 Q 2145 -190 2147 -193 M 2114 -202 Q 2111 -206 2107 -206 L 2104 -202 L 2110 -197 Q 2114 -199 2114 -202 M 2082 -207 L 2082 -211 Q 2081 -217 2077 -217 L 2076 -217 Q 2071 -217 2071 -211 L 2071 -207 Q 2072 -203 2076 -202 L 2077 -202 Q 2082 -203 2082 -207 M 2056 -224 Q 2052 -227 2050 -227 L 2047 -227 Q 2042 -227 2042 -224 Q 2046 -217 2048 -215 Q 2052 -217 2056 -224 M 2033 -229 L 2033 -232 Q 2033 -240 2028 -240 L 2026 -240 Q 2021 -240 2021 -232 L 2021 -228 Q 2021 -217 2028 -217 Q 2033 -221 2033 -229 M 2009 -236 L 2009 -238 Q 2008 -245 2003 -245 L 2002 -245 Q 1998 -245 1996 -238 L 1996 -236 Q 1998 -230 2002 -230 L 2004 -230 Q 2008 -230 2009 -236 M 1994 -245 L 1994 -247 Q 1992 -254 1989 -254 L 1987 -254 Q 1982 -254 1982 -247 L 1981 -245 Q 1982 -240 1986 -240 L 1989 -240 Q 1994 -241 1994 -245 M 1634 -586 L 1591 -688 L 1586 -688 Q 1512 -688 1494 -659 Q 1487 -534 1430 -448 L 1439 -448 Q 1517 -490 1543 -508 Q 1585 -537 1634 -586 M 1457 -656 Q 1363 -656 1203 -593 Q 1039 -529 975 -464 Q 984 -465 992 -465 Q 1060 -465 1077 -353 Q 1082 -349 1102 -349 Q 1255 -349 1352 -425 Q 1457 -507 1457 -656 M 1448 -718 Q 1448 -820 1340 -876 Q 1255 -921 1141 -921 Q 1005 -921 880 -846 Q 755 -771 697 -650 Q 647 -550 647 -491 Q 724 -402 826 -371 Q 918 -474 1125 -586 Q 1143 -595 1304 -654 Q 1448 -706 1448 -718 M 1806 -359 Q 1761 -427 1659 -540 L 1650 -540 Q 1559 -453 1439 -389 Q 1223 -276 1077 -276 Q 1050 -276 997 -289 Q 944 -303 917 -303 Q 910 -301 908 -297 Q 908 -198 1030 -132 Q 1132 -77 1242 -77 Q 1421 -77 1668 -234 Q 1694 -251 1742 -285 Q 1806 -340 1806 -359 M 1616 -1068 L 1616 -1080 Q 1439 -1190 1129 -1190 Q 766 -1190 490 -1021 Q 165 -822 165 -482 Q 165 -168 478 -18 Q 574 27 632 27 Q 651 27 672 -60 Q 690 -135 690 -172 Q 690 -188 664 -224 Q 632 -271 629 -276 Q 586 -361 586 -484 Q 586 -701 740 -854 Q 895 -1007 1111 -1007 Q 1432 -1007 1494 -715 L 1512 -715 Q 1522 -715 1543 -717 Q 1564 -720 1573 -720 Q 1573 -917 1573 -905 Q 1577 -960 1616 -1068 M 964 -453 L 962 -456 Q 962 -464 957 -464 L 956 -464 Q 952 -464 951 -456 L 951 -453 Q 952 -448 956 -448 L 958 -448 Q 962 -449 964 -453 M 942 -353 L 942 -380 Q 914 -380 914 -353 L 942 -353 M 932 -439 Q 895 -409 856 -359 L 892 -359 L 932 -439 M 1276 -22 Q 1276 -27 1268 -27 L 1266 -27 Q 1258 -27 1258 -23 Q 1259 -21 1261 -18 L 1267 -16 Q 1272 -16 1276 -18 L 1276 -22 M 1218 -59 Q 1116 -64 1032 -107 Q 949 -151 908 -245 Q 892 -280 892 -303 Q 883 -326 826 -326 Q 736 -236 736 -206 Q 736 -171 861 -108 Q 979 -49 1025 -49 Q 1048 -49 1095 -47 Q 1142 -46 1166 -46 Q 1172 -46 1184 -47 Q 1197 -49 1202 -49 L 1218 -59 M 792 -331 Q 740 -372 647 -448 L 647 -405 Q 647 -365 668 -303 Q 691 -230 720 -230 Q 741 -266 792 -331 M 1242 -12 Q 1214 -12 1181 -12 Q 891 -12 720 -156 L 715 -156 Q 703 -156 691 -87 Q 681 -29 681 0 L 681 36 Q 718 46 770 46 L 875 46 Q 1116 46 1242 -12 M 3468 -1696 Q 3468 -1689 3454 -1686 Q 3441 -1686 3441 -1696 Q 3441 -1699 3452 -1699 L 3457 -1699 Q 3463 -1699 3468 -1696 M 3426 -1684 Q 3421 -1683 3414 -1680 Q 3407 -1677 3392 -1672 Q 3387 -1672 3383 -1675 Q 3388 -1675 3396 -1679 Q 3405 -1684 3408 -1684 L 3426 -1684 M 3365 -1664 L 3365 -1662 Q 3364 -1658 3361 -1656 L 3356 -1663 Q 3356 -1669 3358 -1672 Q 3365 -1672 3365 -1664 M 3340 -1654 L 3340 -1651 Q 3339 -1649 3338 -1649 Q 3334 -1650 3331 -1653 Q 3332 -1659 3334 -1659 L 3335 -1659 Q 3340 -1658 3340 -1654 M 2922 -1405 Q 2908 -1395 2892 -1382 Q 2908 -1400 2922 -1405 Z"/>
    <path transform="matrix(1,0,0,1,6195,0)" d="M 620 -288 Q 616 -282 595 -262 Q 324 0 199 0 Q 107 0 107 -74 Q 107 -148 183 -244 Q 248 -317 313 -388 Q 346 -425 412 -497 L 412 -512 L 258 -512 L 16 -310 L 7 -310 L 233 -545 L 233 -550 Q 233 -561 224 -576 Q 215 -591 215 -601 Q 215 -642 262 -675 Q 304 -704 347 -704 Q 387 -704 387 -671 L 337 -615 L 337 -605 Q 337 -576 387 -576 Q 405 -576 440 -590 Q 475 -604 494 -604 Q 508 -604 533 -574 Q 559 -545 559 -530 Q 536 -486 406 -332 Q 297 -201 288 -138 Q 285 -116 285 -98 Q 294 -98 311 -93 Q 328 -89 337 -89 Q 378 -89 611 -288 L 620 -288 M 464 -568 L 464 -579 Q 402 -579 346 -570 L 346 -555 L 451 -555 Q 464 -555 464 -568 Z"/>
    <path transform="matrix(1,0,0,1,6848,0)" d="M 774 -1011 Q 682 -914 534 -737 Q 494 -693 424 -604 Q 422 -600 417 -591 L 412 -582 Q 412 -580 409 -579 Q 408 -578 408 -579 Q 408 -577 408 -574 Q 408 -569 412 -564 L 595 -564 L 620 -555 L 611 -543 L 383 -543 Q 369 -543 236 -333 Q 138 -177 138 -74 Q 138 -64 178 -64 Q 259 -64 487 -285 L 497 -285 Q 235 0 64 0 Q -21 0 -21 -78 Q -21 -133 93 -350 Q 95 -356 102 -367 Q 102 -385 95 -391 L 98 -392 L 94 -391 Q 92 -392 89 -392 L 217 -521 L 217 -540 L 89 -540 Q 82 -517 63 -512 Q 80 -512 98 -512 Q 171 -512 252 -524 Q 267 -537 448 -766 Q 508 -841 586 -922 Q 685 -1024 758 -1024 Q 774 -1024 774 -1011 M 95 -391 Q 81 -383 56 -357 L 83 -387 Q 87 -390 94 -391 L 95 -391 M 56 -357 L 7 -301 Q 22 -319 56 -357 M 7 -301 L 4 -298 Q 0 -295 -7 -292 Q -3 -296 -3 -301 L 7 -301 Z"/>
    <path transform="matrix(1,0,0,1,7373,0)" d="M 733 -938 Q 733 -905 679 -872 Q 625 -840 582 -840 L 577 -847 L 577 -875 Q 577 -960 688 -960 Q 733 -960 733 -938 M 537 -328 Q 473 -224 421 -181 L 421 -189 Q 421 -199 405 -199 Q 416 -199 274 -104 Q 204 -57 136 -34 Q 102 -22 102 -12 Q 102 21 148 21 Q 167 21 198 10 Q 229 0 249 0 Q 215 0 127 0 Q 80 0 35 -40 Q -9 -81 -9 -123 Q -9 -172 135 -379 L 135 -402 L 119 -402 Q 88 -372 21 -319 Q 16 -311 0 -303 L 0 -307 Q 0 -331 120 -451 Q 119 -432 145 -432 Q 254 -512 254 -564 L 242 -564 L 184 -516 L 184 -528 Q 226 -594 319 -695 Q 332 -704 392 -704 L 430 -704 Q 426 -693 408 -663 Q 396 -643 396 -613 Q 432 -613 454 -596 L 322 -419 Q 267 -347 212 -274 Q 141 -169 141 -106 Q 141 -83 172 -83 Q 232 -83 297 -140 Q 378 -199 528 -328 L 537 -328 M 398 -149 Q 390 -140 371 -122 L 371 -131 L 395 -156 L 398 -153 L 398 -149 M 297 0 Q 292 0 274 0 L 267 0 Q 276 -31 292 -49 L 297 0 Z"/>
    <path transform="matrix(1,0,0,1,7898,0)" d="M 715 -285 Q 715 -270 699 -270 L 697 -267 L 693 -267 L 690 -270 Q 697 -275 708 -285 L 715 -285 M 414 -555 Q 411 -551 408 -550 Q 405 -551 405 -555 L 405 -556 Q 406 -561 408 -561 L 409 -561 Q 414 -560 414 -555 M 675 -251 Q 594 -153 421 -75 Q 253 0 127 0 Q -61 0 -61 -141 Q -61 -203 -14 -261 Q 33 -320 95 -320 Q 105 -320 121 -317 Q 137 -315 145 -315 L 145 -287 Q 145 -250 78 -199 Q 12 -149 12 -106 Q 12 -40 74 -40 Q 220 -40 323 -206 Q 340 -234 454 -498 L 454 -521 L 438 -521 Q 336 -443 174 -344 L 169 -360 Q 195 -383 248 -432 Q 247 -384 267 -384 Q 291 -384 372 -450 Q 454 -517 454 -537 Q 454 -555 439 -553 Q 449 -560 550 -637 Q 636 -704 654 -704 Q 675 -704 675 -689 Q 675 -648 616 -610 Q 535 -557 528 -547 Q 528 -515 525 -442 Q 518 -316 505 -271 Q 486 -206 414 -122 L 414 -107 Q 458 -108 666 -251 L 675 -251 Z"/>
    <path transform="matrix(1,0,0,1,8614,0)" d="M 774 -1011 Q 682 -914 534 -737 Q 494 -693 424 -604 Q 422 -600 417 -591 L 412 -582 Q 412 -580 409 -579 Q 408 -578 408 -579 Q 408 -577 408 -574 Q 408 -569 412 -564 L 595 -564 L 620 -555 L 611 -543 L 383 -543 Q 369 -543 236 -333 Q 138 -177 138 -74 Q 138 -64 178 -64 Q 259 -64 487 -285 L 497 -285 Q 235 0 64 0 Q -21 0 -21 -78 Q -21 -133 93 -350 Q 95 -356 102 -367 Q 102 -385 95 -391 L 98 -392 L 94 -391 Q 92 -392 89 -392 L 217 -521 L 217 -540 L 89 -540 Q 82 -517 63 -512 Q 80 -512 98 -512 Q 171 -512 252 -524 Q 267 -537 448 -766 Q 508 -841 586 -922 Q 685 -1024 758 -1024 Q 774 -1024 774 -1011 M 95 -391 Q 81 -383 56 -357 L 83 -387 Q 87 -390 94 -391 L 95 -391 M 56 -357 L 7 -301 Q 22 -319 56 -357 M 7 -301 L 4 -298 Q 0 -295 -7 -292 Q -3 -296 -3 -301 L 7 -301 Z"/>
    <path transform="matrix(1,0,0,1,9139,0)" d="M 663 -288 Q 511 -143 448 -99 Q 309 0 181 0 Q 118 0 57 -36 Q -25 -84 -25 -125 Q -25 -268 -16 -301 Q 0 -331 21 -371 Q 27 -384 40 -412 Q 95 -524 233 -614 Q 372 -704 493 -704 Q 549 -704 549 -704 Q 582 -701 604 -661 Q 622 -627 622 -589 Q 622 -440 442 -337 Q 351 -284 138 -218 Q 122 -175 122 -135 Q 122 -64 208 -64 Q 324 -64 449 -138 Q 499 -168 654 -288 L 663 -288 M 559 -606 Q 559 -631 530 -656 L 491 -656 Q 433 -656 353 -605 Q 267 -550 267 -497 Q 285 -500 285 -500 Q 420 -560 550 -573 Q 559 -583 559 -606 M 518 -584 Q 518 -593 516 -606 Q 515 -620 515 -627 Q 505 -640 478 -640 Q 440 -640 417 -618 Q 274 -488 188 -285 L 188 -256 Q 263 -256 387 -368 Q 518 -488 518 -584 M 383 -98 L 383 -128 Q 348 -128 286 -89 Q 191 -33 188 -30 L 188 0 Q 267 0 383 -98 Z"/>
    <path transform="matrix(1,0,0,1,9792,0)" d="M 715 -285 Q 715 -270 699 -270 L 697 -267 L 693 -267 L 690 -270 Q 697 -275 708 -285 L 715 -285 M 414 -555 Q 411 -551 408 -550 Q 405 -551 405 -555 L 405 -556 Q 406 -561 408 -561 L 409 -561 Q 414 -560 414 -555 M 675 -251 Q 594 -153 421 -75 Q 253 0 127 0 Q -61 0 -61 -141 Q -61 -203 -14 -261 Q 33 -320 95 -320 Q 105 -320 121 -317 Q 137 -315 145 -315 L 145 -287 Q 145 -250 78 -199 Q 12 -149 12 -106 Q 12 -40 74 -40 Q 220 -40 323 -206 Q 340 -234 454 -498 L 454 -521 L 438 -521 Q 336 -443 174 -344 L 169 -360 Q 195 -383 248 -432 Q 247 -384 267 -384 Q 291 -384 372 -450 Q 454 -517 454 -537 Q 454 -555 439 -553 Q 449 -560 550 -637 Q 636 -704 654 -704 Q 675 -704 675 -689 Q 675 -648 616 -610 Q 535 -557 528 -547 Q 528 -515 525 -442 Q 518 -316 505 -271 Q 486 -206 414 -122 L 414 -107 Q 458 -108 666 -251 L 675 -251 Z"/>
    <path transform="matrix(1,0,0,1,10509,0)" d="M 3524 -1779 Q 3524 -1729 3420 -1696 Q 3375 -1681 3301 -1627 Q 3220 -1567 3211 -1530 Q 3179 -1500 3123 -1439 L 2657 -826 Q 2724 -844 2809 -905 Q 2933 -995 2951 -1007 L 2951 -996 Q 2951 -943 2818 -878 Q 2754 -852 2632 -794 Q 2548 -697 2426 -555 Q 1949 -25 1199 -25 Q 1003 -25 846 -74 Q 836 -77 787 -102 Q 742 -122 733 -122 Q 711 -122 659 -130 Q 635 -133 586 -138 Q 434 -154 316 -225 Q 169 -314 169 -448 Q 169 -582 298 -664 Q 401 -731 552 -745 Q 579 -746 635 -751 Q 665 -755 740 -815 Q 836 -892 846 -899 Q 1134 -1073 1552 -1080 Q 1571 -1159 1607 -1186 L 1607 -1181 Q 1607 -1171 1594 -1140 Q 1582 -1110 1582 -1080 Q 1780 -1051 1871 -987 Q 1906 -964 1935 -964 Q 1964 -977 2073 -998 Q 2175 -1017 2239 -1055 Q 2358 -1435 3012 -1577 Q 3067 -1585 3171 -1610 Q 3206 -1629 3273 -1666 Q 3377 -1722 3524 -1779 M 3282 -1643 L 3282 -1645 Q 3280 -1653 3276 -1653 L 3275 -1653 Q 3270 -1653 3270 -1645 L 3270 -1643 Q 3270 -1634 3275 -1634 L 3276 -1634 Q 3282 -1634 3282 -1643 M 3261 -1634 Q 3218 -1620 3218 -1607 L 3220 -1604 Q 3232 -1607 3261 -1634 M 3080 -1555 Q 3064 -1555 3064 -1555 Q 2797 -1488 2649 -1409 Q 2431 -1293 2343 -1104 L 2361 -1104 Q 2396 -1120 2460 -1154 L 3080 -1555 M 3177 -1571 L 3166 -1571 Q 3145 -1571 3024 -1491 Q 2894 -1403 2632 -1227 Q 2589 -1199 2395 -1089 Q 2374 -1078 2335 -1056 Q 2319 -1046 2319 -969 Q 2319 -819 2466 -819 Q 2472 -822 2476 -826 Q 2733 -1171 2944 -1358 Q 3024 -1427 3177 -1571 M 1729 -1021 Q 1663 -1046 1610 -1046 L 1582 -1046 L 1591 -1030 Q 1722 -1021 1699 -1021 L 1729 -1021 M 2442 -776 L 2442 -785 Q 2245 -831 2229 -996 L 2214 -996 Q 2226 -996 2082 -957 Q 2038 -944 1951 -917 Q 2009 -828 2009 -733 Q 2009 -520 1724 -352 Q 1530 -237 1249 -163 L 1249 -159 Q 1249 -150 1314 -135 Q 1373 -122 1396 -122 L 1482 -122 Q 1776 -122 2028 -319 Q 2108 -383 2239 -525 Q 2370 -667 2426 -751 Q 2442 -775 2442 -776 M 1953 -758 Q 1953 -862 1877 -899 Q 1776 -905 1752 -908 Q 1685 -917 1632 -942 L 1610 -942 Q 1406 -942 1222 -784 Q 1027 -620 1027 -421 Q 1027 -346 1080 -268 Q 1136 -181 1206 -181 Q 1287 -181 1426 -236 Q 1629 -316 1641 -335 L 1629 -335 Q 1607 -335 1564 -331 Q 1521 -328 1500 -328 Q 1374 -328 1238 -402 L 1238 -408 Q 1238 -421 1249 -426 Q 1396 -359 1509 -359 Q 1693 -359 1819 -465 Q 1953 -577 1953 -758 M 1561 -1030 L 1561 -1034 Q 1561 -1048 1552 -1055 L 1466 -1055 Q 1284 -1055 1113 -1000 Q 921 -939 806 -826 L 742 -761 L 742 -751 Q 932 -727 1003 -647 Q 1022 -659 1043 -695 Q 1068 -741 1077 -751 Q 1285 -987 1557 -1021 L 1561 -1030 M 1662 -342 L 1662 -345 Q 1662 -353 1656 -353 L 1655 -353 Q 1651 -353 1650 -345 L 1650 -342 Q 1651 -335 1655 -335 L 1656 -335 Q 1662 -335 1662 -342 M 1134 -172 Q 1130 -173 1125 -181 Q 1110 -194 1077 -221 Q 978 -301 978 -469 Q 978 -494 986 -542 Q 994 -591 994 -616 Q 994 -662 888 -699 Q 800 -731 740 -731 Q 682 -731 647 -617 Q 620 -530 620 -454 Q 620 -245 792 -147 L 964 -147 Q 977 -147 1116 -163 L 1134 -172 M 1568 -89 L 1419 -89 Q 1382 -89 1289 -118 Q 1197 -147 1175 -147 Q 1117 -147 1002 -134 Q 888 -122 831 -122 L 840 -113 Q 1050 -49 1116 -49 L 1235 -49 Q 1396 -49 1568 -89 M 699 -156 Q 552 -285 552 -464 Q 552 -527 582 -600 Q 613 -663 645 -727 Q 638 -727 625 -729 Q 613 -731 607 -731 Q 469 -731 357 -664 Q 224 -586 224 -457 Q 224 -314 391 -227 Q 530 -154 688 -154 Q 691 -155 699 -156 Z"/>
    <path transform="matrix(1,0,0,1,12954,0)" d="M 1147 -326 Q 1109 -287 1030 -212 Q 1001 -189 944 -141 Q 785 0 702 0 Q 664 0 621 -25 Q 573 -53 573 -89 Q 573 -160 681 -296 Q 762 -388 844 -482 L 844 -519 Q 836 -519 821 -521 Q 806 -524 798 -524 Q 767 -524 672 -467 Q 547 -392 404 -255 Q 359 -214 165 -9 Q 110 0 49 0 L 27 0 Q 39 -10 39 -22 Q 39 -26 36 -32 Q 34 -39 34 -43 Q 34 -106 297 -433 Q 319 -460 319 -509 Q 306 -512 279 -516 Q 221 -487 151 -427 Q 93 -376 34 -325 Q 21 -315 -2 -294 L -9 -294 Q 276 -579 303 -579 L 297 -570 L 301 -555 Q 314 -555 340 -559 Q 367 -564 380 -564 Q 392 -564 415 -559 Q 439 -555 451 -555 Q 469 -555 469 -589 Q 469 -622 423 -622 Q 405 -622 372 -608 Q 340 -595 322 -595 Q 389 -704 439 -704 Q 518 -704 518 -594 Q 518 -517 402 -323 L 402 -309 Q 407 -306 420 -301 Q 467 -319 570 -416 Q 684 -520 730 -546 Q 729 -512 745 -512 Q 775 -512 831 -536 Q 887 -560 917 -560 Q 926 -571 926 -593 Q 926 -622 887 -622 Q 874 -622 850 -613 Q 826 -604 813 -604 Q 856 -704 905 -704 Q 975 -704 975 -566 Q 975 -488 853 -319 Q 731 -150 731 -102 Q 731 -64 761 -64 Q 830 -64 961 -171 Q 1055 -252 1147 -335 L 1147 -326 M 794 -52 L 782 -52 Q 776 -52 720 -34 L 720 -12 Q 794 -12 794 -52 Z"/>
    <path transform="matrix(1,0,0,1,14118,0)" d="M 1147 -326 Q 1109 -287 1030 -212 Q 1001 -189 944 -141 Q 785 0 702 0 Q 664 0 621 -25 Q 573 -53 573 -89 Q 573 -160 681 -296 Q 762 -388 844 -482 L 844 -519 Q 836 -519 821 -521 Q 806 -524 798 -524 Q 767 -524 672 -467 Q 547 -392 404 -255 Q 359 -214 165 -9 Q 110 0 49 0 L 27 0 Q 39 -10 39 -22 Q 39 -26 36 -32 Q 34 -39 34 -43 Q 34 -106 297 -433 Q 319 -460 319 -509 Q 306 -512 279 -516 Q 221 -487 151 -427 Q 93 -376 34 -325 Q 21 -315 -2 -294 L -9 -294 Q 276 -579 303 -579 L 297 -570 L 301 -555 Q 314 -555 340 -559 Q 367 -564 380 -564 Q 392 -564 415 -559 Q 439 -555 451 -555 Q 469 -555 469 -589 Q 469 -622 423 -622 Q 405 -622 372 -608 Q 340 -595 322 -595 Q 389 -704 439 -704 Q 518 -704 518 -594 Q 518 -517 402 -323 L 402 -309 Q 407 -306 420 -301 Q 467 -319 570 -416 Q 684 -520 730 -546 Q 729 -512 745 -512 Q 775 -512 831 -536 Q 887 -560 917 -560 Q 926 -571 926 -593 Q 926 -622 887 -622 Q 874 -622 850 -613 Q 826 -604 813 -604 Q 856 -704 905 -704 Q 975 -704 975 -566 Q 975 -488 853 -319 Q 731 -150 731 -102 Q 731 -64 761 -64 Q 830 -64 961 -171 Q 1055 -252 1147 -335 L 1147 -326 M 794 -52 L 782 -52 Q 776 -52 720 -34 L 720 -12 Q 794 -12 794 -52 Z"/>
  </g>
</svg>
