<?xml version="1.0" encoding="utf-8"?>
<svg viewBox="0 0 182 16" xmlns="http://www.w3.org/2000/svg">
  <title>Contact Information</title>
  <path d="M 4.035 12.279 L 0.365 12.279 L 0.365 11.919 C 0.978 11.919 1.335 11.806 1.435 11.579 L 1.435 2.779 C 0.728 2.719 0.372 2.689 0.365 2.689 L 0.365 2.299 C 0.578 2.299 0.998 2.179 1.625 1.939 C 2.258 1.692 2.705 1.569 2.965 1.569 L 2.965 11.579 C 3.065 11.806 3.422 11.919 4.035 11.919 L 4.035 12.279 ZM 12.063 8.179 L 6.603 8.179 C 6.616 9.132 6.89 9.976 7.423 10.709 C 7.963 11.436 8.566 11.799 9.233 11.799 C 10.22 11.799 11.013 11.426 11.613 10.679 L 12.023 10.889 C 11.696 11.429 11.27 11.826 10.743 12.079 C 10.216 12.326 9.52 12.449 8.653 12.449 C 8.226 12.449 7.813 12.382 7.413 12.249 C 7.02 12.122 6.63 11.909 6.243 11.609 C 5.856 11.309 5.55 10.862 5.323 10.269 C 5.096 9.682 4.983 8.982 4.983 8.169 C 4.983 7.169 5.293 6.329 5.913 5.649 C 6.533 4.969 7.393 4.629 8.493 4.629 C 9.693 4.629 10.586 4.966 11.173 5.639 C 11.766 6.312 12.063 7.159 12.063 8.179 Z M 6.623 7.659 L 10.393 7.659 C 10.326 6.839 10.153 6.216 9.873 5.789 C 9.593 5.356 9.11 5.139 8.423 5.139 C 8.023 5.139 7.64 5.372 7.273 5.839 C 6.906 6.299 6.69 6.906 6.623 7.659 ZM 16.224 11.939 C 16.544 11.939 16.89 11.836 17.264 11.629 C 17.644 11.429 17.834 11.126 17.834 10.719 C 17.834 10.059 17.16 9.492 15.814 9.019 C 15.487 8.906 15.217 8.796 15.004 8.689 C 14.797 8.589 14.57 8.449 14.324 8.269 C 14.07 8.089 13.88 7.866 13.754 7.599 C 13.634 7.339 13.574 7.036 13.574 6.689 C 13.574 6.049 13.804 5.546 14.264 5.179 C 14.73 4.812 15.294 4.629 15.954 4.629 C 16.34 4.629 16.734 4.712 17.134 4.879 C 17.534 5.052 17.764 5.139 17.824 5.139 C 17.957 5.139 18.024 5.026 18.024 4.799 L 18.414 4.799 L 18.414 6.839 L 18.044 6.839 C 17.977 6.366 17.747 5.962 17.354 5.629 C 16.96 5.302 16.51 5.139 16.004 5.139 C 15.637 5.139 15.334 5.222 15.094 5.389 C 14.847 5.562 14.724 5.796 14.724 6.089 C 14.724 6.262 14.76 6.419 14.834 6.559 C 14.9 6.699 14.967 6.812 15.034 6.899 C 15.1 6.986 15.227 7.079 15.414 7.179 C 15.6 7.279 15.744 7.349 15.844 7.389 C 15.937 7.429 16.11 7.496 16.364 7.589 C 16.624 7.676 16.797 7.739 16.884 7.779 C 17.477 7.999 17.984 8.319 18.404 8.739 C 18.817 9.152 19.024 9.629 19.024 10.169 C 19.024 10.862 18.747 11.416 18.194 11.829 C 17.64 12.242 16.937 12.449 16.084 12.449 C 15.677 12.449 15.28 12.352 14.894 12.159 C 14.514 11.966 14.3 11.869 14.254 11.869 C 14.187 11.869 14.107 11.916 14.014 12.009 C 13.92 12.096 13.874 12.186 13.874 12.279 L 13.474 12.279 L 13.474 9.879 L 13.844 9.879 C 13.924 10.459 14.194 10.946 14.654 11.339 C 15.114 11.739 15.637 11.939 16.224 11.939 ZM 21.489 6.059 C 21.649 6.059 21.789 6.116 21.909 6.229 C 22.029 6.342 22.089 6.516 22.089 6.749 C 22.089 6.942 22.012 7.092 21.859 7.199 C 21.705 7.299 21.525 7.349 21.319 7.349 C 21.105 7.349 20.932 7.272 20.799 7.119 C 20.659 6.966 20.589 6.759 20.589 6.499 C 20.589 5.912 20.832 5.452 21.319 5.119 C 21.812 4.792 22.505 4.629 23.399 4.629 C 24.452 4.629 25.225 4.889 25.719 5.409 C 26.212 5.929 26.459 6.622 26.459 7.489 L 26.459 10.849 C 26.459 11.216 26.519 11.482 26.639 11.649 C 26.759 11.822 26.902 11.909 27.069 11.909 C 27.215 11.909 27.349 11.869 27.469 11.789 C 27.589 11.709 27.649 11.612 27.649 11.499 L 27.949 11.499 C 27.949 11.812 27.835 12.042 27.609 12.189 C 27.375 12.342 26.969 12.419 26.389 12.419 C 25.822 12.419 25.419 12.186 25.179 11.719 C 24.512 12.206 23.679 12.449 22.679 12.449 C 20.979 12.449 20.129 11.759 20.129 10.379 C 20.129 10.079 20.235 9.812 20.449 9.579 C 20.655 9.339 20.959 9.139 21.359 8.979 C 21.752 8.819 22.125 8.692 22.479 8.599 C 22.832 8.499 23.272 8.392 23.799 8.279 C 24.325 8.159 24.702 8.066 24.929 7.999 C 24.929 7.046 24.802 6.346 24.549 5.899 C 24.302 5.459 23.862 5.239 23.229 5.239 C 22.209 5.239 21.629 5.512 21.489 6.059 Z M 25.029 11.289 C 24.962 11.042 24.929 10.739 24.929 10.379 L 24.929 8.369 C 24.802 8.416 24.589 8.479 24.289 8.559 C 23.989 8.639 23.745 8.706 23.559 8.759 C 23.372 8.819 23.149 8.906 22.889 9.019 C 22.629 9.132 22.425 9.246 22.279 9.359 C 22.132 9.472 22.002 9.622 21.889 9.809 C 21.775 9.996 21.719 10.196 21.719 10.409 C 21.719 10.956 21.822 11.336 22.029 11.549 C 22.235 11.762 22.549 11.869 22.969 11.869 C 23.715 11.869 24.402 11.676 25.029 11.289 ZM 32 12.279 L 28.33 12.279 L 28.33 11.919 C 28.943 11.919 29.3 11.806 29.4 11.579 L 29.4 5.839 C 28.693 5.779 28.336 5.749 28.33 5.749 L 28.33 5.359 C 28.543 5.359 28.963 5.239 29.59 4.999 C 30.223 4.752 30.67 4.629 30.93 4.629 L 30.93 5.379 C 31.496 4.879 32.056 4.629 32.61 4.629 C 33.123 4.629 33.55 4.726 33.89 4.919 C 34.236 5.112 34.41 5.326 34.41 5.559 C 34.41 5.972 34.183 6.179 33.73 6.179 C 33.496 6.179 33.283 6.016 33.09 5.689 C 32.896 5.369 32.673 5.209 32.42 5.209 C 31.98 5.209 31.483 5.452 30.93 5.939 L 30.93 11.579 C 31.03 11.806 31.386 11.919 32 11.919 L 32 12.279 ZM 36.845 2.329 L 37.575 2.329 L 37.575 4.799 L 39.035 4.799 L 39.035 5.309 L 37.575 5.309 L 37.575 10.719 C 37.575 11.066 37.638 11.332 37.765 11.519 C 37.885 11.706 38.115 11.799 38.455 11.799 C 38.661 11.799 38.868 11.702 39.075 11.509 C 39.288 11.309 39.435 11.032 39.515 10.679 L 39.925 10.889 C 39.685 11.929 39.005 12.449 37.885 12.449 C 36.591 12.449 35.945 11.826 35.945 10.579 L 35.945 5.309 L 34.755 5.309 L 34.755 4.799 C 35.288 4.799 35.768 4.579 36.195 4.139 C 36.628 3.692 36.845 3.089 36.845 2.329 ZM 44.375 12.279 L 40.705 12.279 L 40.705 11.919 C 41.319 11.919 41.675 11.806 41.775 11.579 L 41.775 5.839 C 41.069 5.779 40.712 5.749 40.705 5.749 L 40.705 5.359 C 40.919 5.359 41.339 5.239 41.965 4.999 C 42.599 4.752 43.045 4.629 43.305 4.629 L 43.305 11.579 C 43.405 11.806 43.762 11.919 44.375 11.919 L 44.375 12.279 Z M 42.485 3.539 C 42.239 3.539 42.022 3.446 41.835 3.259 C 41.649 3.072 41.555 2.832 41.555 2.539 C 41.555 2.279 41.635 2.052 41.795 1.859 C 41.962 1.666 42.175 1.569 42.435 1.569 C 42.689 1.569 42.909 1.666 43.095 1.859 C 43.289 2.052 43.385 2.296 43.385 2.589 C 43.385 2.849 43.302 3.072 43.135 3.259 C 42.962 3.446 42.745 3.539 42.485 3.539 ZM 48.251 11.939 C 48.571 11.939 48.918 11.836 49.291 11.629 C 49.671 11.429 49.861 11.126 49.861 10.719 C 49.861 10.059 49.188 9.492 47.841 9.019 C 47.515 8.906 47.245 8.796 47.031 8.689 C 46.825 8.589 46.598 8.449 46.351 8.269 C 46.098 8.089 45.908 7.866 45.781 7.599 C 45.661 7.339 45.601 7.036 45.601 6.689 C 45.601 6.049 45.831 5.546 46.291 5.179 C 46.758 4.812 47.321 4.629 47.981 4.629 C 48.368 4.629 48.761 4.712 49.161 4.879 C 49.561 5.052 49.791 5.139 49.851 5.139 C 49.985 5.139 50.051 5.026 50.051 4.799 L 50.441 4.799 L 50.441 6.839 L 50.071 6.839 C 50.005 6.366 49.775 5.962 49.381 5.629 C 48.988 5.302 48.538 5.139 48.031 5.139 C 47.665 5.139 47.361 5.222 47.121 5.389 C 46.875 5.562 46.751 5.796 46.751 6.089 C 46.751 6.262 46.788 6.419 46.861 6.559 C 46.928 6.699 46.995 6.812 47.061 6.899 C 47.128 6.986 47.255 7.079 47.441 7.179 C 47.628 7.279 47.771 7.349 47.871 7.389 C 47.965 7.429 48.138 7.496 48.391 7.589 C 48.651 7.676 48.825 7.739 48.911 7.779 C 49.505 7.999 50.011 8.319 50.431 8.739 C 50.845 9.152 51.051 9.629 51.051 10.169 C 51.051 10.862 50.775 11.416 50.221 11.829 C 49.668 12.242 48.965 12.449 48.111 12.449 C 47.705 12.449 47.308 12.352 46.921 12.159 C 46.541 11.966 46.328 11.869 46.281 11.869 C 46.215 11.869 46.135 11.916 46.041 12.009 C 45.948 12.096 45.901 12.186 45.901 12.279 L 45.501 12.279 L 45.501 9.879 L 45.871 9.879 C 45.951 10.459 46.221 10.946 46.681 11.339 C 47.141 11.739 47.665 11.939 48.251 11.939 ZM 53.946 2.329 L 54.676 2.329 L 54.676 4.799 L 56.136 4.799 L 56.136 5.309 L 54.676 5.309 L 54.676 10.719 C 54.676 11.066 54.74 11.332 54.866 11.519 C 54.986 11.706 55.216 11.799 55.556 11.799 C 55.763 11.799 55.97 11.702 56.176 11.509 C 56.39 11.309 56.536 11.032 56.616 10.679 L 57.026 10.889 C 56.786 11.929 56.106 12.449 54.986 12.449 C 53.693 12.449 53.046 11.826 53.046 10.579 L 53.046 5.309 L 51.856 5.309 L 51.856 4.799 C 52.39 4.799 52.87 4.579 53.296 4.139 C 53.73 3.692 53.946 3.089 53.946 2.329 ZM 64.949 8.179 L 59.489 8.179 C 59.503 9.132 59.776 9.976 60.309 10.709 C 60.849 11.436 61.453 11.799 62.119 11.799 C 63.106 11.799 63.899 11.426 64.499 10.679 L 64.909 10.889 C 64.583 11.429 64.156 11.826 63.629 12.079 C 63.103 12.326 62.406 12.449 61.539 12.449 C 61.113 12.449 60.699 12.382 60.299 12.249 C 59.906 12.122 59.516 11.909 59.129 11.609 C 58.743 11.309 58.436 10.862 58.209 10.269 C 57.983 9.682 57.869 8.982 57.869 8.169 C 57.869 7.169 58.179 6.329 58.799 5.649 C 59.419 4.969 60.279 4.629 61.379 4.629 C 62.579 4.629 63.473 4.966 64.059 5.639 C 64.653 6.312 64.949 7.159 64.949 8.179 Z M 59.509 7.659 L 63.279 7.659 C 63.213 6.839 63.039 6.216 62.759 5.789 C 62.479 5.356 61.996 5.139 61.309 5.139 C 60.909 5.139 60.526 5.372 60.159 5.839 C 59.793 6.299 59.576 6.906 59.509 7.659 ZM 69.11 11.939 C 69.43 11.939 69.777 11.836 70.15 11.629 C 70.53 11.429 70.72 11.126 70.72 10.719 C 70.72 10.059 70.047 9.492 68.7 9.019 C 68.373 8.906 68.103 8.796 67.89 8.689 C 67.683 8.589 67.457 8.449 67.21 8.269 C 66.957 8.089 66.767 7.866 66.64 7.599 C 66.52 7.339 66.46 7.036 66.46 6.689 C 66.46 6.049 66.69 5.546 67.15 5.179 C 67.617 4.812 68.18 4.629 68.84 4.629 C 69.227 4.629 69.62 4.712 70.02 4.879 C 70.42 5.052 70.65 5.139 70.71 5.139 C 70.843 5.139 70.91 5.026 70.91 4.799 L 71.3 4.799 L 71.3 6.839 L 70.93 6.839 C 70.863 6.366 70.633 5.962 70.24 5.629 C 69.847 5.302 69.397 5.139 68.89 5.139 C 68.523 5.139 68.22 5.222 67.98 5.389 C 67.733 5.562 67.61 5.796 67.61 6.089 C 67.61 6.262 67.647 6.419 67.72 6.559 C 67.787 6.699 67.853 6.812 67.92 6.899 C 67.987 6.986 68.113 7.079 68.3 7.179 C 68.487 7.279 68.63 7.349 68.73 7.389 C 68.823 7.429 68.997 7.496 69.25 7.589 C 69.51 7.676 69.683 7.739 69.77 7.779 C 70.363 7.999 70.87 8.319 71.29 8.739 C 71.703 9.152 71.91 9.629 71.91 10.169 C 71.91 10.862 71.633 11.416 71.08 11.829 C 70.527 12.242 69.823 12.449 68.97 12.449 C 68.563 12.449 68.167 12.352 67.78 12.159 C 67.4 11.966 67.187 11.869 67.14 11.869 C 67.073 11.869 66.993 11.916 66.9 12.009 C 66.807 12.096 66.76 12.186 66.76 12.279 L 66.36 12.279 L 66.36 9.879 L 66.73 9.879 C 66.81 10.459 67.08 10.946 67.54 11.339 C 68 11.739 68.523 11.939 69.11 11.939 ZM 76.675 12.279 L 73.005 12.279 L 73.005 11.919 C 73.618 11.919 73.975 11.806 74.075 11.579 L 74.075 5.839 C 73.368 5.779 73.012 5.749 73.005 5.749 L 73.005 5.359 C 73.218 5.359 73.638 5.239 74.265 4.999 C 74.898 4.752 75.345 4.629 75.605 4.629 L 75.605 11.579 C 75.705 11.806 76.062 11.919 76.675 11.919 L 76.675 12.279 Z M 74.785 3.539 C 74.538 3.539 74.322 3.446 74.135 3.259 C 73.948 3.072 73.855 2.832 73.855 2.539 C 73.855 2.279 73.935 2.052 74.095 1.859 C 74.262 1.666 74.475 1.569 74.735 1.569 C 74.988 1.569 75.208 1.666 75.395 1.859 C 75.588 2.052 75.685 2.296 75.685 2.589 C 75.685 2.849 75.602 3.072 75.435 3.259 C 75.262 3.446 75.045 3.539 74.785 3.539 ZM 81.231 12.279 L 77.561 12.279 L 77.561 11.919 C 78.174 11.919 78.531 11.806 78.631 11.579 L 78.631 5.839 C 77.924 5.779 77.568 5.749 77.561 5.749 L 77.561 5.359 C 77.774 5.359 78.194 5.239 78.821 4.999 C 79.454 4.752 79.901 4.629 80.161 4.629 L 80.161 5.409 C 80.774 4.889 81.448 4.629 82.181 4.629 C 83.234 4.629 83.998 4.826 84.471 5.219 C 84.938 5.606 85.171 6.212 85.171 7.039 L 85.171 11.579 C 85.278 11.806 85.634 11.919 86.241 11.919 L 86.241 12.279 L 82.571 12.279 L 82.571 11.919 C 83.184 11.919 83.541 11.806 83.641 11.579 L 83.641 6.919 C 83.641 5.779 83.121 5.209 82.081 5.209 C 81.368 5.209 80.728 5.459 80.161 5.959 L 80.161 11.579 C 80.261 11.806 80.618 11.919 81.231 11.919 L 81.231 12.279 ZM 90.734 12.279 L 87.064 12.279 L 87.064 11.919 C 87.677 11.919 88.034 11.806 88.134 11.579 L 88.134 5.839 C 87.427 5.779 87.07 5.749 87.064 5.749 L 87.064 5.359 C 87.277 5.359 87.697 5.239 88.324 4.999 C 88.957 4.752 89.404 4.629 89.664 4.629 L 89.664 5.409 C 90.277 4.889 90.95 4.629 91.684 4.629 C 92.737 4.629 93.5 4.826 93.974 5.219 C 94.44 5.606 94.674 6.212 94.674 7.039 L 94.674 11.579 C 94.78 11.806 95.137 11.919 95.744 11.919 L 95.744 12.279 L 92.074 12.279 L 92.074 11.919 C 92.687 11.919 93.044 11.806 93.144 11.579 L 93.144 6.919 C 93.144 5.779 92.624 5.209 91.584 5.209 C 90.87 5.209 90.23 5.459 89.664 5.959 L 89.664 11.579 C 89.764 11.806 90.12 11.919 90.734 11.919 L 90.734 12.279 ZM 100.257 9.579 C 99.823 9.579 99.49 9.412 99.257 9.079 C 99.023 8.752 98.907 8.352 98.907 7.879 C 98.907 7.126 99.167 6.432 99.687 5.799 C 100.2 5.166 100.74 4.849 101.307 4.849 C 101.973 4.849 102.4 5.212 102.587 5.939 L 102.817 5.039 L 103.717 5.039 L 102.717 8.829 C 102.703 8.849 102.697 8.882 102.697 8.929 C 102.697 9.102 102.83 9.189 103.097 9.189 C 103.47 9.189 103.803 8.999 104.097 8.619 C 104.39 8.239 104.593 7.856 104.707 7.469 C 104.82 7.082 104.877 6.769 104.877 6.529 C 104.877 5.782 104.79 5.152 104.617 4.639 C 104.437 4.119 104.187 3.742 103.867 3.509 C 103.54 3.269 103.217 3.102 102.897 3.009 C 102.577 2.922 102.207 2.879 101.787 2.879 C 100.64 2.879 99.64 3.282 98.787 4.089 C 97.927 4.889 97.497 5.986 97.497 7.379 C 97.497 8.279 97.737 9.076 98.217 9.769 C 98.69 10.469 99.243 10.979 99.877 11.299 C 100.51 11.626 101.147 11.789 101.787 11.789 C 102.293 11.789 102.77 11.709 103.217 11.549 C 103.663 11.389 104.02 11.222 104.287 11.049 C 104.547 10.869 104.803 10.626 105.057 10.319 C 105.31 10.019 105.47 9.809 105.537 9.689 C 105.61 9.569 105.707 9.402 105.827 9.189 L 106.097 9.319 C 105.683 10.272 105.137 11.032 104.457 11.599 C 103.777 12.166 102.85 12.449 101.677 12.449 C 100.443 12.449 99.32 11.976 98.307 11.029 C 97.293 10.082 96.787 8.889 96.787 7.449 C 96.787 5.842 97.273 4.559 98.247 3.599 C 99.22 2.639 100.377 2.159 101.717 2.159 C 102.823 2.159 103.747 2.526 104.487 3.259 C 105.22 3.992 105.587 5.039 105.587 6.399 C 105.587 6.706 105.53 7.042 105.417 7.409 C 105.297 7.776 105.127 8.142 104.907 8.509 C 104.68 8.882 104.373 9.189 103.987 9.429 C 103.593 9.676 103.16 9.799 102.687 9.799 C 102.48 9.799 102.287 9.729 102.107 9.589 C 101.927 9.456 101.837 9.236 101.837 8.929 C 101.837 8.816 101.84 8.726 101.847 8.659 C 101.353 9.272 100.823 9.579 100.257 9.579 Z M 102.247 6.529 C 102.247 6.202 102.17 5.926 102.017 5.699 C 101.87 5.472 101.657 5.359 101.377 5.359 C 100.957 5.359 100.567 5.602 100.207 6.089 C 99.84 6.576 99.657 7.109 99.657 7.689 C 99.657 8.016 99.73 8.289 99.877 8.509 C 100.023 8.736 100.24 8.849 100.527 8.849 C 100.947 8.849 101.337 8.609 101.697 8.129 C 102.063 7.656 102.247 7.122 102.247 6.529 ZM 114.359 4.629 L 114.359 11.789 C 114.359 12.956 114.079 13.896 113.519 14.609 C 112.959 15.322 112.142 15.679 111.069 15.679 C 110.102 15.679 109.329 15.516 108.749 15.189 C 108.162 14.856 107.869 14.509 107.869 14.149 C 107.869 13.889 107.935 13.682 108.069 13.529 C 108.209 13.376 108.385 13.299 108.599 13.299 C 108.805 13.299 108.985 13.349 109.139 13.449 C 109.292 13.556 109.369 13.706 109.369 13.899 C 109.369 14.259 109.225 14.496 108.939 14.609 C 109.245 14.916 109.899 15.069 110.899 15.069 C 112.065 15.069 112.705 14.026 112.819 11.939 C 112.299 12.279 111.629 12.449 110.809 12.449 C 110.435 12.449 110.065 12.389 109.699 12.269 C 109.332 12.149 108.962 11.952 108.589 11.679 C 108.222 11.412 107.922 11.009 107.689 10.469 C 107.455 9.929 107.339 9.296 107.339 8.569 C 107.339 7.302 107.695 6.329 108.409 5.649 C 109.115 4.969 110.039 4.629 111.179 4.629 C 111.899 4.629 112.525 4.809 113.059 5.169 C 113.632 4.809 114.065 4.629 114.359 4.629 Z M 112.829 11.379 L 112.829 11.179 L 112.829 5.559 C 112.422 5.326 111.909 5.209 111.289 5.209 C 110.662 5.209 110.119 5.506 109.659 6.099 C 109.192 6.692 108.959 7.516 108.959 8.569 C 108.959 9.569 109.145 10.369 109.519 10.969 C 109.892 11.569 110.379 11.869 110.979 11.869 C 111.725 11.869 112.342 11.706 112.829 11.379 ZM 119.718 12.279 L 116.048 12.279 L 116.048 11.919 C 116.662 11.919 117.018 11.806 117.118 11.579 L 117.118 5.839 C 116.412 5.779 116.055 5.749 116.048 5.749 L 116.048 5.359 C 116.262 5.359 116.682 5.239 117.308 4.999 C 117.942 4.752 118.388 4.629 118.648 4.629 L 118.648 5.389 C 119.248 4.882 119.878 4.629 120.538 4.629 C 121.898 4.629 122.768 4.959 123.148 5.619 C 123.788 4.959 124.498 4.629 125.278 4.629 C 127.178 4.629 128.128 5.276 128.128 6.569 L 128.128 11.579 C 128.235 11.806 128.595 11.919 129.208 11.919 L 129.208 12.279 L 125.528 12.279 L 125.528 11.919 C 126.142 11.919 126.498 11.806 126.598 11.579 L 126.598 7.199 C 126.598 6.459 126.492 5.942 126.278 5.649 C 126.065 5.356 125.698 5.209 125.178 5.209 C 124.505 5.209 123.885 5.479 123.318 6.019 C 123.365 6.166 123.388 6.349 123.388 6.569 L 123.388 11.579 C 123.488 11.806 123.845 11.919 124.458 11.919 L 124.458 12.279 L 120.788 12.279 L 120.788 11.919 C 121.402 11.919 121.758 11.806 121.858 11.579 L 121.858 7.199 C 121.858 6.459 121.752 5.942 121.538 5.649 C 121.325 5.356 120.955 5.209 120.428 5.209 C 119.782 5.209 119.188 5.459 118.648 5.959 L 118.648 11.579 C 118.748 11.806 119.105 11.919 119.718 11.919 L 119.718 12.279 ZM 131.409 6.059 C 131.569 6.059 131.709 6.116 131.829 6.229 C 131.949 6.342 132.009 6.516 132.009 6.749 C 132.009 6.942 131.933 7.092 131.779 7.199 C 131.626 7.299 131.446 7.349 131.239 7.349 C 131.026 7.349 130.853 7.272 130.719 7.119 C 130.579 6.966 130.509 6.759 130.509 6.499 C 130.509 5.912 130.753 5.452 131.239 5.119 C 131.733 4.792 132.426 4.629 133.319 4.629 C 134.373 4.629 135.146 4.889 135.639 5.409 C 136.133 5.929 136.379 6.622 136.379 7.489 L 136.379 10.849 C 136.379 11.216 136.439 11.482 136.559 11.649 C 136.679 11.822 136.823 11.909 136.989 11.909 C 137.136 11.909 137.269 11.869 137.389 11.789 C 137.509 11.709 137.569 11.612 137.569 11.499 L 137.869 11.499 C 137.869 11.812 137.756 12.042 137.529 12.189 C 137.296 12.342 136.889 12.419 136.309 12.419 C 135.743 12.419 135.339 12.186 135.099 11.719 C 134.433 12.206 133.599 12.449 132.599 12.449 C 130.899 12.449 130.049 11.759 130.049 10.379 C 130.049 10.079 130.156 9.812 130.369 9.579 C 130.576 9.339 130.879 9.139 131.279 8.979 C 131.673 8.819 132.046 8.692 132.399 8.599 C 132.753 8.499 133.193 8.392 133.719 8.279 C 134.246 8.159 134.623 8.066 134.849 7.999 C 134.849 7.046 134.723 6.346 134.469 5.899 C 134.223 5.459 133.783 5.239 133.149 5.239 C 132.129 5.239 131.549 5.512 131.409 6.059 Z M 134.949 11.289 C 134.883 11.042 134.849 10.739 134.849 10.379 L 134.849 8.369 C 134.723 8.416 134.509 8.479 134.209 8.559 C 133.909 8.639 133.666 8.706 133.479 8.759 C 133.293 8.819 133.069 8.906 132.809 9.019 C 132.549 9.132 132.346 9.246 132.199 9.359 C 132.053 9.472 131.923 9.622 131.809 9.809 C 131.696 9.996 131.639 10.196 131.639 10.409 C 131.639 10.956 131.743 11.336 131.949 11.549 C 132.156 11.762 132.469 11.869 132.889 11.869 C 133.636 11.869 134.323 11.676 134.949 11.289 ZM 141.92 12.279 L 138.25 12.279 L 138.25 11.919 C 138.863 11.919 139.22 11.806 139.32 11.579 L 139.32 5.839 C 138.613 5.779 138.257 5.749 138.25 5.749 L 138.25 5.359 C 138.463 5.359 138.883 5.239 139.51 4.999 C 140.143 4.752 140.59 4.629 140.85 4.629 L 140.85 11.579 C 140.95 11.806 141.307 11.919 141.92 11.919 L 141.92 12.279 Z M 140.03 3.539 C 139.783 3.539 139.567 3.446 139.38 3.259 C 139.193 3.072 139.1 2.832 139.1 2.539 C 139.1 2.279 139.18 2.052 139.34 1.859 C 139.507 1.666 139.72 1.569 139.98 1.569 C 140.233 1.569 140.453 1.666 140.64 1.859 C 140.833 2.052 140.93 2.296 140.93 2.589 C 140.93 2.849 140.847 3.072 140.68 3.259 C 140.507 3.446 140.29 3.539 140.03 3.539 ZM 146.306 12.279 L 142.636 12.279 L 142.636 11.919 C 143.249 11.919 143.606 11.806 143.706 11.579 L 143.706 2.779 C 142.999 2.719 142.643 2.689 142.636 2.689 L 142.636 2.299 C 142.849 2.299 143.269 2.179 143.896 1.939 C 144.529 1.692 144.976 1.569 145.236 1.569 L 145.236 11.579 C 145.336 11.806 145.693 11.919 146.306 11.919 L 146.306 12.279 ZM 147.822 12.139 C 147.615 11.926 147.512 11.682 147.512 11.409 C 147.512 11.136 147.605 10.889 147.792 10.669 C 147.979 10.449 148.219 10.339 148.512 10.339 C 148.772 10.339 149.012 10.442 149.232 10.649 C 149.445 10.849 149.552 11.086 149.552 11.359 C 149.552 11.632 149.455 11.882 149.262 12.109 C 149.069 12.336 148.825 12.449 148.532 12.449 C 148.272 12.449 148.035 12.346 147.822 12.139 ZM 155.022 5.139 C 154.322 5.139 153.755 5.406 153.322 5.939 C 152.895 6.472 152.682 7.192 152.682 8.099 C 152.682 9.059 152.952 9.916 153.492 10.669 C 154.025 11.422 154.632 11.799 155.312 11.799 C 156.299 11.799 157.092 11.426 157.692 10.679 L 158.102 10.889 C 157.775 11.429 157.349 11.826 156.822 12.079 C 156.295 12.326 155.599 12.449 154.732 12.449 C 154.305 12.449 153.892 12.382 153.492 12.249 C 153.099 12.122 152.709 11.909 152.322 11.609 C 151.935 11.309 151.629 10.862 151.402 10.269 C 151.175 9.682 151.062 8.982 151.062 8.169 C 151.062 7.182 151.412 6.346 152.112 5.659 C 152.805 4.972 153.719 4.629 154.852 4.629 C 155.752 4.629 156.445 4.782 156.932 5.089 C 157.419 5.396 157.662 5.842 157.662 6.429 C 157.662 6.689 157.595 6.896 157.462 7.049 C 157.322 7.202 157.145 7.279 156.932 7.279 C 156.725 7.279 156.545 7.229 156.392 7.129 C 156.239 7.029 156.162 6.882 156.162 6.689 C 156.162 6.449 156.222 6.272 156.342 6.159 C 156.462 6.046 156.602 5.989 156.762 5.989 C 156.615 5.422 156.035 5.139 155.022 5.139 ZM 160.845 8.059 C 160.845 9.352 161.088 10.322 161.575 10.969 C 162.068 11.616 162.702 11.939 163.475 11.939 C 164.088 11.939 164.582 11.666 164.955 11.119 C 165.328 10.566 165.515 9.859 165.515 8.999 C 165.515 6.439 164.625 5.159 162.845 5.159 C 162.245 5.159 161.762 5.446 161.395 6.019 C 161.028 6.586 160.845 7.266 160.845 8.059 Z M 163.255 12.449 C 161.988 12.449 160.995 12.079 160.275 11.339 C 159.562 10.592 159.205 9.612 159.205 8.399 C 159.205 7.299 159.528 6.396 160.175 5.689 C 160.822 4.982 161.808 4.629 163.135 4.629 C 164.475 4.629 165.478 4.982 166.145 5.689 C 166.812 6.396 167.145 7.369 167.145 8.609 C 167.145 9.709 166.825 10.622 166.185 11.349 C 165.545 12.082 164.568 12.449 163.255 12.449 ZM 172.01 12.279 L 168.34 12.279 L 168.34 11.919 C 168.953 11.919 169.31 11.806 169.41 11.579 L 169.41 5.839 C 168.703 5.779 168.346 5.749 168.34 5.749 L 168.34 5.359 C 168.553 5.359 168.973 5.239 169.6 4.999 C 170.233 4.752 170.68 4.629 170.94 4.629 L 170.94 5.389 C 171.54 4.882 172.17 4.629 172.83 4.629 C 174.19 4.629 175.06 4.959 175.44 5.619 C 176.08 4.959 176.79 4.629 177.57 4.629 C 179.47 4.629 180.42 5.276 180.42 6.569 L 180.42 11.579 C 180.526 11.806 180.886 11.919 181.5 11.919 L 181.5 12.279 L 177.82 12.279 L 177.82 11.919 C 178.433 11.919 178.79 11.806 178.89 11.579 L 178.89 7.199 C 178.89 6.459 178.783 5.942 178.57 5.649 C 178.356 5.356 177.99 5.209 177.47 5.209 C 176.796 5.209 176.176 5.479 175.61 6.019 C 175.656 6.166 175.68 6.349 175.68 6.569 L 175.68 11.579 C 175.78 11.806 176.136 11.919 176.75 11.919 L 176.75 12.279 L 173.08 12.279 L 173.08 11.919 C 173.693 11.919 174.05 11.806 174.15 11.579 L 174.15 7.199 C 174.15 6.459 174.043 5.942 173.83 5.649 C 173.616 5.356 173.246 5.209 172.72 5.209 C 172.073 5.209 171.48 5.459 170.94 5.959 L 170.94 11.579 C 171.04 11.806 171.396 11.919 172.01 11.919 L 172.01 12.279 Z"/>
</svg>
