<svg viewBox="0 0 176 35" xmlns="http://www.w3.org/2000/svg">
  <title>Secret Garden Inn</title>
  <g transform="matrix(0.004639, 0, 0, 0.004639, -73.749504, 20.921389)">
    <path d="M 16853 -300 C 16853 -295.333 16837.666 -279 16807 -251 C 16776.334 -223 16755 -205.333 16743 -198 C 16743 -196 16743 -194.667 16743 -194 C 16743 -191.333 16738.666 -190 16730 -190 C 16678.666 -147.333 16619 -108 16551 -72 C 16533.666 -64 16508.666 -51.333 16476 -34 C 16469.334 -29.333 16466 -23.333 16466 -16 C 16466 -5.333 16477.334 0 16500 0 C 16508.666 0 16521 0 16537 0 C 16553 0 16565.334 0 16574 0 C 16539.334 0 16510.666 0 16488 0 C 16473.334 0 16444.666 -10.667 16402 -32 C 16359.333 -53.333 16338 -69.333 16338 -80 C 16338 -87.333 16338.333 -98 16339 -112 C 16340.333 -126.667 16341 -137.667 16341 -145 C 16332.333 -144.333 16303.667 -128.667 16255 -98 C 16251 -104 16242.667 -107 16230 -107 C 16168.667 -70.333 16103.333 -43 16034 -25 L 16034 -18 C 16034 -6 16045.333 0 16068 0 C 16076 0 16086.667 0 16100 0 C 16114 0 16125 0 16133 0 C 16109 0 16086.333 0 16065 0 C 15955 0 15900 -58.667 15900 -176 C 15900 -306 15957.333 -426.333 16072 -537 C 16187.333 -648.333 16309 -704 16437 -704 L 16486 -704 C 16511.334 -704 16536.666 -652.667 16562 -550 C 16566 -533.333 16576.334 -525 16593 -525 C 16639.666 -626.333 16666 -679.667 16672 -685 C 16684 -697.667 16728.334 -704 16805 -704 L 16755 -596 L 16755 -570 L 16794 -570 L 16794 -640 C 16735.334 -552 16676 -464 16616 -376 C 16529.334 -240.667 16486 -150 16486 -104 C 16486 -77.333 16495 -64 16513 -64 C 16555 -64 16613.334 -96.667 16688 -162 C 16795.334 -254 16850.334 -301 16853 -303 L 16853 -300 M 16538 -577 C 16538 -629.667 16523.666 -656 16495 -656 L 16446 -656 C 16383.333 -656 16334 -639.667 16298 -607 C 16271.333 -582.333 16240.667 -552 16206 -516 L 16206 -500 L 16224 -500 C 16335.333 -551.333 16440 -577 16538 -577 M 16534 -530 L 16534 -541 L 16525 -550 L 16495 -550 C 16440.334 -550 16371.667 -514 16289 -442 C 16109 -285.333 16019 -172.667 16019 -104 C 16019 -84 16023.667 -72 16033 -68 C 16038.333 -68 16045 -67.333 16053 -66 C 16061 -64.667 16067 -64 16071 -64 C 16160.333 -64 16259.667 -119.333 16369 -230 C 16479 -340.667 16534 -440.667 16534 -530 Z"/>
    <path d="M 17992 -326 C 17966.666 -300 17927.666 -262 17875 -212 C 17855.666 -196.667 17827 -173 17789 -141 C 17683 -47 17602.334 0 17547 0 C 17521.666 0 17494.666 -8.333 17466 -25 C 17434 -43.667 17418 -65 17418 -89 C 17418 -136.333 17454 -205.333 17526 -296 C 17580 -357.333 17634.334 -419.333 17689 -482 L 17689 -519 C 17683.666 -519 17676 -519.667 17666 -521 C 17656 -523 17648.334 -524 17643 -524 C 17622.334 -524 17580.334 -505 17517 -467 C 17433.666 -417 17344.334 -346.333 17249 -255 C 17219 -227.667 17139.334 -145.667 17010 -9 C 16973.334 -3 16934.666 0 16894 0 L 16872 0 C 16880 -6.667 16884 -14 16884 -22 C 16884 -24.667 16883 -28 16881 -32 C 16879.666 -36.667 16879 -40.333 16879 -43 C 16879 -85 16966.666 -215 17142 -433 C 17156.666 -451 17164 -476.333 17164 -509 C 17155.334 -511 17142 -513.333 17124 -516 C 17085.334 -496.667 17042.666 -467 16996 -427 C 16957.334 -393 16918.334 -359 16879 -325 C 16870.334 -318.333 16858.334 -308 16843 -294 L 16836 -294 C 17026 -484 17130 -579 17148 -579 L 17142 -570 L 17146 -555 C 17154.666 -555 17167.666 -556.333 17185 -559 C 17203 -562.333 17216.334 -564 17225 -564 C 17233 -564 17244.666 -562.333 17260 -559 C 17276 -556.333 17288 -555 17296 -555 C 17308 -555 17314 -566.333 17314 -589 C 17314 -611 17298.666 -622 17268 -622 C 17256 -622 17239 -617.333 17217 -608 C 17195.666 -599.333 17179 -595 17167 -595 C 17211.666 -667.667 17250.666 -704 17284 -704 C 17336.666 -704 17363 -667.333 17363 -594 C 17363 -542.667 17324.334 -452.333 17247 -323 L 17247 -309 C 17250.334 -307 17256.334 -304.333 17265 -301 C 17296.334 -313 17346.334 -351.333 17415 -416 C 17491 -485.333 17544.334 -528.667 17575 -546 C 17574.334 -523.333 17579.334 -512 17590 -512 C 17610 -512 17638.666 -520 17676 -536 C 17713.334 -552 17742 -560 17762 -560 C 17768 -567.333 17771 -578.333 17771 -593 C 17771 -612.333 17758 -622 17732 -622 C 17723.334 -622 17711 -619 17695 -613 C 17679 -607 17666.666 -604 17658 -604 C 17686.666 -670.667 17717.334 -704 17750 -704 C 17796.666 -704 17820 -658 17820 -566 C 17820 -514 17779.334 -431.667 17698 -319 C 17616.666 -206.333 17576 -134 17576 -102 C 17576 -76.667 17586 -64 17606 -64 C 17652 -64 17718.666 -99.667 17806 -171 C 17868.666 -225 17930.666 -279.667 17992 -335 L 17992 -326 M 17639 -52 L 17627 -52 C 17623 -52 17602.334 -46 17565 -34 L 17565 -12 C 17614.334 -12 17639 -25.333 17639 -52 Z"/>
    <path d="M 19402 -1316 L 18700 -378 C 18683.334 -347.333 18658 -301.333 18624 -240 C 18581.334 -164.667 18560 -123.333 18560 -116 C 18560 -94 18571 -83 18593 -83 C 18640.334 -83 18760.666 -164.667 18954 -328 L 18961 -328 C 18917.666 -278 18874.666 -227.667 18832 -177 C 18774 -116.333 18721.666 -86 18675 -86 L 18673 -86 C 18651.666 -78.667 18620.334 -68 18579 -54 C 18562.334 -52 18537 -48.333 18503 -43 C 18491 -41 18485 -36.667 18485 -30 C 18485 -14.667 18499.334 -7.333 18528 -8 C 18516 -2.667 18504.666 0 18494 0 C 18439.334 0 18412 -35.667 18412 -107 C 18412 -115.667 18414.334 -127.333 18419 -142 C 18424.334 -156.667 18427 -167.667 18427 -175 L 18415 -175 C 18337 -91.667 18280.666 -50 18246 -50 C 18230 -50 18206 -41.667 18174 -25 C 18142.666 -8.333 18116.666 0 18096 0 C 18091.334 0 18083.666 -0.333 18073 -1 C 18063 -1.667 18055.334 -1.333 18050 0 C 18050 11.333 18069 17 18107 17 C 18118.334 17 18131 11.333 18145 0 C 18118.334 0 18093.666 0 18071 0 C 17999.666 0 17964 -51 17964 -153 C 17964 -288.333 18032.666 -415 18170 -533 C 18302 -647 18436.334 -704 18573 -704 C 18641 -704 18675 -673 18675 -611 C 18675 -599.667 18674 -583.333 18672 -562 C 18670 -540.667 18669 -524.333 18669 -513 C 18679.666 -514.333 18685 -512.333 18685 -507 C 18688.334 -511 18693.334 -521 18700 -537 L 19397 -1492 L 19402 -1472 L 19402 -1316 M 18553 3 C 18553 1 18552 0 18550 0 L 18550 0 C 18548.666 0 18546.666 1 18544 3 C 18544 6.333 18545 8.333 18547 9 C 18551 8.333 18553 7 18553 5 L 18553 3 M 18185 -4 C 18185 -2 18184 -0.667 18182 0 C 18179.334 -0.667 18177 -2 18175 -4 L 18179 -7 C 18182.334 -6.333 18184.334 -5.333 18185 -4 M 18655 -543 C 18655 -587 18653.666 -613 18651 -621 C 18644.334 -644.333 18624 -656 18590 -656 C 18554.666 -656 18511 -644.667 18459 -622 C 18399 -595.333 18369 -568 18369 -540 C 18389 -540 18419 -546 18459 -558 C 18499 -570 18529.334 -576 18550 -576 C 18588.666 -576 18611 -567.333 18617 -550 C 18595 -610 18576.666 -640 18562 -640 C 18502 -640 18409.334 -569.333 18284 -428 C 18158.666 -286.667 18096 -181 18096 -111 C 18096 -91.667 18101.334 -77.333 18112 -68 C 18176 -68 18230 -80 18274 -104 C 18331.334 -137.333 18398.666 -191.667 18476 -267 C 18559.334 -349.667 18609.334 -417 18626 -469 C 18625.334 -470.333 18623.666 -478 18621 -492 C 18621 -504 18621 -521 18621 -543 L 18655 -543 Z"/>
  </g>
  <g transform="matrix(0.009223, 0, 0, 0.009223, -162.31105, 20.99799)">
    <path transform="matrix(1,0,0,1,19635,0)" d="M 3282 -1466 Q 3282 -1362 3110 -1248 Q 3041 -1202 2847 -1104 Q 2827 -1060 2788 -975 Q 2640 -682 2119 -516 Q 2043 -436 1890 -279 Q 1745 -135 1404 -31 Q 1094 64 858 64 Q 572 64 383 -23 Q 132 -142 132 -396 Q 132 -716 490 -910 Q 788 -1073 1138 -1073 Q 1177 -1073 1256 -1064 Q 1335 -1055 1374 -1055 Q 1403 -1055 1442 -1080 Q 1425 -1361 1659 -1503 Q 1849 -1620 2150 -1620 Q 2154 -1619 2154 -1619 L 2163 -1619 L 2193 -1616 L 2322 -1607 Q 2347 -1598 2392 -1577 Q 2457 -1542 2552 -1460 Q 2612 -1408 2653 -1408 Q 2645 -1408 2807 -1498 Q 2970 -1589 3076 -1589 Q 3282 -1589 3282 -1466 M 3205 -1535 L 3205 -1538 Q 3204 -1546 3200 -1546 L 3198 -1546 Q 3193 -1546 3193 -1538 L 3193 -1535 Q 3194 -1530 3198 -1530 L 3200 -1530 Q 3205 -1531 3205 -1535 M 3132 -1571 L 3041 -1571 Q 3021 -1571 3003 -1561 Q 3019 -1555 3105 -1555 Q 3127 -1555 3132 -1571 M 3248 -1472 Q 3248 -1534 3209 -1534 Q 3209 -1387 3033 -1267 L 3021 -1259 Q 2977 -1229 2895 -1163 Q 2989 -1198 3107 -1291 Q 3248 -1400 3248 -1472 M 2978 -1521 Q 2834 -1521 2709 -1374 L 2714 -1367 Q 2877 -1481 2978 -1521 M 3058 -1472 Q 3058 -1515 3030 -1515 Q 2989 -1515 2888 -1443 Q 2799 -1378 2763 -1335 Q 2763 -1313 2783 -1284 Q 2809 -1245 2813 -1236 Q 2831 -1192 2838 -1163 Q 2905 -1182 2981 -1291 Q 3058 -1400 3058 -1472 M 2634 -1383 L 2625 -1392 L 2616 -1392 L 2625 -1383 L 2634 -1383 M 2689 -1349 L 2684 -1349 Q 2668 -1340 2659 -1324 L 2666 -1324 Q 2675 -1332 2689 -1349 M 2815 -1156 Q 2815 -1254 2739 -1310 L 2689 -1261 L 2689 -1251 Q 2709 -1210 2709 -1202 Q 2709 -1181 2700 -1177 L 2666 -1236 Q 2580 -1151 2535 -1089 Q 2515 -1060 2469 -1007 L 2476 -1007 Q 2546 -1007 2720 -1098 Q 2749 -1111 2806 -1138 Q 2815 -1143 2815 -1156 M 2503 -1466 Q 2410 -1589 2147 -1589 Q 1992 -1589 1862 -1521 Q 1706 -1439 1693 -1301 Q 1929 -1482 2279 -1482 Q 2315 -1482 2386 -1472 Q 2457 -1462 2494 -1462 Q 2500 -1464 2503 -1466 M 2562 -1000 L 2542 -1000 Q 2530 -1000 2499 -987 Q 2469 -975 2453 -975 L 2444 -966 Q 2468 -964 2562 -1000 M 1880 -1560 L 1880 -1563 Q 1879 -1571 1875 -1571 L 1874 -1571 Q 1869 -1571 1867 -1563 L 1867 -1560 Q 1869 -1555 1873 -1555 L 1875 -1555 Q 1880 -1556 1880 -1560 M 2594 -1362 Q 2594 -1403 2513 -1429 Q 2451 -1448 2395 -1448 L 2143 -1448 Q 2047 -1448 1878 -1379 Q 1684 -1302 1684 -1227 Q 1684 -1163 1720 -1163 Q 1750 -1163 1809 -1167 Q 1869 -1172 1899 -1172 Q 2159 -1172 2184 -1073 L 2181 -1070 L 2175 -1073 Q 2170 -1078 2158 -1086 Q 2146 -1094 2125 -1104 Q 2123 -1138 1909 -1138 L 1791 -1138 Q 1737 -1138 1718 -1123 Q 1719 -1120 1724 -1113 Q 1802 -1016 1906 -982 Q 1986 -955 2129 -955 Q 2244 -955 2272 -991 Q 2298 -1022 2390 -1138 Q 2457 -1224 2594 -1362 M 2813 -1089 L 2806 -1089 Q 2722 -1043 2552 -957 Q 2542 -952 2466 -932 Q 2408 -917 2390 -892 L 2150 -573 Q 2149 -570 2143 -559 Q 2147 -557 2224 -582 Q 2426 -650 2581 -771 Q 2770 -917 2813 -1089 M 2242 -942 L 2192 -942 Q 2167 -942 2119 -937 Q 2071 -932 2046 -932 Q 2091 -923 2138 -923 Q 2159 -923 2233 -932 L 2242 -942 M 1856 -1555 Q 1845 -1557 1767 -1521 Q 1462 -1382 1462 -1150 Q 1462 -1098 1472 -1098 Q 1482 -1098 1613 -1138 Q 1613 -1410 1856 -1555 M 1905 -883 Q 1736 -923 1643 -1073 Q 1643 -1089 1629 -1104 Q 1620 -1104 1603 -1101 Q 1587 -1098 1580 -1098 Q 1516 -1073 1482 -1064 L 1482 -1055 Q 1494 -1037 1496 -1025 Q 1576 -978 1654 -932 Q 1744 -883 1828 -883 L 1905 -883 M 2193 -869 L 1711 -869 Q 1742 -810 1742 -745 Q 1742 -589 1677 -484 Q 1688 -484 1709 -483 Q 1731 -482 1742 -482 Q 1837 -482 1923 -500 Q 2005 -573 2184 -853 Q 2184 -854 2186 -858 Q 2189 -863 2193 -869 M 1724 -776 Q 1724 -783 1718 -785 Q 1715 -783 1715 -779 L 1715 -775 Q 1715 -770 1718 -770 Q 1722 -772 1724 -776 M 1457 -1039 L 1457 -1048 L 1455 -1048 Q 1435 -1048 1432 -1039 L 1457 -1039 M 1711 -794 Q 1711 -857 1632 -901 Q 1444 -1007 1371 -1007 Q 1340 -1007 1301 -957 Q 1595 -949 1711 -794 M 1668 -534 L 1620 -484 L 1625 -484 L 1629 -482 Q 1643 -482 1668 -534 M 1702 -675 Q 1702 -878 1380 -878 Q 1263 -878 1232 -862 Q 1177 -835 1177 -733 Q 1177 -615 1313 -542 Q 1425 -482 1555 -482 Q 1590 -482 1646 -558 Q 1702 -635 1702 -675 M 1613 -451 L 1589 -451 Q 1451 -356 1245 -294 Q 1469 -294 1613 -451 M 1521 -460 Q 1499 -465 1417 -484 Q 1228 -531 1177 -637 Q 1163 -668 1163 -681 L 1163 -742 Q 1163 -759 1167 -793 Q 1172 -827 1172 -844 Q 1145 -844 1055 -794 Q 745 -626 745 -371 Q 745 -344 845 -326 Q 918 -313 969 -313 L 982 -313 L 957 -337 Q 962 -346 964 -353 L 966 -353 Q 996 -341 1016 -337 Q 1013 -358 1013 -376 Q 1013 -491 1113 -491 Q 1177 -491 1177 -430 Q 1177 -369 1125 -369 Q 1094 -369 1077 -407 Q 1061 -445 1059 -445 Q 1030 -445 1030 -380 Q 1030 -335 1048 -319 L 1080 -319 Q 1154 -319 1315 -366 Q 1492 -417 1521 -460 M 1890 -466 L 1874 -466 Q 1837 -466 1767 -458 Q 1697 -451 1663 -451 Q 1462 -264 1236 -264 Q 1214 -264 1170 -267 Q 1126 -270 1104 -270 Q 1083 -270 1080 -264 Q 947 -267 789 -309 Q 753 -319 754 -319 L 745 -319 Q 758 -189 917 -116 Q 1043 -59 1193 -59 Q 1358 -59 1500 -126 Q 1669 -207 1781 -319 Q 1571 -206 1335 -206 Q 1172 -206 1123 -240 Q 1136 -242 1164 -231 Q 1192 -221 1202 -221 Q 1444 -221 1576 -259 Q 1759 -313 1890 -466 M 1319 -1007 L 1319 -1016 Q 1236 -1025 1150 -1025 Q 813 -1025 518 -880 Q 156 -702 156 -402 Q 156 -167 389 -53 Q 568 34 831 34 Q 1073 34 1245 -25 Q 1067 -17 926 -72 Q 753 -141 706 -288 Q 695 -322 688 -353 Q 598 -469 598 -534 Q 598 -629 638 -629 Q 638 -613 625 -587 Q 613 -561 613 -546 Q 613 -460 688 -392 Q 720 -817 1245 -951 L 1319 -1007 M 1113 -245 L 1107 -242 L 1104 -245 L 1104 -246 Q 1106 -251 1107 -251 L 1108 -251 Q 1113 -250 1113 -245 M 1104 -254 Q 1103 -245 1099 -245 L 1098 -245 Q 1093 -245 1091 -254 L 1091 -255 Q 1093 -264 1098 -264 L 1099 -264 Q 1103 -264 1104 -255 L 1104 -254 Z"/>
    <path transform="matrix(1,0,0,1,22080,0)" d="M 663 -288 Q 511 -143 448 -99 Q 309 0 181 0 Q 118 0 57 -36 Q -25 -84 -25 -125 Q -25 -268 -16 -301 Q 0 -331 21 -371 Q 27 -384 40 -412 Q 95 -524 233 -614 Q 372 -704 493 -704 Q 549 -704 549 -704 Q 582 -701 604 -661 Q 622 -627 622 -589 Q 622 -440 442 -337 Q 351 -284 138 -218 Q 122 -175 122 -135 Q 122 -64 208 -64 Q 324 -64 449 -138 Q 499 -168 654 -288 L 663 -288 M 559 -606 Q 559 -631 530 -656 L 491 -656 Q 433 -656 353 -605 Q 267 -550 267 -497 Q 285 -500 285 -500 Q 420 -560 550 -573 Q 559 -583 559 -606 M 518 -584 Q 518 -593 516 -606 Q 515 -620 515 -627 Q 505 -640 478 -640 Q 440 -640 417 -618 Q 274 -488 188 -285 L 188 -256 Q 263 -256 387 -368 Q 518 -488 518 -584 M 383 -98 L 383 -128 Q 348 -128 286 -89 Q 191 -33 188 -30 L 188 0 Q 267 0 383 -98 Z"/>
    <path transform="matrix(1,0,0,1,22733,0)" d="M 663 -303 Q 446 -45 353 0 Q 354 -128 337 -128 Q 328 -128 172 -33 L 172 -3 Q 194 -3 239 -14 Q 284 -25 308 -25 L 313 0 Q 240 0 163 0 Q 116 0 42 -41 Q -40 -85 -40 -125 L -40 -301 Q -14 -325 -2 -359 Q 45 -497 174 -600 Q 304 -704 446 -704 Q 607 -704 607 -582 Q 607 -359 500 -359 Q 466 -359 466 -389 Q 466 -400 475 -420 Q 484 -441 484 -454 Q 484 -474 466 -550 Q 375 -550 241 -384 Q 107 -219 107 -125 Q 107 -64 188 -64 Q 371 -64 654 -303 L 663 -303 M 540 -613 Q 540 -635 515 -653 Q 511 -653 504 -654 Q 497 -656 493 -656 Q 379 -656 303 -588 Q 270 -560 254 -540 Q 221 -503 221 -482 L 239 -482 Q 377 -552 524 -579 Q 540 -595 540 -613 Z"/>
    <path transform="matrix(1,0,0,1,23386,0)" d="M 620 -288 Q 616 -282 595 -262 Q 324 0 199 0 Q 107 0 107 -74 Q 107 -148 183 -244 Q 248 -317 313 -388 Q 346 -425 412 -497 L 412 -512 L 258 -512 L 16 -310 L 7 -310 L 233 -545 L 233 -550 Q 233 -561 224 -576 Q 215 -591 215 -601 Q 215 -642 262 -675 Q 304 -704 347 -704 Q 387 -704 387 -671 L 337 -615 L 337 -605 Q 337 -576 387 -576 Q 405 -576 440 -590 Q 475 -604 494 -604 Q 508 -604 533 -574 Q 559 -545 559 -530 Q 536 -486 406 -332 Q 297 -201 288 -138 Q 285 -116 285 -98 Q 294 -98 311 -93 Q 328 -89 337 -89 Q 378 -89 611 -288 L 620 -288 M 464 -568 L 464 -579 Q 402 -579 346 -570 L 346 -555 L 451 -555 Q 464 -555 464 -568 Z"/>
    <path transform="matrix(1,0,0,1,24038,0)" d="M 663 -288 Q 511 -143 448 -99 Q 309 0 181 0 Q 118 0 57 -36 Q -25 -84 -25 -125 Q -25 -268 -16 -301 Q 0 -331 21 -371 Q 27 -384 40 -412 Q 95 -524 233 -614 Q 372 -704 493 -704 Q 549 -704 549 -704 Q 582 -701 604 -661 Q 622 -627 622 -589 Q 622 -440 442 -337 Q 351 -284 138 -218 Q 122 -175 122 -135 Q 122 -64 208 -64 Q 324 -64 449 -138 Q 499 -168 654 -288 L 663 -288 M 559 -606 Q 559 -631 530 -656 L 491 -656 Q 433 -656 353 -605 Q 267 -550 267 -497 Q 285 -500 285 -500 Q 420 -560 550 -573 Q 559 -583 559 -606 M 518 -584 Q 518 -593 516 -606 Q 515 -620 515 -627 Q 505 -640 478 -640 Q 440 -640 417 -618 Q 274 -488 188 -285 L 188 -256 Q 263 -256 387 -368 Q 518 -488 518 -584 M 383 -98 L 383 -128 Q 348 -128 286 -89 Q 191 -33 188 -30 L 188 0 Q 267 0 383 -98 Z"/>
    <path transform="matrix(1,0,0,1,24691,0)" d="M 774 -1011 Q 682 -914 534 -737 Q 494 -693 424 -604 Q 422 -600 417 -591 L 412 -582 Q 412 -580 409 -579 Q 408 -578 408 -579 Q 408 -577 408 -574 Q 408 -569 412 -564 L 595 -564 L 620 -555 L 611 -543 L 383 -543 Q 369 -543 236 -333 Q 138 -177 138 -74 Q 138 -64 178 -64 Q 259 -64 487 -285 L 497 -285 Q 235 0 64 0 Q -21 0 -21 -78 Q -21 -133 93 -350 Q 95 -356 102 -367 Q 102 -385 95 -391 L 98 -392 L 94 -391 Q 92 -392 89 -392 L 217 -521 L 217 -540 L 89 -540 Q 82 -517 63 -512 Q 80 -512 98 -512 Q 171 -512 252 -524 Q 267 -537 448 -766 Q 508 -841 586 -922 Q 685 -1024 758 -1024 Q 774 -1024 774 -1011 M 95 -391 Q 81 -383 56 -357 L 83 -387 Q 87 -390 94 -391 L 95 -391 M 56 -357 L 7 -301 Q 22 -319 56 -357 M 7 -301 L 4 -298 Q 0 -295 -7 -292 Q -3 -296 -3 -301 L 7 -301 Z"/>
    <path d="M 28205.729 -1457 C 28205.729 -1286.333 28063.729 -1114.667 27779.729 -942 C 27755.063 -926.667 27719.395 -907 27672.729 -883 L 27116.729 -681 C 27022.063 -646.333 26893.063 -618.667 26729.729 -598 C 26703.729 -581.333 26690.729 -541.333 26690.729 -478 C 26690.729 -306.667 26739.729 -221 26837.729 -221 C 26949.063 -221 27051.063 -253.667 27143.729 -319 C 27173.729 -339.667 27239.063 -400 27339.729 -500 C 27405.729 -565.333 27462.395 -598 27509.729 -598 C 27523.729 -598 27530.729 -594 27530.729 -586 C 27530.729 -583.333 27530.395 -578.667 27529.729 -572 C 27529.063 -566 27528.729 -561.667 27528.729 -559 L 27539.729 -559 L 27582.729 -582 L 27589.729 -582 L 27460.729 -451 C 27460.729 -457 27457.729 -460 27451.729 -460 C 27449.063 -460 27394.729 -419 27288.729 -337 C 27279.395 -319 27271.063 -302.667 27263.729 -288 L 27263.729 -279 L 27426.729 -426 L 27435.729 -426 L 27276.729 -236 C 27259.395 -217.333 27232.729 -185.667 27196.729 -141 C 27191.395 -133 27163.063 -72 27111.729 42 C 27113.729 40.667 27115.395 40 27116.729 40 C 27183.395 -44.667 27298.063 -168.333 27460.729 -331 C 27466.063 -337 27474.395 -344.333 27485.729 -353 L 27167.729 23 C 27134.395 60.333 27081.729 123.333 27009.729 212 C 27009.729 212 26933.395 314.667 26780.729 520 L 26322.729 1134 C 26294.063 1173.333 26264.395 1193 26233.729 1193 C 26199.063 1193 26181.729 1172.667 26181.729 1132 C 26181.729 1048.667 26266.395 875.667 26435.729 613 C 26426.395 613 26421.729 613 26421.729 613 C 26402.395 615 26355.395 622 26280.729 634 C 26223.395 642.667 26176.063 647 26138.729 647 C 25989.395 647 25861.063 614.667 25753.729 550 C 25625.729 471.333 25561.729 362.667 25561.729 224 C 25561.729 80 25625.729 -41.667 25753.729 -141 C 25872.395 -233 26006.063 -279 26154.729 -279 C 26262.063 -279 26356.063 -252.333 26436.729 -199 C 26530.729 -138.333 26577.729 -56.667 26577.729 46 C 26577.729 155.333 26530.395 244.667 26435.729 314 C 26350.395 376.667 26251.395 408 26138.729 408 C 26089.395 408 26034.395 401.667 25973.729 389 C 25889.063 373 25846.729 350.667 25846.729 322 C 25969.395 359.333 26064.729 378 26132.729 378 C 26238.063 378 26330.395 350 26409.729 294 C 26499.063 232 26543.729 150.333 26543.729 49 C 26543.729 -38.333 26506.729 -104 26432.729 -148 C 26372.063 -186.667 26295.395 -206 26202.729 -206 C 26054.063 -206 25923.729 -165 25811.729 -83 C 25688.395 7 25626.729 123.667 25626.729 267 C 25626.729 384.333 25683.729 475.333 25797.729 540 C 25891.729 593.333 26002.395 620 26129.729 620 C 26258.395 620 26356.395 604.333 26423.729 573 C 26458.395 557.667 26507.395 507 26570.729 421 C 26642.063 320.333 26752.395 173 26901.729 -21 C 26937.729 -66.333 26993.395 -131 27068.729 -215 L 27068.729 -221 C 26974.063 -171.667 26882.063 -147 26792.729 -147 C 26577.395 -147 26469.729 -243 26469.729 -435 C 26469.729 -452.333 26472.395 -477.667 26477.729 -511 C 26483.063 -544.333 26485.729 -569.333 26485.729 -586 C 26296.395 -586 26163.395 -630.667 26086.729 -720 C 26081.395 -726 26075.395 -734.333 26068.729 -745 L 25975.729 -923 C 25945.729 -982.333 25930.729 -1046.667 25930.729 -1116 C 25930.729 -1289.333 25994.063 -1433 26120.729 -1547 C 26243.395 -1656.333 26392.729 -1711 26568.729 -1711 C 26586.729 -1711 26614.063 -1709.333 26650.729 -1706 C 26688.063 -1703.333 26715.729 -1702 26733.729 -1702 C 26755.729 -1702 26781.729 -1710.667 26811.729 -1728 C 26853.729 -1750.667 26879.063 -1763.667 26887.729 -1767 C 27029.729 -1817.667 27166.395 -1843 27297.729 -1843 C 27373.063 -1843 27441.729 -1838 27503.729 -1828 C 27573.063 -1816 27642.395 -1779.667 27711.729 -1719 C 27731.729 -1701 27743.063 -1690 27745.729 -1686 C 27765.729 -1657.333 27779.063 -1643 27785.729 -1643 C 27802.395 -1643 27827.395 -1644.667 27860.729 -1648 C 27894.063 -1651.333 27919.063 -1653 27935.729 -1653 C 28115.729 -1653 28205.729 -1587.667 28205.729 -1457 M 28039.729 -1408 L 28039.729 -1508 C 28039.729 -1522.667 28029.063 -1538.333 28007.729 -1555 C 27987.063 -1571.667 27968.729 -1580 27952.729 -1580 L 27804.729 -1580 C 27804.729 -1564 27803.063 -1540.667 27799.729 -1510 C 27797.063 -1479.333 27795.729 -1456.667 27795.729 -1442 L 27795.729 -1432 L 27957.729 -1432 C 27967.729 -1432 27981.395 -1428 27998.729 -1420 C 28016.729 -1412 28030.395 -1408 28039.729 -1408 M 28049.729 -1288 L 28049.729 -1294 C 28007.063 -1243.333 27976.395 -1202.667 27957.729 -1172 C 27979.063 -1188.667 28006.063 -1217 28038.729 -1257 L 28043.729 -1266 C 28047.729 -1272.667 28049.729 -1280 28049.729 -1288 M 27774.729 -1539 L 27772.729 -1573 C 27702.729 -1573 27614.395 -1548 27507.729 -1498 C 27413.063 -1452.667 27334.063 -1403 27270.729 -1349 C 27270.729 -1325 27285.063 -1298.667 27313.729 -1270 C 27477.063 -1343.333 27624.063 -1394.333 27754.729 -1423 C 27768.729 -1436.333 27775.395 -1475 27774.729 -1539 M 27745.729 -1638 L 27745.729 -1643 C 27739.729 -1655.667 27734.395 -1664 27729.729 -1668 C 27637.729 -1768.667 27495.063 -1819 27301.729 -1819 C 27074.395 -1819 26906.395 -1774.667 26797.729 -1686 C 26951.729 -1627.333 27084.729 -1542.667 27196.729 -1432 L 27215.729 -1432 C 27377.063 -1522.667 27553.729 -1591.333 27745.729 -1638 M 27754.729 -1399 C 27718.729 -1399 27684.063 -1392.667 27650.729 -1380 C 27556.729 -1345.333 27463.729 -1300.333 27371.729 -1245 C 27364.395 -1242.333 27355.063 -1236.333 27343.729 -1227 L 27343.729 -1211 C 27359.063 -1179.667 27383.729 -1136 27417.729 -1080 C 27427.063 -1080.667 27459.729 -1097 27515.729 -1129 C 27645.063 -1203 27724.729 -1293 27754.729 -1399 M 28033.729 -1380 C 28033.729 -1390 28025.063 -1398.667 28007.729 -1406 C 27991.063 -1413.333 27977.395 -1417 27966.729 -1417 L 27819.729 -1417 C 27802.395 -1417 27779.063 -1388.667 27749.729 -1332 C 27712.395 -1262.667 27691.395 -1225.333 27686.729 -1220 C 27562.729 -1081.333 27404.395 -1012 27211.729 -1012 C 27205.729 -1012 27195.395 -1012.667 27180.729 -1014 C 27166.729 -1015.333 27155.729 -1016 27147.729 -1016 L 27132.729 -1025 L 27141.729 -1030 C 27241.729 -1018.667 27320.395 -1030 27377.729 -1064 C 27357.729 -1105.333 27333.395 -1149.667 27304.729 -1197 L 27295.729 -1197 C 27279.063 -1185.667 27254.063 -1169 27220.729 -1147 C 27212.063 -1141 27136.729 -1081.667 26994.729 -969 C 26947.395 -932.333 26878.729 -874 26788.729 -794 C 26788.729 -767.333 26870.729 -754 27034.729 -754 C 27180.729 -754 27360.395 -813.333 27573.729 -932 C 27673.063 -986.667 27765.063 -1049.667 27849.729 -1121 C 27972.395 -1223.667 28033.729 -1310 28033.729 -1380 M 27270.729 -1245 C 27270.729 -1255.667 27265.729 -1269 27255.729 -1285 C 27245.729 -1301.667 27236.395 -1310 27227.729 -1310 L 27220.729 -1310 C 27130.729 -1249.333 27038.729 -1162 26944.729 -1048 C 26938.729 -1041.333 26935.729 -1035.333 26935.729 -1030 C 27059.063 -1120.667 27170.729 -1192.333 27270.729 -1245 M 27156.729 -1399 L 27156.729 -1408 C 27009.395 -1567.333 26875.395 -1647 26754.729 -1647 C 26724.729 -1647 26677.729 -1613 26613.729 -1545 C 26550.395 -1477.667 26518.729 -1428 26518.729 -1396 L 26518.729 -1392 C 26638.063 -1425.333 26719.729 -1442 26763.729 -1442 L 26779.729 -1442 C 26728.395 -1428.667 26677.063 -1415.667 26625.729 -1403 C 26551.729 -1381 26507.063 -1359.333 26491.729 -1338 C 26477.063 -1316.667 26469.729 -1262.333 26469.729 -1175 C 26469.729 -1049.667 26515.729 -947.667 26607.729 -869 C 26615.729 -869 26664.729 -928 26754.729 -1046 C 26800.729 -1106 26864.063 -1169 26944.729 -1235 C 27016.063 -1289.667 27086.729 -1344.333 27156.729 -1399 M 27512.729 -577 C 27490.729 -577 27472.395 -571 27457.729 -559 C 27414.395 -524.333 27368.395 -475.333 27319.729 -412 C 27348.395 -416 27387.729 -438 27437.729 -478 C 27487.729 -518.667 27512.729 -551.667 27512.729 -577 M 27367.729 -426 L 27304.729 -387 L 27295.729 -369 C 27315.063 -369 27339.063 -388 27367.729 -426 M 26681.729 -1663 C 26647.063 -1669 26605.063 -1672 26555.729 -1672 C 26407.063 -1672 26276.729 -1627 26164.729 -1537 C 26044.729 -1440.333 25984.729 -1319.667 25984.729 -1175 C 25984.729 -1101 25999.063 -1039.667 26027.729 -991 C 26041.729 -1005.667 26056.063 -1029.667 26070.729 -1063 C 26089.395 -1101 26103.063 -1126 26111.729 -1138 C 26175.729 -1229.333 26282.063 -1302.667 26430.729 -1358 C 26482.729 -1460 26564.395 -1558.333 26675.729 -1653 C 26678.395 -1655 26680.395 -1658.333 26681.729 -1663 M 27034.729 -731 C 26995.395 -731 26938.063 -737 26862.729 -749 C 26812.729 -757 26788.063 -761 26788.729 -761 L 26772.729 -761 C 26766.729 -745.667 26760.729 -726 26754.729 -702 C 26857.395 -702 26950.729 -711.667 27034.729 -731 M 26591.729 -828 L 26591.729 -844 C 26584.395 -849.333 26573.729 -857.667 26559.729 -869 C 26500.395 -927.667 26460.729 -974.333 26440.729 -1009 C 26414.729 -1057 26401.729 -1116 26401.729 -1186 C 26401.729 -1200 26403.395 -1220.333 26406.729 -1247 C 26410.729 -1273.667 26412.729 -1293.333 26412.729 -1306 L 26412.729 -1319 C 26336.063 -1286.333 26262.729 -1236 26192.729 -1168 C 26110.063 -1087.333 26068.729 -1012.667 26068.729 -944 L 26068.729 -926 C 26201.395 -782.667 26347.729 -711 26507.729 -711 L 26521.729 -711 C 26523.729 -711 26547.063 -750 26591.729 -828 M 26412.729 -600 C 26411.395 -602.667 26408.729 -604 26404.729 -604 L 26401.729 -604 C 26397.729 -604 26395.729 -602.667 26395.729 -600 C 26395.729 -595.333 26398.729 -593 26404.729 -593 L 26406.729 -593 C 26409.395 -591.667 26411.395 -593.333 26412.729 -598 L 26412.729 -600 M 26991.729 -8 L 26991.729 -10 C 26991.063 -15.333 26989.395 -18 26986.729 -18 L 26983.729 -18 C 26981.063 -18 26979.395 -15.333 26978.729 -10 L 26978.729 -8 C 26979.395 -2.667 26981.063 0 26983.729 0 L 26986.729 0 C 26989.395 0 26991.063 -2.667 26991.729 -8 M 26387.729 -607 C 26287.063 -627.667 26180.729 -687 26068.729 -785 C 26068.729 -740.333 26106.395 -698 26181.729 -658 C 26249.729 -622 26308.729 -604 26358.729 -604 C 26361.395 -604 26365.729 -604.667 26371.729 -606 C 26377.729 -607.333 26383.063 -607.667 26387.729 -607 M 26745.729 -171 L 26745.729 -173 C 26745.063 -178.333 26743.395 -181 26740.729 -181 L 26738.729 -181 C 26735.395 -181 26733.729 -178.333 26733.729 -173 L 26733.729 -171 C 26735.063 -167 26736.729 -165 26738.729 -165 L 26740.729 -165 C 26744.063 -166.333 26745.729 -168.333 26745.729 -171 M 26724.729 -172 C 26724.063 -175.333 26722.395 -177.333 26719.729 -178 L 26718.729 -178 C 26716.729 -176.667 26715.729 -175 26715.729 -173 L 26715.729 -171 C 26715.729 -168.333 26716.063 -167 26716.729 -167 L 26718.729 -167 C 26720.063 -167.667 26722.063 -169.333 26724.729 -172 M 26681.729 -197 C 26647.063 -221 26609.395 -261.667 26568.729 -319 C 26568.729 -289.667 26577.729 -262 26595.729 -236 C 26614.395 -210 26638.063 -197 26666.729 -197 L 26681.729 -197 M 26969.729 16 C 26959.063 22 26907.395 86 26814.729 208 C 26722.063 330.667 26675.729 394 26675.729 398 C 26763.063 321.333 26858.063 199 26960.729 31 C 26962.063 27.667 26965.063 22.667 26969.729 16 M 26828.729 392 C 26784.063 432 26728.729 471 26662.729 509 C 26640.729 519 26612.395 534.333 26577.729 555 C 26549.063 580.333 26494.063 660.667 26412.729 796 C 26341.395 915.333 26291.729 1003.667 26263.729 1061 C 26248.395 1095.667 26240.729 1123 26240.729 1143 C 26240.729 1159.667 26244.395 1168 26251.729 1168 L 26258.729 1168 C 26266.729 1164 26276.729 1155.667 26288.729 1143 L 26828.729 392 M 26951.729 -1457 C 26947.063 -1453 26938.395 -1451 26925.729 -1451 L 26912.729 -1451 C 26899.395 -1451 26891.063 -1453 26887.729 -1457 C 26888.395 -1459 26890.063 -1460 26892.729 -1460 L 26942.729 -1460 C 26946.729 -1460 26949.729 -1459 26951.729 -1457 M 26839.729 -1451 C 26839.729 -1447 26834.063 -1444.667 26822.729 -1444 L 26818.729 -1444 C 26813.395 -1444 26808.729 -1445.333 26804.729 -1448 L 26804.729 -1449 C 26804.729 -1451.667 26809.395 -1453 26818.729 -1453 L 26824.729 -1453 C 26829.395 -1453 26834.395 -1452.333 26839.729 -1451 Z"/>
    <path d="M 28457.729 -300 C 28457.729 -295.333 28442.395 -279 28411.729 -251 C 28381.063 -223 28359.729 -205.333 28347.729 -198 C 28347.729 -196 28347.729 -194.667 28347.729 -194 C 28347.729 -191.333 28343.395 -190 28334.729 -190 C 28283.395 -147.333 28223.729 -108 28155.729 -72 C 28138.395 -64 28113.395 -51.333 28080.729 -34 C 28074.063 -29.333 28070.729 -23.333 28070.729 -16 C 28070.729 -5.333 28082.063 0 28104.729 0 C 28113.395 0 28125.729 0 28141.729 0 C 28157.729 0 28170.063 0 28178.729 0 C 28144.063 0 28115.395 0 28092.729 0 C 28078.063 0 28049.395 -10.667 28006.729 -32 C 27964.063 -53.333 27942.729 -69.333 27942.729 -80 C 27942.729 -87.333 27943.063 -98 27943.729 -112 C 27945.063 -126.667 27945.729 -137.667 27945.729 -145 C 27937.063 -144.333 27908.395 -128.667 27859.729 -98 C 27855.729 -104 27847.395 -107 27834.729 -107 C 27773.395 -70.333 27708.063 -43 27638.729 -25 L 27638.729 -18 C 27638.729 -6 27650.063 0 27672.729 0 C 27680.729 0 27691.395 0 27704.729 0 C 27718.729 0 27729.729 0 27737.729 0 C 27713.729 0 27691.063 0 27669.729 0 C 27559.729 0 27504.729 -58.667 27504.729 -176 C 27504.729 -306 27562.063 -426.333 27676.729 -537 C 27792.063 -648.333 27913.729 -704 28041.729 -704 L 28090.729 -704 C 28116.063 -704 28141.395 -652.667 28166.729 -550 C 28170.729 -533.333 28181.063 -525 28197.729 -525 C 28244.395 -626.333 28270.729 -679.667 28276.729 -685 C 28288.729 -697.667 28333.063 -704 28409.729 -704 L 28359.729 -596 L 28359.729 -570 L 28398.729 -570 L 28398.729 -640 C 28340.063 -552 28280.729 -464 28220.729 -376 C 28134.063 -240.667 28090.729 -150 28090.729 -104 C 28090.729 -77.333 28099.729 -64 28117.729 -64 C 28159.729 -64 28218.063 -96.667 28292.729 -162 C 28400.063 -254 28455.063 -301 28457.729 -303 L 28457.729 -300 M 28142.729 -577 C 28142.729 -629.667 28128.395 -656 28099.729 -656 L 28050.729 -656 C 27988.063 -656 27938.729 -639.667 27902.729 -607 C 27876.063 -582.333 27845.395 -552 27810.729 -516 L 27810.729 -500 L 27828.729 -500 C 27940.063 -551.333 28044.729 -577 28142.729 -577 M 28138.729 -530 L 28138.729 -541 L 28129.729 -550 L 28099.729 -550 C 28045.063 -550 27976.395 -514 27893.729 -442 C 27713.729 -285.333 27623.729 -172.667 27623.729 -104 C 27623.729 -84 27628.395 -72 27637.729 -68 C 27643.063 -68 27649.729 -67.333 27657.729 -66 C 27665.729 -64.667 27671.729 -64 27675.729 -64 C 27765.063 -64 27864.395 -119.333 27973.729 -230 C 28083.729 -340.667 28138.729 -440.667 28138.729 -530 Z"/>
    <path d="M 29068.729 -288 C 29066.063 -284 29057.729 -275.333 29043.729 -262 C 28863.063 -87.333 28731.063 0 28647.729 0 C 28586.395 0 28555.729 -24.667 28555.729 -74 C 28555.729 -123.333 28581.063 -180 28631.729 -244 C 28675.063 -292.667 28718.395 -340.667 28761.729 -388 C 28783.729 -412.667 28816.729 -449 28860.729 -497 L 28860.729 -512 L 28706.729 -512 L 28464.729 -310 L 28455.729 -310 L 28681.729 -545 L 28681.729 -550 C 28681.729 -557.333 28678.729 -566 28672.729 -576 C 28666.729 -586 28663.729 -594.333 28663.729 -601 C 28663.729 -628.333 28679.395 -653 28710.729 -675 C 28738.729 -694.333 28767.063 -704 28795.729 -704 C 28822.395 -704 28835.729 -693 28835.729 -671 L 28785.729 -615 L 28785.729 -605 C 28785.729 -585.667 28802.395 -576 28835.729 -576 C 28847.729 -576 28865.395 -580.667 28888.729 -590 C 28912.063 -599.333 28930.063 -604 28942.729 -604 C 28952.063 -604 28965.063 -594 28981.729 -574 C 28999.063 -554.667 29007.729 -540 29007.729 -530 C 28992.395 -500.667 28941.395 -434.667 28854.729 -332 C 28782.063 -244.667 28742.729 -180 28736.729 -138 C 28734.729 -123.333 28733.729 -110 28733.729 -98 C 28739.729 -98 28748.395 -96.333 28759.729 -93 C 28771.063 -90.333 28779.729 -89 28785.729 -89 C 28813.063 -89 28904.395 -155.333 29059.729 -288 L 29068.729 -288 M 28912.729 -568 L 28912.729 -579 C 28871.395 -579 28832.063 -576 28794.729 -570 L 28794.729 -555 L 28899.729 -555 C 28908.395 -555 28912.729 -559.333 28912.729 -568 Z"/>
    <path d="M 30493.729 -1316 L 29791.729 -378 C 29775.063 -347.333 29749.729 -301.333 29715.729 -240 C 29673.063 -164.667 29651.729 -123.333 29651.729 -116 C 29651.729 -94 29662.729 -83 29684.729 -83 C 29732.063 -83 29852.395 -164.667 30045.729 -328 L 30052.729 -328 C 30009.395 -278 29966.395 -227.667 29923.729 -177 C 29865.729 -116.333 29813.395 -86 29766.729 -86 L 29764.729 -86 C 29743.395 -78.667 29712.063 -68 29670.729 -54 C 29654.063 -52 29628.729 -48.333 29594.729 -43 C 29582.729 -41 29576.729 -36.667 29576.729 -30 C 29576.729 -14.667 29591.063 -7.333 29619.729 -8 C 29607.729 -2.667 29596.395 0 29585.729 0 C 29531.063 0 29503.729 -35.667 29503.729 -107 C 29503.729 -115.667 29506.063 -127.333 29510.729 -142 C 29516.063 -156.667 29518.729 -167.667 29518.729 -175 L 29506.729 -175 C 29428.729 -91.667 29372.395 -50 29337.729 -50 C 29321.729 -50 29297.729 -41.667 29265.729 -25 C 29234.395 -8.333 29208.395 0 29187.729 0 C 29183.063 0 29175.395 -0.333 29164.729 -1 C 29154.729 -1.667 29147.063 -1.333 29141.729 0 C 29141.729 11.333 29160.729 17 29198.729 17 C 29210.063 17 29222.729 11.333 29236.729 0 C 29210.063 0 29185.395 0 29162.729 0 C 29091.395 0 29055.729 -51 29055.729 -153 C 29055.729 -288.333 29124.395 -415 29261.729 -533 C 29393.729 -647 29528.063 -704 29664.729 -704 C 29732.729 -704 29766.729 -673 29766.729 -611 C 29766.729 -599.667 29765.729 -583.333 29763.729 -562 C 29761.729 -540.667 29760.729 -524.333 29760.729 -513 C 29771.395 -514.333 29776.729 -512.333 29776.729 -507 C 29780.063 -511 29785.063 -521 29791.729 -537 L 30488.729 -1492 L 30493.729 -1472 L 30493.729 -1316 M 29644.729 3 C 29644.729 1 29643.729 0 29641.729 0 L 29641.729 0 C 29640.395 0 29638.395 1 29635.729 3 C 29635.729 6.333 29636.729 8.333 29638.729 9 C 29642.729 8.333 29644.729 7 29644.729 5 L 29644.729 3 M 29276.729 -4 C 29276.729 -2 29275.729 -0.667 29273.729 0 C 29271.063 -0.667 29268.729 -2 29266.729 -4 L 29270.729 -7 C 29274.063 -6.333 29276.063 -5.333 29276.729 -4 M 29746.729 -543 C 29746.729 -587 29745.395 -613 29742.729 -621 C 29736.063 -644.333 29715.729 -656 29681.729 -656 C 29646.395 -656 29602.729 -644.667 29550.729 -622 C 29490.729 -595.333 29460.729 -568 29460.729 -540 C 29480.729 -540 29510.729 -546 29550.729 -558 C 29590.729 -570 29621.063 -576 29641.729 -576 C 29680.395 -576 29702.729 -567.333 29708.729 -550 C 29686.729 -610 29668.395 -640 29653.729 -640 C 29593.729 -640 29501.063 -569.333 29375.729 -428 C 29250.395 -286.667 29187.729 -181 29187.729 -111 C 29187.729 -91.667 29193.063 -77.333 29203.729 -68 C 29267.729 -68 29321.729 -80 29365.729 -104 C 29423.063 -137.333 29490.395 -191.667 29567.729 -267 C 29651.063 -349.667 29701.063 -417 29717.729 -469 C 29717.063 -470.333 29715.395 -478 29712.729 -492 C 29712.729 -504 29712.729 -521 29712.729 -543 L 29746.729 -543 Z"/>
    <path d="M 30737.729 -288 C 30636.395 -191.333 30564.729 -128.333 30522.729 -99 C 30430.063 -33 30341.063 0 30255.729 0 C 30213.729 0 30172.395 -12 30131.729 -36 C 30077.063 -68 30049.729 -97.667 30049.729 -125 C 30049.729 -220.333 30052.729 -279 30058.729 -301 C 30069.395 -321 30081.729 -344.333 30095.729 -371 C 30099.729 -379.667 30106.063 -393.333 30114.729 -412 C 30151.395 -486.667 30215.729 -554 30307.729 -614 C 30400.395 -674 30487.063 -704 30567.729 -704 C 30605.063 -704 30623.729 -704 30623.729 -704 C 30645.729 -702 30664.063 -687.667 30678.729 -661 C 30690.729 -638.333 30696.729 -614.333 30696.729 -589 C 30696.729 -489.667 30636.729 -405.667 30516.729 -337 C 30456.063 -301.667 30354.729 -262 30212.729 -218 C 30202.063 -189.333 30196.729 -161.667 30196.729 -135 C 30196.729 -87.667 30225.395 -64 30282.729 -64 C 30360.063 -64 30440.395 -88.667 30523.729 -138 C 30557.063 -158 30625.395 -208 30728.729 -288 L 30737.729 -288 M 30633.729 -606 C 30633.729 -622.667 30624.063 -639.333 30604.729 -656 L 30565.729 -656 C 30527.063 -656 30481.063 -639 30427.729 -605 C 30370.395 -568.333 30341.729 -532.333 30341.729 -497 C 30353.729 -499 30359.729 -500 30359.729 -500 C 30449.729 -540 30538.063 -564.333 30624.729 -573 C 30630.729 -579.667 30633.729 -590.667 30633.729 -606 M 30592.729 -584 C 30592.729 -590 30592.063 -597.333 30590.729 -606 C 30590.063 -615.333 30589.729 -622.333 30589.729 -627 C 30583.063 -635.667 30570.729 -640 30552.729 -640 C 30527.395 -640 30507.063 -632.667 30491.729 -618 C 30396.395 -531.333 30320.063 -420.333 30262.729 -285 L 30262.729 -256 C 30312.729 -256 30379.063 -293.333 30461.729 -368 C 30549.063 -448 30592.729 -520 30592.729 -584 M 30457.729 -98 L 30457.729 -128 C 30434.395 -128 30402.063 -115 30360.729 -89 C 30297.395 -51.667 30264.729 -32 30262.729 -30 L 30262.729 0 C 30315.395 0 30380.395 -32.667 30457.729 -98 Z"/>
    <path d="M 31874.729 -326 C 31849.395 -300 31810.395 -262 31757.729 -212 C 31738.395 -196.667 31709.729 -173 31671.729 -141 C 31565.729 -47 31485.063 0 31429.729 0 C 31404.395 0 31377.395 -8.333 31348.729 -25 C 31316.729 -43.667 31300.729 -65 31300.729 -89 C 31300.729 -136.333 31336.729 -205.333 31408.729 -296 C 31462.729 -357.333 31517.063 -419.333 31571.729 -482 L 31571.729 -519 C 31566.395 -519 31558.729 -519.667 31548.729 -521 C 31538.729 -523 31531.063 -524 31525.729 -524 C 31505.063 -524 31463.063 -505 31399.729 -467 C 31316.395 -417 31227.063 -346.333 31131.729 -255 C 31101.729 -227.667 31022.063 -145.667 30892.729 -9 C 30856.063 -3 30817.395 0 30776.729 0 L 30754.729 0 C 30762.729 -6.667 30766.729 -14 30766.729 -22 C 30766.729 -24.667 30765.729 -28 30763.729 -32 C 30762.395 -36.667 30761.729 -40.333 30761.729 -43 C 30761.729 -85 30849.395 -215 31024.729 -433 C 31039.395 -451 31046.729 -476.333 31046.729 -509 C 31038.063 -511 31024.729 -513.333 31006.729 -516 C 30968.063 -496.667 30925.395 -467 30878.729 -427 C 30840.063 -393 30801.063 -359 30761.729 -325 C 30753.063 -318.333 30741.063 -308 30725.729 -294 L 30718.729 -294 C 30908.729 -484 31012.729 -579 31030.729 -579 L 31024.729 -570 L 31028.729 -555 C 31037.395 -555 31050.395 -556.333 31067.729 -559 C 31085.729 -562.333 31099.063 -564 31107.729 -564 C 31115.729 -564 31127.395 -562.333 31142.729 -559 C 31158.729 -556.333 31170.729 -555 31178.729 -555 C 31190.729 -555 31196.729 -566.333 31196.729 -589 C 31196.729 -611 31181.395 -622 31150.729 -622 C 31138.729 -622 31121.729 -617.333 31099.729 -608 C 31078.395 -599.333 31061.729 -595 31049.729 -595 C 31094.395 -667.667 31133.395 -704 31166.729 -704 C 31219.395 -704 31245.729 -667.333 31245.729 -594 C 31245.729 -542.667 31207.063 -452.333 31129.729 -323 L 31129.729 -309 C 31133.063 -307 31139.063 -304.333 31147.729 -301 C 31179.063 -313 31229.063 -351.333 31297.729 -416 C 31373.729 -485.333 31427.063 -528.667 31457.729 -546 C 31457.063 -523.333 31462.063 -512 31472.729 -512 C 31492.729 -512 31521.395 -520 31558.729 -536 C 31596.063 -552 31624.729 -560 31644.729 -560 C 31650.729 -567.333 31653.729 -578.333 31653.729 -593 C 31653.729 -612.333 31640.729 -622 31614.729 -622 C 31606.063 -622 31593.729 -619 31577.729 -613 C 31561.729 -607 31549.395 -604 31540.729 -604 C 31569.395 -670.667 31600.063 -704 31632.729 -704 C 31679.395 -704 31702.729 -658 31702.729 -566 C 31702.729 -514 31662.063 -431.667 31580.729 -319 C 31499.395 -206.333 31458.729 -134 31458.729 -102 C 31458.729 -76.667 31468.729 -64 31488.729 -64 C 31534.729 -64 31601.395 -99.667 31688.729 -171 C 31751.395 -225 31813.395 -279.667 31874.729 -335 L 31874.729 -326 M 31521.729 -52 L 31509.729 -52 C 31505.729 -52 31485.063 -46 31447.729 -34 L 31447.729 -12 C 31497.063 -12 31521.729 -25.333 31521.729 -52 Z"/>
    <path d="M 35416.727 -1779 C 35416.727 -1745.667 35382.059 -1718 35312.727 -1696 C 35282.727 -1686 35243.059 -1663 35193.727 -1627 C 35139.727 -1587 35109.727 -1554.667 35103.727 -1530 C 35082.391 -1510 35053.059 -1479.667 35015.727 -1439 L 34549.727 -826 C 34594.391 -838 34645.059 -864.333 34701.727 -905 C 34784.391 -965 34831.727 -999 34843.727 -1007 L 34843.727 -996 C 34843.727 -960.667 34799.391 -921.333 34710.727 -878 C 34668.059 -860.667 34606.059 -832.667 34524.727 -794 C 34468.727 -729.333 34400.059 -649.667 34318.727 -555 C 34000.727 -201.667 33591.727 -25 33091.727 -25 C 32961.059 -25 32843.391 -41.333 32738.729 -74 C 32732.061 -76 32712.393 -85.333 32679.729 -102 C 32649.73 -115.333 32631.73 -122 32625.73 -122 C 32611.063 -122 32586.395 -124.667 32551.73 -130 C 32535.729 -132 32511.395 -134.667 32478.729 -138 C 32377.395 -148.667 32287.395 -177.667 32208.729 -225 C 32110.729 -284.333 32061.729 -358.667 32061.729 -448 C 32061.729 -537.333 32104.729 -609.333 32190.729 -664 C 32259.395 -708.667 32344.063 -735.667 32444.729 -745 C 32462.729 -745.667 32490.395 -747.667 32527.729 -751 C 32547.729 -753.667 32582.73 -775 32632.73 -815 C 32696.729 -866.333 32732.061 -894.333 32738.729 -899 C 32930.727 -1015 33166.059 -1075.333 33444.727 -1080 C 33457.391 -1132.667 33475.727 -1168 33499.727 -1186 L 33499.727 -1181 C 33499.727 -1174.333 33495.391 -1160.667 33486.727 -1140 C 33478.727 -1120 33474.727 -1100 33474.727 -1080 C 33606.727 -1060.667 33703.059 -1029.667 33763.727 -987 C 33787.059 -971.667 33808.391 -964 33827.727 -964 C 33847.059 -972.667 33893.059 -984 33965.727 -998 C 34033.727 -1010.667 34089.059 -1029.667 34131.727 -1055 C 34211.059 -1308.333 34468.727 -1482.333 34904.727 -1577 C 34941.391 -1582.333 34994.391 -1593.333 35063.727 -1610 C 35087.059 -1622.667 35121.059 -1641.333 35165.727 -1666 C 35235.059 -1703.333 35318.727 -1741 35416.727 -1779 M 35174.727 -1643 L 35174.727 -1645 C 35173.391 -1650.333 35171.391 -1653 35168.727 -1653 L 35167.727 -1653 C 35164.391 -1653 35162.727 -1650.333 35162.727 -1645 L 35162.727 -1643 C 35162.727 -1637 35164.391 -1634 35167.727 -1634 L 35168.727 -1634 C 35172.727 -1634 35174.727 -1637 35174.727 -1643 M 35153.727 -1634 C 35125.059 -1624.667 35110.727 -1615.667 35110.727 -1607 L 35112.727 -1604 C 35120.727 -1606 35134.391 -1616 35153.727 -1634 M 34972.727 -1555 C 34962.059 -1555 34956.727 -1555 34956.727 -1555 C 34778.727 -1510.333 34640.391 -1461.667 34541.727 -1409 C 34396.391 -1331.667 34294.391 -1230 34235.727 -1104 L 34253.727 -1104 C 34277.059 -1114.667 34310.059 -1131.333 34352.727 -1154 L 34972.727 -1555 M 35069.727 -1571 L 35058.727 -1571 C 35044.727 -1571 34997.391 -1544.333 34916.727 -1491 C 34830.059 -1432.333 34699.391 -1344.333 34524.727 -1227 C 34496.059 -1208.333 34417.059 -1162.333 34287.727 -1089 C 34273.727 -1081.667 34253.727 -1070.667 34227.727 -1056 C 34217.059 -1049.333 34211.727 -1020.333 34211.727 -969 C 34211.727 -869 34260.727 -819 34358.727 -819 C 34362.727 -821 34366.059 -823.333 34368.727 -826 C 34540.059 -1056 34696.059 -1233.333 34836.727 -1358 C 34890.059 -1404 34967.727 -1475 35069.727 -1571 M 33621.727 -1021 C 33577.727 -1037.667 33538.059 -1046 33502.727 -1046 L 33474.727 -1046 L 33483.727 -1030 C 33571.059 -1024 33607.059 -1021 33591.727 -1021 L 33621.727 -1021 M 34334.727 -776 L 34334.727 -785 C 34203.391 -815.667 34132.391 -886 34121.727 -996 L 34106.727 -996 C 34114.727 -996 34070.727 -983 33974.727 -957 C 33945.391 -948.333 33901.727 -935 33843.727 -917 C 33882.391 -857.667 33901.727 -796.333 33901.727 -733 C 33901.727 -591 33806.727 -464 33616.727 -352 C 33487.391 -275.333 33329.059 -212.333 33141.727 -163 L 33141.727 -159 C 33141.727 -153 33163.391 -145 33206.727 -135 C 33246.059 -126.333 33273.391 -122 33288.727 -122 L 33374.727 -122 C 33570.727 -122 33752.727 -187.667 33920.727 -319 C 33974.059 -361.667 34044.391 -430.333 34131.727 -525 C 34219.059 -619.667 34281.391 -695 34318.727 -751 C 34329.391 -767 34334.727 -775.333 34334.727 -776 M 33845.727 -758 C 33845.727 -827.333 33820.391 -874.333 33769.727 -899 C 33702.391 -903 33660.727 -906 33644.727 -908 C 33600.059 -914 33560.059 -925.333 33524.727 -942 L 33502.727 -942 C 33366.727 -942 33237.391 -889.333 33114.727 -784 C 32984.727 -674.667 32919.727 -553.667 32919.727 -421 C 32919.727 -371 32937.391 -320 32972.727 -268 C 33010.059 -210 33052.059 -181 33098.727 -181 C 33152.727 -181 33226.059 -199.333 33318.727 -236 C 33454.059 -289.333 33525.727 -322.333 33533.727 -335 L 33521.727 -335 C 33507.059 -335 33485.391 -333.667 33456.727 -331 C 33428.059 -329 33406.727 -328 33392.727 -328 C 33308.727 -328 33221.391 -352.667 33130.727 -402 L 33130.727 -408 C 33130.727 -416.667 33134.391 -422.667 33141.727 -426 C 33239.727 -381.333 33326.391 -359 33401.727 -359 C 33524.391 -359 33627.727 -394.333 33711.727 -465 C 33801.059 -539.667 33845.727 -637.333 33845.727 -758 M 33453.727 -1030 L 33453.727 -1034 C 33453.727 -1043.333 33450.727 -1050.333 33444.727 -1055 L 33358.727 -1055 C 33237.391 -1055 33119.727 -1036.667 33005.727 -1000 C 32877.727 -959.333 32775.391 -901.333 32698.729 -826 L 32634.73 -761 L 32634.73 -751 C 32761.393 -735 32848.391 -700.333 32895.727 -647 C 32908.391 -655 32921.727 -671 32935.727 -695 C 32952.391 -725.667 32963.727 -744.333 32969.727 -751 C 33108.391 -908.333 33268.391 -998.333 33449.727 -1021 L 33453.727 -1030 M 33554.727 -342 L 33554.727 -345 C 33554.727 -350.333 33552.727 -353 33548.727 -353 L 33547.727 -353 C 33545.059 -353 33543.391 -350.333 33542.727 -345 L 33542.727 -342 C 33543.391 -337.333 33545.059 -335 33547.727 -335 L 33548.727 -335 C 33552.727 -335 33554.727 -337.333 33554.727 -342 M 33026.727 -172 C 33024.059 -172.667 33021.059 -175.667 33017.727 -181 C 33007.727 -189.667 32991.727 -203 32969.727 -221 C 32903.727 -274.333 32870.727 -357 32870.727 -469 C 32870.727 -485.667 32873.391 -510 32878.727 -542 C 32884.059 -574.667 32886.727 -599.333 32886.727 -616 C 32886.727 -646.667 32851.391 -674.333 32780.727 -699 C 32722.061 -720.333 32672.729 -731 32632.73 -731 C 32594.063 -731 32563.063 -693 32539.729 -617 C 32521.729 -559 32512.729 -504.667 32512.729 -454 C 32512.729 -314.667 32570.063 -212.333 32684.729 -147 L 32856.727 -147 C 32865.391 -147 32916.059 -152.333 33008.727 -163 L 33026.727 -172 M 33460.727 -89 L 33311.727 -89 C 33287.059 -89 33243.727 -98.667 33181.727 -118 C 33120.391 -137.333 33082.391 -147 33067.727 -147 C 33029.059 -147 32971.391 -142.667 32894.727 -134 C 32818.727 -126 32761.729 -122 32723.729 -122 L 32732.729 -113 C 32872.727 -70.333 32964.727 -49 33008.727 -49 L 33127.727 -49 C 33235.059 -49 33346.059 -62.333 33460.727 -89 M 32591.73 -156 C 32493.729 -242 32444.729 -344.667 32444.729 -464 C 32444.729 -506 32454.729 -551.333 32474.729 -600 C 32495.395 -642 32516.395 -684.333 32537.729 -727 C 32533.063 -727 32526.395 -727.667 32517.729 -729 C 32509.729 -730.333 32503.729 -731 32499.729 -731 C 32407.729 -731 32324.395 -708.667 32249.729 -664 C 32161.063 -612 32116.729 -543 32116.729 -457 C 32116.729 -361.667 32172.395 -285 32283.729 -227 C 32376.395 -178.333 32475.395 -154 32580.73 -154 C 32582.73 -154.667 32586.395 -155.333 32591.73 -156 Z"/>
    <path d="M 35483.723 -326 C 35458.391 -300 35419.391 -262 35366.723 -212 C 35347.391 -196.667 35318.723 -173 35280.723 -141 C 35174.723 -47 35094.055 0 35038.723 0 C 35013.391 0 34986.391 -8.333 34957.723 -25 C 34925.723 -43.667 34909.723 -65 34909.723 -89 C 34909.723 -136.333 34945.723 -205.333 35017.723 -296 C 35071.723 -357.333 35126.055 -419.333 35180.723 -482 L 35180.723 -519 C 35175.391 -519 35167.723 -519.667 35157.723 -521 C 35147.723 -523 35140.055 -524 35134.723 -524 C 35114.055 -524 35072.055 -505 35008.723 -467 C 34925.391 -417 34836.055 -346.333 34740.723 -255 C 34710.723 -227.667 34631.055 -145.667 34501.723 -9 C 34465.055 -3 34426.391 0 34385.723 0 L 34363.723 0 C 34371.723 -6.667 34375.723 -14 34375.723 -22 C 34375.723 -24.667 34374.723 -28 34372.723 -32 C 34371.391 -36.667 34370.723 -40.333 34370.723 -43 C 34370.723 -85 34458.391 -215 34633.723 -433 C 34648.391 -451 34655.723 -476.333 34655.723 -509 C 34647.055 -511 34633.723 -513.333 34615.723 -516 C 34577.055 -496.667 34534.391 -467 34487.723 -427 C 34449.055 -393 34410.055 -359 34370.723 -325 C 34362.055 -318.333 34350.055 -308 34334.723 -294 L 34327.723 -294 C 34517.723 -484 34621.723 -579 34639.723 -579 L 34633.723 -570 L 34637.723 -555 C 34646.391 -555 34659.391 -556.333 34676.723 -559 C 34694.723 -562.333 34708.055 -564 34716.723 -564 C 34724.723 -564 34736.391 -562.333 34751.723 -559 C 34767.723 -556.333 34779.723 -555 34787.723 -555 C 34799.723 -555 34805.723 -566.333 34805.723 -589 C 34805.723 -611 34790.391 -622 34759.723 -622 C 34747.723 -622 34730.723 -617.333 34708.723 -608 C 34687.391 -599.333 34670.723 -595 34658.723 -595 C 34703.391 -667.667 34742.391 -704 34775.723 -704 C 34828.391 -704 34854.723 -667.333 34854.723 -594 C 34854.723 -542.667 34816.055 -452.333 34738.723 -323 L 34738.723 -309 C 34742.055 -307 34748.055 -304.333 34756.723 -301 C 34788.055 -313 34838.055 -351.333 34906.723 -416 C 34982.723 -485.333 35036.055 -528.667 35066.723 -546 C 35066.055 -523.333 35071.055 -512 35081.723 -512 C 35101.723 -512 35130.391 -520 35167.723 -536 C 35205.055 -552 35233.723 -560 35253.723 -560 C 35259.723 -567.333 35262.723 -578.333 35262.723 -593 C 35262.723 -612.333 35249.723 -622 35223.723 -622 C 35215.055 -622 35202.723 -619 35186.723 -613 C 35170.723 -607 35158.391 -604 35149.723 -604 C 35178.391 -670.667 35209.055 -704 35241.723 -704 C 35288.391 -704 35311.723 -658 35311.723 -566 C 35311.723 -514 35271.055 -431.667 35189.723 -319 C 35108.391 -206.333 35067.723 -134 35067.723 -102 C 35067.723 -76.667 35077.723 -64 35097.723 -64 C 35143.723 -64 35210.391 -99.667 35297.723 -171 C 35360.391 -225 35422.391 -279.667 35483.723 -335 L 35483.723 -326 M 35130.723 -52 L 35118.723 -52 C 35114.723 -52 35094.055 -46 35056.723 -34 L 35056.723 -12 C 35106.055 -12 35130.723 -25.333 35130.723 -52 Z"/>
    <path d="M 36648.723 -326 C 36623.391 -300 36584.391 -262 36531.723 -212 C 36512.391 -196.667 36483.723 -173 36445.723 -141 C 36339.723 -47 36259.055 0 36203.723 0 C 36178.391 0 36151.391 -8.333 36122.723 -25 C 36090.723 -43.667 36074.723 -65 36074.723 -89 C 36074.723 -136.333 36110.723 -205.333 36182.723 -296 C 36236.723 -357.333 36291.055 -419.333 36345.723 -482 L 36345.723 -519 C 36340.391 -519 36332.723 -519.667 36322.723 -521 C 36312.723 -523 36305.055 -524 36299.723 -524 C 36279.055 -524 36237.055 -505 36173.723 -467 C 36090.391 -417 36001.055 -346.333 35905.723 -255 C 35875.723 -227.667 35796.055 -145.667 35666.723 -9 C 35630.055 -3 35591.391 0 35550.723 0 L 35528.723 0 C 35536.723 -6.667 35540.723 -14 35540.723 -22 C 35540.723 -24.667 35539.723 -28 35537.723 -32 C 35536.391 -36.667 35535.723 -40.333 35535.723 -43 C 35535.723 -85 35623.391 -215 35798.723 -433 C 35813.391 -451 35820.723 -476.333 35820.723 -509 C 35812.055 -511 35798.723 -513.333 35780.723 -516 C 35742.055 -496.667 35699.391 -467 35652.723 -427 C 35614.055 -393 35575.055 -359 35535.723 -325 C 35527.055 -318.333 35515.055 -308 35499.723 -294 L 35492.723 -294 C 35682.723 -484 35786.723 -579 35804.723 -579 L 35798.723 -570 L 35802.723 -555 C 35811.391 -555 35824.391 -556.333 35841.723 -559 C 35859.723 -562.333 35873.055 -564 35881.723 -564 C 35889.723 -564 35901.391 -562.333 35916.723 -559 C 35932.723 -556.333 35944.723 -555 35952.723 -555 C 35964.723 -555 35970.723 -566.333 35970.723 -589 C 35970.723 -611 35955.391 -622 35924.723 -622 C 35912.723 -622 35895.723 -617.333 35873.723 -608 C 35852.391 -599.333 35835.723 -595 35823.723 -595 C 35868.391 -667.667 35907.391 -704 35940.723 -704 C 35993.391 -704 36019.723 -667.333 36019.723 -594 C 36019.723 -542.667 35981.055 -452.333 35903.723 -323 L 35903.723 -309 C 35907.055 -307 35913.055 -304.333 35921.723 -301 C 35953.055 -313 36003.055 -351.333 36071.723 -416 C 36147.723 -485.333 36201.055 -528.667 36231.723 -546 C 36231.055 -523.333 36236.055 -512 36246.723 -512 C 36266.723 -512 36295.391 -520 36332.723 -536 C 36370.055 -552 36398.723 -560 36418.723 -560 C 36424.723 -567.333 36427.723 -578.333 36427.723 -593 C 36427.723 -612.333 36414.723 -622 36388.723 -622 C 36380.055 -622 36367.723 -619 36351.723 -613 C 36335.723 -607 36323.391 -604 36314.723 -604 C 36343.391 -670.667 36374.055 -704 36406.723 -704 C 36453.391 -704 36476.723 -658 36476.723 -566 C 36476.723 -514 36436.055 -431.667 36354.723 -319 C 36273.391 -206.333 36232.723 -134 36232.723 -102 C 36232.723 -76.667 36242.723 -64 36262.723 -64 C 36308.723 -64 36375.391 -99.667 36462.723 -171 C 36525.391 -225 36587.391 -279.667 36648.723 -335 L 36648.723 -326 M 36295.723 -52 L 36283.723 -52 C 36279.723 -52 36259.055 -46 36221.723 -34 L 36221.723 -12 C 36271.055 -12 36295.723 -25.333 36295.723 -52 Z"/>
  </g>
</svg>
