<svg viewBox="0 0 145 35" xmlns="http://www.w3.org/2000/svg">
  <title>Les Artistes Inn</title>
  <g>
    <path d="M 30.583 7.747 C 30.583 9.04 29.856 10.157 28.403 11.097 C 27.123 11.937 25.8 12.357 24.433 12.357 C 24.253 12.357 23.986 12.317 23.633 12.237 C 23.273 12.157 23 12.117 22.813 12.117 C 21.473 13.144 19.846 13.657 17.933 13.657 C 17.713 13.657 17.473 13.654 17.213 13.647 C 14.913 16.08 12.716 17.84 10.623 18.927 C 11.95 19.394 12.903 19.627 13.483 19.627 C 13.71 19.627 14.136 19.58 14.763 19.487 C 15.39 19.394 15.713 19.347 15.733 19.347 C 15.746 19.347 15.753 19.347 15.753 19.347 C 15.626 19.394 15.066 19.537 14.073 19.777 C 14.166 19.764 14.293 19.764 14.453 19.777 C 14.606 19.79 14.72 19.797 14.793 19.797 C 15.566 19.797 16.373 19.554 17.213 19.067 C 17.586 18.84 18.273 18.337 19.273 17.557 C 19.3 17.584 19.313 17.61 19.313 17.637 C 19.313 17.737 18.526 18.374 16.953 19.547 C 17.28 19.547 17.676 19.394 18.143 19.087 C 18.503 18.84 18.863 18.59 19.223 18.337 C 19.223 18.25 19.303 18.22 19.463 18.247 C 18.063 19.78 16.096 20.547 13.563 20.547 C 12.716 20.547 11.51 20.19 9.943 19.477 L 9.623 19.477 C 9.196 19.684 8.686 19.877 8.093 20.057 C 7.32 20.297 6.616 20.44 5.983 20.487 C 5.85 20.494 5.096 20.497 3.723 20.497 C 2.823 20.497 2.03 20.397 1.343 20.197 C 0.33 19.904 -0.177 19.437 -0.177 18.797 C -0.177 17.757 0.903 17.237 3.063 17.237 C 4.496 17.237 6.36 17.584 8.653 18.277 C 8.96 18.377 9.416 18.524 10.023 18.717 C 10.03 18.717 10.05 18.717 10.083 18.717 C 10.256 18.717 10.696 18.407 11.403 17.787 C 11.996 17.274 12.986 16.23 14.373 14.657 C 14.54 14.47 14.78 14.184 15.093 13.797 L 15.053 13.727 C 14.753 13.727 14.3 13.767 13.693 13.847 C 13.086 13.927 12.63 13.967 12.323 13.967 C 9.45 13.967 8.013 12.99 8.013 11.037 C 8.013 9.317 9 7.937 10.973 6.897 C 12.6 6.03 14.363 5.597 16.263 5.597 C 16.483 5.597 16.81 5.634 17.243 5.707 C 17.67 5.78 17.993 5.817 18.213 5.817 C 18.4 5.817 18.68 5.797 19.053 5.757 C 19.42 5.71 19.696 5.687 19.883 5.687 C 20.843 5.687 21.593 5.83 22.133 6.117 C 22.346 6.23 22.51 6.287 22.623 6.287 C 22.81 6.287 23.086 6.227 23.453 6.107 C 23.82 5.98 24.096 5.917 24.283 5.917 C 24.363 5.917 24.486 5.927 24.653 5.947 C 24.82 5.96 24.943 5.967 25.023 5.967 C 25.016 5.967 25.22 5.93 25.633 5.857 C 26.646 5.684 27.336 5.597 27.703 5.597 C 29.623 5.597 30.583 6.314 30.583 7.747 Z M 16.343 18.967 L 16.283 19.017 L 16.263 18.997 C 16.263 18.97 16.27 18.947 16.283 18.927 C 16.316 18.94 16.336 18.954 16.343 18.967 Z M 16.203 19.057 C 16.183 19.07 16.166 19.08 16.153 19.087 C 16.146 19.087 16.13 19.094 16.103 19.107 C 16.096 19.094 16.093 19.08 16.093 19.067 L 16.093 19.027 C 16.093 19.014 16.1 19.007 16.113 19.007 C 16.12 19.007 16.133 19.01 16.153 19.017 C 16.18 19.024 16.196 19.037 16.203 19.057 Z M 25.723 6.847 L 25.723 6.807 C 25.716 6.767 25.7 6.747 25.673 6.747 L 25.663 6.747 C 25.63 6.747 25.613 6.767 25.613 6.807 L 25.613 6.847 C 25.613 6.874 25.63 6.89 25.663 6.897 L 25.673 6.897 C 25.706 6.89 25.723 6.874 25.723 6.847 Z M 25.213 6.287 C 25.213 6.247 25.183 6.227 25.123 6.227 L 25.113 6.227 C 25.053 6.227 25.023 6.247 25.023 6.287 C 25.056 6.307 25.09 6.327 25.123 6.347 C 25.15 6.327 25.18 6.307 25.213 6.287 Z M 25.723 7.217 C 25.716 7.19 25.696 7.157 25.663 7.117 C 25.63 7.117 25.613 7.144 25.613 7.197 L 25.613 7.217 C 25.613 7.27 25.63 7.297 25.663 7.297 C 25.683 7.264 25.703 7.237 25.723 7.217 Z M 25.633 7.527 L 25.633 7.507 C 25.626 7.46 25.61 7.437 25.583 7.437 L 25.573 7.437 C 25.54 7.437 25.523 7.46 25.523 7.507 L 25.523 7.527 C 25.523 7.56 25.536 7.577 25.563 7.577 L 25.583 7.577 C 25.616 7.57 25.633 7.554 25.633 7.527 Z M 24.573 6.137 C 24.546 6.137 24.516 6.134 24.483 6.127 C 24.45 6.12 24.423 6.117 24.403 6.117 L 24.173 6.117 C 23.98 6.117 23.736 6.15 23.443 6.217 C 23.063 6.284 22.873 6.377 22.873 6.497 C 22.873 6.497 22.92 6.547 23.013 6.647 C 23.06 6.714 23.12 6.747 23.193 6.747 C 23.306 6.747 23.766 6.544 24.573 6.137 Z M 25.513 6.917 C 25.513 6.71 25.393 6.607 25.153 6.607 C 24.686 6.607 24.14 6.81 23.513 7.217 L 23.513 7.237 C 23.513 7.344 23.54 7.504 23.593 7.717 C 23.653 7.937 23.683 8.104 23.683 8.217 C 23.683 8.81 23.366 9.44 22.733 10.107 C 23.34 9.88 23.94 9.454 24.533 8.827 C 25.186 8.14 25.513 7.504 25.513 6.917 Z M 30.413 7.697 C 30.413 7.064 30.126 6.564 29.553 6.197 C 29.073 5.89 28.496 5.737 27.823 5.737 C 26.676 5.737 25.85 5.89 25.343 6.197 C 25.463 6.257 25.646 6.394 25.893 6.607 L 25.893 7.007 C 25.893 7.78 25.383 8.544 24.363 9.297 C 24.03 9.557 23.523 9.924 22.843 10.397 C 22.176 10.81 21.313 11.307 20.253 11.887 C 19.406 12.254 18.526 12.657 17.613 13.097 L 17.613 13.187 C 17.9 13.24 18.186 13.267 18.473 13.267 C 19.213 13.267 19.953 13.174 20.693 12.987 C 21.62 12.734 22.25 12.387 22.583 11.947 L 22.583 11.887 C 22.583 11.834 22.56 11.747 22.513 11.627 C 22.466 11.507 22.443 11.414 22.443 11.347 C 22.443 11.04 22.566 10.887 22.813 10.887 C 23.026 10.887 23.133 11.04 23.133 11.347 C 23.106 11.447 23.05 11.627 22.963 11.887 C 23.156 11.987 23.54 12.037 24.113 12.037 C 25.446 12.037 26.78 11.65 28.113 10.877 C 29.646 9.99 30.413 8.93 30.413 7.697 Z M 22.903 6.897 C 22.803 6.744 22.69 6.667 22.563 6.667 C 22.41 6.667 22.076 6.817 21.563 7.117 C 21.056 7.424 20.803 7.627 20.803 7.727 C 20.803 7.807 20.836 7.907 20.903 8.027 C 20.976 8.154 21.05 8.217 21.123 8.217 C 21.563 7.944 22.156 7.504 22.903 6.897 Z M 20.653 7.517 L 22.263 6.517 C 22.076 6.21 21.54 6.057 20.653 6.057 L 19.143 6.057 L 18.913 6.137 C 19.54 6.524 20.12 6.984 20.653 7.517 Z M 23.513 8.217 L 23.513 8.007 C 23.513 7.567 23.406 7.347 23.193 7.347 C 22.386 7.827 21.773 8.317 21.353 8.817 C 21.506 9.317 21.583 9.7 21.583 9.967 C 21.583 10.06 21.533 10.107 21.433 10.107 C 21.393 10.1 21.366 10.084 21.353 10.057 L 21.123 9.187 L 21.063 9.127 C 20.41 9.707 19.813 10.344 19.273 11.037 L 19.593 11.037 C 20.506 11.037 21.356 10.797 22.143 10.317 C 23.056 9.764 23.513 9.064 23.513 8.217 Z M 22.813 11.667 L 22.903 11.567 L 22.903 10.997 C 22.73 10.997 22.643 11.104 22.643 11.317 C 22.643 11.55 22.693 11.667 22.793 11.667 L 22.813 11.667 Z M 21.353 10.987 L 21.353 10.957 C 21.346 10.91 21.33 10.887 21.303 10.887 L 21.293 10.887 C 21.26 10.887 21.243 10.91 21.243 10.957 L 21.243 10.987 C 21.243 11.02 21.26 11.037 21.293 11.037 L 21.303 11.037 C 21.336 11.024 21.353 11.007 21.353 10.987 Z M 21.183 11.067 L 21.183 11.047 C 21.176 11 21.16 10.977 21.133 10.977 L 21.123 10.977 C 21.09 10.977 21.07 11 21.063 11.047 L 21.063 11.067 C 21.07 11.1 21.083 11.117 21.103 11.117 L 21.133 11.117 C 21.166 11.11 21.183 11.094 21.183 11.067 Z M 20.843 8.447 L 20.523 7.987 C 20.203 8.04 19.406 8.93 18.133 10.657 C 18.113 10.69 18.093 10.737 18.073 10.797 C 18.673 10.257 19.596 9.474 20.843 8.447 Z M 20.973 11.117 L 20.893 11.117 C 21.026 11.117 20.413 11.194 19.053 11.347 C 18.893 11.52 18.663 11.797 18.363 12.177 C 19.21 11.95 20.08 11.597 20.973 11.117 Z M 20.373 7.747 C 20.26 7.494 19.936 7.174 19.403 6.787 C 18.87 6.394 18.473 6.197 18.213 6.197 C 17.993 6.197 17.563 6.334 16.923 6.607 C 15.023 7.394 14.073 8.574 14.073 10.147 C 14.073 10.634 14.246 11.157 14.593 11.717 C 14.973 12.35 15.386 12.667 15.833 12.667 C 15.906 12.667 16.396 12.024 17.303 10.737 C 16.936 10.317 16.753 9.957 16.753 9.657 C 16.753 9.19 16.906 8.957 17.213 8.957 C 17.06 9.21 16.983 9.45 16.983 9.677 C 16.983 10.23 17.136 10.507 17.443 10.507 C 18.55 9.247 19.526 8.327 20.373 7.747 Z M 19.053 12.367 L 19.053 12.337 C 19.046 12.29 19.026 12.267 18.993 12.267 L 18.983 12.267 C 18.956 12.267 18.94 12.29 18.933 12.337 L 18.933 12.367 C 18.94 12.4 18.956 12.417 18.983 12.417 L 19.013 12.417 C 19.033 12.404 19.046 12.387 19.053 12.367 Z M 18.873 12.447 L 18.873 12.427 C 18.873 12.38 18.856 12.357 18.823 12.357 L 18.813 12.357 C 18.786 12.357 18.77 12.38 18.763 12.427 L 18.763 12.447 C 18.77 12.48 18.786 12.497 18.813 12.497 L 18.823 12.497 C 18.856 12.49 18.873 12.474 18.873 12.447 Z M 18.653 12.507 L 18.653 12.487 C 18.646 12.44 18.626 12.417 18.593 12.417 L 18.583 12.417 C 18.556 12.417 18.54 12.44 18.533 12.487 L 18.533 12.507 C 18.54 12.56 18.556 12.587 18.583 12.587 L 18.593 12.587 C 18.626 12.587 18.646 12.56 18.653 12.507 Z M 18.503 12.597 L 18.503 12.557 C 18.496 12.517 18.483 12.497 18.463 12.497 L 18.443 12.497 C 18.41 12.497 18.39 12.517 18.383 12.557 L 18.383 12.597 C 18.39 12.624 18.406 12.64 18.433 12.647 L 18.463 12.647 C 18.49 12.64 18.503 12.624 18.503 12.597 Z M 18.253 12.697 L 18.303 12.647 C 18.283 12.62 18.266 12.607 18.253 12.607 L 18.213 12.647 C 18.22 12.667 18.233 12.684 18.253 12.697 Z M 18.023 12.777 L 18.073 12.727 C 18.073 12.687 18.056 12.667 18.023 12.667 C 18.003 12.674 17.99 12.69 17.983 12.717 L 17.983 12.727 C 17.99 12.754 18.003 12.77 18.023 12.777 Z M 17.533 5.967 C 17.106 5.867 16.616 5.817 16.063 5.817 C 14.663 5.817 13.35 6.194 12.123 6.947 C 10.71 7.807 10.003 8.887 10.003 10.187 C 10.003 11.88 11.353 12.727 14.053 12.727 L 15.143 12.727 C 14.316 11.94 13.903 11.087 13.903 10.167 C 13.903 9.14 14.27 8.28 15.003 7.587 C 15.416 7.2 16.23 6.69 17.443 6.057 C 17.47 6.044 17.5 6.014 17.533 5.967 Z M 15.313 13.497 L 15.093 13.497 C 14.906 13.497 14.626 13.514 14.253 13.547 C 13.886 13.574 13.606 13.587 13.413 13.587 C 12.38 13.587 11.493 13.384 10.753 12.977 C 9.846 12.47 9.393 11.737 9.393 10.777 C 9.393 9.164 10.416 7.744 12.463 6.517 L 12.383 6.517 C 9.623 7.837 8.243 9.4 8.243 11.207 C 8.243 12.947 9.613 13.817 12.353 13.817 C 13.193 13.817 14.18 13.71 15.313 13.497 Z M 7.103 18.447 C 7.09 18.427 7.053 18.417 6.993 18.417 L 6.963 18.417 C 6.923 18.417 6.886 18.43 6.853 18.457 C 6.853 18.51 6.893 18.544 6.973 18.557 C 7.06 18.557 7.103 18.52 7.103 18.447 Z M 6.743 18.387 C 6.716 18.374 6.686 18.364 6.653 18.357 L 6.433 18.357 C 6.353 18.357 6.263 18.37 6.163 18.397 C 6.203 18.43 6.276 18.447 6.383 18.447 L 6.473 18.447 C 6.6 18.447 6.68 18.43 6.713 18.397 C 6.733 18.397 6.743 18.394 6.743 18.387 Z M 6.043 18.307 C 6.036 18.287 6.013 18.277 5.973 18.277 L 5.923 18.277 C 5.883 18.284 5.863 18.294 5.863 18.307 C 5.876 18.34 5.903 18.357 5.943 18.357 C 6.01 18.35 6.043 18.334 6.043 18.307 Z M 7.493 19.777 C 7.48 19.757 7.456 19.744 7.423 19.737 L 7.403 19.737 C 7.37 19.744 7.343 19.757 7.323 19.777 C 7.35 19.797 7.38 19.814 7.413 19.827 C 7.446 19.814 7.473 19.797 7.493 19.777 Z M 9.023 19.247 C 8.816 19.054 8.243 18.884 7.303 18.737 C 6.523 18.624 5.886 18.567 5.393 18.567 C 4.746 18.567 4.423 18.824 4.423 19.337 L 4.423 19.517 C 4.423 19.65 4.863 19.717 5.743 19.717 L 6.483 19.717 C 7.73 19.717 8.576 19.56 9.023 19.247 Z M 7.183 19.857 L 4.783 19.857 C 4.91 20.01 5.22 20.087 5.713 20.087 L 6.113 20.087 C 6.24 20.087 6.596 20.01 7.183 19.857 Z M 4.043 19.477 L 4.273 18.797 L 4.193 18.797 C 3.92 18.797 3.783 18.92 3.783 19.167 C 3.783 19.3 3.87 19.404 4.043 19.477 Z M 5.573 18.097 L 7.263 18.097 C 6.15 17.644 4.743 17.417 3.043 17.417 C 1.083 17.417 0.103 17.837 0.103 18.677 C 0.103 19.27 0.576 19.704 1.523 19.977 C 2.176 20.17 2.923 20.267 3.763 20.267 C 3.87 20.267 4.033 20.26 4.253 20.247 C 4.473 20.234 4.636 20.227 4.743 20.227 C 4.616 20.194 4.4 20.034 4.093 19.747 C 3.793 19.467 3.643 19.274 3.643 19.167 C 3.643 19.02 3.72 18.897 3.873 18.797 C 4.566 18.33 5.133 18.097 5.573 18.097 Z M 25.443 18.307 L 25.523 18.307 C 24.576 19.26 23.906 19.884 23.513 20.177 C 22.639 20.83 21.806 21.157 21.013 21.157 C 20.619 21.157 20.233 21.047 19.853 20.827 C 19.339 20.534 19.083 20.26 19.083 20.007 C 19.083 19.134 19.109 18.597 19.163 18.397 C 19.263 18.217 19.379 18.004 19.513 17.757 C 19.553 17.677 19.613 17.55 19.693 17.377 C 20.033 16.697 20.636 16.084 21.503 15.537 C 22.369 14.984 23.183 14.707 23.943 14.707 C 24.289 14.707 24.463 14.707 24.463 14.707 C 24.669 14.727 24.839 14.857 24.973 15.097 C 25.086 15.304 25.143 15.52 25.143 15.747 C 25.143 16.634 24.583 17.387 23.463 18.007 C 22.896 18.32 21.943 18.677 20.603 19.077 C 20.509 19.33 20.463 19.58 20.463 19.827 C 20.463 20.247 20.729 20.457 21.263 20.457 C 21.989 20.457 22.743 20.22 23.523 19.747 C 23.836 19.554 24.476 19.074 25.443 18.307 Z M 24.553 15.317 C 24.553 15.164 24.463 15.01 24.283 14.857 L 23.913 14.857 C 23.546 14.857 23.116 15.014 22.623 15.327 C 22.083 15.674 21.813 16.014 21.813 16.347 C 21.926 16.327 21.983 16.317 21.983 16.317 C 22.823 15.944 23.649 15.717 24.463 15.637 C 24.523 15.57 24.553 15.464 24.553 15.317 Z M 24.173 16.297 C 24.173 16.257 24.169 16.207 24.163 16.147 C 24.149 16.08 24.143 16.034 24.143 16.007 C 24.083 15.947 23.966 15.917 23.793 15.917 C 23.559 15.917 23.369 15.967 23.223 16.067 C 22.323 16.654 21.606 17.4 21.073 18.307 L 21.073 18.507 C 21.546 18.507 22.169 18.254 22.943 17.747 C 23.763 17.214 24.173 16.73 24.173 16.297 Z M 22.903 20.457 L 22.903 20.287 C 22.683 20.287 22.376 20.36 21.983 20.507 C 21.389 20.72 21.086 20.83 21.073 20.837 L 21.073 21.007 C 21.566 21.007 22.176 20.824 22.903 20.457 Z M 32.129 18.337 L 32.189 18.337 C 32.189 18.43 32.143 18.477 32.049 18.477 L 32.019 18.507 L 31.979 18.507 L 31.959 18.477 C 31.999 18.444 32.056 18.397 32.129 18.337 Z M 29.369 15.807 C 29.356 15.834 29.336 15.85 29.309 15.857 C 29.296 15.85 29.289 15.834 29.289 15.807 L 29.289 15.797 C 29.296 15.764 29.303 15.747 29.309 15.747 L 29.319 15.747 C 29.353 15.754 29.369 15.774 29.369 15.807 Z M 31.729 18.647 L 31.809 18.647 C 31.309 19.227 30.516 19.744 29.429 20.197 C 28.383 20.637 27.463 20.857 26.669 20.857 C 25.503 20.857 24.919 20.397 24.919 19.477 C 24.919 19.084 25.066 18.694 25.359 18.307 C 25.653 17.927 25.993 17.737 26.379 17.737 C 26.439 17.737 26.519 17.744 26.619 17.757 C 26.719 17.777 26.793 17.787 26.839 17.787 L 26.839 18.077 C 26.839 18.33 26.633 18.63 26.219 18.977 C 25.806 19.33 25.599 19.654 25.599 19.947 C 25.599 20.4 25.796 20.627 26.189 20.627 C 27.096 20.627 27.873 20.11 28.519 19.077 C 28.626 18.897 29.036 17.987 29.749 16.347 L 29.749 16.127 L 29.599 16.127 C 28.959 16.614 28.136 17.167 27.129 17.787 L 27.079 17.637 C 27.239 17.49 27.486 17.264 27.819 16.957 C 27.813 17.07 27.869 17.127 27.989 17.127 C 28.143 17.127 28.476 16.924 28.989 16.517 C 29.496 16.11 29.749 15.844 29.749 15.717 C 29.749 15.617 29.699 15.57 29.599 15.577 C 29.666 15.537 30.013 15.28 30.639 14.807 C 31.179 14.4 31.506 14.197 31.619 14.197 C 31.746 14.197 31.809 14.244 31.809 14.337 C 31.809 14.61 31.626 14.867 31.259 15.107 C 30.759 15.454 30.483 15.657 30.429 15.717 C 30.429 15.93 30.423 16.274 30.409 16.747 C 30.369 17.56 30.309 18.114 30.229 18.407 C 30.103 18.827 29.816 19.31 29.369 19.857 L 29.369 20.007 C 29.649 20 30.436 19.547 31.729 18.647 Z"/>
    <path d="M 66.415 5.647 C 66.415 6.56 65.812 7.484 64.605 8.417 C 63.645 9.17 62.612 9.734 61.505 10.107 C 61.165 10.22 60.659 10.394 59.985 10.627 L 56.615 14.917 C 55.662 16.13 54.905 17.497 54.345 19.017 L 54.345 19.197 L 54.405 19.197 C 54.439 19.197 54.575 19.167 54.815 19.107 C 55.749 18.86 56.609 18.39 57.395 17.697 L 57.485 17.697 C 57.479 18.024 56.915 18.514 55.795 19.167 C 54.569 19.874 53.865 20.39 53.685 20.717 L 52.335 20.717 C 52.275 20.544 52.092 20.457 51.785 20.457 L 50.005 20.457 C 49.845 20.457 49.765 20.364 49.765 20.177 C 49.765 20.064 49.799 20.007 49.865 20.007 L 51.505 20.007 L 52.105 19.627 L 52.105 19.607 C 52.105 19.547 51.865 19.447 51.385 19.307 C 50.852 19.154 50.115 18.794 49.175 18.227 C 46.142 20.574 42.959 21.747 39.625 21.747 C 39.445 21.747 39.175 21.74 38.815 21.727 C 38.455 21.714 38.189 21.707 38.015 21.707 C 38.015 23.407 38.112 24.147 37.865 22.787 L 37.675 21.667 L 37.585 21.607 C 36.212 21.36 35.115 20.787 34.295 19.887 C 33.435 18.94 33.005 17.78 33.005 16.407 L 33.005 15.517 C 33.005 15.37 33.085 15.06 33.245 14.587 C 33.739 13.034 34.775 11.75 36.355 10.737 C 38.029 9.664 39.932 9.127 42.065 9.127 C 43.692 9.127 45.312 9.57 46.925 10.457 L 47.015 10.457 C 47.069 10.397 47.129 10.307 47.195 10.187 C 47.395 9.814 47.659 9.49 47.985 9.217 C 48.152 9.084 48.365 8.96 48.625 8.847 C 48.679 8.834 48.762 8.807 48.875 8.767 L 48.875 8.727 C 48.875 8.554 48.819 8.304 48.705 7.977 C 48.592 7.644 48.535 7.39 48.535 7.217 C 48.535 6.21 48.872 5.427 49.545 4.867 C 50.172 4.34 50.995 4.077 52.015 4.077 C 52.709 4.077 53.329 4.214 53.875 4.487 C 54.555 4.84 54.895 5.327 54.895 5.947 L 54.815 5.947 C 54.489 4.914 53.595 4.397 52.135 4.397 C 51.202 4.397 50.445 4.637 49.865 5.117 C 49.245 5.637 48.935 6.35 48.935 7.257 C 48.935 7.97 49.072 8.454 49.345 8.707 C 50.212 8.8 51.052 9.267 51.865 10.107 C 51.965 10.227 52.122 10.4 52.335 10.627 C 52.595 10.874 53.342 10.997 54.575 10.997 C 54.902 10.597 55.669 9.81 56.875 8.637 C 59.795 5.81 62.392 4.397 64.665 4.397 L 65.385 4.397 C 65.719 4.397 65.979 4.53 66.165 4.797 C 66.332 5.03 66.415 5.314 66.415 5.647 Z M 66.185 5.647 C 66.185 4.927 65.699 4.567 64.725 4.567 C 64.079 4.567 63.449 4.664 62.835 4.857 C 62.089 5.09 61.572 5.424 61.285 5.857 C 61.212 5.97 61.092 6.134 60.925 6.347 C 61.145 6.26 61.649 5.947 62.435 5.407 C 62.975 5.034 63.545 4.847 64.145 4.847 C 64.165 4.847 64.195 4.854 64.235 4.867 C 64.275 4.874 64.302 4.877 64.315 4.877 L 64.465 5.057 C 63.352 5.057 62.709 5.227 62.535 5.567 L 62.685 5.567 C 62.159 5.747 61.512 6.394 60.745 7.507 C 60.232 8.334 59.719 9.164 59.205 9.997 C 59.132 10.117 59.025 10.3 58.885 10.547 L 59.115 10.547 C 60.635 8.88 62.552 7.107 64.865 5.227 L 64.865 5.137 C 64.865 5.03 64.822 4.98 64.735 4.987 L 65.385 4.877 C 64.739 5.45 63.732 6.477 62.365 7.957 C 61.932 8.43 61.289 9.147 60.435 10.107 L 60.525 10.107 C 60.852 10.107 61.555 9.794 62.635 9.167 C 63.495 8.68 64.182 8.25 64.695 7.877 C 65.689 7.15 66.185 6.407 66.185 5.647 Z M 60.755 6.627 C 60.642 6.807 60.459 7.06 60.205 7.387 C 60.345 7.234 60.529 6.98 60.755 6.627 Z M 60.385 6.347 C 59.639 6.787 58.779 7.594 57.805 8.767 C 58.005 8.6 58.309 8.364 58.715 8.057 C 58.075 8.69 57.129 9.67 55.875 10.997 L 56.275 10.997 C 56.655 10.997 56.925 10.904 57.085 10.717 C 57.552 10.064 58.265 9.094 59.225 7.807 L 59.115 7.807 C 59.075 7.807 59.035 7.817 58.995 7.837 C 59.589 7.337 60.052 6.84 60.385 6.347 Z M 58.815 10.957 C 58.809 10.884 58.802 10.847 58.795 10.847 C 58.695 10.847 58.645 10.917 58.645 11.057 C 58.645 11.077 58.649 11.087 58.655 11.087 C 58.762 11.087 58.815 11.044 58.815 10.957 Z M 54.495 15.517 L 56.725 11.227 L 55.725 11.227 L 53.625 13.757 C 53.659 14.29 53.735 14.714 53.855 15.027 C 53.909 15.154 54.122 15.317 54.495 15.517 Z M 54.345 11.227 C 54.159 11.227 53.875 11.19 53.495 11.117 C 53.122 11.037 52.839 10.997 52.645 10.997 L 52.565 10.997 L 52.475 11.087 C 52.429 11 52.352 10.934 52.245 10.887 L 52.185 10.887 C 52.265 11.08 52.392 11.264 52.565 11.437 L 52.565 11.087 L 53.225 12.557 C 53.252 12.55 53.385 12.424 53.625 12.177 C 53.685 12.017 53.925 11.7 54.345 11.227 Z M 52.715 11.537 L 52.715 11.507 C 52.702 11.46 52.685 11.437 52.665 11.437 L 52.635 11.437 C 52.615 11.437 52.599 11.46 52.585 11.507 L 52.585 11.537 C 52.599 11.584 52.615 11.607 52.635 11.607 L 52.665 11.607 C 52.685 11.607 52.702 11.584 52.715 11.537 Z M 52.015 10.547 L 52.015 10.457 C 51.315 9.61 50.589 9.187 49.835 9.187 C 49.809 9.2 49.772 9.21 49.725 9.217 C 49.865 9.41 50.232 9.677 50.825 10.017 C 51.412 10.364 51.809 10.54 52.015 10.547 Z M 49.405 9.537 C 49.332 9.304 49.232 9.187 49.105 9.187 C 48.572 9.187 48.182 9.407 47.935 9.847 C 48.395 9.64 48.885 9.537 49.405 9.537 Z M 52.735 14.627 L 53.285 14.917 L 53.285 14.077 L 52.735 14.627 Z M 51.735 14.307 L 52.945 12.867 C 52.925 12.787 52.875 12.674 52.795 12.527 C 52.462 11.974 52.259 11.64 52.185 11.527 C 51.932 11.18 51.649 10.91 51.335 10.717 C 50.862 10.43 50.332 10.287 49.745 10.287 C 49.305 10.287 48.902 10.37 48.535 10.537 C 48.075 10.73 47.799 11.01 47.705 11.377 C 48.012 11.984 48.165 12.54 48.165 13.047 C 48.165 13.16 48.152 13.33 48.125 13.557 C 48.099 13.79 48.085 13.964 48.085 14.077 C 48.272 14.09 48.859 14.137 49.845 14.217 C 50.565 14.277 51.155 14.307 51.615 14.307 L 51.735 14.307 Z M 53.685 17.357 L 54.345 15.827 L 54.345 15.747 C 54.305 15.667 54.152 15.59 53.885 15.517 L 53.885 15.497 L 53.875 15.547 L 53.835 15.767 C 53.815 15.94 53.775 16.287 53.715 16.807 C 53.695 16.967 53.685 17.08 53.685 17.147 L 53.685 17.357 Z M 53.485 16.477 L 53.485 16.437 C 53.485 16.397 53.469 16.357 53.435 16.317 C 53.415 16.337 53.402 16.377 53.395 16.437 L 53.395 16.487 C 53.395 16.58 53.409 16.637 53.435 16.657 C 53.469 16.584 53.485 16.524 53.485 16.477 Z M 53.375 17.027 L 53.375 16.807 C 53.375 16.9 53.332 17.064 53.245 17.297 C 53.165 17.53 53.129 17.694 53.135 17.787 L 53.115 17.847 L 53.135 17.957 C 53.295 17.897 53.375 17.587 53.375 17.027 Z M 54.815 19.477 L 54.725 19.477 C 54.319 19.477 54.085 19.624 54.025 19.917 L 54.055 19.917 C 54.362 19.917 54.615 19.77 54.815 19.477 Z M 47.935 13.047 L 47.935 12.757 C 47.935 12.03 47.782 11.667 47.475 11.667 C 47.249 12.147 47.135 12.977 47.135 14.157 C 47.509 14.157 47.749 14.06 47.855 13.867 C 47.909 13.747 47.935 13.474 47.935 13.047 Z M 53.285 15.897 L 53.285 15.347 C 52.999 15.147 52.729 15.047 52.475 15.047 C 52.455 15.047 51.509 16 49.635 17.907 L 49.635 17.957 C 50.309 18.504 51.255 18.857 52.475 19.017 C 53.015 17.85 53.285 16.81 53.285 15.897 Z M 48.935 17.357 L 51.335 14.827 C 50.949 14.594 50.192 14.477 49.065 14.477 L 48.455 14.477 C 48.182 14.477 48.025 14.49 47.985 14.517 C 47.685 14.677 47.535 14.98 47.535 15.427 C 47.535 15.674 47.715 16.057 48.075 16.577 C 48.442 17.097 48.729 17.357 48.935 17.357 Z M 52.105 19.247 C 52.085 19.234 52.069 19.227 52.055 19.227 L 52.015 19.247 C 52.029 19.287 52.049 19.317 52.075 19.337 C 52.095 19.317 52.105 19.287 52.105 19.247 Z M 47.365 14.997 L 47.625 14.517 L 47.215 14.517 L 47.245 14.557 C 47.245 14.61 47.255 14.684 47.275 14.777 C 47.295 14.877 47.305 14.95 47.305 14.997 L 47.365 14.997 Z M 51.735 19.197 C 51.735 19.157 51.715 19.137 51.675 19.137 C 51.655 19.144 51.645 19.16 51.645 19.187 L 51.645 19.217 C 51.645 19.23 51.652 19.237 51.665 19.237 C 51.692 19.23 51.715 19.217 51.735 19.197 Z M 51.415 19.117 C 51.402 19.09 51.382 19.077 51.355 19.077 L 51.335 19.117 L 51.385 19.167 C 51.405 19.147 51.415 19.13 51.415 19.117 Z M 51.125 19.067 L 51.125 19.027 C 51.119 18.987 51.102 18.967 51.075 18.967 L 51.065 18.967 C 51.032 18.967 51.015 18.987 51.015 19.027 L 51.015 19.067 C 51.022 19.094 51.039 19.11 51.065 19.117 L 51.075 19.117 C 51.109 19.11 51.125 19.094 51.125 19.067 Z M 50.875 18.907 C 50.855 18.894 50.835 18.887 50.815 18.887 L 50.795 18.887 C 50.762 18.887 50.745 18.894 50.745 18.907 C 50.772 18.947 50.792 18.977 50.805 18.997 C 50.832 18.977 50.855 18.947 50.875 18.907 Z M 50.665 18.857 L 50.665 18.837 C 50.665 18.784 50.649 18.757 50.615 18.757 L 50.595 18.757 C 50.569 18.757 50.555 18.784 50.555 18.837 L 50.555 18.867 C 50.555 18.934 50.575 18.967 50.615 18.967 C 50.649 18.94 50.665 18.904 50.665 18.857 Z M 50.445 18.797 L 50.445 18.777 C 50.432 18.737 50.409 18.717 50.375 18.717 L 50.365 18.717 C 50.345 18.717 50.329 18.737 50.315 18.777 L 50.315 18.797 C 50.329 18.83 50.345 18.847 50.365 18.847 L 50.395 18.847 C 50.415 18.847 50.432 18.83 50.445 18.797 Z M 50.295 18.717 L 50.295 18.687 C 50.289 18.647 50.272 18.627 50.245 18.627 L 50.235 18.627 C 50.202 18.627 50.185 18.647 50.185 18.687 L 50.175 18.717 C 50.182 18.744 50.199 18.757 50.225 18.757 L 50.245 18.757 C 50.279 18.75 50.295 18.737 50.295 18.717 Z M 46.925 15.517 L 46.525 14.557 L 46.475 14.557 C 46.009 14.557 45.719 14.647 45.605 14.827 C 45.565 15.614 45.365 16.274 45.005 16.807 L 45.095 16.807 C 45.582 16.547 45.909 16.36 46.075 16.247 C 46.335 16.067 46.619 15.824 46.925 15.517 Z M 45.265 14.857 C 44.679 14.857 43.885 15.057 42.885 15.457 C 41.859 15.85 41.145 16.25 40.745 16.657 C 40.805 16.65 40.859 16.647 40.905 16.647 C 41.332 16.647 41.599 16.997 41.705 17.697 C 41.732 17.724 41.809 17.737 41.935 17.737 C 42.895 17.737 43.675 17.5 44.275 17.027 C 44.935 16.514 45.265 15.79 45.265 14.857 Z M 45.175 14.277 C 45.175 13.637 44.839 13.14 44.165 12.787 C 43.639 12.514 43.015 12.377 42.295 12.377 C 41.449 12.377 40.635 12.61 39.855 13.077 C 39.075 13.544 38.502 14.157 38.135 14.917 C 37.829 15.544 37.675 16.04 37.675 16.407 C 38.155 16.96 38.712 17.334 39.345 17.527 C 39.925 16.887 40.862 16.217 42.155 15.517 C 42.269 15.457 42.825 15.244 43.825 14.877 C 44.725 14.55 45.175 14.35 45.175 14.277 Z M 48.535 17.637 C 48.249 17.217 47.789 16.65 47.155 15.937 L 47.075 15.937 C 46.502 16.484 45.842 16.957 45.095 17.357 C 43.742 18.064 42.612 18.417 41.705 18.417 C 41.532 18.417 41.279 18.374 40.945 18.287 C 40.619 18.207 40.369 18.167 40.195 18.167 C 40.155 18.18 40.129 18.2 40.115 18.227 C 40.115 18.84 40.499 19.357 41.265 19.777 C 41.899 20.117 42.562 20.287 43.255 20.287 C 44.369 20.287 45.699 19.794 47.245 18.807 C 47.405 18.7 47.635 18.544 47.935 18.337 C 48.335 17.99 48.535 17.757 48.535 17.637 Z M 46.755 10.997 L 46.755 10.887 C 45.649 10.194 44.125 9.847 42.185 9.847 C 39.919 9.847 37.922 10.377 36.195 11.437 C 34.169 12.684 33.155 14.367 33.155 16.487 C 33.155 18.454 34.132 19.904 36.085 20.837 C 36.685 21.124 37.165 21.267 37.525 21.267 C 37.645 21.267 37.772 20.994 37.905 20.447 C 38.019 19.974 38.075 19.624 38.075 19.397 C 38.075 19.297 37.995 19.134 37.835 18.907 C 37.629 18.614 37.519 18.45 37.505 18.417 C 37.232 17.89 37.095 17.24 37.095 16.467 C 37.095 15.114 37.579 13.96 38.545 13.007 C 39.512 12.047 40.669 11.567 42.015 11.567 C 44.029 11.567 45.225 12.48 45.605 14.307 L 45.775 14.307 C 45.842 14.307 45.942 14.297 46.075 14.277 C 46.202 14.264 46.295 14.257 46.355 14.257 C 46.355 13.03 46.355 12.454 46.355 12.527 C 46.375 12.18 46.509 11.67 46.755 10.997 Z M 40.635 16.757 L 40.625 16.737 C 40.625 16.684 40.609 16.657 40.575 16.657 L 40.565 16.657 C 40.539 16.657 40.522 16.684 40.515 16.737 L 40.515 16.757 C 40.522 16.79 40.539 16.807 40.565 16.807 L 40.585 16.807 C 40.612 16.8 40.629 16.784 40.635 16.757 Z M 40.175 17.697 L 40.435 17.697 L 40.435 17.447 C 40.262 17.447 40.175 17.53 40.175 17.697 Z M 39.965 17.637 L 40.345 16.897 C 40.112 17.084 39.872 17.33 39.625 17.637 L 39.965 17.637 Z M 43.565 20.837 L 43.565 20.797 C 43.565 20.764 43.542 20.747 43.495 20.747 L 43.475 20.747 C 43.422 20.747 43.395 20.76 43.395 20.787 C 43.402 20.8 43.412 20.817 43.425 20.837 L 43.485 20.857 C 43.519 20.857 43.545 20.85 43.565 20.837 Z M 42.875 20.547 L 43.015 20.457 C 42.382 20.424 41.805 20.27 41.285 19.997 C 40.765 19.724 40.375 19.297 40.115 18.717 C 40.015 18.497 39.965 18.314 39.965 18.167 C 39.912 18.027 39.705 17.957 39.345 17.957 C 38.785 18.517 38.505 18.89 38.505 19.077 C 38.505 19.297 38.895 19.604 39.675 19.997 C 40.415 20.364 40.929 20.547 41.215 20.547 C 41.362 20.547 41.582 20.55 41.875 20.557 C 42.169 20.57 42.389 20.577 42.535 20.577 C 42.575 20.577 42.632 20.57 42.705 20.557 C 42.785 20.55 42.842 20.547 42.875 20.547 Z M 39.025 17.907 C 38.699 17.647 38.249 17.28 37.675 16.807 L 37.675 17.207 C 37.675 17.46 37.739 17.78 37.865 18.167 C 38.012 18.62 38.175 18.847 38.355 18.847 C 38.489 18.627 38.712 18.314 39.025 17.907 Z M 43.255 20.897 C 43.075 20.897 42.882 20.897 42.675 20.897 C 40.862 20.897 39.422 20.447 38.355 19.547 L 38.305 19.547 C 38.232 19.547 38.159 19.76 38.085 20.187 C 38.019 20.554 37.985 20.827 37.985 21.007 L 37.985 21.347 C 38.219 21.407 38.495 21.437 38.815 21.437 L 39.805 21.437 C 41.312 21.437 42.462 21.257 43.255 20.897 Z M 64.115 5.117 C 64.115 5.157 64.069 5.184 63.975 5.197 C 63.895 5.197 63.855 5.17 63.855 5.117 C 63.855 5.09 63.892 5.077 63.965 5.077 L 64.015 5.077 C 64.049 5.077 64.082 5.09 64.115 5.117 Z M 63.555 5.227 L 63.725 5.227 C 63.692 5.234 63.652 5.244 63.605 5.257 C 63.559 5.277 63.492 5.304 63.405 5.337 C 63.372 5.337 63.342 5.327 63.315 5.307 C 63.349 5.307 63.392 5.294 63.445 5.267 C 63.499 5.24 63.535 5.227 63.555 5.227 Z M 63.145 5.407 L 63.145 5.427 C 63.139 5.454 63.129 5.47 63.115 5.477 L 63.065 5.417 C 63.065 5.377 63.072 5.35 63.085 5.337 C 63.125 5.337 63.145 5.36 63.145 5.407 Z M 62.915 5.507 L 62.915 5.527 C 62.909 5.547 62.902 5.557 62.895 5.557 C 62.869 5.544 62.849 5.53 62.835 5.517 C 62.842 5.477 62.849 5.457 62.855 5.457 L 62.865 5.457 C 62.899 5.464 62.915 5.48 62.915 5.507 Z M 58.995 7.837 C 58.909 7.904 58.815 7.977 58.715 8.057 C 58.815 7.944 58.909 7.87 58.995 7.837 Z M 62.323 18.307 L 62.402 18.307 C 62.376 18.34 62.299 18.414 62.173 18.527 C 60.479 20.027 59.243 20.777 58.462 20.777 C 57.882 20.777 57.592 20.547 57.592 20.087 C 57.592 19.634 57.829 19.11 58.302 18.517 C 58.709 18.07 59.116 17.627 59.522 17.187 C 59.722 16.96 60.032 16.624 60.452 16.177 L 60.452 16.037 L 59.012 16.037 L 56.743 18.097 L 56.653 18.097 L 58.782 15.937 L 58.782 15.897 C 58.782 15.83 58.752 15.75 58.692 15.657 C 58.632 15.564 58.602 15.487 58.602 15.427 C 58.602 15.174 58.749 14.947 59.042 14.747 C 59.302 14.567 59.569 14.477 59.842 14.477 C 60.096 14.477 60.222 14.567 60.222 14.747 L 59.752 15.197 L 59.752 15.277 C 59.752 15.437 59.909 15.517 60.222 15.517 C 60.336 15.517 60.502 15.487 60.722 15.427 C 60.942 15.374 61.109 15.347 61.222 15.347 C 61.309 15.347 61.432 15.437 61.592 15.617 C 61.752 15.804 61.832 15.944 61.832 16.037 C 61.686 16.317 61.209 16.937 60.403 17.897 C 59.716 18.717 59.346 19.324 59.292 19.717 C 59.272 19.85 59.262 19.974 59.262 20.087 C 59.322 20.087 59.406 20.104 59.512 20.137 C 59.619 20.164 59.699 20.177 59.752 20.177 C 60.006 20.177 60.862 19.554 62.323 18.307 Z M 60.942 15.687 L 60.942 15.577 C 60.556 15.577 60.189 15.604 59.842 15.657 L 59.842 15.807 L 60.813 15.807 C 60.899 15.807 60.942 15.767 60.942 15.687 Z M 69.909 11.607 C 69.329 12.2 68.579 13.04 67.659 14.127 C 67.413 14.394 67.069 14.8 66.629 15.347 C 66.623 15.367 66.603 15.407 66.569 15.467 L 66.519 15.547 C 66.519 15.56 66.509 15.57 66.489 15.577 C 66.483 15.584 66.479 15.584 66.479 15.577 C 66.479 15.59 66.479 15.607 66.479 15.627 C 66.479 15.66 66.493 15.69 66.519 15.717 L 68.239 15.717 L 68.469 15.807 L 68.389 15.917 L 66.249 15.917 C 66.156 15.917 65.696 16.54 64.869 17.787 C 64.256 18.714 63.949 19.48 63.949 20.087 C 63.949 20.147 64.076 20.177 64.329 20.177 C 64.836 20.177 65.803 19.564 67.229 18.337 L 67.319 18.337 C 65.686 19.964 64.333 20.777 63.259 20.777 C 62.726 20.777 62.459 20.547 62.459 20.087 C 62.459 19.767 62.816 18.97 63.529 17.697 C 63.543 17.664 63.569 17.617 63.609 17.557 C 63.609 17.45 63.589 17.38 63.549 17.347 L 63.579 17.337 L 63.539 17.347 C 63.519 17.34 63.503 17.337 63.489 17.337 L 64.699 16.127 L 64.699 15.937 L 63.489 15.937 C 63.449 15.864 63.369 15.82 63.249 15.807 C 63.349 15.814 63.459 15.817 63.579 15.817 C 64.033 15.817 64.513 15.784 65.019 15.717 C 65.113 15.644 65.726 14.96 66.859 13.667 C 67.233 13.247 67.663 12.81 68.149 12.357 C 68.769 11.777 69.306 11.487 69.759 11.487 C 69.859 11.487 69.909 11.527 69.909 11.607 Z M 63.539 17.347 L 63.549 17.347 C 63.463 17.394 63.339 17.5 63.179 17.667 L 63.439 17.377 C 63.466 17.364 63.499 17.354 63.539 17.347 Z M 63.179 17.667 L 62.719 18.187 C 62.819 18.074 62.973 17.9 63.179 17.667 Z M 62.639 18.187 L 62.719 18.187 L 62.699 18.207 C 62.673 18.234 62.639 18.257 62.599 18.277 C 62.626 18.25 62.639 18.22 62.639 18.187 Z M 74.326 12.007 C 74.326 12.26 74.16 12.51 73.826 12.757 C 73.486 13.01 73.183 13.137 72.916 13.137 L 72.866 13.047 L 72.866 12.727 C 72.866 12.08 73.213 11.757 73.906 11.757 C 74.186 11.757 74.326 11.84 74.326 12.007 Z M 72.396 17.927 L 72.486 17.927 C 72.086 18.58 71.723 19.04 71.396 19.307 L 71.396 19.237 C 71.396 19.17 71.35 19.137 71.256 19.137 C 71.316 19.137 70.903 19.434 70.016 20.027 C 69.576 20.32 69.146 20.54 68.726 20.687 C 68.513 20.76 68.406 20.83 68.406 20.897 C 68.406 21.104 68.55 21.207 68.836 21.207 C 68.956 21.207 69.116 21.157 69.316 21.057 C 69.51 20.964 69.666 20.917 69.786 20.917 C 69.573 21.204 69.19 21.347 68.636 21.347 C 68.343 21.347 68.06 21.21 67.786 20.937 C 67.506 20.657 67.366 20.374 67.366 20.087 C 67.366 19.754 67.82 18.88 68.726 17.467 L 68.726 17.237 L 68.576 17.237 C 68.383 17.424 68.076 17.684 67.656 18.017 C 67.623 18.064 67.556 18.114 67.456 18.167 L 67.456 18.127 C 67.456 17.98 67.83 17.534 68.576 16.787 C 68.57 16.9 68.646 16.957 68.806 16.957 C 69.493 16.457 69.836 16.044 69.836 15.717 L 69.726 15.717 L 69.176 16.177 L 69.176 16.087 C 69.436 15.787 69.86 15.404 70.446 14.937 C 70.526 14.897 70.753 14.877 71.126 14.877 L 71.486 14.877 C 71.46 14.944 71.39 15.064 71.276 15.237 C 71.203 15.35 71.166 15.49 71.166 15.657 C 71.393 15.657 71.576 15.707 71.716 15.807 L 70.476 17.337 C 70.13 17.75 69.786 18.164 69.446 18.577 C 69 19.177 68.776 19.66 68.776 20.027 C 68.776 20.16 68.873 20.227 69.066 20.227 C 69.44 20.227 69.83 20.047 70.236 19.687 C 70.743 19.32 71.463 18.734 72.396 17.927 Z M 71.196 19.567 L 71.196 19.607 C 71.143 19.66 71.056 19.744 70.936 19.857 L 70.936 19.777 L 71.166 19.547 L 71.196 19.567 Z M 70.186 20.547 L 70.236 20.547 C 70.203 20.6 70.13 20.677 70.016 20.777 L 69.956 20.777 C 70.016 20.677 70.093 20.6 70.186 20.547 Z M 78.894 18.337 L 78.954 18.337 C 78.954 18.43 78.907 18.477 78.814 18.477 L 78.784 18.507 L 78.744 18.507 L 78.724 18.477 C 78.764 18.444 78.82 18.397 78.894 18.337 Z M 76.134 15.807 C 76.12 15.834 76.1 15.85 76.074 15.857 C 76.06 15.85 76.054 15.834 76.054 15.807 L 76.054 15.797 C 76.06 15.764 76.067 15.747 76.074 15.747 L 76.084 15.747 C 76.117 15.754 76.134 15.774 76.134 15.807 Z M 78.494 18.647 L 78.574 18.647 C 78.074 19.227 77.28 19.744 76.194 20.197 C 75.147 20.637 74.227 20.857 73.434 20.857 C 72.267 20.857 71.684 20.397 71.684 19.477 C 71.684 19.084 71.83 18.694 72.124 18.307 C 72.417 17.927 72.757 17.737 73.144 17.737 C 73.204 17.737 73.284 17.744 73.384 17.757 C 73.484 17.777 73.557 17.787 73.604 17.787 L 73.604 18.077 C 73.604 18.33 73.397 18.63 72.984 18.977 C 72.57 19.33 72.364 19.654 72.364 19.947 C 72.364 20.4 72.56 20.627 72.954 20.627 C 73.86 20.627 74.637 20.11 75.284 19.077 C 75.39 18.897 75.8 17.987 76.514 16.347 L 76.514 16.127 L 76.364 16.127 C 75.724 16.614 74.9 17.167 73.894 17.787 L 73.844 17.637 C 74.004 17.49 74.25 17.264 74.584 16.957 C 74.577 17.07 74.634 17.127 74.754 17.127 C 74.907 17.127 75.24 16.924 75.754 16.517 C 76.26 16.11 76.514 15.844 76.514 15.717 C 76.514 15.617 76.464 15.57 76.364 15.577 C 76.43 15.537 76.777 15.28 77.404 14.807 C 77.944 14.4 78.27 14.197 78.384 14.197 C 78.51 14.197 78.574 14.244 78.574 14.337 C 78.574 14.61 78.39 14.867 78.024 15.107 C 77.524 15.454 77.247 15.657 77.194 15.717 C 77.194 15.93 77.187 16.274 77.174 16.747 C 77.134 17.56 77.074 18.114 76.994 18.407 C 76.867 18.827 76.58 19.31 76.134 19.857 L 76.134 20.007 C 76.414 20 77.2 19.547 78.494 18.647 Z M 86.376 11.607 C 85.796 12.2 85.046 13.04 84.126 14.127 C 83.879 14.394 83.536 14.8 83.096 15.347 C 83.089 15.367 83.069 15.407 83.036 15.467 L 82.986 15.547 C 82.986 15.56 82.976 15.57 82.956 15.577 C 82.949 15.584 82.946 15.584 82.946 15.577 C 82.946 15.59 82.946 15.607 82.946 15.627 C 82.946 15.66 82.959 15.69 82.986 15.717 L 84.706 15.717 L 84.936 15.807 L 84.856 15.917 L 82.716 15.917 C 82.623 15.917 82.163 16.54 81.336 17.787 C 80.723 18.714 80.416 19.48 80.416 20.087 C 80.416 20.147 80.543 20.177 80.796 20.177 C 81.303 20.177 82.269 19.564 83.696 18.337 L 83.786 18.337 C 82.153 19.964 80.799 20.777 79.726 20.777 C 79.193 20.777 78.926 20.547 78.926 20.087 C 78.926 19.767 79.283 18.97 79.996 17.697 C 80.009 17.664 80.036 17.617 80.076 17.557 C 80.076 17.45 80.056 17.38 80.016 17.347 L 80.046 17.337 L 80.006 17.347 C 79.986 17.34 79.969 17.337 79.956 17.337 L 81.166 16.127 L 81.166 15.937 L 79.956 15.937 C 79.916 15.864 79.836 15.82 79.716 15.807 C 79.816 15.814 79.926 15.817 80.046 15.817 C 80.499 15.817 80.979 15.784 81.486 15.717 C 81.579 15.644 82.193 14.96 83.326 13.667 C 83.699 13.247 84.129 12.81 84.616 12.357 C 85.236 11.777 85.773 11.487 86.226 11.487 C 86.326 11.487 86.376 11.527 86.376 11.607 Z M 80.006 17.347 L 80.016 17.347 C 79.929 17.394 79.806 17.5 79.646 17.667 L 79.906 17.377 C 79.933 17.364 79.966 17.354 80.006 17.347 Z M 79.646 17.667 L 79.186 18.187 C 79.286 18.074 79.439 17.9 79.646 17.667 Z M 79.106 18.187 L 79.186 18.187 L 79.166 18.207 C 79.139 18.234 79.106 18.257 79.066 18.277 C 79.093 18.25 79.106 18.22 79.106 18.187 Z M 90.053 18.307 L 90.133 18.307 C 89.187 19.26 88.517 19.884 88.123 20.177 C 87.25 20.83 86.417 21.157 85.623 21.157 C 85.23 21.157 84.843 21.047 84.463 20.827 C 83.95 20.534 83.693 20.26 83.693 20.007 C 83.693 19.134 83.72 18.597 83.773 18.397 C 83.873 18.217 83.99 18.004 84.123 17.757 C 84.163 17.677 84.223 17.55 84.303 17.377 C 84.643 16.697 85.247 16.084 86.113 15.537 C 86.98 14.984 87.793 14.707 88.553 14.707 C 88.9 14.707 89.073 14.707 89.073 14.707 C 89.28 14.727 89.45 14.857 89.583 15.097 C 89.697 15.304 89.753 15.52 89.753 15.747 C 89.753 16.634 89.193 17.387 88.073 18.007 C 87.507 18.32 86.553 18.677 85.213 19.077 C 85.12 19.33 85.073 19.58 85.073 19.827 C 85.073 20.247 85.34 20.457 85.873 20.457 C 86.6 20.457 87.353 20.22 88.133 19.747 C 88.447 19.554 89.087 19.074 90.053 18.307 Z M 89.163 15.317 C 89.163 15.164 89.073 15.01 88.893 14.857 L 88.523 14.857 C 88.157 14.857 87.727 15.014 87.233 15.327 C 86.693 15.674 86.423 16.014 86.423 16.347 C 86.537 16.327 86.593 16.317 86.593 16.317 C 87.433 15.944 88.26 15.717 89.073 15.637 C 89.133 15.57 89.163 15.464 89.163 15.317 Z M 88.783 16.297 C 88.783 16.257 88.78 16.207 88.773 16.147 C 88.76 16.08 88.753 16.034 88.753 16.007 C 88.693 15.947 88.577 15.917 88.403 15.917 C 88.17 15.917 87.98 15.967 87.833 16.067 C 86.933 16.654 86.217 17.4 85.683 18.307 L 85.683 18.507 C 86.157 18.507 86.78 18.254 87.553 17.747 C 88.373 17.214 88.783 16.73 88.783 16.297 Z M 87.513 20.457 L 87.513 20.287 C 87.293 20.287 86.987 20.36 86.593 20.507 C 86 20.72 85.697 20.83 85.683 20.837 L 85.683 21.007 C 86.177 21.007 86.787 20.824 87.513 20.457 Z M 96.74 18.337 L 96.8 18.337 C 96.8 18.43 96.753 18.477 96.66 18.477 L 96.63 18.507 L 96.59 18.507 L 96.57 18.477 C 96.61 18.444 96.667 18.397 96.74 18.337 Z M 93.98 15.807 C 93.967 15.834 93.947 15.85 93.92 15.857 C 93.907 15.85 93.9 15.834 93.9 15.807 L 93.9 15.797 C 93.907 15.764 93.913 15.747 93.92 15.747 L 93.93 15.747 C 93.963 15.754 93.98 15.774 93.98 15.807 Z M 96.34 18.647 L 96.42 18.647 C 95.92 19.227 95.127 19.744 94.04 20.197 C 92.993 20.637 92.073 20.857 91.28 20.857 C 90.113 20.857 89.53 20.397 89.53 19.477 C 89.53 19.084 89.677 18.694 89.97 18.307 C 90.263 17.927 90.603 17.737 90.99 17.737 C 91.05 17.737 91.13 17.744 91.23 17.757 C 91.33 17.777 91.403 17.787 91.45 17.787 L 91.45 18.077 C 91.45 18.33 91.243 18.63 90.83 18.977 C 90.417 19.33 90.21 19.654 90.21 19.947 C 90.21 20.4 90.407 20.627 90.8 20.627 C 91.707 20.627 92.483 20.11 93.13 19.077 C 93.237 18.897 93.647 17.987 94.36 16.347 L 94.36 16.127 L 94.21 16.127 C 93.57 16.614 92.747 17.167 91.74 17.787 L 91.69 17.637 C 91.85 17.49 92.097 17.264 92.43 16.957 C 92.423 17.07 92.48 17.127 92.6 17.127 C 92.753 17.127 93.087 16.924 93.6 16.517 C 94.107 16.11 94.36 15.844 94.36 15.717 C 94.36 15.617 94.31 15.57 94.21 15.577 C 94.277 15.537 94.623 15.28 95.25 14.807 C 95.79 14.4 96.117 14.197 96.23 14.197 C 96.357 14.197 96.42 14.244 96.42 14.337 C 96.42 14.61 96.237 14.867 95.87 15.107 C 95.37 15.454 95.093 15.657 95.04 15.717 C 95.04 15.93 95.033 16.274 95.02 16.747 C 94.98 17.56 94.92 18.114 94.84 18.407 C 94.713 18.827 94.427 19.31 93.98 19.857 L 93.98 20.007 C 94.26 20 95.047 19.547 96.34 18.647 Z"/>
    <path d="M 129.246 4.337 C 129.246 4.644 128.923 4.904 128.276 5.117 C 127.996 5.204 127.623 5.417 127.156 5.757 C 126.656 6.13 126.376 6.434 126.316 6.667 C 126.116 6.854 125.839 7.137 125.486 7.517 L 121.116 13.267 C 121.543 13.154 122.019 12.907 122.546 12.527 C 123.319 11.96 123.763 11.64 123.876 11.567 L 123.876 11.667 C 123.876 12 123.463 12.37 122.636 12.777 C 122.236 12.944 121.653 13.204 120.886 13.557 C 120.366 14.17 119.723 14.92 118.956 15.807 C 115.976 19.12 112.143 20.777 107.456 20.777 C 106.229 20.777 105.126 20.62 104.146 20.307 C 104.086 20.294 103.899 20.21 103.586 20.057 C 103.313 19.924 103.146 19.857 103.086 19.857 C 102.953 19.857 102.723 19.834 102.396 19.787 C 102.249 19.767 102.019 19.744 101.706 19.717 C 100.753 19.617 99.913 19.344 99.186 18.897 C 98.266 18.344 97.806 17.647 97.806 16.807 C 97.806 15.967 98.209 15.29 99.016 14.777 C 99.656 14.364 100.449 14.114 101.396 14.027 C 101.563 14.02 101.823 14 102.176 13.967 C 102.363 13.94 102.686 13.74 103.146 13.367 C 103.753 12.887 104.086 12.627 104.146 12.587 C 105.946 11.494 108.153 10.927 110.766 10.887 C 110.879 10.394 111.049 10.06 111.276 9.887 L 111.276 9.937 C 111.276 10.004 111.239 10.13 111.166 10.317 C 111.086 10.51 111.046 10.7 111.046 10.887 C 112.286 11.067 113.189 11.357 113.756 11.757 C 113.976 11.904 114.176 11.977 114.356 11.977 C 114.536 11.89 114.966 11.784 115.646 11.657 C 116.286 11.537 116.803 11.357 117.196 11.117 C 117.949 8.744 120.366 7.114 124.446 6.227 C 124.793 6.174 125.289 6.07 125.936 5.917 C 126.156 5.797 126.476 5.624 126.896 5.397 C 127.543 5.044 128.326 4.69 129.246 4.337 Z M 126.976 5.597 L 126.976 5.587 C 126.969 5.54 126.953 5.517 126.926 5.517 L 126.916 5.517 C 126.883 5.517 126.866 5.54 126.866 5.587 L 126.866 5.597 C 126.866 5.657 126.883 5.687 126.916 5.687 L 126.926 5.687 C 126.959 5.687 126.976 5.657 126.976 5.597 Z M 126.786 5.687 C 126.513 5.774 126.376 5.86 126.376 5.947 L 126.406 5.967 C 126.479 5.954 126.606 5.86 126.786 5.687 Z M 119.276 10.187 L 125.086 6.427 C 124.986 6.427 124.936 6.427 124.936 6.427 C 123.269 6.847 121.973 7.304 121.046 7.797 C 119.686 8.524 118.729 9.477 118.176 10.657 L 118.346 10.657 C 118.566 10.557 118.876 10.4 119.276 10.187 Z M 126.006 6.287 L 125.896 6.287 C 125.763 6.287 125.316 6.534 124.556 7.027 C 123.743 7.58 122.519 8.407 120.886 9.507 C 120.619 9.68 119.879 10.11 118.666 10.797 C 118.533 10.864 118.346 10.967 118.106 11.107 C 118.006 11.174 117.956 11.447 117.956 11.927 C 117.956 12.86 118.416 13.327 119.336 13.327 C 119.369 13.314 119.399 13.294 119.426 13.267 C 121.033 11.114 122.496 9.45 123.816 8.277 C 124.309 7.844 125.039 7.18 126.006 6.287 Z M 112.146 11.437 L 112.426 11.437 C 112.013 11.284 111.639 11.207 111.306 11.207 L 111.046 11.207 L 111.136 11.347 C 111.949 11.407 112.286 11.437 112.146 11.437 Z M 119.106 13.727 L 119.106 13.647 C 117.873 13.36 117.209 12.7 117.116 11.667 L 116.966 11.667 C 117.039 11.667 116.629 11.79 115.736 12.037 C 115.456 12.117 115.046 12.244 114.506 12.417 C 114.873 12.97 115.056 13.544 115.056 14.137 C 115.056 15.47 114.163 16.66 112.376 17.707 C 111.163 18.427 109.679 19.017 107.926 19.477 L 107.926 19.517 C 107.926 19.577 108.129 19.65 108.536 19.737 C 108.903 19.817 109.159 19.857 109.306 19.857 L 110.106 19.857 C 111.946 19.857 113.653 19.244 115.226 18.017 C 115.726 17.617 116.386 16.974 117.206 16.087 C 118.026 15.2 118.609 14.494 118.956 13.967 C 119.056 13.82 119.106 13.74 119.106 13.727 Z M 114.526 13.907 C 114.526 13.254 114.286 12.814 113.806 12.587 C 113.179 12.547 112.789 12.517 112.636 12.497 C 112.223 12.444 111.849 12.337 111.516 12.177 L 111.306 12.177 C 110.033 12.177 108.819 12.67 107.666 13.657 C 106.453 14.684 105.846 15.82 105.846 17.067 C 105.846 17.527 106.009 18.004 106.336 18.497 C 106.683 19.037 107.076 19.307 107.516 19.307 C 108.023 19.307 108.713 19.137 109.586 18.797 C 110.853 18.29 111.523 17.98 111.596 17.867 L 111.486 17.867 C 111.346 17.867 111.143 17.877 110.876 17.897 C 110.609 17.917 110.409 17.927 110.276 17.927 C 109.489 17.927 108.673 17.697 107.826 17.237 L 107.826 17.187 C 107.826 17.107 107.859 17.05 107.926 17.017 C 108.846 17.43 109.659 17.637 110.366 17.637 C 111.513 17.637 112.479 17.307 113.266 16.647 C 114.106 15.947 114.526 15.034 114.526 13.907 Z M 110.816 11.437 L 110.856 11.347 L 110.856 11.317 C 110.856 11.224 110.826 11.157 110.766 11.117 L 109.966 11.117 C 108.826 11.117 107.723 11.287 106.656 11.627 C 105.449 12.014 104.489 12.56 103.776 13.267 L 103.176 13.877 L 103.176 13.967 C 104.363 14.12 105.176 14.444 105.616 14.937 C 105.736 14.864 105.863 14.714 105.996 14.487 C 106.149 14.2 106.256 14.027 106.316 13.967 C 107.616 12.494 109.116 11.65 110.816 11.437 Z M 111.796 17.797 L 111.796 17.777 C 111.796 17.724 111.779 17.697 111.746 17.697 L 111.736 17.697 C 111.709 17.697 111.693 17.724 111.686 17.777 L 111.686 17.797 C 111.693 17.844 111.709 17.867 111.736 17.867 L 111.746 17.867 C 111.779 17.867 111.796 17.844 111.796 17.797 Z M 106.676 19.477 L 106.846 19.397 C 106.826 19.39 106.799 19.36 106.766 19.307 C 106.666 19.227 106.516 19.1 106.316 18.927 C 105.696 18.434 105.386 17.664 105.386 16.617 C 105.386 16.457 105.409 16.227 105.456 15.927 C 105.503 15.62 105.526 15.39 105.526 15.237 C 105.526 14.95 105.199 14.687 104.546 14.447 C 103.993 14.254 103.526 14.157 103.146 14.157 C 102.793 14.157 102.506 14.51 102.286 15.217 C 102.113 15.764 102.026 16.274 102.026 16.747 C 102.026 18.06 102.563 19.02 103.636 19.627 L 105.246 19.627 C 105.333 19.627 105.809 19.577 106.676 19.477 Z M 110.916 20.177 L 109.526 20.177 C 109.286 20.177 108.876 20.087 108.296 19.907 C 107.723 19.72 107.366 19.627 107.226 19.627 C 106.866 19.627 106.329 19.667 105.616 19.747 C 104.903 19.82 104.366 19.857 104.006 19.857 L 104.086 19.947 C 105.399 20.347 106.263 20.547 106.676 20.547 L 107.786 20.547 C 108.799 20.547 109.843 20.424 110.916 20.177 Z M 102.776 19.547 C 101.856 18.74 101.396 17.777 101.396 16.657 C 101.396 16.264 101.489 15.837 101.676 15.377 C 101.869 14.99 102.063 14.597 102.256 14.197 C 102.216 14.197 102.159 14.19 102.086 14.177 C 102.006 14.164 101.946 14.157 101.906 14.157 C 101.039 14.157 100.256 14.364 99.556 14.777 C 98.729 15.27 98.316 15.92 98.316 16.727 C 98.316 17.62 98.836 18.34 99.876 18.887 C 100.749 19.34 101.679 19.567 102.666 19.567 C 102.686 19.56 102.723 19.554 102.776 19.547 Z M 129.622 17.867 L 129.622 17.957 C 129.388 18.197 129.025 18.55 128.532 19.017 C 128.352 19.164 128.082 19.387 127.722 19.687 C 126.728 20.567 125.972 21.007 125.452 21.007 C 125.218 21.007 124.965 20.93 124.692 20.777 C 124.392 20.597 124.242 20.397 124.242 20.177 C 124.242 19.73 124.578 19.084 125.252 18.237 C 125.758 17.657 126.268 17.074 126.782 16.487 L 126.782 16.147 C 126.735 16.147 126.665 16.14 126.572 16.127 C 126.478 16.107 126.405 16.097 126.352 16.097 C 126.158 16.097 125.765 16.277 125.172 16.637 C 124.392 17.104 123.552 17.764 122.652 18.617 C 122.378 18.877 121.635 19.644 120.422 20.917 C 120.082 20.977 119.718 21.007 119.332 21.007 L 119.132 21.007 C 119.205 20.94 119.242 20.87 119.242 20.797 C 119.242 20.777 119.232 20.744 119.212 20.697 C 119.198 20.657 119.192 20.627 119.192 20.607 C 119.192 20.214 120.012 18.997 121.652 16.957 C 121.792 16.784 121.862 16.544 121.862 16.237 C 121.782 16.217 121.655 16.197 121.482 16.177 C 121.128 16.35 120.732 16.627 120.292 17.007 C 119.925 17.32 119.558 17.637 119.192 17.957 C 119.112 18.024 118.998 18.12 118.852 18.247 L 118.782 18.247 C 120.568 16.467 121.545 15.577 121.712 15.577 L 121.652 15.657 L 121.692 15.807 C 121.772 15.807 121.895 15.794 122.062 15.767 C 122.228 15.734 122.352 15.717 122.432 15.717 C 122.505 15.717 122.615 15.734 122.762 15.767 C 122.908 15.794 123.018 15.807 123.092 15.807 C 123.205 15.807 123.262 15.7 123.262 15.487 C 123.262 15.28 123.122 15.177 122.842 15.177 C 122.728 15.177 122.568 15.217 122.362 15.297 C 122.162 15.384 122.005 15.427 121.892 15.427 C 122.312 15.16 122.675 15.027 122.982 15.027 C 123.482 15.027 123.732 15.317 123.732 15.897 C 123.732 16.29 123.368 16.997 122.642 18.017 L 122.642 18.127 C 122.675 18.14 122.732 18.16 122.812 18.187 C 123.105 18.074 123.575 17.717 124.222 17.117 C 124.928 16.464 125.428 16.057 125.722 15.897 C 125.715 15.99 125.758 16.037 125.852 16.037 C 126.038 16.037 126.308 15.974 126.662 15.847 C 127.008 15.72 127.275 15.657 127.462 15.657 C 127.522 15.604 127.552 15.52 127.552 15.407 C 127.552 15.254 127.428 15.177 127.182 15.177 C 127.102 15.177 126.988 15.204 126.842 15.257 C 126.688 15.317 126.572 15.347 126.492 15.347 C 126.758 15.134 127.045 15.027 127.352 15.027 C 127.792 15.027 128.012 15.4 128.012 16.147 C 128.012 16.574 127.632 17.244 126.872 18.157 C 126.105 19.07 125.722 19.657 125.722 19.917 C 125.722 20.124 125.815 20.227 126.002 20.227 C 126.435 20.227 127.062 19.917 127.882 19.297 C 128.468 18.824 129.048 18.347 129.622 17.867 Z M 126.322 20.517 L 126.212 20.517 C 126.172 20.517 125.975 20.574 125.622 20.687 L 125.622 20.897 C 126.088 20.897 126.322 20.77 126.322 20.517 Z M 140.376 17.867 L 140.376 17.957 C 140.142 18.197 139.779 18.55 139.286 19.017 C 139.106 19.164 138.836 19.387 138.476 19.687 C 137.482 20.567 136.726 21.007 136.206 21.007 C 135.972 21.007 135.719 20.93 135.446 20.777 C 135.146 20.597 134.996 20.397 134.996 20.177 C 134.996 19.73 135.332 19.084 136.006 18.237 C 136.512 17.657 137.022 17.074 137.536 16.487 L 137.536 16.147 C 137.489 16.147 137.419 16.14 137.326 16.127 C 137.232 16.107 137.159 16.097 137.106 16.097 C 136.912 16.097 136.519 16.277 135.926 16.637 C 135.146 17.104 134.306 17.764 133.406 18.617 C 133.132 18.877 132.389 19.644 131.176 20.917 C 130.836 20.977 130.472 21.007 130.086 21.007 L 129.886 21.007 C 129.959 20.94 129.996 20.87 129.996 20.797 C 129.996 20.777 129.986 20.744 129.966 20.697 C 129.952 20.657 129.946 20.627 129.946 20.607 C 129.946 20.214 130.766 18.997 132.406 16.957 C 132.546 16.784 132.616 16.544 132.616 16.237 C 132.536 16.217 132.409 16.197 132.236 16.177 C 131.882 16.35 131.486 16.627 131.046 17.007 C 130.679 17.32 130.312 17.637 129.946 17.957 C 129.866 18.024 129.752 18.12 129.606 18.247 L 129.536 18.247 C 131.322 16.467 132.299 15.577 132.466 15.577 L 132.406 15.657 L 132.446 15.807 C 132.526 15.807 132.649 15.794 132.816 15.767 C 132.982 15.734 133.106 15.717 133.186 15.717 C 133.259 15.717 133.369 15.734 133.516 15.767 C 133.662 15.794 133.772 15.807 133.846 15.807 C 133.959 15.807 134.016 15.7 134.016 15.487 C 134.016 15.28 133.876 15.177 133.596 15.177 C 133.482 15.177 133.322 15.217 133.116 15.297 C 132.916 15.384 132.759 15.427 132.646 15.427 C 133.066 15.16 133.429 15.027 133.736 15.027 C 134.236 15.027 134.486 15.317 134.486 15.897 C 134.486 16.29 134.122 16.997 133.396 18.017 L 133.396 18.127 C 133.429 18.14 133.486 18.16 133.566 18.187 C 133.859 18.074 134.329 17.717 134.976 17.117 C 135.682 16.464 136.182 16.057 136.476 15.897 C 136.469 15.99 136.512 16.037 136.606 16.037 C 136.792 16.037 137.062 15.974 137.416 15.847 C 137.762 15.72 138.029 15.657 138.216 15.657 C 138.276 15.604 138.306 15.52 138.306 15.407 C 138.306 15.254 138.182 15.177 137.936 15.177 C 137.856 15.177 137.742 15.204 137.596 15.257 C 137.442 15.317 137.326 15.347 137.246 15.347 C 137.512 15.134 137.799 15.027 138.106 15.027 C 138.546 15.027 138.766 15.4 138.766 16.147 C 138.766 16.574 138.386 17.244 137.626 18.157 C 136.859 19.07 136.476 19.657 136.476 19.917 C 136.476 20.124 136.569 20.227 136.756 20.227 C 137.189 20.227 137.816 19.917 138.636 19.297 C 139.222 18.824 139.802 18.347 140.376 17.867 Z M 137.076 20.517 L 136.966 20.517 C 136.926 20.517 136.729 20.574 136.376 20.687 L 136.376 20.897 C 136.842 20.897 137.076 20.77 137.076 20.517 Z"/>
  </g>
</svg>
