<svg viewBox="0 0 305 29" xmlns="http://www.w3.org/2000/svg">
  <title>Del Mar</title>
  <g transform="matrix(0.009153, 0, 0, 0.009153, -0.256285, 16.868988)">
    <path transform="matrix(1,0,0,1,64,0)" d="M 917 -300 Q 917 -293 871 -251 Q 825 -209 807 -198 Q 807 -195 807 -194 Q 807 -190 794 -190 Q 717 -126 615 -72 Q 589 -60 540 -34 Q 530 -27 530 -16 Q 530 0 564 0 Q 577 0 601 0 Q 625 0 638 0 Q 586 0 552 0 Q 530 0 466 -32 Q 402 -64 402 -80 Q 402 -91 403 -112 Q 405 -134 405 -145 Q 392 -144 319 -98 Q 313 -107 294 -107 Q 202 -52 98 -25 L 98 -18 Q 98 0 132 0 Q 144 0 164 0 Q 185 0 197 0 Q 161 0 129 0 Q -36 0 -36 -176 Q -36 -371 136 -537 Q 309 -704 501 -704 L 550 -704 Q 588 -704 626 -550 Q 632 -525 657 -525 Q 727 -677 736 -685 Q 754 -704 869 -704 L 819 -596 L 819 -570 L 858 -570 L 858 -640 Q 770 -508 680 -376 Q 550 -173 550 -104 Q 550 -64 577 -64 Q 640 -64 752 -162 Q 913 -300 917 -303 L 917 -300 M 602 -577 Q 602 -656 559 -656 L 510 -656 Q 416 -656 362 -607 Q 322 -570 270 -516 L 270 -500 L 288 -500 Q 455 -577 602 -577 M 598 -530 L 598 -541 L 589 -550 L 559 -550 Q 477 -550 353 -442 Q 83 -207 83 -104 Q 83 -74 97 -68 Q 105 -68 117 -66 Q 129 -64 135 -64 Q 269 -64 433 -230 Q 598 -396 598 -530 Z"/>
    <path transform="matrix(1,0,0,1,973,0)" d="M 1147 -326 Q 1109 -287 1030 -212 Q 1001 -189 944 -141 Q 785 0 702 0 Q 664 0 621 -25 Q 573 -53 573 -89 Q 573 -160 681 -296 Q 762 -388 844 -482 L 844 -519 Q 836 -519 821 -521 Q 806 -524 798 -524 Q 767 -524 672 -467 Q 547 -392 404 -255 Q 359 -214 165 -9 Q 110 0 49 0 L 27 0 Q 39 -10 39 -22 Q 39 -26 36 -32 Q 34 -39 34 -43 Q 34 -106 297 -433 Q 319 -460 319 -509 Q 306 -512 279 -516 Q 221 -487 151 -427 Q 93 -376 34 -325 Q 21 -315 -2 -294 L -9 -294 Q 276 -579 303 -579 L 297 -570 L 301 -555 Q 314 -555 340 -559 Q 367 -564 380 -564 Q 392 -564 415 -559 Q 439 -555 451 -555 Q 469 -555 469 -589 Q 469 -622 423 -622 Q 405 -622 372 -608 Q 340 -595 322 -595 Q 389 -704 439 -704 Q 518 -704 518 -594 Q 518 -517 402 -323 L 402 -309 Q 407 -306 420 -301 Q 467 -319 570 -416 Q 684 -520 730 -546 Q 729 -512 745 -512 Q 775 -512 831 -536 Q 887 -560 917 -560 Q 926 -571 926 -593 Q 926 -622 887 -622 Q 874 -622 850 -613 Q 826 -604 813 -604 Q 856 -704 905 -704 Q 975 -704 975 -566 Q 975 -488 853 -319 Q 731 -150 731 -102 Q 731 -64 761 -64 Q 830 -64 961 -171 Q 1055 -252 1147 -335 L 1147 -326 M 794 -52 L 782 -52 Q 776 -52 720 -34 L 720 -12 Q 794 -12 794 -52 Z"/>
    <path transform="matrix(1,0,0,1,2138,0)" d="M 1392 -1316 L 690 -378 Q 665 -332 614 -240 Q 550 -127 550 -116 Q 550 -83 583 -83 Q 654 -83 944 -328 L 951 -328 Q 886 -253 822 -177 Q 735 -86 665 -86 L 663 -86 Q 631 -75 569 -54 Q 544 -51 493 -43 Q 475 -40 475 -30 Q 475 -7 518 -8 Q 500 0 484 0 Q 402 0 402 -107 Q 402 -120 409 -142 Q 417 -164 417 -175 L 405 -175 Q 288 -50 236 -50 Q 212 -50 164 -25 Q 117 0 86 0 Q 79 0 63 -1 Q 48 -2 40 0 Q 40 17 97 17 Q 114 17 135 0 Q 95 0 61 0 Q -46 0 -46 -153 Q -46 -356 160 -533 Q 358 -704 563 -704 Q 665 -704 665 -611 Q 665 -594 662 -562 Q 659 -530 659 -513 Q 675 -515 675 -507 Q 680 -513 690 -537 L 1387 -1492 L 1392 -1472 L 1392 -1316 M 543 3 Q 543 0 540 0 L 540 0 Q 538 0 534 3 Q 534 8 537 9 Q 543 8 543 5 L 543 3 M 175 -4 Q 175 -1 172 0 Q 168 -1 165 -4 L 169 -7 Q 174 -6 175 -4 M 645 -543 Q 645 -609 641 -621 Q 631 -656 580 -656 Q 527 -656 449 -622 Q 359 -582 359 -540 Q 389 -540 449 -558 Q 509 -576 540 -576 Q 598 -576 607 -550 Q 574 -640 552 -640 Q 462 -640 274 -428 Q 86 -216 86 -111 Q 86 -82 102 -68 Q 198 -68 264 -104 Q 350 -154 466 -267 Q 591 -391 616 -469 Q 615 -471 611 -492 Q 611 -510 611 -543 L 645 -543 Z"/>
    <path transform="matrix(1,0,0,1,3763,0)" d="M 3282 -1466 Q 3282 -1362 3110 -1248 Q 3041 -1202 2847 -1104 Q 2827 -1060 2788 -975 Q 2640 -682 2119 -516 Q 2043 -436 1890 -279 Q 1745 -135 1404 -31 Q 1094 64 858 64 Q 572 64 383 -23 Q 132 -142 132 -396 Q 132 -716 490 -910 Q 788 -1073 1138 -1073 Q 1177 -1073 1256 -1064 Q 1335 -1055 1374 -1055 Q 1403 -1055 1442 -1080 Q 1425 -1361 1659 -1503 Q 1849 -1620 2150 -1620 Q 2154 -1619 2154 -1619 L 2163 -1619 L 2193 -1616 L 2322 -1607 Q 2347 -1598 2392 -1577 Q 2457 -1542 2552 -1460 Q 2612 -1408 2653 -1408 Q 2645 -1408 2807 -1498 Q 2970 -1589 3076 -1589 Q 3282 -1589 3282 -1466 M 3205 -1535 L 3205 -1538 Q 3204 -1546 3200 -1546 L 3198 -1546 Q 3193 -1546 3193 -1538 L 3193 -1535 Q 3194 -1530 3198 -1530 L 3200 -1530 Q 3205 -1531 3205 -1535 M 3132 -1571 L 3041 -1571 Q 3021 -1571 3003 -1561 Q 3019 -1555 3105 -1555 Q 3127 -1555 3132 -1571 M 3248 -1472 Q 3248 -1534 3209 -1534 Q 3209 -1387 3033 -1267 L 3021 -1259 Q 2977 -1229 2895 -1163 Q 2989 -1198 3107 -1291 Q 3248 -1400 3248 -1472 M 2978 -1521 Q 2834 -1521 2709 -1374 L 2714 -1367 Q 2877 -1481 2978 -1521 M 3058 -1472 Q 3058 -1515 3030 -1515 Q 2989 -1515 2888 -1443 Q 2799 -1378 2763 -1335 Q 2763 -1313 2783 -1284 Q 2809 -1245 2813 -1236 Q 2831 -1192 2838 -1163 Q 2905 -1182 2981 -1291 Q 3058 -1400 3058 -1472 M 2634 -1383 L 2625 -1392 L 2616 -1392 L 2625 -1383 L 2634 -1383 M 2689 -1349 L 2684 -1349 Q 2668 -1340 2659 -1324 L 2666 -1324 Q 2675 -1332 2689 -1349 M 2815 -1156 Q 2815 -1254 2739 -1310 L 2689 -1261 L 2689 -1251 Q 2709 -1210 2709 -1202 Q 2709 -1181 2700 -1177 L 2666 -1236 Q 2580 -1151 2535 -1089 Q 2515 -1060 2469 -1007 L 2476 -1007 Q 2546 -1007 2720 -1098 Q 2749 -1111 2806 -1138 Q 2815 -1143 2815 -1156 M 2503 -1466 Q 2410 -1589 2147 -1589 Q 1992 -1589 1862 -1521 Q 1706 -1439 1693 -1301 Q 1929 -1482 2279 -1482 Q 2315 -1482 2386 -1472 Q 2457 -1462 2494 -1462 Q 2500 -1464 2503 -1466 M 2562 -1000 L 2542 -1000 Q 2530 -1000 2499 -987 Q 2469 -975 2453 -975 L 2444 -966 Q 2468 -964 2562 -1000 M 1880 -1560 L 1880 -1563 Q 1879 -1571 1875 -1571 L 1874 -1571 Q 1869 -1571 1867 -1563 L 1867 -1560 Q 1869 -1555 1873 -1555 L 1875 -1555 Q 1880 -1556 1880 -1560 M 2594 -1362 Q 2594 -1403 2513 -1429 Q 2451 -1448 2395 -1448 L 2143 -1448 Q 2047 -1448 1878 -1379 Q 1684 -1302 1684 -1227 Q 1684 -1163 1720 -1163 Q 1750 -1163 1809 -1167 Q 1869 -1172 1899 -1172 Q 2159 -1172 2184 -1073 L 2181 -1070 L 2175 -1073 Q 2170 -1078 2158 -1086 Q 2146 -1094 2125 -1104 Q 2123 -1138 1909 -1138 L 1791 -1138 Q 1737 -1138 1718 -1123 Q 1719 -1120 1724 -1113 Q 1802 -1016 1906 -982 Q 1986 -955 2129 -955 Q 2244 -955 2272 -991 Q 2298 -1022 2390 -1138 Q 2457 -1224 2594 -1362 M 2813 -1089 L 2806 -1089 Q 2722 -1043 2552 -957 Q 2542 -952 2466 -932 Q 2408 -917 2390 -892 L 2150 -573 Q 2149 -570 2143 -559 Q 2147 -557 2224 -582 Q 2426 -650 2581 -771 Q 2770 -917 2813 -1089 M 2242 -942 L 2192 -942 Q 2167 -942 2119 -937 Q 2071 -932 2046 -932 Q 2091 -923 2138 -923 Q 2159 -923 2233 -932 L 2242 -942 M 1856 -1555 Q 1845 -1557 1767 -1521 Q 1462 -1382 1462 -1150 Q 1462 -1098 1472 -1098 Q 1482 -1098 1613 -1138 Q 1613 -1410 1856 -1555 M 1905 -883 Q 1736 -923 1643 -1073 Q 1643 -1089 1629 -1104 Q 1620 -1104 1603 -1101 Q 1587 -1098 1580 -1098 Q 1516 -1073 1482 -1064 L 1482 -1055 Q 1494 -1037 1496 -1025 Q 1576 -978 1654 -932 Q 1744 -883 1828 -883 L 1905 -883 M 2193 -869 L 1711 -869 Q 1742 -810 1742 -745 Q 1742 -589 1677 -484 Q 1688 -484 1709 -483 Q 1731 -482 1742 -482 Q 1837 -482 1923 -500 Q 2005 -573 2184 -853 Q 2184 -854 2186 -858 Q 2189 -863 2193 -869 M 1724 -776 Q 1724 -783 1718 -785 Q 1715 -783 1715 -779 L 1715 -775 Q 1715 -770 1718 -770 Q 1722 -772 1724 -776 M 1457 -1039 L 1457 -1048 L 1455 -1048 Q 1435 -1048 1432 -1039 L 1457 -1039 M 1711 -794 Q 1711 -857 1632 -901 Q 1444 -1007 1371 -1007 Q 1340 -1007 1301 -957 Q 1595 -949 1711 -794 M 1668 -534 L 1620 -484 L 1625 -484 L 1629 -482 Q 1643 -482 1668 -534 M 1702 -675 Q 1702 -878 1380 -878 Q 1263 -878 1232 -862 Q 1177 -835 1177 -733 Q 1177 -615 1313 -542 Q 1425 -482 1555 -482 Q 1590 -482 1646 -558 Q 1702 -635 1702 -675 M 1613 -451 L 1589 -451 Q 1451 -356 1245 -294 Q 1469 -294 1613 -451 M 1521 -460 Q 1499 -465 1417 -484 Q 1228 -531 1177 -637 Q 1163 -668 1163 -681 L 1163 -742 Q 1163 -759 1167 -793 Q 1172 -827 1172 -844 Q 1145 -844 1055 -794 Q 745 -626 745 -371 Q 745 -344 845 -326 Q 918 -313 969 -313 L 982 -313 L 957 -337 Q 962 -346 964 -353 L 966 -353 Q 996 -341 1016 -337 Q 1013 -358 1013 -376 Q 1013 -491 1113 -491 Q 1177 -491 1177 -430 Q 1177 -369 1125 -369 Q 1094 -369 1077 -407 Q 1061 -445 1059 -445 Q 1030 -445 1030 -380 Q 1030 -335 1048 -319 L 1080 -319 Q 1154 -319 1315 -366 Q 1492 -417 1521 -460 M 1890 -466 L 1874 -466 Q 1837 -466 1767 -458 Q 1697 -451 1663 -451 Q 1462 -264 1236 -264 Q 1214 -264 1170 -267 Q 1126 -270 1104 -270 Q 1083 -270 1080 -264 Q 947 -267 789 -309 Q 753 -319 754 -319 L 745 -319 Q 758 -189 917 -116 Q 1043 -59 1193 -59 Q 1358 -59 1500 -126 Q 1669 -207 1781 -319 Q 1571 -206 1335 -206 Q 1172 -206 1123 -240 Q 1136 -242 1164 -231 Q 1192 -221 1202 -221 Q 1444 -221 1576 -259 Q 1759 -313 1890 -466 M 1319 -1007 L 1319 -1016 Q 1236 -1025 1150 -1025 Q 813 -1025 518 -880 Q 156 -702 156 -402 Q 156 -167 389 -53 Q 568 34 831 34 Q 1073 34 1245 -25 Q 1067 -17 926 -72 Q 753 -141 706 -288 Q 695 -322 688 -353 Q 598 -469 598 -534 Q 598 -629 638 -629 Q 638 -613 625 -587 Q 613 -561 613 -546 Q 613 -460 688 -392 Q 720 -817 1245 -951 L 1319 -1007 M 1113 -245 L 1107 -242 L 1104 -245 L 1104 -246 Q 1106 -251 1107 -251 L 1108 -251 Q 1113 -250 1113 -245 M 1104 -254 Q 1103 -245 1099 -245 L 1098 -245 Q 1093 -245 1091 -254 L 1091 -255 Q 1093 -264 1098 -264 L 1099 -264 Q 1103 -264 1104 -255 L 1104 -254 Z"/>
    <path transform="matrix(1,0,0,1,6208,0)" d="M 663 -288 Q 511 -143 448 -99 Q 309 0 181 0 Q 118 0 57 -36 Q -25 -84 -25 -125 Q -25 -268 -16 -301 Q 0 -331 21 -371 Q 27 -384 40 -412 Q 95 -524 233 -614 Q 372 -704 493 -704 Q 549 -704 549 -704 Q 582 -701 604 -661 Q 622 -627 622 -589 Q 622 -440 442 -337 Q 351 -284 138 -218 Q 122 -175 122 -135 Q 122 -64 208 -64 Q 324 -64 449 -138 Q 499 -168 654 -288 L 663 -288 M 559 -606 Q 559 -631 530 -656 L 491 -656 Q 433 -656 353 -605 Q 267 -550 267 -497 Q 285 -500 285 -500 Q 420 -560 550 -573 Q 559 -583 559 -606 M 518 -584 Q 518 -593 516 -606 Q 515 -620 515 -627 Q 505 -640 478 -640 Q 440 -640 417 -618 Q 274 -488 188 -285 L 188 -256 Q 263 -256 387 -368 Q 518 -488 518 -584 M 383 -98 L 383 -128 Q 348 -128 286 -89 Q 191 -33 188 -30 L 188 0 Q 267 0 383 -98 Z"/>
    <path transform="matrix(1,0,0,1,6861,0)" d="M 663 -303 Q 446 -45 353 0 Q 354 -128 337 -128 Q 328 -128 172 -33 L 172 -3 Q 194 -3 239 -14 Q 284 -25 308 -25 L 313 0 Q 240 0 163 0 Q 116 0 42 -41 Q -40 -85 -40 -125 L -40 -301 Q -14 -325 -2 -359 Q 45 -497 174 -600 Q 304 -704 446 -704 Q 607 -704 607 -582 Q 607 -359 500 -359 Q 466 -359 466 -389 Q 466 -400 475 -420 Q 484 -441 484 -454 Q 484 -474 466 -550 Q 375 -550 241 -384 Q 107 -219 107 -125 Q 107 -64 188 -64 Q 371 -64 654 -303 L 663 -303 M 540 -613 Q 540 -635 515 -653 Q 511 -653 504 -654 Q 497 -656 493 -656 Q 379 -656 303 -588 Q 270 -560 254 -540 Q 221 -503 221 -482 L 239 -482 Q 377 -552 524 -579 Q 540 -595 540 -613 Z"/>
    <path transform="matrix(1,0,0,1,7514,0)" d="M 620 -288 Q 616 -282 595 -262 Q 324 0 199 0 Q 107 0 107 -74 Q 107 -148 183 -244 Q 248 -317 313 -388 Q 346 -425 412 -497 L 412 -512 L 258 -512 L 16 -310 L 7 -310 L 233 -545 L 233 -550 Q 233 -561 224 -576 Q 215 -591 215 -601 Q 215 -642 262 -675 Q 304 -704 347 -704 Q 387 -704 387 -671 L 337 -615 L 337 -605 Q 337 -576 387 -576 Q 405 -576 440 -590 Q 475 -604 494 -604 Q 508 -604 533 -574 Q 559 -545 559 -530 Q 536 -486 406 -332 Q 297 -201 288 -138 Q 285 -116 285 -98 Q 294 -98 311 -93 Q 328 -89 337 -89 Q 378 -89 611 -288 L 620 -288 M 464 -568 L 464 -579 Q 402 -579 346 -570 L 346 -555 L 451 -555 Q 464 -555 464 -568 Z"/>
    <path transform="matrix(1,0,0,1,8166,0)" d="M 663 -288 Q 511 -143 448 -99 Q 309 0 181 0 Q 118 0 57 -36 Q -25 -84 -25 -125 Q -25 -268 -16 -301 Q 0 -331 21 -371 Q 27 -384 40 -412 Q 95 -524 233 -614 Q 372 -704 493 -704 Q 549 -704 549 -704 Q 582 -701 604 -661 Q 622 -627 622 -589 Q 622 -440 442 -337 Q 351 -284 138 -218 Q 122 -175 122 -135 Q 122 -64 208 -64 Q 324 -64 449 -138 Q 499 -168 654 -288 L 663 -288 M 559 -606 Q 559 -631 530 -656 L 491 -656 Q 433 -656 353 -605 Q 267 -550 267 -497 Q 285 -500 285 -500 Q 420 -560 550 -573 Q 559 -583 559 -606 M 518 -584 Q 518 -593 516 -606 Q 515 -620 515 -627 Q 505 -640 478 -640 Q 440 -640 417 -618 Q 274 -488 188 -285 L 188 -256 Q 263 -256 387 -368 Q 518 -488 518 -584 M 383 -98 L 383 -128 Q 348 -128 286 -89 Q 191 -33 188 -30 L 188 0 Q 267 0 383 -98 Z"/>
    <path transform="matrix(1,0,0,1,8819,0)" d="M 774 -1011 Q 682 -914 534 -737 Q 494 -693 424 -604 Q 422 -600 417 -591 L 412 -582 Q 412 -580 409 -579 Q 408 -578 408 -579 Q 408 -577 408 -574 Q 408 -569 412 -564 L 595 -564 L 620 -555 L 611 -543 L 383 -543 Q 369 -543 236 -333 Q 138 -177 138 -74 Q 138 -64 178 -64 Q 259 -64 487 -285 L 497 -285 Q 235 0 64 0 Q -21 0 -21 -78 Q -21 -133 93 -350 Q 95 -356 102 -367 Q 102 -385 95 -391 L 98 -392 L 94 -391 Q 92 -392 89 -392 L 217 -521 L 217 -540 L 89 -540 Q 82 -517 63 -512 Q 80 -512 98 -512 Q 171 -512 252 -524 Q 267 -537 448 -766 Q 508 -841 586 -922 Q 685 -1024 758 -1024 Q 774 -1024 774 -1011 M 95 -391 Q 81 -383 56 -357 L 83 -387 Q 87 -390 94 -391 L 95 -391 M 56 -357 L 7 -301 Q 22 -319 56 -357 M 7 -301 L 4 -298 Q 0 -295 -7 -292 Q -3 -296 -3 -301 L 7 -301 Z"/>
    <path transform="matrix(1,0,0,1,9997,0)" d="M 2662 -1457 Q 2662 -1201 2236 -942 Q 2199 -919 2129 -883 L 1573 -681 Q 1431 -629 1186 -598 Q 1147 -573 1147 -478 Q 1147 -221 1294 -221 Q 1461 -221 1600 -319 Q 1645 -350 1796 -500 Q 1895 -598 1966 -598 Q 1987 -598 1987 -586 Q 1987 -582 1986 -572 Q 1985 -563 1985 -559 L 1996 -559 L 2039 -582 L 2046 -582 L 1917 -451 Q 1917 -460 1908 -460 Q 1904 -460 1745 -337 Q 1731 -310 1720 -288 L 1720 -279 L 1883 -426 L 1892 -426 L 1733 -236 Q 1707 -208 1653 -141 Q 1645 -129 1568 42 Q 1571 40 1573 40 Q 1673 -87 1917 -331 Q 1925 -340 1942 -353 L 1624 23 Q 1574 79 1466 212 Q 1466 212 1237 520 L 779 1134 Q 736 1193 690 1193 Q 638 1193 638 1132 Q 638 1007 892 613 Q 878 613 878 613 Q 849 616 737 634 Q 651 647 595 647 Q 371 647 210 550 Q 18 432 18 224 Q 18 8 210 -141 Q 388 -279 611 -279 Q 772 -279 893 -199 Q 1034 -108 1034 46 Q 1034 210 892 314 Q 764 408 595 408 Q 521 408 430 389 Q 303 365 303 322 Q 487 378 589 378 Q 747 378 866 294 Q 1000 201 1000 49 Q 1000 -82 889 -148 Q 798 -206 659 -206 Q 436 -206 268 -83 Q 83 52 83 267 Q 83 443 254 540 Q 395 620 586 620 Q 779 620 880 573 Q 932 550 1027 421 Q 1134 270 1358 -21 Q 1412 -89 1525 -215 L 1525 -221 Q 1383 -147 1249 -147 Q 926 -147 926 -435 Q 926 -461 934 -511 Q 942 -561 942 -586 Q 658 -586 543 -720 Q 535 -729 525 -745 L 432 -923 Q 387 -1012 387 -1116 Q 387 -1376 577 -1547 Q 761 -1711 1025 -1711 Q 1052 -1711 1107 -1706 Q 1163 -1702 1190 -1702 Q 1223 -1702 1268 -1728 Q 1331 -1762 1344 -1767 Q 1557 -1843 1754 -1843 Q 1867 -1843 1960 -1828 Q 2064 -1810 2168 -1719 Q 2198 -1692 2202 -1686 Q 2232 -1643 2242 -1643 Q 2267 -1643 2317 -1648 Q 2367 -1653 2392 -1653 Q 2662 -1653 2662 -1457 M 2496 -1408 L 2496 -1508 Q 2496 -1530 2464 -1555 Q 2433 -1580 2409 -1580 L 2261 -1580 Q 2261 -1556 2256 -1510 Q 2252 -1464 2252 -1442 L 2252 -1432 L 2414 -1432 Q 2429 -1432 2455 -1420 Q 2482 -1408 2496 -1408 M 2506 -1288 L 2506 -1294 Q 2442 -1218 2414 -1172 Q 2446 -1197 2495 -1257 L 2500 -1266 Q 2506 -1276 2506 -1288 M 2231 -1539 L 2229 -1573 Q 2124 -1573 1964 -1498 Q 1822 -1430 1727 -1349 Q 1727 -1313 1770 -1270 Q 2015 -1380 2211 -1423 Q 2232 -1443 2231 -1539 M 2202 -1638 L 2202 -1643 Q 2193 -1662 2186 -1668 Q 2048 -1819 1758 -1819 Q 1417 -1819 1254 -1686 Q 1485 -1598 1653 -1432 L 1672 -1432 Q 1914 -1568 2202 -1638 M 2211 -1399 Q 2157 -1399 2107 -1380 Q 1966 -1328 1828 -1245 Q 1817 -1241 1800 -1227 L 1800 -1211 Q 1823 -1164 1874 -1080 Q 1888 -1081 1972 -1129 Q 2166 -1240 2211 -1399 M 2490 -1380 Q 2490 -1395 2464 -1406 Q 2439 -1417 2423 -1417 L 2276 -1417 Q 2250 -1417 2206 -1332 Q 2150 -1228 2143 -1220 Q 1957 -1012 1668 -1012 Q 1659 -1012 1637 -1014 Q 1616 -1016 1604 -1016 L 1589 -1025 L 1598 -1030 Q 1748 -1013 1834 -1064 Q 1804 -1126 1761 -1197 L 1752 -1197 Q 1727 -1180 1677 -1147 Q 1664 -1138 1451 -969 Q 1380 -914 1245 -794 Q 1245 -754 1491 -754 Q 1710 -754 2030 -932 Q 2179 -1014 2306 -1121 Q 2490 -1275 2490 -1380 M 1727 -1245 Q 1727 -1261 1712 -1285 Q 1697 -1310 1684 -1310 L 1677 -1310 Q 1542 -1219 1401 -1048 Q 1392 -1038 1392 -1030 Q 1577 -1166 1727 -1245 M 1613 -1399 L 1613 -1408 Q 1392 -1647 1211 -1647 Q 1166 -1647 1070 -1545 Q 975 -1444 975 -1396 L 975 -1392 Q 1154 -1442 1220 -1442 L 1236 -1442 Q 1159 -1422 1082 -1403 Q 971 -1370 948 -1338 Q 926 -1306 926 -1175 Q 926 -987 1064 -869 Q 1076 -869 1211 -1046 Q 1280 -1136 1401 -1235 Q 1508 -1317 1613 -1399 M 1969 -577 Q 1936 -577 1914 -559 Q 1849 -507 1776 -412 Q 1819 -418 1894 -478 Q 1969 -539 1969 -577 M 1824 -426 L 1761 -387 L 1752 -369 Q 1781 -369 1824 -426 M 1138 -1663 Q 1086 -1672 1012 -1672 Q 789 -1672 621 -1537 Q 441 -1392 441 -1175 Q 441 -1064 484 -991 Q 505 -1013 527 -1063 Q 555 -1120 568 -1138 Q 664 -1275 887 -1358 Q 965 -1511 1132 -1653 Q 1136 -1656 1138 -1663 M 1491 -731 Q 1432 -731 1319 -749 Q 1244 -761 1245 -761 L 1229 -761 Q 1220 -738 1211 -702 Q 1365 -702 1491 -731 M 1048 -828 L 1048 -844 Q 1037 -852 1016 -869 Q 927 -957 897 -1009 Q 858 -1081 858 -1186 Q 858 -1207 863 -1247 Q 869 -1287 869 -1306 L 869 -1319 Q 754 -1270 649 -1168 Q 525 -1047 525 -944 L 525 -926 Q 724 -711 964 -711 L 978 -711 Q 981 -711 1048 -828 M 869 -600 Q 867 -604 861 -604 L 858 -604 Q 852 -604 852 -600 Q 852 -593 861 -593 L 863 -593 Q 867 -591 869 -598 L 869 -600 M 1448 -8 L 1448 -10 Q 1447 -18 1443 -18 L 1440 -18 Q 1436 -18 1435 -10 L 1435 -8 Q 1436 0 1440 0 L 1443 0 Q 1447 0 1448 -8 M 844 -607 Q 693 -638 525 -785 Q 525 -718 638 -658 Q 740 -604 815 -604 Q 819 -604 828 -606 Q 837 -608 844 -607 M 1202 -171 L 1202 -173 Q 1201 -181 1197 -181 L 1195 -181 Q 1190 -181 1190 -173 L 1190 -171 Q 1192 -165 1195 -165 L 1197 -165 Q 1202 -167 1202 -171 M 1181 -172 Q 1180 -177 1176 -178 L 1175 -178 Q 1172 -176 1172 -173 L 1172 -171 Q 1172 -167 1173 -167 L 1175 -167 Q 1177 -168 1181 -172 M 1138 -197 Q 1086 -233 1025 -319 Q 1025 -275 1052 -236 Q 1080 -197 1123 -197 L 1138 -197 M 1426 16 Q 1410 25 1271 208 Q 1132 392 1132 398 Q 1263 283 1417 31 Q 1419 26 1426 16 M 1285 392 Q 1218 452 1119 509 Q 1086 524 1034 555 Q 991 593 869 796 Q 762 975 720 1061 Q 697 1113 697 1143 Q 697 1168 708 1168 L 715 1168 Q 727 1162 745 1143 L 1285 392 M 1408 -1457 Q 1401 -1451 1382 -1451 L 1369 -1451 Q 1349 -1451 1344 -1457 Q 1345 -1460 1349 -1460 L 1399 -1460 Q 1405 -1460 1408 -1457 M 1296 -1451 Q 1296 -1445 1279 -1444 L 1275 -1444 Q 1267 -1444 1261 -1448 L 1261 -1449 Q 1261 -1453 1275 -1453 L 1281 -1453 Q 1288 -1453 1296 -1451 Z"/>
    <path transform="matrix(1,0,0,1,11994,0)" d="M 917 -300 Q 917 -293 871 -251 Q 825 -209 807 -198 Q 807 -195 807 -194 Q 807 -190 794 -190 Q 717 -126 615 -72 Q 589 -60 540 -34 Q 530 -27 530 -16 Q 530 0 564 0 Q 577 0 601 0 Q 625 0 638 0 Q 586 0 552 0 Q 530 0 466 -32 Q 402 -64 402 -80 Q 402 -91 403 -112 Q 405 -134 405 -145 Q 392 -144 319 -98 Q 313 -107 294 -107 Q 202 -52 98 -25 L 98 -18 Q 98 0 132 0 Q 144 0 164 0 Q 185 0 197 0 Q 161 0 129 0 Q -36 0 -36 -176 Q -36 -371 136 -537 Q 309 -704 501 -704 L 550 -704 Q 588 -704 626 -550 Q 632 -525 657 -525 Q 727 -677 736 -685 Q 754 -704 869 -704 L 819 -596 L 819 -570 L 858 -570 L 858 -640 Q 770 -508 680 -376 Q 550 -173 550 -104 Q 550 -64 577 -64 Q 640 -64 752 -162 Q 913 -300 917 -303 L 917 -300 M 602 -577 Q 602 -656 559 -656 L 510 -656 Q 416 -656 362 -607 Q 322 -570 270 -516 L 270 -500 L 288 -500 Q 455 -577 602 -577 M 598 -530 L 598 -541 L 589 -550 L 559 -550 Q 477 -550 353 -442 Q 83 -207 83 -104 Q 83 -74 97 -68 Q 105 -68 117 -66 Q 129 -64 135 -64 Q 269 -64 433 -230 Q 598 -396 598 -530 Z"/>
    <path transform="matrix(1,0,0,1,12902,0)" d="M 620 -288 Q 616 -282 595 -262 Q 324 0 199 0 Q 107 0 107 -74 Q 107 -148 183 -244 Q 248 -317 313 -388 Q 346 -425 412 -497 L 412 -512 L 258 -512 L 16 -310 L 7 -310 L 233 -545 L 233 -550 Q 233 -561 224 -576 Q 215 -591 215 -601 Q 215 -642 262 -675 Q 304 -704 347 -704 Q 387 -704 387 -671 L 337 -615 L 337 -605 Q 337 -576 387 -576 Q 405 -576 440 -590 Q 475 -604 494 -604 Q 508 -604 533 -574 Q 559 -545 559 -530 Q 536 -486 406 -332 Q 297 -201 288 -138 Q 285 -116 285 -98 Q 294 -98 311 -93 Q 328 -89 337 -89 Q 378 -89 611 -288 L 620 -288 M 464 -568 L 464 -579 Q 402 -579 346 -570 L 346 -555 L 451 -555 Q 464 -555 464 -568 Z"/>
    <path transform="matrix(1,0,0,1,13555,0)" d="M 1392 -1316 L 690 -378 Q 665 -332 614 -240 Q 550 -127 550 -116 Q 550 -83 583 -83 Q 654 -83 944 -328 L 951 -328 Q 886 -253 822 -177 Q 735 -86 665 -86 L 663 -86 Q 631 -75 569 -54 Q 544 -51 493 -43 Q 475 -40 475 -30 Q 475 -7 518 -8 Q 500 0 484 0 Q 402 0 402 -107 Q 402 -120 409 -142 Q 417 -164 417 -175 L 405 -175 Q 288 -50 236 -50 Q 212 -50 164 -25 Q 117 0 86 0 Q 79 0 63 -1 Q 48 -2 40 0 Q 40 17 97 17 Q 114 17 135 0 Q 95 0 61 0 Q -46 0 -46 -153 Q -46 -356 160 -533 Q 358 -704 563 -704 Q 665 -704 665 -611 Q 665 -594 662 -562 Q 659 -530 659 -513 Q 675 -515 675 -507 Q 680 -513 690 -537 L 1387 -1492 L 1392 -1472 L 1392 -1316 M 543 3 Q 543 0 540 0 L 540 0 Q 538 0 534 3 Q 534 8 537 9 Q 543 8 543 5 L 543 3 M 175 -4 Q 175 -1 172 0 Q 168 -1 165 -4 L 169 -7 Q 174 -6 175 -4 M 645 -543 Q 645 -609 641 -621 Q 631 -656 580 -656 Q 527 -656 449 -622 Q 359 -582 359 -540 Q 389 -540 449 -558 Q 509 -576 540 -576 Q 598 -576 607 -550 Q 574 -640 552 -640 Q 462 -640 274 -428 Q 86 -216 86 -111 Q 86 -82 102 -68 Q 198 -68 264 -104 Q 350 -154 466 -267 Q 591 -391 616 -469 Q 615 -471 611 -492 Q 611 -510 611 -543 L 645 -543 Z"/>
    <path transform="matrix(1,0,0,1,14528,0)" d="M 663 -288 Q 511 -143 448 -99 Q 309 0 181 0 Q 118 0 57 -36 Q -25 -84 -25 -125 Q -25 -268 -16 -301 Q 0 -331 21 -371 Q 27 -384 40 -412 Q 95 -524 233 -614 Q 372 -704 493 -704 Q 549 -704 549 -704 Q 582 -701 604 -661 Q 622 -627 622 -589 Q 622 -440 442 -337 Q 351 -284 138 -218 Q 122 -175 122 -135 Q 122 -64 208 -64 Q 324 -64 449 -138 Q 499 -168 654 -288 L 663 -288 M 559 -606 Q 559 -631 530 -656 L 491 -656 Q 433 -656 353 -605 Q 267 -550 267 -497 Q 285 -500 285 -500 Q 420 -560 550 -573 Q 559 -583 559 -606 M 518 -584 Q 518 -593 516 -606 Q 515 -620 515 -627 Q 505 -640 478 -640 Q 440 -640 417 -618 Q 274 -488 188 -285 L 188 -256 Q 263 -256 387 -368 Q 518 -488 518 -584 M 383 -98 L 383 -128 Q 348 -128 286 -89 Q 191 -33 188 -30 L 188 0 Q 267 0 383 -98 Z"/>
    <path transform="matrix(1,0,0,1,15181,0)" d="M 1147 -326 Q 1109 -287 1030 -212 Q 1001 -189 944 -141 Q 785 0 702 0 Q 664 0 621 -25 Q 573 -53 573 -89 Q 573 -160 681 -296 Q 762 -388 844 -482 L 844 -519 Q 836 -519 821 -521 Q 806 -524 798 -524 Q 767 -524 672 -467 Q 547 -392 404 -255 Q 359 -214 165 -9 Q 110 0 49 0 L 27 0 Q 39 -10 39 -22 Q 39 -26 36 -32 Q 34 -39 34 -43 Q 34 -106 297 -433 Q 319 -460 319 -509 Q 306 -512 279 -516 Q 221 -487 151 -427 Q 93 -376 34 -325 Q 21 -315 -2 -294 L -9 -294 Q 276 -579 303 -579 L 297 -570 L 301 -555 Q 314 -555 340 -559 Q 367 -564 380 -564 Q 392 -564 415 -559 Q 439 -555 451 -555 Q 469 -555 469 -589 Q 469 -622 423 -622 Q 405 -622 372 -608 Q 340 -595 322 -595 Q 389 -704 439 -704 Q 518 -704 518 -594 Q 518 -517 402 -323 L 402 -309 Q 407 -306 420 -301 Q 467 -319 570 -416 Q 684 -520 730 -546 Q 729 -512 745 -512 Q 775 -512 831 -536 Q 887 -560 917 -560 Q 926 -571 926 -593 Q 926 -622 887 -622 Q 874 -622 850 -613 Q 826 -604 813 -604 Q 856 -704 905 -704 Q 975 -704 975 -566 Q 975 -488 853 -319 Q 731 -150 731 -102 Q 731 -64 761 -64 Q 830 -64 961 -171 Q 1055 -252 1147 -335 L 1147 -326 M 794 -52 L 782 -52 Q 776 -52 720 -34 L 720 -12 Q 794 -12 794 -52 Z"/>
    <path transform="matrix(1,0,0,1,16998,0)" d="M 3524 -1779 Q 3524 -1729 3420 -1696 Q 3375 -1681 3301 -1627 Q 3220 -1567 3211 -1530 Q 3179 -1500 3123 -1439 L 2657 -826 Q 2724 -844 2809 -905 Q 2933 -995 2951 -1007 L 2951 -996 Q 2951 -943 2818 -878 Q 2754 -852 2632 -794 Q 2548 -697 2426 -555 Q 1949 -25 1199 -25 Q 1003 -25 846 -74 Q 836 -77 787 -102 Q 742 -122 733 -122 Q 711 -122 659 -130 Q 635 -133 586 -138 Q 434 -154 316 -225 Q 169 -314 169 -448 Q 169 -582 298 -664 Q 401 -731 552 -745 Q 579 -746 635 -751 Q 665 -755 740 -815 Q 836 -892 846 -899 Q 1134 -1073 1552 -1080 Q 1571 -1159 1607 -1186 L 1607 -1181 Q 1607 -1171 1594 -1140 Q 1582 -1110 1582 -1080 Q 1780 -1051 1871 -987 Q 1906 -964 1935 -964 Q 1964 -977 2073 -998 Q 2175 -1017 2239 -1055 Q 2358 -1435 3012 -1577 Q 3067 -1585 3171 -1610 Q 3206 -1629 3273 -1666 Q 3377 -1722 3524 -1779 M 3282 -1643 L 3282 -1645 Q 3280 -1653 3276 -1653 L 3275 -1653 Q 3270 -1653 3270 -1645 L 3270 -1643 Q 3270 -1634 3275 -1634 L 3276 -1634 Q 3282 -1634 3282 -1643 M 3261 -1634 Q 3218 -1620 3218 -1607 L 3220 -1604 Q 3232 -1607 3261 -1634 M 3080 -1555 Q 3064 -1555 3064 -1555 Q 2797 -1488 2649 -1409 Q 2431 -1293 2343 -1104 L 2361 -1104 Q 2396 -1120 2460 -1154 L 3080 -1555 M 3177 -1571 L 3166 -1571 Q 3145 -1571 3024 -1491 Q 2894 -1403 2632 -1227 Q 2589 -1199 2395 -1089 Q 2374 -1078 2335 -1056 Q 2319 -1046 2319 -969 Q 2319 -819 2466 -819 Q 2472 -822 2476 -826 Q 2733 -1171 2944 -1358 Q 3024 -1427 3177 -1571 M 1729 -1021 Q 1663 -1046 1610 -1046 L 1582 -1046 L 1591 -1030 Q 1722 -1021 1699 -1021 L 1729 -1021 M 2442 -776 L 2442 -785 Q 2245 -831 2229 -996 L 2214 -996 Q 2226 -996 2082 -957 Q 2038 -944 1951 -917 Q 2009 -828 2009 -733 Q 2009 -520 1724 -352 Q 1530 -237 1249 -163 L 1249 -159 Q 1249 -150 1314 -135 Q 1373 -122 1396 -122 L 1482 -122 Q 1776 -122 2028 -319 Q 2108 -383 2239 -525 Q 2370 -667 2426 -751 Q 2442 -775 2442 -776 M 1953 -758 Q 1953 -862 1877 -899 Q 1776 -905 1752 -908 Q 1685 -917 1632 -942 L 1610 -942 Q 1406 -942 1222 -784 Q 1027 -620 1027 -421 Q 1027 -346 1080 -268 Q 1136 -181 1206 -181 Q 1287 -181 1426 -236 Q 1629 -316 1641 -335 L 1629 -335 Q 1607 -335 1564 -331 Q 1521 -328 1500 -328 Q 1374 -328 1238 -402 L 1238 -408 Q 1238 -421 1249 -426 Q 1396 -359 1509 -359 Q 1693 -359 1819 -465 Q 1953 -577 1953 -758 M 1561 -1030 L 1561 -1034 Q 1561 -1048 1552 -1055 L 1466 -1055 Q 1284 -1055 1113 -1000 Q 921 -939 806 -826 L 742 -761 L 742 -751 Q 932 -727 1003 -647 Q 1022 -659 1043 -695 Q 1068 -741 1077 -751 Q 1285 -987 1557 -1021 L 1561 -1030 M 1662 -342 L 1662 -345 Q 1662 -353 1656 -353 L 1655 -353 Q 1651 -353 1650 -345 L 1650 -342 Q 1651 -335 1655 -335 L 1656 -335 Q 1662 -335 1662 -342 M 1134 -172 Q 1130 -173 1125 -181 Q 1110 -194 1077 -221 Q 978 -301 978 -469 Q 978 -494 986 -542 Q 994 -591 994 -616 Q 994 -662 888 -699 Q 800 -731 740 -731 Q 682 -731 647 -617 Q 620 -530 620 -454 Q 620 -245 792 -147 L 964 -147 Q 977 -147 1116 -163 L 1134 -172 M 1568 -89 L 1419 -89 Q 1382 -89 1289 -118 Q 1197 -147 1175 -147 Q 1117 -147 1002 -134 Q 888 -122 831 -122 L 840 -113 Q 1050 -49 1116 -49 L 1235 -49 Q 1396 -49 1568 -89 M 699 -156 Q 552 -285 552 -464 Q 552 -527 582 -600 Q 613 -663 645 -727 Q 638 -727 625 -729 Q 613 -731 607 -731 Q 469 -731 357 -664 Q 224 -586 224 -457 Q 224 -314 391 -227 Q 530 -154 688 -154 Q 691 -155 699 -156 Z"/>
    <path transform="matrix(1,0,0,1,19443,0)" d="M 1147 -326 Q 1109 -287 1030 -212 Q 1001 -189 944 -141 Q 785 0 702 0 Q 664 0 621 -25 Q 573 -53 573 -89 Q 573 -160 681 -296 Q 762 -388 844 -482 L 844 -519 Q 836 -519 821 -521 Q 806 -524 798 -524 Q 767 -524 672 -467 Q 547 -392 404 -255 Q 359 -214 165 -9 Q 110 0 49 0 L 27 0 Q 39 -10 39 -22 Q 39 -26 36 -32 Q 34 -39 34 -43 Q 34 -106 297 -433 Q 319 -460 319 -509 Q 306 -512 279 -516 Q 221 -487 151 -427 Q 93 -376 34 -325 Q 21 -315 -2 -294 L -9 -294 Q 276 -579 303 -579 L 297 -570 L 301 -555 Q 314 -555 340 -559 Q 367 -564 380 -564 Q 392 -564 415 -559 Q 439 -555 451 -555 Q 469 -555 469 -589 Q 469 -622 423 -622 Q 405 -622 372 -608 Q 340 -595 322 -595 Q 389 -704 439 -704 Q 518 -704 518 -594 Q 518 -517 402 -323 L 402 -309 Q 407 -306 420 -301 Q 467 -319 570 -416 Q 684 -520 730 -546 Q 729 -512 745 -512 Q 775 -512 831 -536 Q 887 -560 917 -560 Q 926 -571 926 -593 Q 926 -622 887 -622 Q 874 -622 850 -613 Q 826 -604 813 -604 Q 856 -704 905 -704 Q 975 -704 975 -566 Q 975 -488 853 -319 Q 731 -150 731 -102 Q 731 -64 761 -64 Q 830 -64 961 -171 Q 1055 -252 1147 -335 L 1147 -326 M 794 -52 L 782 -52 Q 776 -52 720 -34 L 720 -12 Q 794 -12 794 -52 Z"/>
    <path transform="matrix(1,0,0,1,20608,0)" d="M 1147 -326 Q 1109 -287 1030 -212 Q 1001 -189 944 -141 Q 785 0 702 0 Q 664 0 621 -25 Q 573 -53 573 -89 Q 573 -160 681 -296 Q 762 -388 844 -482 L 844 -519 Q 836 -519 821 -521 Q 806 -524 798 -524 Q 767 -524 672 -467 Q 547 -392 404 -255 Q 359 -214 165 -9 Q 110 0 49 0 L 27 0 Q 39 -10 39 -22 Q 39 -26 36 -32 Q 34 -39 34 -43 Q 34 -106 297 -433 Q 319 -460 319 -509 Q 306 -512 279 -516 Q 221 -487 151 -427 Q 93 -376 34 -325 Q 21 -315 -2 -294 L -9 -294 Q 276 -579 303 -579 L 297 -570 L 301 -555 Q 314 -555 340 -559 Q 367 -564 380 -564 Q 392 -564 415 -559 Q 439 -555 451 -555 Q 469 -555 469 -589 Q 469 -622 423 -622 Q 405 -622 372 -608 Q 340 -595 322 -595 Q 389 -704 439 -704 Q 518 -704 518 -594 Q 518 -517 402 -323 L 402 -309 Q 407 -306 420 -301 Q 467 -319 570 -416 Q 684 -520 730 -546 Q 729 -512 745 -512 Q 775 -512 831 -536 Q 887 -560 917 -560 Q 926 -571 926 -593 Q 926 -622 887 -622 Q 874 -622 850 -613 Q 826 -604 813 -604 Q 856 -704 905 -704 Q 975 -704 975 -566 Q 975 -488 853 -319 Q 731 -150 731 -102 Q 731 -64 761 -64 Q 830 -64 961 -171 Q 1055 -252 1147 -335 L 1147 -326 M 794 -52 L 782 -52 Q 776 -52 720 -34 L 720 -12 Q 794 -12 794 -52 Z"/>
    <path transform="matrix(1,0,0,1,22426,0)" d="M 763 -288 Q 763 -267 676 -230 Q 608 -200 586 -196 Q 565 -192 484 -192 Q 489 -192 375 -96 Q 261 0 156 0 Q 101 0 50 -33 Q -16 -76 -16 -116 Q -16 -145 -11 -202 Q -7 -259 -7 -287 Q -7 -303 -21 -301 Q 19 -364 101 -487 Q 163 -580 276 -642 Q 390 -704 500 -704 Q 565 -704 600 -662 Q 613 -645 656 -560 Q 690 -491 690 -476 Q 690 -433 672 -401 Q 608 -294 525 -207 L 525 -193 Q 584 -193 602 -200 Q 673 -226 763 -288 M 607 -490 Q 607 -578 600 -603 Q 582 -665 516 -665 Q 399 -665 288 -531 L 288 -512 Q 327 -512 401 -544 Q 475 -576 514 -576 Q 521 -576 525 -575 L 534 -570 Q 404 -503 267 -373 Q 104 -216 104 -108 Q 104 -104 107 -94 Q 108 -84 107 -79 L 127 -64 Q 283 -64 451 -245 Q 466 -304 507 -353 Q 550 -398 593 -442 Q 607 -460 607 -490 M 254 -18 L 254 0 L 230 0 L 230 -18 L 254 -18 Z"/>
    <path transform="matrix(1,0,0,1,23206,0)" d="M 1736 -1709 Q 1736 -1634 1595 -1489 Q 1582 -1475 1380 -1298 Q 1309 -1233 1163 -1109 Q 1074 -1038 896 -900 Q 802 -826 687 -745 Q 691 -763 672 -763 Q 649 -763 594 -716 Q 540 -669 540 -647 Q 540 -632 550 -632 Q 513 -599 451 -534 Q 416 -488 277 -296 Q 126 -85 126 -77 L 126 -59 Q 191 -59 298 -114 Q 395 -163 451 -215 Q 511 -262 623 -362 L 632 -362 Q 632 -339 597 -305 Q 584 -294 541 -265 Q 520 -249 480 -218 Q 378 -142 295 -101 Q 248 -82 154 -44 Q 72 -6 43 59 Q -1 182 -97 421 Q -274 817 -491 1055 Q -637 1216 -717 1216 Q -785 1216 -785 1143 Q -785 1076 -717 939 Q -538 577 -55 -63 Q -51 -68 -35 -121 Q -26 -151 50 -199 L 215 -412 L 215 -426 L 181 -426 Q 223 -458 264 -490 Q 320 -533 328 -561 L 966 -1290 Q 966 -1290 1104 -1421 Q 1238 -1550 1275 -1582 Q 1379 -1675 1460 -1727 Q 1564 -1792 1647 -1792 Q 1736 -1792 1736 -1709 M 156 -402 L 131 -378 L 122 -378 L 147 -402 L 156 -402 M 1668 -1751 L 1668 -1781 Q 1650 -1806 1616 -1806 Q 1536 -1806 1358 -1629 L 1358 -1610 Q 1443 -1610 1462 -1581 Q 1475 -1563 1475 -1472 L 1487 -1472 Q 1668 -1640 1668 -1751 M 1448 -1549 Q 1448 -1577 1423 -1586 Q 1419 -1586 1412 -1587 Q 1405 -1589 1401 -1589 Q 1316 -1589 1301 -1571 L 638 -770 L 656 -770 Q 667 -770 824 -886 Q 966 -990 1007 -1021 Q 1020 -1034 1046 -1059 Q 1186 -1188 1317 -1302 Q 1448 -1416 1448 -1549 M 0 137 L 0 116 Q -14 116 -31 137 Q -91 211 -211 357 Q -457 669 -629 961 Q -693 1071 -693 1123 Q -693 1152 -663 1152 Q -620 1152 -586 1119 L -487 1024 Q -449 986 -383 887 Q -326 807 -221 638 Q -145 496 -18 182 Q -9 160 0 137 Z"/>
    <path transform="matrix(1,0,0,1,24448,0)" d="M 1681 -1344 L 1675 -1344 Q 1671 -1344 1656 -1358 L 1666 -1358 L 1681 -1344 M 1650 -1367 L 1641 -1367 L 1632 -1374 L 1634 -1374 L 1638 -1376 Q 1640 -1375 1650 -1367 M 3073 -1233 Q 3073 -1051 2930 -936 Q 2796 -828 2610 -828 Q 2513 -828 2442 -874 Q 2358 -927 2358 -1018 Q 2358 -1059 2387 -1123 Q 2418 -1197 2451 -1197 L 2466 -1197 Q 2383 -1098 2383 -1027 Q 2383 -878 2604 -878 Q 2776 -878 2908 -969 Q 3055 -1070 3055 -1236 Q 3055 -1379 2934 -1453 Q 2832 -1515 2680 -1515 Q 2390 -1515 2073 -1310 Q 2058 -1300 2058 -1276 Q 2058 -1284 2069 -1222 Q 2082 -1150 2082 -1089 Q 2082 -982 1985 -656 Q 1970 -608 1951 -568 Q 1800 -247 1477 -129 Q 1242 -43 819 -43 Q 783 -43 710 -47 Q 638 -52 602 -52 Q 544 -52 410 -34 Q 296 -18 154 -18 Q 95 -18 76 -31 Q 52 -48 55 -102 Q 47 -115 31 -141 Q 31 -208 188 -208 Q 349 -208 482 -156 L 457 -156 Q 468 -156 372 -172 Q 267 -190 193 -190 L 104 -190 Q 89 -190 67 -174 Q 46 -158 46 -141 Q 46 -116 70 -116 Q 102 -116 169 -133 Q 236 -150 335 -150 Q 357 -150 570 -107 Q 699 -168 828 -229 Q 974 -305 1052 -402 L 1543 -1007 Q 1582 -1055 1715 -1186 Q 1856 -1328 1856 -1324 L 1856 -1331 L 1853 -1335 Q 1711 -1475 1587 -1524 Q 1550 -1539 1543 -1539 Q 1543 -1539 1419 -1539 Q 1392 -1539 1362 -1530 L 1362 -1528 Q 1362 -1482 1475 -1451 Q 1604 -1414 1625 -1383 L 1616 -1383 Q 1460 -1448 1405 -1448 Q 1405 -1429 1409 -1391 Q 1414 -1353 1414 -1335 Q 1414 -1193 1362 -1089 L 1362 -1082 Q 1362 -1070 1366 -1045 Q 1371 -1021 1371 -1009 Q 1371 -882 1224 -770 Q 1214 -762 1156 -729 Q 1358 -853 1358 -1048 L 1347 -1048 Q 1257 -880 1027 -665 Q 1091 -690 1142 -720 L 969 -616 Q 824 -530 774 -507 Q 667 -460 555 -460 Q 367 -460 253 -556 Q 129 -659 129 -844 Q 129 -1060 272 -1241 Q 398 -1400 611 -1505 Q 895 -1647 1061 -1647 Q 1181 -1647 1405 -1613 Q 1444 -1599 1528 -1580 Q 1565 -1574 1711 -1548 Q 1853 -1524 1935 -1448 Q 1968 -1417 1985 -1417 Q 2022 -1439 2098 -1482 Q 2158 -1511 2279 -1571 L 2297 -1571 Q 2298 -1550 2288 -1546 Q 2223 -1516 2134 -1464 Q 2015 -1392 2015 -1367 Q 2015 -1352 2033 -1335 Q 2392 -1530 2675 -1530 L 2795 -1530 Q 2814 -1530 2877 -1507 Q 3073 -1434 3073 -1233 M 586 -128 L 586 -126 Q 585 -121 582 -120 Q 579 -122 579 -125 L 579 -128 Q 581 -129 582 -129 L 583 -129 Q 586 -129 586 -128 M 563 -135 Q 560 -130 552 -126 Q 548 -129 544 -135 Q 546 -138 551 -138 L 555 -138 Q 559 -138 563 -135 M 539 -145 Q 535 -135 527 -132 Q 520 -142 520 -145 Q 521 -147 526 -147 L 531 -147 Q 535 -147 539 -145 M 512 -150 Q 507 -145 500 -145 Q 494 -145 487 -150 Q 490 -154 497 -154 L 501 -154 Q 510 -154 512 -150 M 2000 -1310 L 2000 -1313 Q 2000 -1344 1976 -1344 L 1920 -1285 Q 1920 -1270 1935 -1270 L 1944 -1270 L 2000 -1310 M 1944 -1392 Q 1944 -1439 1827 -1487 Q 1722 -1530 1663 -1530 L 1641 -1530 Q 1772 -1453 1877 -1344 L 1883 -1344 Q 1896 -1344 1920 -1362 Q 1944 -1380 1944 -1392 M 2033 -1238 Q 2033 -1261 2024 -1270 Q 1960 -1233 1960 -1193 Q 2033 -1193 2033 -1238 M 1632 -1539 L 1632 -1542 Q 1630 -1542 1629 -1543 L 1628 -1543 Q 1625 -1542 1625 -1541 L 1625 -1539 Q 1627 -1535 1629 -1534 Q 1632 -1537 1632 -1539 M 1908 -1261 L 1896 -1261 Q 1888 -1261 1855 -1223 Q 1822 -1185 1822 -1177 Q 1908 -1206 1908 -1261 M 2058 -1102 Q 2058 -1186 2043 -1220 L 1976 -1177 Q 2009 -1082 2024 -883 Q 2058 -1005 2058 -1102 M 1804 -1156 L 1804 -1163 Q 1804 -1166 1802 -1166 Q 1798 -1166 1794 -1156 L 1797 -1154 L 1804 -1156 M 1396 -1571 Q 1360 -1580 1326 -1580 L 1306 -1580 Q 1319 -1561 1347 -1561 Q 1367 -1561 1396 -1571 M 1340 -1487 Q 1340 -1515 1310 -1515 Q 1285 -1515 1249 -1496 Q 1291 -1487 1296 -1487 L 1340 -1487 M 1976 -951 Q 1976 -1112 1948 -1154 L 1944 -1154 Q 1927 -1154 1903 -1138 Q 1938 -1164 1938 -1186 L 1926 -1186 L 1862 -1123 L 1865 -1123 Q 1877 -1123 1892 -1132 Q 1862 -1110 1862 -1089 Q 1862 -1067 1869 -1022 Q 1877 -977 1877 -953 Q 1877 -777 1787 -599 Q 1698 -426 1557 -310 Q 1521 -279 1485 -240 Q 1705 -349 1834 -526 Q 1976 -719 1976 -951 M 1380 -1324 Q 1380 -1444 1347 -1466 Q 1304 -1472 1281 -1472 L 1184 -1472 Q 932 -1358 840 -1245 Q 861 -1246 880 -1246 Q 949 -1246 994 -1227 Q 1001 -1227 1052 -1202 Q 1181 -1202 1207 -1198 Q 1275 -1185 1337 -1123 Q 1380 -1145 1380 -1324 M 1281 -1555 Q 1259 -1589 1181 -1589 Q 675 -1589 423 -1270 Q 603 -1389 835 -1449 Q 1054 -1498 1272 -1546 L 1281 -1555 M 1331 -1104 Q 1272 -1186 1125 -1186 L 1077 -1186 Q 1159 -1080 1159 -966 Q 1159 -883 1111 -779 Q 1331 -1000 1331 -1104 M 1862 -987 Q 1862 -1082 1837 -1082 Q 1823 -1082 1813 -1073 Q 1615 -910 1383 -577 Q 1203 -318 1018 -230 Q 914 -186 708 -92 Q 707 -74 865 -74 Q 1419 -74 1703 -481 Q 1862 -706 1862 -987 M 1120 -991 Q 1120 -1044 1094 -1102 Q 1064 -1172 1018 -1172 Q 927 -1172 702 -1016 Q 788 -1120 1003 -1186 Q 981 -1220 880 -1220 Q 840 -1220 806 -1211 Q 647 -1061 595 -932 L 620 -951 Q 527 -865 527 -706 Q 527 -573 693 -573 Q 856 -573 988 -700 Q 1120 -828 1120 -991 M 1475 -229 L 1475 -232 Q 1474 -240 1470 -240 L 1469 -240 Q 1464 -240 1462 -232 L 1462 -229 Q 1464 -224 1468 -224 L 1470 -224 Q 1475 -225 1475 -229 M 1475 -195 L 1475 -198 Q 1474 -206 1470 -206 L 1469 -206 Q 1464 -206 1462 -198 L 1462 -195 Q 1464 -190 1468 -190 L 1470 -190 Q 1475 -191 1475 -195 M 1460 -189 L 1460 -191 Q 1459 -199 1455 -199 L 1453 -199 Q 1448 -199 1448 -191 L 1448 -189 Q 1448 -181 1453 -181 L 1455 -181 Q 1460 -181 1460 -189 M 1442 -180 L 1442 -182 Q 1440 -190 1436 -190 L 1435 -190 Q 1430 -190 1430 -182 L 1430 -180 Q 1430 -175 1435 -175 L 1436 -175 Q 1442 -176 1442 -180 M 1426 -171 L 1426 -173 Q 1425 -181 1421 -181 L 1419 -181 Q 1414 -181 1414 -173 L 1414 -171 Q 1416 -165 1419 -165 L 1421 -165 Q 1426 -167 1426 -171 M 1410 -164 L 1410 -167 Q 1410 -175 1405 -175 L 1404 -175 Q 1399 -175 1399 -167 L 1399 -164 Q 1400 -156 1404 -156 L 1405 -156 Q 1410 -156 1410 -164 M 1003 -1457 L 994 -1457 Q 965 -1457 822 -1408 Q 622 -1339 443 -1179 Q 233 -990 233 -810 Q 233 -784 250 -739 Q 267 -695 267 -672 Q 237 -695 210 -763 Q 184 -827 184 -869 Q 185 -871 188 -878 Q 186 -883 188 -883 Q 249 -1137 512 -1408 Q 484 -1397 448 -1367 Q 417 -1345 358 -1296 Q 145 -1103 145 -862 Q 145 -695 243 -597 Q 342 -500 509 -500 Q 620 -500 702 -534 Q 681 -530 604 -530 Q 387 -530 310 -632 L 313 -632 Q 460 -550 611 -550 Q 430 -600 430 -776 Q 430 -1159 1003 -1457 M 1392 -155 L 1392 -159 Q 1391 -165 1387 -165 L 1386 -165 Q 1380 -165 1380 -159 L 1380 -155 Q 1382 -151 1386 -150 L 1387 -150 Q 1392 -151 1392 -155 M 1371 -150 Q 1369 -154 1365 -154 L 1362 -150 L 1367 -145 Q 1371 -147 1371 -150 M 1353 -139 L 1353 -142 Q 1352 -150 1347 -150 L 1345 -150 Q 1341 -150 1340 -142 L 1340 -139 Q 1341 -132 1345 -132 L 1347 -132 Q 1352 -132 1353 -139 M 1328 -132 L 1328 -134 Q 1327 -141 1323 -141 L 1322 -141 Q 1317 -141 1315 -134 L 1315 -132 Q 1317 -126 1320 -126 L 1323 -126 Q 1328 -126 1328 -132 M 831 -190 L 645 -116 L 659 -116 Q 785 -116 831 -190 M 163 -83 Q 163 -99 150 -111 L 135 -111 Q 116 -111 95 -102 Q 102 -83 146 -83 L 163 -83 M 178 -59 Q 141 -68 68 -86 Q 68 -59 89 -59 L 178 -59 M 684 -1007 Q 684 -994 659 -982 Q 658 -982 658 -982 Q 658 -992 684 -1007 M 306 -637 Q 306 -632 302 -632 L 300 -632 Q 294 -633 294 -637 L 294 -639 L 294 -642 Q 293 -641 292 -641 L 290 -641 Q 285 -642 285 -646 L 285 -647 L 284 -647 Q 280 -647 279 -655 L 279 -656 Q 277 -656 277 -656 L 275 -656 Q 270 -658 270 -662 L 270 -664 Q 271 -672 275 -672 L 276 -672 Q 281 -672 283 -664 Q 283 -665 284 -665 L 286 -665 Q 290 -665 292 -656 L 292 -656 Q 297 -656 297 -649 L 297 -646 Q 298 -647 300 -647 L 301 -647 Q 306 -647 306 -639 L 306 -637 Z"/>
    <path transform="matrix(1,0,0,1,26445,0)" d="M 663 -288 Q 511 -143 448 -99 Q 309 0 181 0 Q 118 0 57 -36 Q -25 -84 -25 -125 Q -25 -268 -16 -301 Q 0 -331 21 -371 Q 27 -384 40 -412 Q 95 -524 233 -614 Q 372 -704 493 -704 Q 549 -704 549 -704 Q 582 -701 604 -661 Q 622 -627 622 -589 Q 622 -440 442 -337 Q 351 -284 138 -218 Q 122 -175 122 -135 Q 122 -64 208 -64 Q 324 -64 449 -138 Q 499 -168 654 -288 L 663 -288 M 559 -606 Q 559 -631 530 -656 L 491 -656 Q 433 -656 353 -605 Q 267 -550 267 -497 Q 285 -500 285 -500 Q 420 -560 550 -573 Q 559 -583 559 -606 M 518 -584 Q 518 -593 516 -606 Q 515 -620 515 -627 Q 505 -640 478 -640 Q 440 -640 417 -618 Q 274 -488 188 -285 L 188 -256 Q 263 -256 387 -368 Q 518 -488 518 -584 M 383 -98 L 383 -128 Q 348 -128 286 -89 Q 191 -33 188 -30 L 188 0 Q 267 0 383 -98 Z"/>
    <path transform="matrix(1,0,0,1,27098,0)" d="M 1672 -1715 Q 1672 -1635 1573 -1532 L 1389 -1340 Q 1363 -1309 1297 -1244 Q 1297 -1244 1003 -1007 L 414 -529 Q 372 -495 278 -346 Q 192 -211 159 -138 Q 159 -134 157 -128 Q 156 -122 156 -120 Q 156 -113 159 -96 Q 160 -81 159 -73 L 169 -64 Q 265 -64 423 -212 L 430 -212 Q 378 -140 281 -74 Q 175 0 104 0 Q 0 0 0 -80 Q 0 -153 71 -298 Q 77 -306 86 -323 L 89 -325 Q 89 -348 70 -348 Q 109 -382 178 -456 L 921 -1365 Q 964 -1415 1175 -1577 Q 1453 -1792 1577 -1792 Q 1672 -1792 1672 -1715 M 561 -325 Q 548 -314 525 -292 L 521 -295 L 555 -328 L 558 -328 L 561 -325 M 478 -251 L 455 -227 L 448 -227 Q 457 -236 475 -254 L 478 -251 M 52 -344 Q 37 -327 12 -307 L 52 -344 M 1607 -1758 Q 1607 -1806 1546 -1806 Q 1516 -1806 1461 -1784 Q 1401 -1758 1401 -1739 L 1401 -1732 Q 1413 -1732 1435 -1729 Q 1457 -1727 1469 -1727 Q 1478 -1719 1494 -1719 Q 1550 -1664 1557 -1664 Q 1580 -1664 1595 -1703 Q 1607 -1735 1607 -1758 M 1509 -1632 Q 1509 -1668 1475 -1684 Q 1355 -1684 1337 -1665 Q 1280 -1614 1181 -1509 L 552 -743 L 552 -742 Q 573 -742 586 -751 Q 702 -835 910 -996 Q 965 -1046 1088 -1158 L 1444 -1478 Q 1509 -1537 1509 -1632 Z"/>
    <path transform="matrix(1,0,0,1,28339,0)" d="M 4413 -1408 Q 4413 -1224 4175 -1139 Q 4008 -1080 3784 -1080 Q 3650 -1080 3603 -1086 Q 3526 -1096 3426 -1111 Q 3347 -1123 3349 -1123 L 3331 -1123 L 3313 -1107 Q 3300 -1098 3282 -1080 L 2890 -564 Q 2879 -552 2795 -414 Q 2662 -202 2662 -135 Q 2662 -89 2745 -89 Q 2810 -89 2874 -141 Q 2950 -198 3060 -294 Q 3119 -359 3119 -451 L 3119 -491 Q 3082 -534 3042 -534 Q 2947 -534 2868 -440 Q 2792 -353 2786 -254 L 2772 -254 Q 2772 -367 2849 -456 Q 2929 -550 3039 -550 Q 3153 -550 3153 -435 Q 3153 -234 2849 -83 Q 2714 -16 2668 -16 Q 2670 -16 2580 -34 Q 2495 -51 2490 -53 Q 2447 -72 2447 -129 Q 2447 -217 2580 -405 Q 2644 -497 2775 -681 Q 2881 -823 3227 -1138 L 3227 -1147 Q 3219 -1155 3201 -1155 Q 3196 -1155 3193 -1154 Q 3183 -1151 2089 -92 Q 2013 -18 1957 9 Q 1929 9 1897 -38 Q 1867 -81 1867 -111 Q 1867 -188 1985 -344 Q 2302 -768 2546 -1025 L 2000 -500 Q 1464 16 856 16 Q 574 16 391 -83 Q 159 -208 159 -466 Q 159 -693 358 -878 Q 535 -1044 774 -1098 Q 895 -1125 1077 -1154 Q 1301 -1399 1754 -1399 Q 1781 -1399 1834 -1394 Q 1887 -1389 1914 -1389 Q 1986 -1389 1966 -1392 L 2680 -1281 L 3153 -1571 Q 3183 -1589 3214 -1589 Q 3261 -1589 3261 -1555 Q 3261 -1500 2987 -1227 L 2987 -1220 Q 3114 -1195 3123 -1197 L 3125 -1193 L 3601 -1530 Q 3622 -1544 3659 -1546 Q 3754 -1589 3849 -1633 Q 3963 -1677 4051 -1677 Q 4146 -1677 4183 -1638 Q 4193 -1624 4214 -1595 Q 4317 -1565 4353 -1538 Q 4413 -1494 4413 -1408 M 4183 -1595 Q 4183 -1643 4036 -1643 Q 3892 -1643 3650 -1515 Q 3601 -1488 3601 -1462 Q 3609 -1462 3622 -1467 Q 3636 -1472 3644 -1472 L 3650 -1469 L 3650 -1466 L 3619 -1423 Q 3929 -1586 4183 -1595 M 4389 -1410 Q 4389 -1491 4317 -1534 Q 4257 -1571 4171 -1571 Q 3963 -1571 3740 -1436 Q 3637 -1374 3374 -1163 L 3374 -1154 Q 3404 -1150 3465 -1143 Q 3731 -1113 3782 -1113 Q 3998 -1113 4155 -1166 Q 4389 -1241 4389 -1410 M 3612 -1453 Q 3582 -1453 3512 -1367 L 3521 -1367 Q 3567 -1399 3612 -1453 M 3512 -1417 Q 3408 -1341 3218 -1177 L 3266 -1177 L 3512 -1417 M 3227 -1555 L 3227 -1564 L 3218 -1571 Q 3159 -1571 3085 -1472 L 3119 -1472 L 3119 -1466 L 2890 -1245 Q 3017 -1327 3227 -1555 M 3085 -1442 L 3085 -1460 Q 3045 -1460 2947 -1335 L 3085 -1442 M 3175 -1186 L 3175 -1188 Q 3174 -1195 3168 -1195 L 3167 -1195 Q 3163 -1195 3162 -1188 L 3162 -1186 Q 3163 -1177 3167 -1177 L 3168 -1177 Q 3174 -1177 3175 -1186 M 2840 -1335 Q 2810 -1314 2752 -1270 L 2766 -1270 Q 2774 -1270 2804 -1297 Q 2834 -1324 2840 -1335 M 2761 -1314 L 2761 -1315 L 2761 -1319 L 2756 -1319 L 2754 -1319 L 2752 -1319 L 2750 -1315 L 2750 -1314 L 2752 -1310 L 2754 -1309 L 2757 -1309 L 2761 -1310 L 2761 -1314 M 2858 -1211 Q 2857 -1214 2856 -1214 Q 2838 -1214 2838 -1198 Q 2839 -1197 2842 -1195 Q 2845 -1194 2849 -1194 Q 2858 -1194 2858 -1211 M 2736 -1301 Q 2714 -1294 2702 -1276 Q 2720 -1285 2736 -1301 M 2668 -1251 L 2662 -1251 Q 2513 -1146 2408 -1039 Q 2444 -1067 2552 -1154 Q 2660 -1241 2668 -1251 M 3144 -1163 Q 3072 -1107 2938 -991 L 2358 -402 L 3144 -1163 M 2392 -1030 Q 2349 -1011 2349 -991 L 2349 -991 Q 2377 -1000 2392 -1030 M 3094 -1172 Q 3037 -1197 2972 -1197 L 2956 -1197 Q 2479 -751 2147 -313 Q 2110 -264 2093 -234 Q 2061 -182 2061 -147 L 2082 -147 L 2913 -1016 Q 2977 -1069 3094 -1172 M 2736 -1245 Q 2716 -1245 2693 -1227 Q 2603 -1159 2433 -1016 L 1641 -270 Q 1800 -372 1890 -448 Q 1917 -468 1966 -509 L 2736 -1245 M 2555 -59 Q 2555 -73 2550 -101 Q 2546 -130 2546 -145 Q 2546 -163 2550 -198 Q 2555 -233 2555 -251 L 2555 -254 Q 2481 -202 2481 -98 L 2481 -74 Q 2481 -59 2496 -59 L 2555 -59 M 2644 -1261 Q 2603 -1271 2521 -1285 L 1951 -1349 Q 1923 -1353 1813 -1353 Q 1571 -1353 1443 -1326 Q 1237 -1283 1125 -1154 Q 1738 -1132 1738 -779 Q 1738 -667 1686 -595 Q 1606 -484 1435 -356 Q 1293 -249 1068 -240 Q 1077 -147 1016 -147 Q 1008 -147 995 -151 Q 982 -156 975 -156 Q 960 -156 960 -141 Q 960 -134 964 -122 Q 969 -111 969 -104 L 969 -98 Q 935 -125 935 -178 Q 935 -227 978 -254 Q 944 -275 813 -315 Q 703 -349 659 -392 Q 659 -389 657 -382 Q 656 -376 656 -374 L 656 -353 Q 656 -227 755 -137 Q 850 -49 978 -49 L 1034 -49 Q 1016 -59 984 -83 Q 1003 -83 1033 -71 Q 1063 -59 1080 -59 Q 1344 -59 1632 -328 L 2442 -1089 Q 2535 -1164 2644 -1261 M 1720 -774 Q 1720 -949 1531 -1030 Q 1395 -1089 1190 -1089 L 1082 -1089 Q 1055 -1042 1055 -914 Q 1085 -914 1146 -923 Q 1208 -932 1238 -932 Q 1384 -932 1483 -867 Q 1598 -792 1598 -654 Q 1598 -603 1573 -516 Q 1720 -611 1720 -774 M 1966 -18 Q 1965 -21 1957 -21 Q 1951 -21 1951 -18 Q 1953 -14 1957 -9 Q 1962 -12 1966 -18 M 1607 -264 Q 1607 -266 1606 -266 Q 1590 -266 1590 -249 Q 1590 -246 1591 -245 Q 1607 -245 1607 -264 M 1574 -236 L 1573 -240 L 1568 -240 L 1564 -234 Q 1565 -232 1568 -230 L 1573 -230 L 1573 -230 L 1574 -233 L 1574 -236 M 1548 -211 L 1548 -214 Q 1548 -221 1543 -221 L 1542 -221 Q 1538 -221 1537 -214 L 1537 -211 Q 1538 -206 1542 -206 L 1543 -206 Q 1548 -207 1548 -211 M 1552 -620 Q 1552 -844 1251 -844 Q 1150 -844 1091 -828 L 1091 -819 Q 1164 -745 1207 -721 Q 1267 -688 1356 -688 Q 1399 -688 1426 -697 Q 1426 -686 1401 -672 Q 1280 -672 1212 -695 Q 1124 -728 1068 -819 L 1059 -819 Q 1027 -803 1009 -803 Q 733 -672 665 -466 Q 664 -456 659 -435 Q 669 -400 757 -367 Q 833 -337 880 -337 Q 900 -337 937 -336 Q 975 -335 994 -335 Q 1238 -335 1425 -423 Q 1449 -434 1494 -460 Q 1501 -466 1509 -475 Q 1552 -526 1552 -620 M 1410 -369 Q 1245 -307 1009 -279 Q 1050 -270 1116 -270 Q 1190 -270 1275 -294 Q 1378 -323 1410 -369 M 1052 -1080 L 1018 -1080 Q 737 -1080 482 -914 Q 184 -721 184 -469 Q 184 -245 395 -133 Q 561 -43 806 -43 L 837 -43 Q 611 -164 611 -328 Q 611 -453 593 -500 L 593 -582 L 611 -598 Q 607 -581 607 -539 Q 607 -514 616 -500 Q 633 -526 647 -561 Q 736 -770 1027 -901 L 1034 -908 Q 1026 -1012 1052 -1080 M 984 -89 Q 983 -83 979 -83 L 978 -83 Q 973 -83 973 -89 L 973 -91 Q 973 -98 978 -98 L 979 -98 Q 983 -98 984 -91 L 984 -89 Z"/>
    <path transform="matrix(1,0,0,1,31616,0)" d="M 917 -300 Q 917 -293 871 -251 Q 825 -209 807 -198 Q 807 -195 807 -194 Q 807 -190 794 -190 Q 717 -126 615 -72 Q 589 -60 540 -34 Q 530 -27 530 -16 Q 530 0 564 0 Q 577 0 601 0 Q 625 0 638 0 Q 586 0 552 0 Q 530 0 466 -32 Q 402 -64 402 -80 Q 402 -91 403 -112 Q 405 -134 405 -145 Q 392 -144 319 -98 Q 313 -107 294 -107 Q 202 -52 98 -25 L 98 -18 Q 98 0 132 0 Q 144 0 164 0 Q 185 0 197 0 Q 161 0 129 0 Q -36 0 -36 -176 Q -36 -371 136 -537 Q 309 -704 501 -704 L 550 -704 Q 588 -704 626 -550 Q 632 -525 657 -525 Q 727 -677 736 -685 Q 754 -704 869 -704 L 819 -596 L 819 -570 L 858 -570 L 858 -640 Q 770 -508 680 -376 Q 550 -173 550 -104 Q 550 -64 577 -64 Q 640 -64 752 -162 Q 913 -300 917 -303 L 917 -300 M 602 -577 Q 602 -656 559 -656 L 510 -656 Q 416 -656 362 -607 Q 322 -570 270 -516 L 270 -500 L 288 -500 Q 455 -577 602 -577 M 598 -530 L 598 -541 L 589 -550 L 559 -550 Q 477 -550 353 -442 Q 83 -207 83 -104 Q 83 -74 97 -68 Q 105 -68 117 -66 Q 129 -64 135 -64 Q 269 -64 433 -230 Q 598 -396 598 -530 Z"/>
    <path transform="matrix(1,0,0,1,32525,0)" d="M 620 -288 Q 616 -282 595 -262 Q 324 0 199 0 Q 107 0 107 -74 Q 107 -148 183 -244 Q 248 -317 313 -388 Q 346 -425 412 -497 L 412 -512 L 258 -512 L 16 -310 L 7 -310 L 233 -545 L 233 -550 Q 233 -561 224 -576 Q 215 -591 215 -601 Q 215 -642 262 -675 Q 304 -704 347 -704 Q 387 -704 387 -671 L 337 -615 L 337 -605 Q 337 -576 387 -576 Q 405 -576 440 -590 Q 475 -604 494 -604 Q 508 -604 533 -574 Q 559 -545 559 -530 Q 536 -486 406 -332 Q 297 -201 288 -138 Q 285 -116 285 -98 Q 294 -98 311 -93 Q 328 -89 337 -89 Q 378 -89 611 -288 L 620 -288 M 464 -568 L 464 -579 Q 402 -579 346 -570 L 346 -555 L 451 -555 Q 464 -555 464 -568 Z"/>
  </g>
</svg>
