<svg viewBox="0 0 16 16" xmlns="http://www.w3.org/2000/svg">
  <path d="M 15.511 8.011 C 15.511 8.564 14.957 9.011 14.273 9.011 L 1.748 9.011 C 1.064 9.012 0.511 8.564 0.511 8.011 L 0.511 8.011 C 0.511 7.459 1.064 7.011 1.748 7.011 L 14.273 7.011 C 14.957 7.011 15.511 7.459 15.511 8.011 L 15.511 8.011 Z" transform="matrix(0.707107, 0.707107, -0.707107, 0.707107, 8.011, -3.318264)"/>
  <path d="M 15.51 8.01 C 15.51 8.563 14.956 9.01 14.272 9.01 L 1.747 9.01 C 1.063 9.011 0.51 8.563 0.51 8.01 L 0.51 8.01 C 0.51 7.458 1.063 7.01 1.747 7.01 L 14.272 7.01 C 14.956 7.01 15.51 7.458 15.51 8.01 L 15.51 8.01 Z" transform="matrix(0.707107, -0.707107, 0.707107, 0.707107, -3.317851, 8.010001)"/>
</svg>
