<svg xmlns="http://www.w3.org/2000/svg" viewBox="0 0 145 24"><title>Les Artistes Inn</title><path d="M30.76 7.747c0 1.293-.727 2.41-2.18 3.35-1.28.84-2.603 1.26-3.97 1.26-.18 0-.447-.04-.8-.12-.36-.08-.633-.12-.82-.12-1.34 1.027-2.967 1.54-4.88 1.54-.22 0-.46-.003-.72-.01-2.3 2.433-4.497 4.193-6.59 5.28 1.327.467 2.28.7 2.86.7.227 0 .653-.047 1.28-.14l.97-.14c-.107.047-.667.19-1.66.43.093-.013.22-.013.38 0l.34.02c.773 0 1.58-.243 2.42-.73.373-.227 1.06-.73 2.06-1.51.027.027.04.053.04.08 0 .1-.787.737-2.36 1.91.327 0 .723-.153 1.19-.46l1.08-.75c0-.087.08-.117.24-.09-1.4 1.533-3.367 2.3-5.9 2.3-.847 0-2.053-.357-3.62-1.07H9.8c-.427.207-.937.4-1.53.58-.773.24-1.477.383-2.11.43l-2.26.01c-.9 0-1.693-.1-2.38-.3-1.013-.293-1.52-.76-1.52-1.4 0-1.04 1.08-1.56 3.24-1.56 1.433 0 3.297.347 5.59 1.04l1.37.44h.06c.173 0 .613-.31 1.32-.93.593-.513 1.583-1.557 2.97-3.13l.72-.86-.04-.07c-.3 0-.753.04-1.36.12l-1.37.12c-2.873 0-4.31-.977-4.31-2.93 0-1.72.987-3.1 2.96-4.14 1.627-.867 3.39-1.3 5.29-1.3.22 0 .547.037.98.11.427.073.75.11.97.11.187 0 .467-.02.84-.06l.83-.07c.96 0 1.71.143 2.25.43.213.113.377.17.49.17.187 0 .463-.06.83-.18.367-.127.643-.19.83-.19a3.45 3.45 0 0 1 .37.03l.37.02c-.007 0 .197-.037.61-.11l2.07-.26c1.92 0 2.88.717 2.88 2.15zm-14.24 11.22l-.06.05-.02-.02c0-.027.007-.05.02-.07.033.013.053.027.06.04zm-.14.09l-.05.03c-.007 0-.023.007-.05.02-.007-.013-.01-.027-.01-.04v-.04c0-.013.007-.02.02-.02.007 0 .02.003.04.01.027.007.043.02.05.04zm9.52-12.21v-.04c-.007-.04-.023-.06-.05-.06h-.01c-.033 0-.05.02-.05.06v.04c0 .027.017.043.05.05h.01c.033-.007.05-.023.05-.05zm-.51-.56c0-.04-.03-.06-.09-.06h-.01c-.06 0-.09.02-.09.06l.1.06a1.17 1.17 0 0 1 .09-.06zm.51.93c-.007-.027-.027-.06-.06-.1-.033 0-.05.027-.05.08v.02c0 .053.017.08.05.08.02-.033.04-.06.06-.08zm-.09.31v-.02c-.007-.047-.023-.07-.05-.07h-.01c-.033 0-.05.023-.05.07v.02c0 .033.013.05.04.05h.02c.033-.007.05-.023.05-.05zm-1.06-1.39c-.027 0-.057-.003-.09-.01a.4.4 0 0 0-.08-.01h-.23c-.193 0-.437.033-.73.1-.38.067-.57.16-.57.28l.14.15c.047.067.107.1.18.1.113 0 .573-.203 1.38-.61zm.94.78c0-.207-.12-.31-.36-.31-.467 0-1.013.203-1.64.61v.02c0 .107.027.267.08.48.06.22.09.387.09.5 0 .593-.317 1.223-.95 1.89.607-.227 1.207-.653 1.8-1.28.653-.687.98-1.323.98-1.91zm4.9.78c0-.633-.287-1.133-.86-1.5-.48-.307-1.057-.46-1.73-.46-1.147 0-1.973.153-2.48.46.12.06.303.197.55.41v.4c0 .773-.51 1.537-1.53 2.29l-1.52 1.1-2.59 1.49-2.64 1.21v.09a4.72 4.72 0 0 0 .86.08 9.03 9.03 0 0 0 2.22-.28c.927-.253 1.557-.6 1.89-1.04v-.06a.83.83 0 0 0-.07-.26c-.047-.12-.07-.213-.07-.28 0-.307.123-.46.37-.46.213 0 .32.153.32.46l-.17.54c.193.1.577.15 1.15.15 1.333 0 2.667-.387 4-1.16 1.533-.887 2.3-1.947 2.3-3.18zm-7.51-.8c-.1-.153-.213-.23-.34-.23-.153 0-.487.15-1 .45-.507.307-.76.51-.76.61 0 .08.033.18.1.3.073.127.147.19.22.19.44-.273 1.033-.713 1.78-1.32zm-2.25.62l1.61-1c-.187-.307-.723-.46-1.61-.46h-1.51l-.23.08c.627.387 1.207.847 1.74 1.38zm2.86.7v-.21c0-.44-.107-.66-.32-.66-.807.48-1.42.97-1.84 1.47.153.5.23.883.23 1.15 0 .093-.05.14-.15.14-.04-.007-.067-.023-.08-.05l-.23-.87-.06-.06a14.33 14.33 0 0 0-1.79 1.91h.32a4.81 4.81 0 0 0 2.55-.72c.913-.553 1.37-1.253 1.37-2.1zm-.7 3.45l.09-.1v-.57c-.173 0-.26.107-.26.32 0 .233.05.35.15.35h.02zm-1.46-.68v-.03c-.007-.047-.023-.07-.05-.07h-.01c-.033 0-.05.023-.05.07v.03c0 .033.017.05.05.05h.01c.033-.013.05-.03.05-.05zm-.17.08v-.02c-.007-.047-.023-.07-.05-.07h-.01c-.033 0-.053.023-.06.07v.02c.007.033.02.05.04.05h.03c.033-.007.05-.023.05-.05zm-.34-2.62l-.32-.46c-.32.053-1.117.943-2.39 2.67a.72.72 0 0 0-.06.14l2.77-2.35zm.13 2.67h-.08c.133 0-.48.077-1.84.23-.16.173-.39.45-.69.83.847-.227 1.717-.58 2.61-1.06zm-.6-3.37c-.113-.253-.437-.573-.97-.96-.533-.393-.93-.59-1.19-.59-.22 0-.65.137-1.29.41-1.9.787-2.85 1.967-2.85 3.54 0 .487.173 1.01.52 1.57.38.633.793.95 1.24.95.073 0 .563-.643 1.47-1.93-.367-.42-.55-.78-.55-1.08 0-.467.153-.7.46-.7-.153.253-.23.493-.23.72 0 .553.153.83.46.83 1.107-1.26 2.083-2.18 2.93-2.76zm-1.32 4.62v-.03c-.007-.047-.027-.07-.06-.07h-.01c-.027 0-.043.023-.05.07v.03c.007.033.023.05.05.05h.03c.02-.013.033-.03.04-.05zm-.18.08v-.02c0-.047-.017-.07-.05-.07h-.01c-.027 0-.043.023-.05.07v.02c.007.033.023.05.05.05H19c.033-.007.05-.023.05-.05zm-.22.06v-.02c-.007-.047-.027-.07-.06-.07h-.01c-.027 0-.043.023-.05.07v.02c.007.053.023.08.05.08h.01c.033 0 .053-.027.06-.08zm-.15.09v-.04c-.007-.04-.02-.06-.04-.06h-.02c-.033 0-.053.02-.06.06v.04c.007.027.023.043.05.05h.03c.027-.007.04-.023.04-.05zm-.25.1l.05-.05c-.02-.027-.037-.04-.05-.04l-.04.04c.007.02.02.037.04.05zm-.23.08l.05-.05c0-.04-.017-.06-.05-.06-.02.007-.033.023-.04.05v.01c.007.027.02.043.04.05zm-.49-6.81c-.427-.1-.917-.15-1.47-.15-1.4 0-2.713.377-3.94 1.13-1.413.86-2.12 1.94-2.12 3.24 0 1.693 1.35 2.54 4.05 2.54h1.09c-.827-.787-1.24-1.64-1.24-2.56 0-1.027.367-1.887 1.1-2.58.413-.387 1.227-.897 2.44-1.53.027-.013.057-.043.09-.09zm-2.22 7.53h-.22c-.187 0-.467.017-.84.05l-.84.04c-1.033 0-1.92-.203-2.66-.61-.907-.507-1.36-1.24-1.36-2.2 0-1.613 1.023-3.033 3.07-4.26h-.08C9.8 7.837 8.42 9.4 8.42 11.207c0 1.74 1.37 2.61 4.11 2.61.84 0 1.827-.107 2.96-.32zm-8.21 4.95c-.013-.02-.05-.03-.11-.03h-.03a.17.17 0 0 0-.11.04c0 .053.04.087.12.1.087 0 .13-.037.13-.11zm-.36-.06c-.027-.013-.057-.023-.09-.03h-.22c-.08 0-.17.013-.27.04.04.033.113.05.22.05h.09c.127 0 .207-.017.24-.05.02 0 .03-.003.03-.01zm-.7-.08c-.007-.02-.03-.03-.07-.03H6.1c-.04.007-.06.017-.06.03.013.033.04.05.08.05.067-.007.1-.023.1-.05zm1.45 1.47c-.013-.02-.037-.033-.07-.04h-.02c-.033.007-.06.02-.08.04.027.02.057.037.09.05.033-.013.06-.03.08-.05zm1.53-.53c-.207-.193-.78-.363-1.72-.51-.78-.113-1.417-.17-1.91-.17-.647 0-.97.257-.97.77v.18c0 .133.44.2 1.32.2h.74c1.247 0 2.093-.157 2.54-.47zm-1.84.61h-2.4c.127.153.437.23.93.23h.4c.127 0 .483-.077 1.07-.23zm-3.14-.38l.23-.68h-.08c-.273 0-.41.123-.41.37 0 .133.087.237.26.31zm1.53-1.38h1.69c-1.113-.453-2.52-.68-4.22-.68-1.96 0-2.94.42-2.94 1.26 0 .593.473 1.027 1.42 1.3.653.193 1.4.29 2.24.29l.49-.02.49-.02c-.127-.033-.343-.193-.65-.48-.3-.28-.45-.473-.45-.58 0-.147.077-.27.23-.37.693-.467 1.26-.7 1.7-.7zm19.87.21h.08l-2.01 1.87c-.874.653-1.707.98-2.5.98-.394 0-.78-.11-1.16-.33-.514-.293-.77-.567-.77-.82 0-.873.026-1.41.08-1.61l.35-.64.18-.38c.34-.68.943-1.293 1.81-1.84.866-.553 1.68-.83 2.44-.83h.52c.206.02.376.15.51.39.113.207.17.423.17.65 0 .887-.56 1.64-1.68 2.26-.567.313-1.52.67-2.86 1.07a2.14 2.14 0 0 0-.14.75c0 .42.266.63.8.63.726 0 1.48-.237 2.26-.71.313-.193.953-.673 1.92-1.44zm-.89-2.99c0-.153-.09-.307-.27-.46h-.37c-.367 0-.797.157-1.29.47-.54.347-.81.687-.81 1.02l.17-.03c.84-.373 1.666-.6 2.48-.68.06-.067.09-.173.09-.32zm-.38.98a1.6 1.6 0 0 0-.01-.15c-.014-.067-.02-.113-.02-.14-.06-.06-.177-.09-.35-.09-.234 0-.424.05-.57.15-.9.587-1.617 1.333-2.15 2.24v.2c.473 0 1.096-.253 1.87-.76.82-.533 1.23-1.017 1.23-1.45zm-1.27 4.16v-.17c-.22 0-.527.073-.92.22l-.91.33v.17c.493 0 1.103-.183 1.83-.55zm9.226-2.12h.06c0 .093-.046.14-.14.14l-.03.03h-.04l-.02-.03.17-.14zm-2.76-2.53c-.013.027-.033.043-.06.05-.013-.007-.02-.023-.02-.05v-.01c.007-.033.014-.05.02-.05h.01c.034.007.05.027.05.06zm2.36 2.84h.08c-.5.58-1.293 1.097-2.38 1.55-1.046.44-1.966.66-2.76.66-1.166 0-1.75-.46-1.75-1.38 0-.393.147-.783.44-1.17.294-.38.634-.57 1.02-.57.06 0 .14.007.24.02.1.02.174.03.22.03v.29c0 .253-.206.553-.62.9-.413.353-.62.677-.62.97 0 .453.197.68.59.68.907 0 1.684-.517 2.33-1.55.107-.18.517-1.09 1.23-2.73v-.22h-.15c-.64.487-1.463 1.04-2.47 1.66l-.05-.15.74-.68c-.006.113.05.17.17.17.154 0 .487-.203 1-.61.507-.407.76-.673.76-.8 0-.1-.05-.147-.15-.14.067-.04.414-.297 1.04-.77.54-.407.867-.61.98-.61.127 0 .19.047.19.14 0 .273-.183.53-.55.77l-.83.61-.02 1.03c-.04.813-.1 1.367-.18 1.66-.126.42-.413.903-.86 1.45v.15c.28-.007 1.067-.46 2.36-1.36z"/><path d="M67.41 5.647c0 .913-.603 1.837-1.81 2.77a10.36 10.36 0 0 1-3.1 1.69l-1.52.52-3.37 4.29c-.953 1.213-1.71 2.58-2.27 4.1v.18h.06c.034 0 .17-.03.41-.09.934-.247 1.794-.717 2.58-1.41h.09c-.006.327-.57.817-1.69 1.47-1.226.707-1.93 1.223-2.11 1.55h-1.35c-.06-.173-.243-.26-.55-.26H51c-.16 0-.24-.093-.24-.28 0-.113.034-.17.1-.17h1.64l.6-.38v-.02c0-.06-.24-.16-.72-.3-.533-.153-1.27-.513-2.21-1.08-3.033 2.347-6.216 3.52-9.55 3.52-.18 0-.45-.007-.81-.02l-.8-.02c0 1.7.097 2.44-.15 1.08l-.19-1.12-.09-.06c-1.373-.247-2.47-.82-3.29-1.72-.86-.947-1.29-2.107-1.29-3.48v-.89c0-.147.08-.457.24-.93.494-1.553 1.53-2.837 3.11-3.85 1.674-1.073 3.577-1.61 5.71-1.61 1.627 0 3.247.443 4.86 1.33h.09c.054-.06.114-.15.18-.27.2-.373.464-.697.79-.97a2.85 2.85 0 0 1 .64-.37 2.87 2.87 0 0 0 .25-.08v-.04c0-.173-.056-.423-.17-.75-.113-.333-.17-.587-.17-.76 0-1.007.337-1.79 1.01-2.35.627-.527 1.45-.79 2.47-.79.694 0 1.314.137 1.86.41.68.353 1.02.84 1.02 1.46h-.08c-.326-1.033-1.22-1.55-2.68-1.55-.933 0-1.69.24-2.27.72-.62.52-.93 1.233-.93 2.14 0 .713.137 1.197.41 1.45.867.093 1.707.56 2.52 1.4a13.18 13.18 0 0 0 .47.52c.26.247 1.007.37 2.24.37.327-.4 1.094-1.187 2.3-2.36 2.92-2.827 5.517-4.24 7.79-4.24h.72c.334 0 .594.133.78.4.167.233.25.517.25.85zm-.23 0c0-.72-.486-1.08-1.46-1.08-.646 0-1.276.097-1.89.29-.746.233-1.263.567-1.55 1a7.24 7.24 0 0 1-.36.49c.22-.087.724-.4 1.51-.94.54-.373 1.11-.56 1.71-.56a.33.33 0 0 1 .09.02c.04.007.067.01.08.01l.15.18c-1.113 0-1.756.17-1.93.51h.15c-.526.18-1.173.827-1.94 1.94l-1.54 2.49c-.073.12-.18.303-.32.55h.23c1.52-1.667 3.437-3.44 5.75-5.32v-.09c0-.107-.043-.157-.13-.15l.65-.11c-.646.573-1.653 1.6-3.02 3.08l-1.93 2.15h.09c.327 0 1.03-.313 2.11-.94.86-.487 1.547-.917 2.06-1.29.994-.727 1.49-1.47 1.49-2.23zm-5.43.98c-.113.18-.296.433-.55.76.14-.153.324-.407.55-.76zm-.37-.28c-.746.44-1.606 1.247-2.58 2.42a26.47 26.47 0 0 1 .91-.71c-.64.633-1.586 1.613-2.84 2.94h.4c.38 0 .65-.093.81-.28l2.14-2.91h-.11c-.04 0-.08.01-.12.03.594-.5 1.057-.997 1.39-1.49zm-1.57 4.61c-.006-.073-.013-.11-.02-.11-.1 0-.15.07-.15.21 0 .02.004.03.01.03.107 0 .16-.043.16-.13zm-4.32 4.56l2.23-4.29h-1l-2.1 2.53c.034.533.11.957.23 1.27.054.127.267.29.64.49zm-.15-4.29c-.186 0-.47-.037-.85-.11-.373-.08-.656-.12-.85-.12h-.08l-.09.09c-.046-.087-.123-.153-.23-.2h-.06a1.71 1.71 0 0 0 .38.55v-.35l.66 1.47c.027-.007.16-.133.4-.38.06-.16.3-.477.72-.95zm-1.63.31v-.03c-.013-.047-.03-.07-.05-.07h-.03c-.02 0-.036.023-.05.07v.03c.014.047.03.07.05.07h.03c.02 0 .037-.023.05-.07zm-.7-.99v-.09c-.7-.847-1.426-1.27-2.18-1.27a.38.38 0 0 1-.11.03c.14.193.507.46 1.1.8.587.347.984.523 1.19.53zm-2.61-1.01c-.073-.233-.173-.35-.3-.35-.533 0-.923.22-1.17.66a3.54 3.54 0 0 1 1.47-.31zm3.33 5.09l.55.29v-.84l-.55.55zm-1-.32l1.21-1.44a1.61 1.61 0 0 0-.15-.34l-.61-1c-.253-.347-.536-.617-.85-.81-.473-.287-1.003-.43-1.59-.43-.44 0-.843.083-1.21.25-.46.193-.736.473-.83.84.307.607.46 1.163.46 1.67a4.71 4.71 0 0 1-.04.51 5.26 5.26 0 0 0-.04.52l1.76.14c.72.06 1.31.09 1.77.09h.12zm1.95 3.05l.66-1.53v-.08c-.04-.08-.193-.157-.46-.23v-.02l-.01.05-.04.22-.12 1.04c-.02.16-.03.273-.03.34v.21zm-.2-.88v-.04c0-.04-.016-.08-.05-.12-.02.02-.033.06-.04.12v.05c0 .093.014.15.04.17.034-.073.05-.133.05-.18zm-.11.55v-.22c0 .093-.043.257-.13.49-.08.233-.116.397-.11.49l-.02.06.02.11c.16-.06.24-.37.24-.93zm1.44 2.45h-.09c-.406 0-.64.147-.7.44h.03c.307 0 .56-.147.76-.44zm-6.88-6.43v-.29c0-.727-.153-1.09-.46-1.09-.226.48-.34 1.31-.34 2.49.374 0 .614-.097.72-.29.054-.12.08-.393.08-.82zm5.35 2.85v-.55c-.286-.2-.556-.3-.81-.3-.02 0-.966.953-2.84 2.86v.05c.674.547 1.62.9 2.84 1.06.54-1.167.81-2.207.81-3.12zm-4.35 1.46l2.4-2.53c-.386-.233-1.143-.35-2.27-.35h-.61c-.273 0-.43.013-.47.04-.3.16-.45.463-.45.91 0 .247.18.63.54 1.15.367.52.654.78.86.78zm3.17 1.89c-.02-.013-.036-.02-.05-.02l-.04.02c.014.04.034.07.06.09.02-.02.03-.05.03-.09zm-4.74-4.25l.26-.48h-.41l.03.04a1.12 1.12 0 0 0 .03.22c.02.1.03.173.03.22h.06zm4.37 4.2c0-.04-.02-.06-.06-.06-.02.007-.03.023-.03.05v.03c0 .013.007.02.02.02a.15.15 0 0 0 .07-.04zm-.32-.08c-.013-.027-.033-.04-.06-.04l-.02.04.05.05c.02-.02.03-.037.03-.05zm-.29-.05v-.04c-.006-.04-.023-.06-.05-.06h-.01c-.033 0-.05.02-.05.06v.04c.007.027.024.043.05.05h.01c.034-.007.05-.023.05-.05zm-.25-.16a.11.11 0 0 0-.06-.02h-.02c-.033 0-.05.007-.05.02l.06.09c.027-.02.05-.05.07-.09zm-.21-.05v-.02c0-.053-.016-.08-.05-.08h-.02c-.026 0-.04.027-.04.08v.03c0 .067.02.1.06.1.034-.027.05-.063.05-.11zm-.22-.06v-.02c-.013-.04-.036-.06-.07-.06h-.01c-.02 0-.036.02-.05.06v.02c.014.033.03.05.05.05h.03c.02 0 .037-.017.05-.05zm-.15-.08v-.03c-.006-.04-.023-.06-.05-.06h-.01c-.033 0-.05.02-.05.06l-.01.03c.007.027.024.04.05.04h.02c.034-.007.05-.02.05-.04zm-3.37-3.2l-.4-.96h-.05c-.466 0-.756.09-.87.27-.04.787-.24 1.447-.6 1.98h.09a12.7 12.7 0 0 0 .98-.56c.26-.18.544-.423.85-.73zm-1.66-.66c-.586 0-1.38.2-2.38.6-1.026.393-1.74.793-2.14 1.2.06-.007.114-.01.16-.01.427 0 .694.35.8 1.05.027.027.104.04.23.04.96 0 1.74-.237 2.34-.71.66-.513.99-1.237.99-2.17zm-.09-.58c0-.64-.336-1.137-1.01-1.49-.526-.273-1.15-.41-1.87-.41-.846 0-1.66.233-2.44.7s-1.353 1.08-1.72 1.84c-.306.627-.46 1.123-.46 1.49.48.553 1.037.927 1.67 1.12.58-.64 1.517-1.31 2.81-2.01.114-.06.67-.273 1.67-.64.9-.327 1.35-.527 1.35-.6zm3.36 3.36c-.286-.42-.746-.987-1.38-1.7h-.08a9 9 0 0 1-1.98 1.42c-1.353.707-2.483 1.06-3.39 1.06-.173 0-.426-.043-.76-.13-.326-.08-.576-.12-.75-.12-.04.013-.066.033-.08.06 0 .613.384 1.13 1.15 1.55.634.34 1.297.51 1.99.51 1.114 0 2.444-.493 3.99-1.48l.69-.47c.4-.347.6-.58.6-.7zm-1.78-6.64v-.11c-1.106-.693-2.63-1.04-4.57-1.04-2.266 0-4.263.53-5.99 1.59-2.026 1.247-3.04 2.93-3.04 5.05 0 1.967.977 3.417 2.93 4.35.6.287 1.08.43 1.44.43.12 0 .247-.273.38-.82.114-.473.17-.823.17-1.05 0-.1-.08-.263-.24-.49-.206-.293-.316-.457-.33-.49-.273-.527-.41-1.177-.41-1.95a4.68 4.68 0 0 1 1.45-3.46 4.75 4.75 0 0 1 3.47-1.44c2.014 0 3.21.913 3.59 2.74h.17a2.21 2.21 0 0 0 .3-.03c.127-.013.22-.02.28-.02v-1.73c.02-.347.154-.857.4-1.53zm-6.12 5.76l-.01-.02c0-.053-.016-.08-.05-.08h-.01c-.026 0-.043.027-.05.08v.02c.007.033.024.05.05.05h.02c.027-.007.044-.023.05-.05zm-.46.94h.26v-.25c-.173 0-.26.083-.26.25zm-.21-.06l.38-.74c-.233.187-.473.433-.72.74h.34zm3.6 3.2v-.04c0-.033-.023-.05-.07-.05h-.02c-.053 0-.08.013-.08.04.007.013.017.03.03.05l.06.02c.034 0 .06-.007.08-.02zm-.69-.29l.14-.09a4.14 4.14 0 0 1-1.73-.46c-.52-.273-.91-.7-1.17-1.28-.1-.22-.15-.403-.15-.55-.053-.14-.26-.21-.62-.21-.56.56-.84.933-.84 1.12 0 .22.39.527 1.17.92.74.367 1.254.55 1.54.55a29.5 29.5 0 0 1 .66.01l.66.02c.04 0 .097-.007.17-.02a2.19 2.19 0 0 1 .17-.01zm-3.85-2.64l-1.35-1.1v.4c0 .253.064.573.19.96.147.453.31.68.49.68.134-.22.357-.533.67-.94zm4.23 2.99h-.58c-1.813 0-3.253-.45-4.32-1.35h-.05c-.073 0-.146.213-.22.64-.066.367-.1.64-.1.82v.34c.234.06.51.09.83.09h.99c1.507 0 2.657-.18 3.45-.54zm20.86-15.78c0 .04-.046.067-.14.08-.08 0-.12-.027-.12-.08 0-.027.037-.04.11-.04h.05c.034 0 .067.013.1.04zm-.56.11h.17c-.033.007-.073.017-.12.03a4.79 4.79 0 0 1-.2.08c-.033 0-.063-.01-.09-.03.034 0 .077-.013.13-.04s.09-.04.11-.04zm-.41.18v.02c-.006.027-.016.043-.03.05l-.05-.06c0-.04.007-.067.02-.08.04 0 .06.023.06.07zm-.23.1v.02c-.006.02-.013.03-.02.03a.26.26 0 0 1-.06-.04c.007-.04.014-.06.02-.06h.01c.034.007.05.023.05.05zm-3.92 2.33l-.28.22c.1-.113.194-.187.28-.22zm3.328 10.47h.079a2.64 2.64 0 0 1-.229.22c-1.694 1.5-2.93 2.25-3.711 2.25-.58 0-.87-.23-.87-.69 0-.453.237-.977.71-1.57l1.22-1.33c.2-.227.51-.563.93-1.01v-.14h-1.44l-2.269 2.06h-.09l2.129-2.16v-.04c0-.067-.03-.147-.09-.24s-.09-.17-.09-.23c0-.253.147-.48.44-.68a1.39 1.39 0 0 1 .8-.27c.254 0 .38.09.38.27l-.47.45v.08c0 .16.157.24.47.24.114 0 .28-.03.5-.09a2.35 2.35 0 0 1 .5-.08c.087 0 .21.09.37.27.16.187.24.327.24.42-.146.28-.623.9-1.429 1.86-.687.82-1.057 1.427-1.111 1.82-.02.133-.03.257-.03.37.06 0 .144.017.25.05a1.08 1.08 0 0 0 .24.04c.254 0 1.11-.623 2.571-1.87zm-1.381-2.62v-.11c-.386 0-.753.027-1.1.08v.15h.971c.086 0 .129-.04.129-.12zm8.967-4.08c-.58.593-1.33 1.433-2.25 2.52-.246.267-.59.673-1.03 1.22a.78.78 0 0 1-.06.12l-.05.08c0 .013-.01.023-.03.03-.01.013-.01.03-.01.05 0 .033.014.063.04.09h1.72l.23.09-.08.11h-2.14c-.093 0-.553.623-1.38 1.87-.613.927-.92 1.693-.92 2.3 0 .06.127.09.38.09.507 0 1.474-.613 2.9-1.84h.09c-1.633 1.627-2.986 2.44-4.06 2.44-.533 0-.8-.23-.8-.69 0-.32.357-1.117 1.07-2.39a.92.92 0 0 1 .08-.14c0-.107-.02-.177-.06-.21l.03-.01-.04.01c-.02-.007-.036-.01-.05-.01l1.21-1.21v-.19h-1.21c-.04-.073-.12-.117-.24-.13a4.77 4.77 0 0 0 .33.01c.454 0 .934-.033 1.44-.1.094-.073.707-.757 1.84-2.05.374-.42.804-.857 1.29-1.31.62-.58 1.157-.87 1.61-.87.1 0 .15.04.15.12zm-6.37 5.74h.01c-.086.047-.21.153-.37.32l.26-.29c.027-.013.06-.023.1-.03zm-.36.32l-.46.52.46-.52zm-.54.52h.08l-.02.02c-.026.027-.06.05-.1.07.027-.027.04-.057.04-.09zm11.687-6.18c0 .253-.166.503-.5.75-.34.253-.643.38-.91.38l-.05-.09v-.32c0-.647.347-.97 1.04-.97.28 0 .42.083.42.25zm-1.93 5.92h.09c-.4.653-.763 1.113-1.09 1.38v-.07c0-.067-.046-.1-.14-.1.06 0-.353.297-1.24.89-.44.293-.87.513-1.29.66-.213.073-.32.143-.32.21 0 .207.144.31.43.31.12 0 .28-.05.48-.15.194-.093.35-.14.47-.14-.213.287-.596.43-1.15.43-.293 0-.576-.137-.85-.41-.28-.28-.42-.563-.42-.85 0-.333.454-1.207 1.36-2.62v-.23h-.15c-.193.187-.5.447-.92.78-.033.047-.1.097-.2.15v-.04c0-.147.374-.593 1.12-1.34-.006.113.07.17.23.17.687-.5 1.03-.913 1.03-1.24h-.11l-.55.46v-.09c.26-.3.684-.683 1.27-1.15.08-.04.307-.06.68-.06h.36c-.026.067-.096.187-.21.36-.073.113-.11.253-.11.42.227 0 .41.05.55.15l-1.24 1.53-1.03 1.24c-.446.6-.67 1.083-.67 1.45 0 .133.097.2.29.2.374 0 .764-.18 1.17-.54.507-.367 1.227-.953 2.16-1.76zm-1.2 1.64v.04c-.053.053-.14.137-.26.25v-.08l.23-.23.03.02zm-1.01.98h.05c-.033.053-.106.13-.22.23h-.06c.06-.1.137-.177.23-.23zm8.708-2.21h.06c0 .093-.047.14-.14.14l-.03.03h-.04l-.02-.03.17-.14zm-2.76-2.53c-.014.027-.034.043-.06.05-.014-.007-.02-.023-.02-.05v-.01c.006-.033.013-.05.02-.05h.01c.033.007.05.027.05.06zm2.36 2.84h.08c-.5.58-1.294 1.097-2.38 1.55-1.047.44-1.967.66-2.76.66-1.167 0-1.75-.46-1.75-1.38 0-.393.146-.783.44-1.17.293-.38.633-.57 1.02-.57.06 0 .14.007.24.02.1.02.173.03.22.03v.29c0 .253-.207.553-.62.9-.414.353-.62.677-.62.97 0 .453.196.68.59.68.906 0 1.683-.517 2.33-1.55.106-.18.516-1.09 1.23-2.73v-.22h-.15c-.64.487-1.464 1.04-2.47 1.66l-.05-.15.74-.68c-.007.113.05.17.17.17.153 0 .486-.203 1-.61.506-.407.76-.673.76-.8 0-.1-.05-.147-.15-.14.066-.04.413-.297 1.04-.77.54-.407.866-.61.98-.61.126 0 .19.047.19.14 0 .273-.184.53-.55.77-.5.347-.777.55-.83.61 0 .213-.007.557-.02 1.03-.04.813-.1 1.367-.18 1.66-.127.42-.414.903-.86 1.45v.15c.28-.007 1.066-.46 2.36-1.36zm7.882-7.04c-.58.593-1.33 1.433-2.25 2.52-.247.267-.59.673-1.03 1.22a1.04 1.04 0 0 1-.06.12l-.05.08c0 .013-.01.023-.03.03-.01.013-.01.03-.01.05 0 .033.013.063.04.09h1.72l.23.09-.08.11h-2.14c-.093 0-.553.623-1.38 1.87-.613.927-.92 1.693-.92 2.3 0 .06.127.09.38.09.507 0 1.473-.613 2.9-1.84h.09c-1.633 1.627-2.987 2.44-4.06 2.44-.533 0-.8-.23-.8-.69 0-.32.357-1.117 1.07-2.39a.84.84 0 0 1 .08-.14c0-.107-.02-.177-.06-.21l.03-.01-.04.01c-.02-.007-.037-.01-.05-.01l1.21-1.21v-.19h-1.21c-.04-.073-.12-.117-.24-.13a4.77 4.77 0 0 0 .33.01 11.01 11.01 0 0 0 1.44-.1c.093-.073.707-.757 1.84-2.05a19.38 19.38 0 0 1 1.29-1.31c.62-.58 1.157-.87 1.61-.87.1 0 .15.04.15.12zm-6.37 5.74h.01c-.087.047-.21.153-.37.32l.26-.29c.027-.013.06-.023.1-.03zm-.36.32l-.46.52.46-.52zm-.54.52h.08l-.02.02a.38.38 0 0 1-.1.07c.027-.027.04-.057.04-.09zm10.947.12h.08c-.946.953-1.616 1.577-2.01 1.87-.873.653-1.706.98-2.5.98-.393 0-.78-.11-1.16-.33-.513-.293-.77-.567-.77-.82 0-.873.027-1.41.08-1.61l.35-.64c.04-.08.1-.207.18-.38.34-.68.944-1.293 1.81-1.84.867-.553 1.68-.83 2.44-.83h.52c.207.02.377.15.51.39.114.207.17.423.17.65 0 .887-.56 1.64-1.68 2.26-.566.313-1.52.67-2.86 1.07-.093.253-.14.503-.14.75 0 .42.267.63.8.63.727 0 1.48-.237 2.26-.71.314-.193.954-.673 1.92-1.44zm-.89-2.99c0-.153-.09-.307-.27-.46h-.37c-.366 0-.796.157-1.29.47-.54.347-.81.687-.81 1.02l.17-.03c.84-.373 1.667-.6 2.48-.68.06-.067.09-.173.09-.32zm-.38.98a1.32 1.32 0 0 0-.01-.15.88.88 0 0 1-.02-.14c-.06-.06-.176-.09-.35-.09-.233 0-.423.05-.57.15-.9.587-1.616 1.333-2.15 2.24v.2c.474 0 1.097-.253 1.87-.76.82-.533 1.23-1.017 1.23-1.45zm-1.27 4.16v-.17c-.22 0-.526.073-.92.22l-.91.33v.17c.494 0 1.104-.183 1.83-.55zm9.227-2.12h.06c0 .093-.047.14-.14.14l-.03.03h-.04l-.02-.03.17-.14zm-2.76-2.53c-.013.027-.033.043-.06.05-.013-.007-.02-.023-.02-.05v-.01c.007-.033.013-.05.02-.05h.01c.033.007.05.027.05.06zm2.36 2.84h.08c-.5.58-1.293 1.097-2.38 1.55-1.047.44-1.967.66-2.76.66-1.167 0-1.75-.46-1.75-1.38 0-.393.147-.783.44-1.17.293-.38.633-.57 1.02-.57.06 0 .14.007.24.02.1.02.173.03.22.03v.29c0 .253-.207.553-.62.9-.413.353-.62.677-.62.97 0 .453.197.68.59.68.907 0 1.683-.517 2.33-1.55.107-.18.517-1.09 1.23-2.73v-.22h-.15c-.64.487-1.463 1.04-2.47 1.66l-.05-.15.74-.68c-.007.113.05.17.17.17.153 0 .487-.203 1-.61.507-.407.76-.673.76-.8 0-.1-.05-.147-.15-.14.067-.04.413-.297 1.04-.77.54-.407.867-.61.98-.61.127 0 .19.047.19.14 0 .273-.183.53-.55.77-.5.347-.777.55-.83.61 0 .213-.007.557-.02 1.03-.04.813-.1 1.367-.18 1.66-.127.42-.413.903-.86 1.45v.15c.28-.007 1.067-.46 2.36-1.36z"/><path d="M130.44 4.337c0 .307-.323.567-.97.78-.28.087-.653.3-1.12.64-.5.373-.78.677-.84.91l-.83.85-4.37 5.75c.427-.113.903-.36 1.43-.74l1.33-.96v.1c0 .333-.413.703-1.24 1.11l-1.75.78-1.93 2.25c-2.98 3.313-6.813 4.97-11.5 4.97-1.227 0-2.33-.157-3.31-.47-.06-.013-.247-.097-.56-.25-.273-.133-.44-.2-.5-.2-.133 0-.363-.023-.69-.07a15.85 15.85 0 0 0-.69-.07c-.953-.1-1.793-.373-2.52-.82-.92-.553-1.38-1.25-1.38-2.09s.403-1.517 1.21-2.03c.64-.413 1.433-.663 2.38-.75.167-.007.427-.027.78-.06.187-.027.51-.227.97-.6l1-.78c1.8-1.093 4.007-1.66 6.62-1.7.113-.493.283-.827.51-1v.05c0 .067-.037.193-.11.38a1.48 1.48 0 0 0-.12.57c1.24.18 2.143.47 2.71.87.22.147.42.22.6.22.18-.087.61-.193 1.29-.32.64-.12 1.157-.3 1.55-.54.753-2.373 3.17-4.003 7.25-4.89.347-.053.843-.157 1.49-.31l.96-.52c.647-.353 1.43-.707 2.35-1.06zm-2.27 1.26v-.01c-.007-.047-.023-.07-.05-.07h-.01c-.033 0-.05.023-.05.07v.01c0 .06.017.09.05.09h.01c.033 0 .05-.03.05-.09zm-.19.09c-.273.087-.41.173-.41.26l.03.02c.073-.013.2-.107.38-.28zm-7.51 4.5l5.81-3.76h-.15c-1.667.42-2.963.877-3.89 1.37-1.36.727-2.317 1.68-2.87 2.86h.17c.22-.1.53-.257.93-.47zm6.73-3.9h-.11c-.133 0-.58.247-1.34.74l-3.67 2.48c-.267.173-1.007.603-2.22 1.29a11.08 11.08 0 0 0-.56.31c-.1.067-.15.34-.15.82 0 .933.46 1.4 1.38 1.4.033-.013.063-.033.09-.06 1.607-2.153 3.07-3.817 4.39-4.99a130.89 130.89 0 0 0 2.19-1.99zm-13.86 5.15h.28c-.413-.153-.787-.23-1.12-.23h-.26l.09.14c.813.06 1.15.09 1.01.09zm6.96 2.29v-.08c-1.233-.287-1.897-.947-1.99-1.98h-.15c.073 0-.337.123-1.23.37a44.44 44.44 0 0 0-1.23.38c.367.553.55 1.127.55 1.72 0 1.333-.893 2.523-2.68 3.57-1.213.72-2.697 1.31-4.45 1.77v.04c0 .06.203.133.61.22.367.08.623.12.77.12h.8c1.84 0 3.547-.613 5.12-1.84.5-.4 1.16-1.043 1.98-1.93s1.403-1.593 1.75-2.12c.1-.147.15-.227.15-.24zm-4.58.18c0-.653-.24-1.093-.72-1.32l-1.17-.09c-.413-.053-.787-.16-1.12-.32h-.21c-1.273 0-2.487.493-3.64 1.48-1.213 1.027-1.82 2.163-1.82 3.41 0 .46.163.937.49 1.43.347.54.74.81 1.18.81.507 0 1.197-.17 2.07-.51 1.267-.507 1.937-.817 2.01-.93h-.11a8.83 8.83 0 0 0-.61.03c-.267.02-.467.03-.6.03-.787 0-1.603-.23-2.45-.69v-.05c0-.08.033-.137.1-.17.92.413 1.733.62 2.44.62 1.147 0 2.113-.33 2.9-.99.84-.7 1.26-1.613 1.26-2.74zm-3.71-2.47l.04-.09v-.03c0-.093-.03-.16-.09-.2h-.8c-1.14 0-2.243.17-3.31.51-1.207.387-2.167.933-2.88 1.64l-.6.61v.09c1.187.153 2 .477 2.44.97.12-.073.247-.223.38-.45.153-.287.26-.46.32-.52 1.3-1.473 2.8-2.317 4.5-2.53zm.98 6.36v-.02c0-.053-.017-.08-.05-.08h-.01c-.027 0-.043.027-.05.08v.02c.007.047.023.07.05.07h.01c.033 0 .05-.023.05-.07zm-5.12 1.68l.17-.08c-.02-.007-.047-.037-.08-.09-.1-.08-.25-.207-.45-.38-.62-.493-.93-1.263-.93-2.31a4.8 4.8 0 0 1 .07-.69c.047-.307.07-.537.07-.69 0-.287-.327-.55-.98-.79-.553-.193-1.02-.29-1.4-.29-.353 0-.64.353-.86 1.06-.173.547-.26 1.057-.26 1.53 0 1.313.537 2.273 1.61 2.88h1.61c.087 0 .563-.05 1.43-.15zm4.24.7h-1.39c-.24 0-.65-.09-1.23-.27-.573-.187-.93-.28-1.07-.28-.36 0-.897.04-1.61.12-.713.073-1.25.11-1.61.11l.08.09c1.313.4 2.177.6 2.59.6h1.11c1.013 0 2.057-.123 3.13-.37zm-8.14-.63c-.92-.807-1.38-1.77-1.38-2.89 0-.393.093-.82.28-1.28l.58-1.18c-.04 0-.097-.007-.17-.02a1.25 1.25 0 0 0-.18-.02c-.867 0-1.65.207-2.35.62-.827.493-1.24 1.143-1.24 1.95 0 .893.52 1.613 1.56 2.16a5.97 5.97 0 0 0 2.79.68c.02-.007.057-.013.11-.02zm26.846-1.68v.09c-.234.24-.597.593-1.09 1.06l-.81.67c-.994.88-1.75 1.32-2.27 1.32-.234 0-.487-.077-.76-.23-.3-.18-.45-.38-.45-.6 0-.447.336-1.093 1.01-1.94l1.53-1.75v-.34c-.047 0-.117-.007-.21-.02a1.13 1.13 0 0 0-.22-.03c-.194 0-.587.18-1.18.54-.78.467-1.62 1.127-2.52 1.98-.274.26-1.017 1.027-2.23 2.3a6.28 6.28 0 0 1-1.09.09h-.2c.073-.067.11-.137.11-.21 0-.02-.01-.053-.03-.1-.014-.04-.02-.07-.02-.09 0-.393.82-1.61 2.46-3.65.14-.173.21-.413.21-.72-.08-.02-.207-.04-.38-.06-.354.173-.75.45-1.19.83l-1.1.95-.34.29h-.07c1.786-1.78 2.763-2.67 2.93-2.67l-.06.08.04.15c.08 0 .203-.013.37-.04.166-.033.29-.05.37-.05.073 0 .183.017.33.05.146.027.256.04.33.04.113 0 .17-.107.17-.32 0-.207-.14-.31-.42-.31-.114 0-.274.04-.48.12-.2.087-.357.13-.47.13.42-.267.783-.4 1.09-.4.5 0 .75.29.75.87 0 .393-.364 1.1-1.09 2.12v.11c.033.013.09.033.17.06.293-.113.763-.47 1.41-1.07.706-.653 1.206-1.06 1.5-1.22-.007.093.036.14.13.14.186 0 .456-.063.81-.19.346-.127.613-.19.8-.19.06-.053.09-.137.09-.25 0-.153-.124-.23-.37-.23-.08 0-.194.027-.34.08-.154.06-.27.09-.35.09a1.35 1.35 0 0 1 .86-.32c.44 0 .66.373.66 1.12 0 .427-.38 1.097-1.14 2.01-.767.913-1.15 1.5-1.15 1.76 0 .207.093.31.28.31.433 0 1.06-.31 1.88-.93l1.74-1.43zm-3.3 2.65h-.11c-.04 0-.237.057-.59.17v.21c.466 0 .7-.127.7-.38zm14.054-2.65v.09c-.234.24-.597.593-1.09 1.06l-.81.67c-.994.88-1.75 1.32-2.27 1.32-.234 0-.487-.077-.76-.23-.3-.18-.45-.38-.45-.6 0-.447.336-1.093 1.01-1.94l1.53-1.75v-.34c-.047 0-.117-.007-.21-.02a1.13 1.13 0 0 0-.22-.03c-.194 0-.587.18-1.18.54-.78.467-1.62 1.127-2.52 1.98-.274.26-1.017 1.027-2.23 2.3a6.28 6.28 0 0 1-1.09.09h-.2c.073-.067.11-.137.11-.21 0-.02-.01-.053-.03-.1-.014-.04-.02-.07-.02-.09 0-.393.82-1.61 2.46-3.65.14-.173.21-.413.21-.72-.08-.02-.207-.04-.38-.06-.354.173-.75.45-1.19.83l-1.1.95-.34.29h-.07c1.786-1.78 2.763-2.67 2.93-2.67l-.06.08.04.15c.08 0 .203-.013.37-.04.166-.033.29-.05.37-.05.073 0 .183.017.33.05.146.027.256.04.33.04.113 0 .17-.107.17-.32 0-.207-.14-.31-.42-.31-.114 0-.274.04-.48.12-.2.087-.357.13-.47.13.42-.267.783-.4 1.09-.4.5 0 .75.29.75.87 0 .393-.364 1.1-1.09 2.12v.11c.033.013.09.033.17.06.293-.113.763-.47 1.41-1.07.706-.653 1.206-1.06 1.5-1.22-.007.093.036.14.13.14.186 0 .456-.063.81-.19.346-.127.613-.19.8-.19.06-.053.09-.137.09-.25 0-.153-.124-.23-.37-.23-.08 0-.194.027-.34.08-.154.06-.27.09-.35.09a1.35 1.35 0 0 1 .86-.32c.44 0 .66.373.66 1.12 0 .427-.38 1.097-1.14 2.01-.767.913-1.15 1.5-1.15 1.76 0 .207.093.31.28.31.433 0 1.06-.31 1.88-.93l1.74-1.43zm-3.3 2.65h-.11c-.04 0-.237.057-.59.17v.21c.466 0 .7-.127.7-.38z"/></svg>