<svg viewBox="0 0 171 16" xmlns="http://www.w3.org/2000/svg"><title>Contact Information</title><path d="M3.7 10.83H.25v-.34c.573 0 .907-.107 1-.32V1.89l-1-.08v-.37c.2 0 .597-.117 1.19-.35C2.033.863 2.45.75 2.69.75v9.42c.1.213.437.32 1.01.32v.34zm7.554-3.86h-5.14c.013.9.273 1.693.78 2.38s1.073 1.03 1.7 1.03c.933 0 1.68-.35 2.24-1.05l.39.19c-.313.513-.717.887-1.21 1.12s-1.147.35-1.96.35c-.407 0-.797-.06-1.17-.18-.373-.127-.74-.33-1.1-.61-.367-.287-.657-.707-.87-1.26s-.32-1.213-.32-1.98c0-.94.293-1.73.88-2.37.58-.64 1.387-.96 2.42-.96 1.133 0 1.977.317 2.53.95s.83 1.43.83 2.39zm-5.12-.49h3.55c-.06-.767-.223-1.353-.49-1.76-.26-.407-.713-.61-1.36-.61-.373 0-.733.22-1.08.66-.347.433-.553 1.003-.62 1.71zm9.038 4.03c.3 0 .63-.097.99-.29.353-.193.53-.48.53-.86 0-.62-.633-1.153-1.9-1.6-.313-.107-.567-.21-.76-.31a3.81 3.81 0 0 1-.65-.4c-.233-.167-.41-.373-.53-.62-.113-.247-.17-.533-.17-.86 0-.6.217-1.073.65-1.42.44-.347.97-.52 1.59-.52a2.85 2.85 0 0 1 1.11.24l.65.24c.127 0 .19-.107.19-.32h.37v1.92h-.36a1.77 1.77 0 0 0-.64-1.14c-.373-.307-.8-.46-1.28-.46-.34 0-.623.08-.85.24a.76.76 0 0 0-.35.66c0 .16.033.307.1.44s.13.24.19.32c.067.08.187.167.36.26l.4.2a7.39 7.39 0 0 0 .5.18l.49.18c.553.213 1.027.513 1.42.9.393.393.59.847.59 1.36a1.86 1.86 0 0 1-.78 1.56c-.527.387-1.19.58-1.99.58-.38 0-.753-.09-1.12-.27l-.6-.27c-.067 0-.143.04-.23.12-.087.087-.13.173-.13.26h-.38V8.57h.35c.073.547.327 1.007.76 1.38s.927.56 1.48.56zm4.96-5.54a.53.53 0 0 1 .39.16c.113.107.17.273.17.5 0 .18-.07.32-.21.42-.147.093-.317.14-.51.14-.2 0-.364-.073-.49-.22-.134-.14-.2-.333-.2-.58 0-.553.23-.987.69-1.3.46-.307 1.11-.46 1.95-.46.993 0 1.723.247 2.19.74.46.487.69 1.137.69 1.95v3.17c0 .34.056.59.17.75s.25.24.41.24a.69.69 0 0 0 .38-.11c.106-.08.16-.173.16-.28h.29c0 .3-.11.52-.33.66-.214.14-.594.21-1.14.21-.534 0-.914-.22-1.14-.66-.627.46-1.41.69-2.35.69-1.6 0-2.4-.65-2.4-1.95 0-.28.1-.53.3-.75.193-.227.476-.413.85-.56a8.36 8.36 0 0 1 1.06-.36l1.24-.31 1.06-.26c0-.9-.117-1.557-.35-1.97s-.65-.62-1.25-.62c-.96 0-1.504.253-1.63.76zm3.33 4.93c-.067-.233-.1-.52-.1-.86V7.15l-.6.18-.68.19c-.18.053-.394.133-.64.24a2.89 2.89 0 0 0-.57.32 1.52 1.52 0 0 0-.37.42c-.107.18-.16.37-.16.57 0 .513.1.87.3 1.07.193.207.486.31.88.31.706 0 1.353-.183 1.94-.55zm6.558.93h-3.45v-.34c.573 0 .906-.107 1-.32v-5.4l-1-.08v-.37c.2 0 .596-.117 1.19-.35.593-.227 1.01-.34 1.25-.34v.7c.533-.467 1.063-.7 1.59-.7.48 0 .883.09 1.21.27.32.18.48.383.48.61 0 .387-.214.58-.64.58-.22 0-.42-.153-.6-.46-.187-.307-.397-.46-.63-.46-.414 0-.884.23-1.41.69v5.31c.1.213.436.32 1.01.32v.34zm4.56-9.36h.69v2.32h1.38v.48h-1.38v5.09c0 .327.06.58.18.76.113.173.33.26.65.26.193 0 .39-.093.59-.28.193-.187.326-.443.4-.77l.39.19c-.227.98-.867 1.47-1.92 1.47-1.22 0-1.83-.587-1.83-1.76V4.27h-1.12v-.48c.506 0 .96-.207 1.36-.62.406-.42.61-.987.61-1.7zm7.088 9.36h-3.45v-.34c.573 0 .906-.107 1-.32v-5.4l-1-.08v-.37c.2 0 .596-.117 1.19-.35.593-.227 1.01-.34 1.25-.34v6.54c.1.213.436.32 1.01.32v.34zm-1.77-8.22a.83.83 0 0 1-.62-.27c-.174-.173-.26-.4-.26-.68a.95.95 0 0 1 .23-.64.75.75 0 0 1 .6-.27c.233 0 .44.09.62.27s.27.41.27.69c0 .247-.08.457-.24.63a.77.77 0 0 1-.6.27zm5.418 7.9c.3 0 .63-.097.99-.29.353-.193.53-.48.53-.86 0-.62-.634-1.153-1.9-1.6a5.67 5.67 0 0 1-.76-.31 3.81 3.81 0 0 1-.65-.4c-.234-.167-.41-.373-.53-.62a2.03 2.03 0 0 1-.17-.86c0-.6.216-1.073.65-1.42.44-.347.97-.52 1.59-.52a2.85 2.85 0 0 1 1.11.24l.65.24c.126 0 .19-.107.19-.32h.37v1.92h-.36c-.06-.447-.274-.827-.64-1.14a1.96 1.96 0 0 0-1.28-.46c-.34 0-.624.08-.85.24-.234.16-.35.38-.35.66 0 .16.033.307.1.44s.13.24.19.32c.066.08.186.167.36.26l.4.2a7.39 7.39 0 0 0 .5.18l.49.18c.553.213 1.026.513 1.42.9.393.393.59.847.59 1.36a1.86 1.86 0 0 1-.78 1.56c-.527.387-1.19.58-1.99.58-.38 0-.754-.09-1.12-.27l-.6-.27c-.067 0-.144.04-.23.12-.087.087-.13.173-.13.26h-.38V8.57h.35a2.14 2.14 0 0 0 .76 1.38c.433.373.926.56 1.48.56zm5.36-9.04h.69v2.32h1.38v.48h-1.38v5.09c0 .327.06.58.18.76.113.173.33.26.65.26.193 0 .39-.093.59-.28.193-.187.326-.443.4-.77l.39.19c-.227.98-.867 1.47-1.92 1.47-1.22 0-1.83-.587-1.83-1.76V4.27h-1.12v-.48c.506 0 .96-.207 1.36-.62.406-.42.61-.987.61-1.7zm10.353 5.5h-5.14c.014.9.274 1.693.781 2.38s1.073 1.03 1.699 1.03c.934 0 1.68-.35 2.241-1.05l.389.19c-.313.513-.716.887-1.209 1.12s-1.147.35-1.961.35c-.406 0-.796-.06-1.17-.18a3.78 3.78 0 0 1-1.099-.61c-.367-.287-.657-.707-.871-1.26s-.32-1.213-.32-1.98c0-.94.294-1.73.88-2.37.58-.64 1.387-.96 2.421-.96 1.133 0 1.976.317 2.53.95s.829 1.43.829 2.39zm-5.12-.49h3.55c-.059-.767-.223-1.353-.489-1.76-.261-.407-.714-.61-1.36-.61-.374 0-.734.22-1.081.66-.346.433-.553 1.003-.62 1.71zm9.038 4.03c.3 0 .63-.097.99-.29.354-.193.53-.48.53-.86 0-.62-.633-1.153-1.9-1.6-.313-.107-.566-.21-.76-.31a3.85 3.85 0 0 1-.65-.4c-.233-.167-.41-.373-.53-.62-.113-.247-.17-.533-.17-.86 0-.6.217-1.073.65-1.42.44-.347.97-.52 1.59-.52a2.85 2.85 0 0 1 1.11.24l.65.24c.127 0 .19-.107.19-.32h.37v1.92h-.36a1.77 1.77 0 0 0-.64-1.14c-.373-.307-.8-.46-1.28-.46-.34 0-.623.08-.85.24a.76.76 0 0 0-.35.66c0 .16.034.307.1.44s.13.24.19.32c.067.08.187.167.36.26l.4.2c.094.04.26.1.5.18l.49.18c.554.213 1.027.513 1.42.9.394.393.59.847.59 1.36a1.86 1.86 0 0 1-.78 1.56c-.526.387-1.19.58-1.99.58-.38 0-.753-.09-1.12-.27l-.6-.27c-.066 0-.143.04-.23.12-.086.087-.13.173-.13.26h-.38V8.57h.35a2.15 2.15 0 0 0 .76 1.38c.434.373.927.56 1.48.56zm7.12.32h-3.45v-.34c.574 0 .907-.107 1-.32v-5.4l-1-.08v-.37c.2 0 .597-.117 1.19-.35.594-.227 1.01-.34 1.25-.34v6.54c.1.213.437.32 1.01.32v.34zm-1.77-8.22a.83.83 0 0 1-.62-.27.92.92 0 0 1-.26-.68c0-.247.077-.46.23-.64a.75.75 0 0 1 .6-.27.85.85 0 0 1 .62.27c.18.18.27.41.27.69 0 .247-.08.457-.24.63a.77.77 0 0 1-.6.27zm6.058 8.22h-3.45v-.34c.574 0 .907-.107 1-.32v-5.4l-1-.08v-.37c.2 0 .597-.117 1.19-.35.594-.227 1.01-.34 1.25-.34v.74c.58-.493 1.217-.74 1.91-.74.994 0 1.71.183 2.15.55s.66.94.66 1.72v4.27c.1.213.437.32 1.01.32v.34h-3.45v-.34c.574 0 .907-.107 1-.32V5.79c0-1.08-.49-1.62-1.47-1.62-.673 0-1.276.237-1.81.71v5.29c.1.213.437.32 1.01.32v.34zm8.944 0h-3.45v-.34c.574 0 .907-.107 1-.32v-5.4l-1-.08v-.37c.2 0 .597-.117 1.19-.35.594-.227 1.01-.34 1.25-.34v.74c.58-.493 1.217-.74 1.91-.74.994 0 1.71.183 2.15.55s.66.94.66 1.72v4.27c.1.213.437.32 1.01.32v.34h-3.45v-.34c.574 0 .907-.107 1-.32V5.79c0-1.08-.49-1.62-1.47-1.62-.673 0-1.276.237-1.81.71v5.29c.1.213.437.32 1.01.32v.34zm8.964-2.54c-.407 0-.72-.157-.94-.47-.22-.307-.33-.683-.33-1.13 0-.707.243-1.36.73-1.96.487-.593.997-.89 1.53-.89.627 0 1.027.34 1.2 1.02l.22-.85h.85l-.94 3.57c-.013.02-.02.053-.02.1 0 .16.123.24.37.24.353 0 .667-.18.94-.54.28-.353.473-.713.58-1.08.107-.36.16-.653.16-.88 0-.7-.083-1.293-.25-1.78s-.4-.843-.7-1.07c-.307-.22-.61-.373-.91-.46-.307-.087-.657-.13-1.05-.13-1.08 0-2.023.38-2.83 1.14-.8.753-1.2 1.787-1.2 3.1 0 .847.223 1.597.67 2.25s.97 1.133 1.57 1.44c.593.307 1.19.46 1.79.46.48 0 .93-.077 1.35-.23.42-.147.753-.303 1-.47a3.59 3.59 0 0 0 .73-.68c.24-.287.39-.487.45-.6l.28-.47.25.13c-.393.893-.91 1.607-1.55 2.14s-1.51.8-2.61.8c-1.16 0-2.217-.447-3.17-1.34-.96-.887-1.44-2.007-1.44-3.36 0-1.52.46-2.73 1.38-3.63s2.007-1.35 3.26-1.35c1.047 0 1.917.343 2.61 1.03s1.04 1.67 1.04 2.95a3.12 3.12 0 0 1-.17.96c-.107.347-.267.693-.48 1.04-.207.347-.493.633-.86.86a2.27 2.27 0 0 1-1.22.34c-.193 0-.377-.063-.55-.19-.167-.127-.25-.333-.25-.62l.01-.26c-.467.58-.967.87-1.5.87zm1.87-2.87c0-.307-.07-.567-.21-.78s-.343-.32-.61-.32c-.393 0-.76.23-1.1.69a2.44 2.44 0 0 0-.51 1.5c0 .307.07.567.21.78.133.207.333.31.6.31.4 0 .77-.223 1.11-.67.34-.453.51-.957.51-1.51zm11.406-1.79v6.74c0 1.093-.263 1.977-.79 2.65s-1.297 1.01-2.31 1.01c-.907 0-1.637-.153-2.19-.46-.547-.313-.82-.64-.82-.98 0-.247.063-.44.19-.58.127-.147.293-.22.5-.22.193 0 .36.047.5.14a.48.48 0 0 1 .22.42c0 .34-.133.563-.4.67.287.287.9.43 1.84.43 1.1 0 1.703-.98 1.81-2.94-.493.32-1.123.48-1.89.48-.353 0-.703-.057-1.05-.17s-.693-.297-1.04-.55-.63-.633-.85-1.14-.33-1.103-.33-1.79c0-1.193.333-2.11 1-2.75s1.54-.96 2.62-.96c.673 0 1.26.17 1.76.51.547-.34.957-.51 1.23-.51zm-1.44 6.35v-.19-5.28c-.38-.227-.863-.34-1.45-.34s-1.1.28-1.54.84-.66 1.337-.66 2.33c0 .94.177 1.693.53 2.26s.813.85 1.38.85c.7 0 1.28-.157 1.74-.47zm6.48.85h-3.45v-.34c.573 0 .907-.107 1-.32v-5.4l-1-.08v-.37c.2 0 .597-.117 1.19-.35.593-.227 1.01-.34 1.25-.34v.72c.567-.48 1.16-.72 1.78-.72 1.28 0 2.1.31 2.46.93.6-.62 1.267-.93 2-.93 1.793 0 2.69.607 2.69 1.82v4.72c.1.213.437.32 1.01.32v.34h-3.46v-.34c.58 0 .917-.107 1.01-.32V6.05c0-.693-.1-1.18-.3-1.46-.207-.28-.553-.42-1.04-.42-.633 0-1.217.257-1.75.77.047.14.07.31.07.51v4.72c.093.213.43.32 1.01.32v.34h-3.46v-.34c.573 0 .91-.107 1.01-.32V6.05c0-.693-.103-1.18-.31-1.46-.2-.28-.547-.42-1.04-.42-.607 0-1.167.237-1.68.71v5.29c.1.213.437.32 1.01.32v.34zm11.008-5.86a.53.53 0 0 1 .39.16c.113.107.17.273.17.5 0 .18-.07.32-.21.42-.147.093-.317.14-.51.14-.2 0-.363-.073-.49-.22-.133-.14-.2-.333-.2-.58 0-.553.23-.987.69-1.3.46-.307 1.11-.46 1.95-.46.993 0 1.723.247 2.19.74.46.487.69 1.137.69 1.95v3.17c0 .34.057.59.17.75s.25.24.41.24c.14 0 .267-.037.38-.11.107-.08.16-.173.16-.28h.29c0 .3-.11.52-.33.66-.213.14-.593.21-1.14.21-.533 0-.913-.22-1.14-.66-.627.46-1.41.69-2.35.69-1.6 0-2.4-.65-2.4-1.95 0-.28.1-.53.3-.75.193-.227.477-.413.85-.56.373-.153.727-.273 1.06-.36l1.24-.31 1.06-.26c0-.9-.117-1.557-.35-1.97s-.65-.62-1.25-.62c-.96 0-1.503.253-1.63.76zm3.33 4.93c-.067-.233-.1-.52-.1-.86V7.15l-.6.18-.68.19a5.72 5.72 0 0 0-.64.24 2.89 2.89 0 0 0-.57.32c-.14.107-.263.247-.37.42-.107.18-.16.37-.16.57 0 .513.1.87.3 1.07.193.207.487.31.88.31.707 0 1.353-.183 1.94-.55zm6.558.93h-3.45v-.34c.573 0 .906-.107 1-.32v-5.4l-1-.08v-.37c.2 0 .596-.117 1.19-.35.593-.227 1.01-.34 1.25-.34v6.54c.1.213.436.32 1.01.32v.34zm-1.77-8.22a.83.83 0 0 1-.62-.27c-.174-.173-.26-.4-.26-.68a.95.95 0 0 1 .23-.64.75.75 0 0 1 .6-.27c.233 0 .44.09.62.27s.27.41.27.69c0 .247-.08.457-.24.63a.77.77 0 0 1-.6.27zm5.898 8.22h-3.45v-.34c.573 0 .906-.107 1-.32V1.89l-1-.08v-.37c.2 0 .596-.117 1.19-.35.593-.227 1.01-.34 1.25-.34v9.42c.1.213.436.32 1.01.32v.34zm1.438-.14c-.2-.193-.3-.42-.3-.68 0-.253.086-.483.26-.69a.86.86 0 0 1 .68-.31c.246 0 .473.093.68.28.2.193.3.42.3.68 0 .253-.09.487-.27.7s-.41.32-.69.32c-.247 0-.467-.1-.66-.3zm6.77-6.58a1.96 1.96 0 0 0-1.6.75c-.407.5-.61 1.177-.61 2.03 0 .907.253 1.717.76 2.43.506.707 1.08 1.06 1.72 1.06.933 0 1.68-.35 2.24-1.05l.39.19c-.314.513-.717.887-1.21 1.12s-1.147.35-1.96.35c-.407 0-.797-.06-1.17-.18-.374-.127-.74-.33-1.1-.61-.367-.287-.657-.707-.87-1.26s-.32-1.213-.32-1.98c0-.927.33-1.713.99-2.36.653-.647 1.513-.97 2.58-.97.846 0 1.496.143 1.95.43a1.4 1.4 0 0 1 .69 1.27c0 .24-.064.433-.19.58s-.294.22-.5.22c-.187 0-.354-.05-.5-.15-.147-.093-.22-.23-.22-.41 0-.227.056-.393.17-.5a.55.55 0 0 1 .39-.16c-.134-.533-.677-.8-1.63-.8zm5.474 2.75c0 1.22.233 2.133.7 2.74.46.607 1.053.91 1.78.91.573 0 1.036-.26 1.39-.78.353-.513.53-1.177.53-1.99 0-2.407-.837-3.61-2.51-3.61-.567 0-1.024.267-1.37.8-.347.54-.52 1.183-.52 1.93zm2.27 4.13c-1.194 0-2.127-.35-2.8-1.05s-1.01-1.62-1.01-2.76c0-1.033.306-1.883.92-2.55.606-.667 1.533-1 2.78-1 1.26 0 2.203.333 2.83 1 .633.667.95 1.58.95 2.74 0 1.04-.304 1.903-.91 2.59-.6.687-1.52 1.03-2.76 1.03zm8.24-.16h-3.45v-.34c.573 0 .906-.107 1-.32v-5.4l-1-.08v-.37c.2 0 .596-.117 1.19-.35.593-.227 1.01-.34 1.25-.34v.72c.566-.48 1.16-.72 1.78-.72 1.28 0 2.1.31 2.46.93.6-.62 1.266-.93 2-.93 1.793 0 2.69.607 2.69 1.82v4.72c.1.213.436.32 1.01.32v.34h-3.46v-.34c.58 0 .916-.107 1.01-.32V6.05c0-.693-.1-1.18-.3-1.46-.207-.28-.554-.42-1.04-.42-.634 0-1.217.257-1.75.77.046.14.07.31.07.51v4.72c.093.213.43.32 1.01.32v.34h-3.46v-.34c.573 0 .91-.107 1.01-.32V6.05c0-.693-.104-1.18-.31-1.46-.2-.28-.547-.42-1.04-.42-.607 0-1.167.237-1.68.71v5.29c.1.213.436.32 1.01.32v.34z"/></svg>