<svg viewBox="0 0 145 24" xmlns="http://www.w3.org/2000/svg">
  <title>Les Artistes Inn</title>
  <g>
    <path d="M 30.76 7.747 C 30.76 9.04 30.033 10.157 28.58 11.097 C 27.3 11.937 25.977 12.357 24.61 12.357 C 24.43 12.357 24.163 12.317 23.81 12.237 C 23.45 12.157 23.177 12.117 22.99 12.117 C 21.65 13.144 20.023 13.657 18.11 13.657 C 17.89 13.657 17.65 13.654 17.39 13.647 C 15.09 16.08 12.893 17.84 10.8 18.927 C 12.127 19.394 13.08 19.627 13.66 19.627 C 13.887 19.627 14.313 19.58 14.94 19.487 C 15.567 19.394 15.89 19.347 15.91 19.347 C 15.923 19.347 15.93 19.347 15.93 19.347 C 15.803 19.394 15.243 19.537 14.25 19.777 C 14.343 19.764 14.47 19.764 14.63 19.777 C 14.783 19.79 14.897 19.797 14.97 19.797 C 15.743 19.797 16.55 19.554 17.39 19.067 C 17.763 18.84 18.45 18.337 19.45 17.557 C 19.477 17.584 19.49 17.61 19.49 17.637 C 19.49 17.737 18.703 18.374 17.13 19.547 C 17.457 19.547 17.853 19.394 18.32 19.087 C 18.68 18.84 19.04 18.59 19.4 18.337 C 19.4 18.25 19.48 18.22 19.64 18.247 C 18.24 19.78 16.273 20.547 13.74 20.547 C 12.893 20.547 11.687 20.19 10.12 19.477 L 9.8 19.477 C 9.373 19.684 8.863 19.877 8.27 20.057 C 7.497 20.297 6.793 20.44 6.16 20.487 C 6.027 20.494 5.273 20.497 3.9 20.497 C 3 20.497 2.207 20.397 1.52 20.197 C 0.507 19.904 0 19.437 0 18.797 C 0 17.757 1.08 17.237 3.24 17.237 C 4.673 17.237 6.537 17.584 8.83 18.277 C 9.137 18.377 9.593 18.524 10.2 18.717 C 10.207 18.717 10.227 18.717 10.26 18.717 C 10.433 18.717 10.873 18.407 11.58 17.787 C 12.173 17.274 13.163 16.23 14.55 14.657 C 14.717 14.47 14.957 14.184 15.27 13.797 L 15.23 13.727 C 14.93 13.727 14.477 13.767 13.87 13.847 C 13.263 13.927 12.807 13.967 12.5 13.967 C 9.627 13.967 8.19 12.99 8.19 11.037 C 8.19 9.317 9.177 7.937 11.15 6.897 C 12.777 6.03 14.54 5.597 16.44 5.597 C 16.66 5.597 16.987 5.634 17.42 5.707 C 17.847 5.78 18.17 5.817 18.39 5.817 C 18.577 5.817 18.857 5.797 19.23 5.757 C 19.597 5.71 19.873 5.687 20.06 5.687 C 21.02 5.687 21.77 5.83 22.31 6.117 C 22.523 6.23 22.687 6.287 22.8 6.287 C 22.987 6.287 23.263 6.227 23.63 6.107 C 23.997 5.98 24.273 5.917 24.46 5.917 C 24.54 5.917 24.663 5.927 24.83 5.947 C 24.997 5.96 25.12 5.967 25.2 5.967 C 25.193 5.967 25.397 5.93 25.81 5.857 C 26.823 5.684 27.513 5.597 27.88 5.597 C 29.8 5.597 30.76 6.314 30.76 7.747 Z M 16.52 18.967 L 16.46 19.017 L 16.44 18.997 C 16.44 18.97 16.447 18.947 16.46 18.927 C 16.493 18.94 16.513 18.954 16.52 18.967 Z M 16.38 19.057 C 16.36 19.07 16.343 19.08 16.33 19.087 C 16.323 19.087 16.307 19.094 16.28 19.107 C 16.273 19.094 16.27 19.08 16.27 19.067 L 16.27 19.027 C 16.27 19.014 16.277 19.007 16.29 19.007 C 16.297 19.007 16.31 19.01 16.33 19.017 C 16.357 19.024 16.373 19.037 16.38 19.057 Z M 25.9 6.847 L 25.9 6.807 C 25.893 6.767 25.877 6.747 25.85 6.747 L 25.84 6.747 C 25.807 6.747 25.79 6.767 25.79 6.807 L 25.79 6.847 C 25.79 6.874 25.807 6.89 25.84 6.897 L 25.85 6.897 C 25.883 6.89 25.9 6.874 25.9 6.847 Z M 25.39 6.287 C 25.39 6.247 25.36 6.227 25.3 6.227 L 25.29 6.227 C 25.23 6.227 25.2 6.247 25.2 6.287 C 25.233 6.307 25.267 6.327 25.3 6.347 C 25.327 6.327 25.357 6.307 25.39 6.287 Z M 25.9 7.217 C 25.893 7.19 25.873 7.157 25.84 7.117 C 25.807 7.117 25.79 7.144 25.79 7.197 L 25.79 7.217 C 25.79 7.27 25.807 7.297 25.84 7.297 C 25.86 7.264 25.88 7.237 25.9 7.217 Z M 25.81 7.527 L 25.81 7.507 C 25.803 7.46 25.787 7.437 25.76 7.437 L 25.75 7.437 C 25.717 7.437 25.7 7.46 25.7 7.507 L 25.7 7.527 C 25.7 7.56 25.713 7.577 25.74 7.577 L 25.76 7.577 C 25.793 7.57 25.81 7.554 25.81 7.527 Z M 24.75 6.137 C 24.723 6.137 24.693 6.134 24.66 6.127 C 24.627 6.12 24.6 6.117 24.58 6.117 L 24.35 6.117 C 24.157 6.117 23.913 6.15 23.62 6.217 C 23.24 6.284 23.05 6.377 23.05 6.497 C 23.05 6.497 23.097 6.547 23.19 6.647 C 23.237 6.714 23.297 6.747 23.37 6.747 C 23.483 6.747 23.943 6.544 24.75 6.137 Z M 25.69 6.917 C 25.69 6.71 25.57 6.607 25.33 6.607 C 24.863 6.607 24.317 6.81 23.69 7.217 L 23.69 7.237 C 23.69 7.344 23.717 7.504 23.77 7.717 C 23.83 7.937 23.86 8.104 23.86 8.217 C 23.86 8.81 23.543 9.44 22.91 10.107 C 23.517 9.88 24.117 9.454 24.71 8.827 C 25.363 8.14 25.69 7.504 25.69 6.917 Z M 30.59 7.697 C 30.59 7.064 30.303 6.564 29.73 6.197 C 29.25 5.89 28.673 5.737 28 5.737 C 26.853 5.737 26.027 5.89 25.52 6.197 C 25.64 6.257 25.823 6.394 26.07 6.607 L 26.07 7.007 C 26.07 7.78 25.56 8.544 24.54 9.297 C 24.207 9.557 23.7 9.924 23.02 10.397 C 22.353 10.81 21.49 11.307 20.43 11.887 C 19.583 12.254 18.703 12.657 17.79 13.097 L 17.79 13.187 C 18.077 13.24 18.363 13.267 18.65 13.267 C 19.39 13.267 20.13 13.174 20.87 12.987 C 21.797 12.734 22.427 12.387 22.76 11.947 L 22.76 11.887 C 22.76 11.834 22.737 11.747 22.69 11.627 C 22.643 11.507 22.62 11.414 22.62 11.347 C 22.62 11.04 22.743 10.887 22.99 10.887 C 23.203 10.887 23.31 11.04 23.31 11.347 C 23.283 11.447 23.227 11.627 23.14 11.887 C 23.333 11.987 23.717 12.037 24.29 12.037 C 25.623 12.037 26.957 11.65 28.29 10.877 C 29.823 9.99 30.59 8.93 30.59 7.697 Z M 23.08 6.897 C 22.98 6.744 22.867 6.667 22.74 6.667 C 22.587 6.667 22.253 6.817 21.74 7.117 C 21.233 7.424 20.98 7.627 20.98 7.727 C 20.98 7.807 21.013 7.907 21.08 8.027 C 21.153 8.154 21.227 8.217 21.3 8.217 C 21.74 7.944 22.333 7.504 23.08 6.897 Z M 20.83 7.517 L 22.44 6.517 C 22.253 6.21 21.717 6.057 20.83 6.057 L 19.32 6.057 L 19.09 6.137 C 19.717 6.524 20.297 6.984 20.83 7.517 Z M 23.69 8.217 L 23.69 8.007 C 23.69 7.567 23.583 7.347 23.37 7.347 C 22.563 7.827 21.95 8.317 21.53 8.817 C 21.683 9.317 21.76 9.7 21.76 9.967 C 21.76 10.06 21.71 10.107 21.61 10.107 C 21.57 10.1 21.543 10.084 21.53 10.057 L 21.3 9.187 L 21.24 9.127 C 20.587 9.707 19.99 10.344 19.45 11.037 L 19.77 11.037 C 20.683 11.037 21.533 10.797 22.32 10.317 C 23.233 9.764 23.69 9.064 23.69 8.217 Z M 22.99 11.667 L 23.08 11.567 L 23.08 10.997 C 22.907 10.997 22.82 11.104 22.82 11.317 C 22.82 11.55 22.87 11.667 22.97 11.667 L 22.99 11.667 Z M 21.53 10.987 L 21.53 10.957 C 21.523 10.91 21.507 10.887 21.48 10.887 L 21.47 10.887 C 21.437 10.887 21.42 10.91 21.42 10.957 L 21.42 10.987 C 21.42 11.02 21.437 11.037 21.47 11.037 L 21.48 11.037 C 21.513 11.024 21.53 11.007 21.53 10.987 Z M 21.36 11.067 L 21.36 11.047 C 21.353 11 21.337 10.977 21.31 10.977 L 21.3 10.977 C 21.267 10.977 21.247 11 21.24 11.047 L 21.24 11.067 C 21.247 11.1 21.26 11.117 21.28 11.117 L 21.31 11.117 C 21.343 11.11 21.36 11.094 21.36 11.067 Z M 21.02 8.447 L 20.7 7.987 C 20.38 8.04 19.583 8.93 18.31 10.657 C 18.29 10.69 18.27 10.737 18.25 10.797 C 18.85 10.257 19.773 9.474 21.02 8.447 Z M 21.15 11.117 L 21.07 11.117 C 21.203 11.117 20.59 11.194 19.23 11.347 C 19.07 11.52 18.84 11.797 18.54 12.177 C 19.387 11.95 20.257 11.597 21.15 11.117 Z M 20.55 7.747 C 20.437 7.494 20.113 7.174 19.58 6.787 C 19.047 6.394 18.65 6.197 18.39 6.197 C 18.17 6.197 17.74 6.334 17.1 6.607 C 15.2 7.394 14.25 8.574 14.25 10.147 C 14.25 10.634 14.423 11.157 14.77 11.717 C 15.15 12.35 15.563 12.667 16.01 12.667 C 16.083 12.667 16.573 12.024 17.48 10.737 C 17.113 10.317 16.93 9.957 16.93 9.657 C 16.93 9.19 17.083 8.957 17.39 8.957 C 17.237 9.21 17.16 9.45 17.16 9.677 C 17.16 10.23 17.313 10.507 17.62 10.507 C 18.727 9.247 19.703 8.327 20.55 7.747 Z M 19.23 12.367 L 19.23 12.337 C 19.223 12.29 19.203 12.267 19.17 12.267 L 19.16 12.267 C 19.133 12.267 19.117 12.29 19.11 12.337 L 19.11 12.367 C 19.117 12.4 19.133 12.417 19.16 12.417 L 19.19 12.417 C 19.21 12.404 19.223 12.387 19.23 12.367 Z M 19.05 12.447 L 19.05 12.427 C 19.05 12.38 19.033 12.357 19 12.357 L 18.99 12.357 C 18.963 12.357 18.947 12.38 18.94 12.427 L 18.94 12.447 C 18.947 12.48 18.963 12.497 18.99 12.497 L 19 12.497 C 19.033 12.49 19.05 12.474 19.05 12.447 Z M 18.83 12.507 L 18.83 12.487 C 18.823 12.44 18.803 12.417 18.77 12.417 L 18.76 12.417 C 18.733 12.417 18.717 12.44 18.71 12.487 L 18.71 12.507 C 18.717 12.56 18.733 12.587 18.76 12.587 L 18.77 12.587 C 18.803 12.587 18.823 12.56 18.83 12.507 Z M 18.68 12.597 L 18.68 12.557 C 18.673 12.517 18.66 12.497 18.64 12.497 L 18.62 12.497 C 18.587 12.497 18.567 12.517 18.56 12.557 L 18.56 12.597 C 18.567 12.624 18.583 12.64 18.61 12.647 L 18.64 12.647 C 18.667 12.64 18.68 12.624 18.68 12.597 Z M 18.43 12.697 L 18.48 12.647 C 18.46 12.62 18.443 12.607 18.43 12.607 L 18.39 12.647 C 18.397 12.667 18.41 12.684 18.43 12.697 Z M 18.2 12.777 L 18.25 12.727 C 18.25 12.687 18.233 12.667 18.2 12.667 C 18.18 12.674 18.167 12.69 18.16 12.717 L 18.16 12.727 C 18.167 12.754 18.18 12.77 18.2 12.777 Z M 17.71 5.967 C 17.283 5.867 16.793 5.817 16.24 5.817 C 14.84 5.817 13.527 6.194 12.3 6.947 C 10.887 7.807 10.18 8.887 10.18 10.187 C 10.18 11.88 11.53 12.727 14.23 12.727 L 15.32 12.727 C 14.493 11.94 14.08 11.087 14.08 10.167 C 14.08 9.14 14.447 8.28 15.18 7.587 C 15.593 7.2 16.407 6.69 17.62 6.057 C 17.647 6.044 17.677 6.014 17.71 5.967 Z M 15.49 13.497 L 15.27 13.497 C 15.083 13.497 14.803 13.514 14.43 13.547 C 14.063 13.574 13.783 13.587 13.59 13.587 C 12.557 13.587 11.67 13.384 10.93 12.977 C 10.023 12.47 9.57 11.737 9.57 10.777 C 9.57 9.164 10.593 7.744 12.64 6.517 L 12.56 6.517 C 9.8 7.837 8.42 9.4 8.42 11.207 C 8.42 12.947 9.79 13.817 12.53 13.817 C 13.37 13.817 14.357 13.71 15.49 13.497 Z M 7.28 18.447 C 7.267 18.427 7.23 18.417 7.17 18.417 L 7.14 18.417 C 7.1 18.417 7.063 18.43 7.03 18.457 C 7.03 18.51 7.07 18.544 7.15 18.557 C 7.237 18.557 7.28 18.52 7.28 18.447 Z M 6.92 18.387 C 6.893 18.374 6.863 18.364 6.83 18.357 L 6.61 18.357 C 6.53 18.357 6.44 18.37 6.34 18.397 C 6.38 18.43 6.453 18.447 6.56 18.447 L 6.65 18.447 C 6.777 18.447 6.857 18.43 6.89 18.397 C 6.91 18.397 6.92 18.394 6.92 18.387 Z M 6.22 18.307 C 6.213 18.287 6.19 18.277 6.15 18.277 L 6.1 18.277 C 6.06 18.284 6.04 18.294 6.04 18.307 C 6.053 18.34 6.08 18.357 6.12 18.357 C 6.187 18.35 6.22 18.334 6.22 18.307 Z M 7.67 19.777 C 7.657 19.757 7.633 19.744 7.6 19.737 L 7.58 19.737 C 7.547 19.744 7.52 19.757 7.5 19.777 C 7.527 19.797 7.557 19.814 7.59 19.827 C 7.623 19.814 7.65 19.797 7.67 19.777 Z M 9.2 19.247 C 8.993 19.054 8.42 18.884 7.48 18.737 C 6.7 18.624 6.063 18.567 5.57 18.567 C 4.923 18.567 4.6 18.824 4.6 19.337 L 4.6 19.517 C 4.6 19.65 5.04 19.717 5.92 19.717 L 6.66 19.717 C 7.907 19.717 8.753 19.56 9.2 19.247 Z M 7.36 19.857 L 4.96 19.857 C 5.087 20.01 5.397 20.087 5.89 20.087 L 6.29 20.087 C 6.417 20.087 6.773 20.01 7.36 19.857 Z M 4.22 19.477 L 4.45 18.797 L 4.37 18.797 C 4.097 18.797 3.96 18.92 3.96 19.167 C 3.96 19.3 4.047 19.404 4.22 19.477 Z M 5.75 18.097 L 7.44 18.097 C 6.327 17.644 4.92 17.417 3.22 17.417 C 1.26 17.417 0.28 17.837 0.28 18.677 C 0.28 19.27 0.753 19.704 1.7 19.977 C 2.353 20.17 3.1 20.267 3.94 20.267 C 4.047 20.267 4.21 20.26 4.43 20.247 C 4.65 20.234 4.813 20.227 4.92 20.227 C 4.793 20.194 4.577 20.034 4.27 19.747 C 3.97 19.467 3.82 19.274 3.82 19.167 C 3.82 19.02 3.897 18.897 4.05 18.797 C 4.743 18.33 5.31 18.097 5.75 18.097 Z M 25.62 18.307 L 25.7 18.307 C 24.753 19.26 24.083 19.884 23.69 20.177 C 22.816 20.83 21.983 21.157 21.19 21.157 C 20.796 21.157 20.41 21.047 20.03 20.827 C 19.516 20.534 19.26 20.26 19.26 20.007 C 19.26 19.134 19.286 18.597 19.34 18.397 C 19.44 18.217 19.556 18.004 19.69 17.757 C 19.73 17.677 19.79 17.55 19.87 17.377 C 20.21 16.697 20.813 16.084 21.68 15.537 C 22.546 14.984 23.36 14.707 24.12 14.707 C 24.466 14.707 24.64 14.707 24.64 14.707 C 24.846 14.727 25.016 14.857 25.15 15.097 C 25.263 15.304 25.32 15.52 25.32 15.747 C 25.32 16.634 24.76 17.387 23.64 18.007 C 23.073 18.32 22.12 18.677 20.78 19.077 C 20.686 19.33 20.64 19.58 20.64 19.827 C 20.64 20.247 20.906 20.457 21.44 20.457 C 22.166 20.457 22.92 20.22 23.7 19.747 C 24.013 19.554 24.653 19.074 25.62 18.307 Z M 24.73 15.317 C 24.73 15.164 24.64 15.01 24.46 14.857 L 24.09 14.857 C 23.723 14.857 23.293 15.014 22.8 15.327 C 22.26 15.674 21.99 16.014 21.99 16.347 C 22.103 16.327 22.16 16.317 22.16 16.317 C 23 15.944 23.826 15.717 24.64 15.637 C 24.7 15.57 24.73 15.464 24.73 15.317 Z M 24.35 16.297 C 24.35 16.257 24.346 16.207 24.34 16.147 C 24.326 16.08 24.32 16.034 24.32 16.007 C 24.26 15.947 24.143 15.917 23.97 15.917 C 23.736 15.917 23.546 15.967 23.4 16.067 C 22.5 16.654 21.783 17.4 21.25 18.307 L 21.25 18.507 C 21.723 18.507 22.346 18.254 23.12 17.747 C 23.94 17.214 24.35 16.73 24.35 16.297 Z M 23.08 20.457 L 23.08 20.287 C 22.86 20.287 22.553 20.36 22.16 20.507 C 21.566 20.72 21.263 20.83 21.25 20.837 L 21.25 21.007 C 21.743 21.007 22.353 20.824 23.08 20.457 Z M 32.306 18.337 L 32.366 18.337 C 32.366 18.43 32.32 18.477 32.226 18.477 L 32.196 18.507 L 32.156 18.507 L 32.136 18.477 C 32.176 18.444 32.233 18.397 32.306 18.337 Z M 29.546 15.807 C 29.533 15.834 29.513 15.85 29.486 15.857 C 29.473 15.85 29.466 15.834 29.466 15.807 L 29.466 15.797 C 29.473 15.764 29.48 15.747 29.486 15.747 L 29.496 15.747 C 29.53 15.754 29.546 15.774 29.546 15.807 Z M 31.906 18.647 L 31.986 18.647 C 31.486 19.227 30.693 19.744 29.606 20.197 C 28.56 20.637 27.64 20.857 26.846 20.857 C 25.68 20.857 25.096 20.397 25.096 19.477 C 25.096 19.084 25.243 18.694 25.536 18.307 C 25.83 17.927 26.17 17.737 26.556 17.737 C 26.616 17.737 26.696 17.744 26.796 17.757 C 26.896 17.777 26.97 17.787 27.016 17.787 L 27.016 18.077 C 27.016 18.33 26.81 18.63 26.396 18.977 C 25.983 19.33 25.776 19.654 25.776 19.947 C 25.776 20.4 25.973 20.627 26.366 20.627 C 27.273 20.627 28.05 20.11 28.696 19.077 C 28.803 18.897 29.213 17.987 29.926 16.347 L 29.926 16.127 L 29.776 16.127 C 29.136 16.614 28.313 17.167 27.306 17.787 L 27.256 17.637 C 27.416 17.49 27.663 17.264 27.996 16.957 C 27.99 17.07 28.046 17.127 28.166 17.127 C 28.32 17.127 28.653 16.924 29.166 16.517 C 29.673 16.11 29.926 15.844 29.926 15.717 C 29.926 15.617 29.876 15.57 29.776 15.577 C 29.843 15.537 30.19 15.28 30.816 14.807 C 31.356 14.4 31.683 14.197 31.796 14.197 C 31.923 14.197 31.986 14.244 31.986 14.337 C 31.986 14.61 31.803 14.867 31.436 15.107 C 30.936 15.454 30.66 15.657 30.606 15.717 C 30.606 15.93 30.6 16.274 30.586 16.747 C 30.546 17.56 30.486 18.114 30.406 18.407 C 30.28 18.827 29.993 19.31 29.546 19.857 L 29.546 20.007 C 29.826 20 30.613 19.547 31.906 18.647 Z"/>
    <path d="M 67.41 5.647 C 67.41 6.56 66.807 7.484 65.6 8.417 C 64.64 9.17 63.607 9.734 62.5 10.107 C 62.16 10.22 61.654 10.394 60.98 10.627 L 57.61 14.917 C 56.657 16.13 55.9 17.497 55.34 19.017 L 55.34 19.197 L 55.4 19.197 C 55.434 19.197 55.57 19.167 55.81 19.107 C 56.744 18.86 57.604 18.39 58.39 17.697 L 58.48 17.697 C 58.474 18.024 57.91 18.514 56.79 19.167 C 55.564 19.874 54.86 20.39 54.68 20.717 L 53.33 20.717 C 53.27 20.544 53.087 20.457 52.78 20.457 L 51 20.457 C 50.84 20.457 50.76 20.364 50.76 20.177 C 50.76 20.064 50.794 20.007 50.86 20.007 L 52.5 20.007 L 53.1 19.627 L 53.1 19.607 C 53.1 19.547 52.86 19.447 52.38 19.307 C 51.847 19.154 51.11 18.794 50.17 18.227 C 47.137 20.574 43.954 21.747 40.62 21.747 C 40.44 21.747 40.17 21.74 39.81 21.727 C 39.45 21.714 39.184 21.707 39.01 21.707 C 39.01 23.407 39.107 24.147 38.86 22.787 L 38.67 21.667 L 38.58 21.607 C 37.207 21.36 36.11 20.787 35.29 19.887 C 34.43 18.94 34 17.78 34 16.407 L 34 15.517 C 34 15.37 34.08 15.06 34.24 14.587 C 34.734 13.034 35.77 11.75 37.35 10.737 C 39.024 9.664 40.927 9.127 43.06 9.127 C 44.687 9.127 46.307 9.57 47.92 10.457 L 48.01 10.457 C 48.064 10.397 48.124 10.307 48.19 10.187 C 48.39 9.814 48.654 9.49 48.98 9.217 C 49.147 9.084 49.36 8.96 49.62 8.847 C 49.674 8.834 49.757 8.807 49.87 8.767 L 49.87 8.727 C 49.87 8.554 49.814 8.304 49.7 7.977 C 49.587 7.644 49.53 7.39 49.53 7.217 C 49.53 6.21 49.867 5.427 50.54 4.867 C 51.167 4.34 51.99 4.077 53.01 4.077 C 53.704 4.077 54.324 4.214 54.87 4.487 C 55.55 4.84 55.89 5.327 55.89 5.947 L 55.81 5.947 C 55.484 4.914 54.59 4.397 53.13 4.397 C 52.197 4.397 51.44 4.637 50.86 5.117 C 50.24 5.637 49.93 6.35 49.93 7.257 C 49.93 7.97 50.067 8.454 50.34 8.707 C 51.207 8.8 52.047 9.267 52.86 10.107 C 52.96 10.227 53.117 10.4 53.33 10.627 C 53.59 10.874 54.337 10.997 55.57 10.997 C 55.897 10.597 56.664 9.81 57.87 8.637 C 60.79 5.81 63.387 4.397 65.66 4.397 L 66.38 4.397 C 66.714 4.397 66.974 4.53 67.16 4.797 C 67.327 5.03 67.41 5.314 67.41 5.647 Z M 67.18 5.647 C 67.18 4.927 66.694 4.567 65.72 4.567 C 65.074 4.567 64.444 4.664 63.83 4.857 C 63.084 5.09 62.567 5.424 62.28 5.857 C 62.207 5.97 62.087 6.134 61.92 6.347 C 62.14 6.26 62.644 5.947 63.43 5.407 C 63.97 5.034 64.54 4.847 65.14 4.847 C 65.16 4.847 65.19 4.854 65.23 4.867 C 65.27 4.874 65.297 4.877 65.31 4.877 L 65.46 5.057 C 64.347 5.057 63.704 5.227 63.53 5.567 L 63.68 5.567 C 63.154 5.747 62.507 6.394 61.74 7.507 C 61.227 8.334 60.714 9.164 60.2 9.997 C 60.127 10.117 60.02 10.3 59.88 10.547 L 60.11 10.547 C 61.63 8.88 63.547 7.107 65.86 5.227 L 65.86 5.137 C 65.86 5.03 65.817 4.98 65.73 4.987 L 66.38 4.877 C 65.734 5.45 64.727 6.477 63.36 7.957 C 62.927 8.43 62.284 9.147 61.43 10.107 L 61.52 10.107 C 61.847 10.107 62.55 9.794 63.63 9.167 C 64.49 8.68 65.177 8.25 65.69 7.877 C 66.684 7.15 67.18 6.407 67.18 5.647 Z M 61.75 6.627 C 61.637 6.807 61.454 7.06 61.2 7.387 C 61.34 7.234 61.524 6.98 61.75 6.627 Z M 61.38 6.347 C 60.634 6.787 59.774 7.594 58.8 8.767 C 59 8.6 59.304 8.364 59.71 8.057 C 59.07 8.69 58.124 9.67 56.87 10.997 L 57.27 10.997 C 57.65 10.997 57.92 10.904 58.08 10.717 C 58.547 10.064 59.26 9.094 60.22 7.807 L 60.11 7.807 C 60.07 7.807 60.03 7.817 59.99 7.837 C 60.584 7.337 61.047 6.84 61.38 6.347 Z M 59.81 10.957 C 59.804 10.884 59.797 10.847 59.79 10.847 C 59.69 10.847 59.64 10.917 59.64 11.057 C 59.64 11.077 59.644 11.087 59.65 11.087 C 59.757 11.087 59.81 11.044 59.81 10.957 Z M 55.49 15.517 L 57.72 11.227 L 56.72 11.227 L 54.62 13.757 C 54.654 14.29 54.73 14.714 54.85 15.027 C 54.904 15.154 55.117 15.317 55.49 15.517 Z M 55.34 11.227 C 55.154 11.227 54.87 11.19 54.49 11.117 C 54.117 11.037 53.834 10.997 53.64 10.997 L 53.56 10.997 L 53.47 11.087 C 53.424 11 53.347 10.934 53.24 10.887 L 53.18 10.887 C 53.26 11.08 53.387 11.264 53.56 11.437 L 53.56 11.087 L 54.22 12.557 C 54.247 12.55 54.38 12.424 54.62 12.177 C 54.68 12.017 54.92 11.7 55.34 11.227 Z M 53.71 11.537 L 53.71 11.507 C 53.697 11.46 53.68 11.437 53.66 11.437 L 53.63 11.437 C 53.61 11.437 53.594 11.46 53.58 11.507 L 53.58 11.537 C 53.594 11.584 53.61 11.607 53.63 11.607 L 53.66 11.607 C 53.68 11.607 53.697 11.584 53.71 11.537 Z M 53.01 10.547 L 53.01 10.457 C 52.31 9.61 51.584 9.187 50.83 9.187 C 50.804 9.2 50.767 9.21 50.72 9.217 C 50.86 9.41 51.227 9.677 51.82 10.017 C 52.407 10.364 52.804 10.54 53.01 10.547 Z M 50.4 9.537 C 50.327 9.304 50.227 9.187 50.1 9.187 C 49.567 9.187 49.177 9.407 48.93 9.847 C 49.39 9.64 49.88 9.537 50.4 9.537 Z M 53.73 14.627 L 54.28 14.917 L 54.28 14.077 L 53.73 14.627 Z M 52.73 14.307 L 53.94 12.867 C 53.92 12.787 53.87 12.674 53.79 12.527 C 53.457 11.974 53.254 11.64 53.18 11.527 C 52.927 11.18 52.644 10.91 52.33 10.717 C 51.857 10.43 51.327 10.287 50.74 10.287 C 50.3 10.287 49.897 10.37 49.53 10.537 C 49.07 10.73 48.794 11.01 48.7 11.377 C 49.007 11.984 49.16 12.54 49.16 13.047 C 49.16 13.16 49.147 13.33 49.12 13.557 C 49.094 13.79 49.08 13.964 49.08 14.077 C 49.267 14.09 49.854 14.137 50.84 14.217 C 51.56 14.277 52.15 14.307 52.61 14.307 L 52.73 14.307 Z M 54.68 17.357 L 55.34 15.827 L 55.34 15.747 C 55.3 15.667 55.147 15.59 54.88 15.517 L 54.88 15.497 L 54.87 15.547 L 54.83 15.767 C 54.81 15.94 54.77 16.287 54.71 16.807 C 54.69 16.967 54.68 17.08 54.68 17.147 L 54.68 17.357 Z M 54.48 16.477 L 54.48 16.437 C 54.48 16.397 54.464 16.357 54.43 16.317 C 54.41 16.337 54.397 16.377 54.39 16.437 L 54.39 16.487 C 54.39 16.58 54.404 16.637 54.43 16.657 C 54.464 16.584 54.48 16.524 54.48 16.477 Z M 54.37 17.027 L 54.37 16.807 C 54.37 16.9 54.327 17.064 54.24 17.297 C 54.16 17.53 54.124 17.694 54.13 17.787 L 54.11 17.847 L 54.13 17.957 C 54.29 17.897 54.37 17.587 54.37 17.027 Z M 55.81 19.477 L 55.72 19.477 C 55.314 19.477 55.08 19.624 55.02 19.917 L 55.05 19.917 C 55.357 19.917 55.61 19.77 55.81 19.477 Z M 48.93 13.047 L 48.93 12.757 C 48.93 12.03 48.777 11.667 48.47 11.667 C 48.244 12.147 48.13 12.977 48.13 14.157 C 48.504 14.157 48.744 14.06 48.85 13.867 C 48.904 13.747 48.93 13.474 48.93 13.047 Z M 54.28 15.897 L 54.28 15.347 C 53.994 15.147 53.724 15.047 53.47 15.047 C 53.45 15.047 52.504 16 50.63 17.907 L 50.63 17.957 C 51.304 18.504 52.25 18.857 53.47 19.017 C 54.01 17.85 54.28 16.81 54.28 15.897 Z M 49.93 17.357 L 52.33 14.827 C 51.944 14.594 51.187 14.477 50.06 14.477 L 49.45 14.477 C 49.177 14.477 49.02 14.49 48.98 14.517 C 48.68 14.677 48.53 14.98 48.53 15.427 C 48.53 15.674 48.71 16.057 49.07 16.577 C 49.437 17.097 49.724 17.357 49.93 17.357 Z M 53.1 19.247 C 53.08 19.234 53.064 19.227 53.05 19.227 L 53.01 19.247 C 53.024 19.287 53.044 19.317 53.07 19.337 C 53.09 19.317 53.1 19.287 53.1 19.247 Z M 48.36 14.997 L 48.62 14.517 L 48.21 14.517 L 48.24 14.557 C 48.24 14.61 48.25 14.684 48.27 14.777 C 48.29 14.877 48.3 14.95 48.3 14.997 L 48.36 14.997 Z M 52.73 19.197 C 52.73 19.157 52.71 19.137 52.67 19.137 C 52.65 19.144 52.64 19.16 52.64 19.187 L 52.64 19.217 C 52.64 19.23 52.647 19.237 52.66 19.237 C 52.687 19.23 52.71 19.217 52.73 19.197 Z M 52.41 19.117 C 52.397 19.09 52.377 19.077 52.35 19.077 L 52.33 19.117 L 52.38 19.167 C 52.4 19.147 52.41 19.13 52.41 19.117 Z M 52.12 19.067 L 52.12 19.027 C 52.114 18.987 52.097 18.967 52.07 18.967 L 52.06 18.967 C 52.027 18.967 52.01 18.987 52.01 19.027 L 52.01 19.067 C 52.017 19.094 52.034 19.11 52.06 19.117 L 52.07 19.117 C 52.104 19.11 52.12 19.094 52.12 19.067 Z M 51.87 18.907 C 51.85 18.894 51.83 18.887 51.81 18.887 L 51.79 18.887 C 51.757 18.887 51.74 18.894 51.74 18.907 C 51.767 18.947 51.787 18.977 51.8 18.997 C 51.827 18.977 51.85 18.947 51.87 18.907 Z M 51.66 18.857 L 51.66 18.837 C 51.66 18.784 51.644 18.757 51.61 18.757 L 51.59 18.757 C 51.564 18.757 51.55 18.784 51.55 18.837 L 51.55 18.867 C 51.55 18.934 51.57 18.967 51.61 18.967 C 51.644 18.94 51.66 18.904 51.66 18.857 Z M 51.44 18.797 L 51.44 18.777 C 51.427 18.737 51.404 18.717 51.37 18.717 L 51.36 18.717 C 51.34 18.717 51.324 18.737 51.31 18.777 L 51.31 18.797 C 51.324 18.83 51.34 18.847 51.36 18.847 L 51.39 18.847 C 51.41 18.847 51.427 18.83 51.44 18.797 Z M 51.29 18.717 L 51.29 18.687 C 51.284 18.647 51.267 18.627 51.24 18.627 L 51.23 18.627 C 51.197 18.627 51.18 18.647 51.18 18.687 L 51.17 18.717 C 51.177 18.744 51.194 18.757 51.22 18.757 L 51.24 18.757 C 51.274 18.75 51.29 18.737 51.29 18.717 Z M 47.92 15.517 L 47.52 14.557 L 47.47 14.557 C 47.004 14.557 46.714 14.647 46.6 14.827 C 46.56 15.614 46.36 16.274 46 16.807 L 46.09 16.807 C 46.577 16.547 46.904 16.36 47.07 16.247 C 47.33 16.067 47.614 15.824 47.92 15.517 Z M 46.26 14.857 C 45.674 14.857 44.88 15.057 43.88 15.457 C 42.854 15.85 42.14 16.25 41.74 16.657 C 41.8 16.65 41.854 16.647 41.9 16.647 C 42.327 16.647 42.594 16.997 42.7 17.697 C 42.727 17.724 42.804 17.737 42.93 17.737 C 43.89 17.737 44.67 17.5 45.27 17.027 C 45.93 16.514 46.26 15.79 46.26 14.857 Z M 46.17 14.277 C 46.17 13.637 45.834 13.14 45.16 12.787 C 44.634 12.514 44.01 12.377 43.29 12.377 C 42.444 12.377 41.63 12.61 40.85 13.077 C 40.07 13.544 39.497 14.157 39.13 14.917 C 38.824 15.544 38.67 16.04 38.67 16.407 C 39.15 16.96 39.707 17.334 40.34 17.527 C 40.92 16.887 41.857 16.217 43.15 15.517 C 43.264 15.457 43.82 15.244 44.82 14.877 C 45.72 14.55 46.17 14.35 46.17 14.277 Z M 49.53 17.637 C 49.244 17.217 48.784 16.65 48.15 15.937 L 48.07 15.937 C 47.497 16.484 46.837 16.957 46.09 17.357 C 44.737 18.064 43.607 18.417 42.7 18.417 C 42.527 18.417 42.274 18.374 41.94 18.287 C 41.614 18.207 41.364 18.167 41.19 18.167 C 41.15 18.18 41.124 18.2 41.11 18.227 C 41.11 18.84 41.494 19.357 42.26 19.777 C 42.894 20.117 43.557 20.287 44.25 20.287 C 45.364 20.287 46.694 19.794 48.24 18.807 C 48.4 18.7 48.63 18.544 48.93 18.337 C 49.33 17.99 49.53 17.757 49.53 17.637 Z M 47.75 10.997 L 47.75 10.887 C 46.644 10.194 45.12 9.847 43.18 9.847 C 40.914 9.847 38.917 10.377 37.19 11.437 C 35.164 12.684 34.15 14.367 34.15 16.487 C 34.15 18.454 35.127 19.904 37.08 20.837 C 37.68 21.124 38.16 21.267 38.52 21.267 C 38.64 21.267 38.767 20.994 38.9 20.447 C 39.014 19.974 39.07 19.624 39.07 19.397 C 39.07 19.297 38.99 19.134 38.83 18.907 C 38.624 18.614 38.514 18.45 38.5 18.417 C 38.227 17.89 38.09 17.24 38.09 16.467 C 38.09 15.114 38.574 13.96 39.54 13.007 C 40.507 12.047 41.664 11.567 43.01 11.567 C 45.024 11.567 46.22 12.48 46.6 14.307 L 46.77 14.307 C 46.837 14.307 46.937 14.297 47.07 14.277 C 47.197 14.264 47.29 14.257 47.35 14.257 C 47.35 13.03 47.35 12.454 47.35 12.527 C 47.37 12.18 47.504 11.67 47.75 10.997 Z M 41.63 16.757 L 41.62 16.737 C 41.62 16.684 41.604 16.657 41.57 16.657 L 41.56 16.657 C 41.534 16.657 41.517 16.684 41.51 16.737 L 41.51 16.757 C 41.517 16.79 41.534 16.807 41.56 16.807 L 41.58 16.807 C 41.607 16.8 41.624 16.784 41.63 16.757 Z M 41.17 17.697 L 41.43 17.697 L 41.43 17.447 C 41.257 17.447 41.17 17.53 41.17 17.697 Z M 40.96 17.637 L 41.34 16.897 C 41.107 17.084 40.867 17.33 40.62 17.637 L 40.96 17.637 Z M 44.56 20.837 L 44.56 20.797 C 44.56 20.764 44.537 20.747 44.49 20.747 L 44.47 20.747 C 44.417 20.747 44.39 20.76 44.39 20.787 C 44.397 20.8 44.407 20.817 44.42 20.837 L 44.48 20.857 C 44.514 20.857 44.54 20.85 44.56 20.837 Z M 43.87 20.547 L 44.01 20.457 C 43.377 20.424 42.8 20.27 42.28 19.997 C 41.76 19.724 41.37 19.297 41.11 18.717 C 41.01 18.497 40.96 18.314 40.96 18.167 C 40.907 18.027 40.7 17.957 40.34 17.957 C 39.78 18.517 39.5 18.89 39.5 19.077 C 39.5 19.297 39.89 19.604 40.67 19.997 C 41.41 20.364 41.924 20.547 42.21 20.547 C 42.357 20.547 42.577 20.55 42.87 20.557 C 43.164 20.57 43.384 20.577 43.53 20.577 C 43.57 20.577 43.627 20.57 43.7 20.557 C 43.78 20.55 43.837 20.547 43.87 20.547 Z M 40.02 17.907 C 39.694 17.647 39.244 17.28 38.67 16.807 L 38.67 17.207 C 38.67 17.46 38.734 17.78 38.86 18.167 C 39.007 18.62 39.17 18.847 39.35 18.847 C 39.484 18.627 39.707 18.314 40.02 17.907 Z M 44.25 20.897 C 44.07 20.897 43.877 20.897 43.67 20.897 C 41.857 20.897 40.417 20.447 39.35 19.547 L 39.3 19.547 C 39.227 19.547 39.154 19.76 39.08 20.187 C 39.014 20.554 38.98 20.827 38.98 21.007 L 38.98 21.347 C 39.214 21.407 39.49 21.437 39.81 21.437 L 40.8 21.437 C 42.307 21.437 43.457 21.257 44.25 20.897 Z M 65.11 5.117 C 65.11 5.157 65.064 5.184 64.97 5.197 C 64.89 5.197 64.85 5.17 64.85 5.117 C 64.85 5.09 64.887 5.077 64.96 5.077 L 65.01 5.077 C 65.044 5.077 65.077 5.09 65.11 5.117 Z M 64.55 5.227 L 64.72 5.227 C 64.687 5.234 64.647 5.244 64.6 5.257 C 64.554 5.277 64.487 5.304 64.4 5.337 C 64.367 5.337 64.337 5.327 64.31 5.307 C 64.344 5.307 64.387 5.294 64.44 5.267 C 64.494 5.24 64.53 5.227 64.55 5.227 Z M 64.14 5.407 L 64.14 5.427 C 64.134 5.454 64.124 5.47 64.11 5.477 L 64.06 5.417 C 64.06 5.377 64.067 5.35 64.08 5.337 C 64.12 5.337 64.14 5.36 64.14 5.407 Z M 63.91 5.507 L 63.91 5.527 C 63.904 5.547 63.897 5.557 63.89 5.557 C 63.864 5.544 63.844 5.53 63.83 5.517 C 63.837 5.477 63.844 5.457 63.85 5.457 L 63.86 5.457 C 63.894 5.464 63.91 5.48 63.91 5.507 Z M 59.99 7.837 C 59.904 7.904 59.81 7.977 59.71 8.057 C 59.81 7.944 59.904 7.87 59.99 7.837 Z M 63.318 18.307 L 63.397 18.307 C 63.371 18.34 63.294 18.414 63.168 18.527 C 61.474 20.027 60.238 20.777 59.457 20.777 C 58.877 20.777 58.587 20.547 58.587 20.087 C 58.587 19.634 58.824 19.11 59.297 18.517 C 59.704 18.07 60.111 17.627 60.517 17.187 C 60.717 16.96 61.027 16.624 61.447 16.177 L 61.447 16.037 L 60.007 16.037 L 57.738 18.097 L 57.648 18.097 L 59.777 15.937 L 59.777 15.897 C 59.777 15.83 59.747 15.75 59.687 15.657 C 59.627 15.564 59.597 15.487 59.597 15.427 C 59.597 15.174 59.744 14.947 60.037 14.747 C 60.297 14.567 60.564 14.477 60.837 14.477 C 61.091 14.477 61.217 14.567 61.217 14.747 L 60.747 15.197 L 60.747 15.277 C 60.747 15.437 60.904 15.517 61.217 15.517 C 61.331 15.517 61.497 15.487 61.717 15.427 C 61.937 15.374 62.104 15.347 62.217 15.347 C 62.304 15.347 62.427 15.437 62.587 15.617 C 62.747 15.804 62.827 15.944 62.827 16.037 C 62.681 16.317 62.204 16.937 61.398 17.897 C 60.711 18.717 60.341 19.324 60.287 19.717 C 60.267 19.85 60.257 19.974 60.257 20.087 C 60.317 20.087 60.401 20.104 60.507 20.137 C 60.614 20.164 60.694 20.177 60.747 20.177 C 61.001 20.177 61.857 19.554 63.318 18.307 Z M 61.937 15.687 L 61.937 15.577 C 61.551 15.577 61.184 15.604 60.837 15.657 L 60.837 15.807 L 61.808 15.807 C 61.894 15.807 61.937 15.767 61.937 15.687 Z M 70.904 11.607 C 70.324 12.2 69.574 13.04 68.654 14.127 C 68.408 14.394 68.064 14.8 67.624 15.347 C 67.618 15.367 67.598 15.407 67.564 15.467 L 67.514 15.547 C 67.514 15.56 67.504 15.57 67.484 15.577 C 67.478 15.584 67.474 15.584 67.474 15.577 C 67.474 15.59 67.474 15.607 67.474 15.627 C 67.474 15.66 67.488 15.69 67.514 15.717 L 69.234 15.717 L 69.464 15.807 L 69.384 15.917 L 67.244 15.917 C 67.151 15.917 66.691 16.54 65.864 17.787 C 65.251 18.714 64.944 19.48 64.944 20.087 C 64.944 20.147 65.071 20.177 65.324 20.177 C 65.831 20.177 66.798 19.564 68.224 18.337 L 68.314 18.337 C 66.681 19.964 65.328 20.777 64.254 20.777 C 63.721 20.777 63.454 20.547 63.454 20.087 C 63.454 19.767 63.811 18.97 64.524 17.697 C 64.538 17.664 64.564 17.617 64.604 17.557 C 64.604 17.45 64.584 17.38 64.544 17.347 L 64.574 17.337 L 64.534 17.347 C 64.514 17.34 64.498 17.337 64.484 17.337 L 65.694 16.127 L 65.694 15.937 L 64.484 15.937 C 64.444 15.864 64.364 15.82 64.244 15.807 C 64.344 15.814 64.454 15.817 64.574 15.817 C 65.028 15.817 65.508 15.784 66.014 15.717 C 66.108 15.644 66.721 14.96 67.854 13.667 C 68.228 13.247 68.658 12.81 69.144 12.357 C 69.764 11.777 70.301 11.487 70.754 11.487 C 70.854 11.487 70.904 11.527 70.904 11.607 Z M 64.534 17.347 L 64.544 17.347 C 64.458 17.394 64.334 17.5 64.174 17.667 L 64.434 17.377 C 64.461 17.364 64.494 17.354 64.534 17.347 Z M 64.174 17.667 L 63.714 18.187 C 63.814 18.074 63.968 17.9 64.174 17.667 Z M 63.634 18.187 L 63.714 18.187 L 63.694 18.207 C 63.668 18.234 63.634 18.257 63.594 18.277 C 63.621 18.25 63.634 18.22 63.634 18.187 Z M 75.321 12.007 C 75.321 12.26 75.155 12.51 74.821 12.757 C 74.481 13.01 74.178 13.137 73.911 13.137 L 73.861 13.047 L 73.861 12.727 C 73.861 12.08 74.208 11.757 74.901 11.757 C 75.181 11.757 75.321 11.84 75.321 12.007 Z M 73.391 17.927 L 73.481 17.927 C 73.081 18.58 72.718 19.04 72.391 19.307 L 72.391 19.237 C 72.391 19.17 72.345 19.137 72.251 19.137 C 72.311 19.137 71.898 19.434 71.011 20.027 C 70.571 20.32 70.141 20.54 69.721 20.687 C 69.508 20.76 69.401 20.83 69.401 20.897 C 69.401 21.104 69.545 21.207 69.831 21.207 C 69.951 21.207 70.111 21.157 70.311 21.057 C 70.505 20.964 70.661 20.917 70.781 20.917 C 70.568 21.204 70.185 21.347 69.631 21.347 C 69.338 21.347 69.055 21.21 68.781 20.937 C 68.501 20.657 68.361 20.374 68.361 20.087 C 68.361 19.754 68.815 18.88 69.721 17.467 L 69.721 17.237 L 69.571 17.237 C 69.378 17.424 69.071 17.684 68.651 18.017 C 68.618 18.064 68.551 18.114 68.451 18.167 L 68.451 18.127 C 68.451 17.98 68.825 17.534 69.571 16.787 C 69.565 16.9 69.641 16.957 69.801 16.957 C 70.488 16.457 70.831 16.044 70.831 15.717 L 70.721 15.717 L 70.171 16.177 L 70.171 16.087 C 70.431 15.787 70.855 15.404 71.441 14.937 C 71.521 14.897 71.748 14.877 72.121 14.877 L 72.481 14.877 C 72.455 14.944 72.385 15.064 72.271 15.237 C 72.198 15.35 72.161 15.49 72.161 15.657 C 72.388 15.657 72.571 15.707 72.711 15.807 L 71.471 17.337 C 71.125 17.75 70.781 18.164 70.441 18.577 C 69.995 19.177 69.771 19.66 69.771 20.027 C 69.771 20.16 69.868 20.227 70.061 20.227 C 70.435 20.227 70.825 20.047 71.231 19.687 C 71.738 19.32 72.458 18.734 73.391 17.927 Z M 72.191 19.567 L 72.191 19.607 C 72.138 19.66 72.051 19.744 71.931 19.857 L 71.931 19.777 L 72.161 19.547 L 72.191 19.567 Z M 71.181 20.547 L 71.231 20.547 C 71.198 20.6 71.125 20.677 71.011 20.777 L 70.951 20.777 C 71.011 20.677 71.088 20.6 71.181 20.547 Z M 79.889 18.337 L 79.949 18.337 C 79.949 18.43 79.902 18.477 79.809 18.477 L 79.779 18.507 L 79.739 18.507 L 79.719 18.477 C 79.759 18.444 79.815 18.397 79.889 18.337 Z M 77.129 15.807 C 77.115 15.834 77.095 15.85 77.069 15.857 C 77.055 15.85 77.049 15.834 77.049 15.807 L 77.049 15.797 C 77.055 15.764 77.062 15.747 77.069 15.747 L 77.079 15.747 C 77.112 15.754 77.129 15.774 77.129 15.807 Z M 79.489 18.647 L 79.569 18.647 C 79.069 19.227 78.275 19.744 77.189 20.197 C 76.142 20.637 75.222 20.857 74.429 20.857 C 73.262 20.857 72.679 20.397 72.679 19.477 C 72.679 19.084 72.825 18.694 73.119 18.307 C 73.412 17.927 73.752 17.737 74.139 17.737 C 74.199 17.737 74.279 17.744 74.379 17.757 C 74.479 17.777 74.552 17.787 74.599 17.787 L 74.599 18.077 C 74.599 18.33 74.392 18.63 73.979 18.977 C 73.565 19.33 73.359 19.654 73.359 19.947 C 73.359 20.4 73.555 20.627 73.949 20.627 C 74.855 20.627 75.632 20.11 76.279 19.077 C 76.385 18.897 76.795 17.987 77.509 16.347 L 77.509 16.127 L 77.359 16.127 C 76.719 16.614 75.895 17.167 74.889 17.787 L 74.839 17.637 C 74.999 17.49 75.245 17.264 75.579 16.957 C 75.572 17.07 75.629 17.127 75.749 17.127 C 75.902 17.127 76.235 16.924 76.749 16.517 C 77.255 16.11 77.509 15.844 77.509 15.717 C 77.509 15.617 77.459 15.57 77.359 15.577 C 77.425 15.537 77.772 15.28 78.399 14.807 C 78.939 14.4 79.265 14.197 79.379 14.197 C 79.505 14.197 79.569 14.244 79.569 14.337 C 79.569 14.61 79.385 14.867 79.019 15.107 C 78.519 15.454 78.242 15.657 78.189 15.717 C 78.189 15.93 78.182 16.274 78.169 16.747 C 78.129 17.56 78.069 18.114 77.989 18.407 C 77.862 18.827 77.575 19.31 77.129 19.857 L 77.129 20.007 C 77.409 20 78.195 19.547 79.489 18.647 Z M 87.371 11.607 C 86.791 12.2 86.041 13.04 85.121 14.127 C 84.874 14.394 84.531 14.8 84.091 15.347 C 84.084 15.367 84.064 15.407 84.031 15.467 L 83.981 15.547 C 83.981 15.56 83.971 15.57 83.951 15.577 C 83.944 15.584 83.941 15.584 83.941 15.577 C 83.941 15.59 83.941 15.607 83.941 15.627 C 83.941 15.66 83.954 15.69 83.981 15.717 L 85.701 15.717 L 85.931 15.807 L 85.851 15.917 L 83.711 15.917 C 83.618 15.917 83.158 16.54 82.331 17.787 C 81.718 18.714 81.411 19.48 81.411 20.087 C 81.411 20.147 81.538 20.177 81.791 20.177 C 82.298 20.177 83.264 19.564 84.691 18.337 L 84.781 18.337 C 83.148 19.964 81.794 20.777 80.721 20.777 C 80.188 20.777 79.921 20.547 79.921 20.087 C 79.921 19.767 80.278 18.97 80.991 17.697 C 81.004 17.664 81.031 17.617 81.071 17.557 C 81.071 17.45 81.051 17.38 81.011 17.347 L 81.041 17.337 L 81.001 17.347 C 80.981 17.34 80.964 17.337 80.951 17.337 L 82.161 16.127 L 82.161 15.937 L 80.951 15.937 C 80.911 15.864 80.831 15.82 80.711 15.807 C 80.811 15.814 80.921 15.817 81.041 15.817 C 81.494 15.817 81.974 15.784 82.481 15.717 C 82.574 15.644 83.188 14.96 84.321 13.667 C 84.694 13.247 85.124 12.81 85.611 12.357 C 86.231 11.777 86.768 11.487 87.221 11.487 C 87.321 11.487 87.371 11.527 87.371 11.607 Z M 81.001 17.347 L 81.011 17.347 C 80.924 17.394 80.801 17.5 80.641 17.667 L 80.901 17.377 C 80.928 17.364 80.961 17.354 81.001 17.347 Z M 80.641 17.667 L 80.181 18.187 C 80.281 18.074 80.434 17.9 80.641 17.667 Z M 80.101 18.187 L 80.181 18.187 L 80.161 18.207 C 80.134 18.234 80.101 18.257 80.061 18.277 C 80.088 18.25 80.101 18.22 80.101 18.187 Z M 91.048 18.307 L 91.128 18.307 C 90.182 19.26 89.512 19.884 89.118 20.177 C 88.245 20.83 87.412 21.157 86.618 21.157 C 86.225 21.157 85.838 21.047 85.458 20.827 C 84.945 20.534 84.688 20.26 84.688 20.007 C 84.688 19.134 84.715 18.597 84.768 18.397 C 84.868 18.217 84.985 18.004 85.118 17.757 C 85.158 17.677 85.218 17.55 85.298 17.377 C 85.638 16.697 86.242 16.084 87.108 15.537 C 87.975 14.984 88.788 14.707 89.548 14.707 C 89.895 14.707 90.068 14.707 90.068 14.707 C 90.275 14.727 90.445 14.857 90.578 15.097 C 90.692 15.304 90.748 15.52 90.748 15.747 C 90.748 16.634 90.188 17.387 89.068 18.007 C 88.502 18.32 87.548 18.677 86.208 19.077 C 86.115 19.33 86.068 19.58 86.068 19.827 C 86.068 20.247 86.335 20.457 86.868 20.457 C 87.595 20.457 88.348 20.22 89.128 19.747 C 89.442 19.554 90.082 19.074 91.048 18.307 Z M 90.158 15.317 C 90.158 15.164 90.068 15.01 89.888 14.857 L 89.518 14.857 C 89.152 14.857 88.722 15.014 88.228 15.327 C 87.688 15.674 87.418 16.014 87.418 16.347 C 87.532 16.327 87.588 16.317 87.588 16.317 C 88.428 15.944 89.255 15.717 90.068 15.637 C 90.128 15.57 90.158 15.464 90.158 15.317 Z M 89.778 16.297 C 89.778 16.257 89.775 16.207 89.768 16.147 C 89.755 16.08 89.748 16.034 89.748 16.007 C 89.688 15.947 89.572 15.917 89.398 15.917 C 89.165 15.917 88.975 15.967 88.828 16.067 C 87.928 16.654 87.212 17.4 86.678 18.307 L 86.678 18.507 C 87.152 18.507 87.775 18.254 88.548 17.747 C 89.368 17.214 89.778 16.73 89.778 16.297 Z M 88.508 20.457 L 88.508 20.287 C 88.288 20.287 87.982 20.36 87.588 20.507 C 86.995 20.72 86.692 20.83 86.678 20.837 L 86.678 21.007 C 87.172 21.007 87.782 20.824 88.508 20.457 Z M 97.735 18.337 L 97.795 18.337 C 97.795 18.43 97.748 18.477 97.655 18.477 L 97.625 18.507 L 97.585 18.507 L 97.565 18.477 C 97.605 18.444 97.662 18.397 97.735 18.337 Z M 94.975 15.807 C 94.962 15.834 94.942 15.85 94.915 15.857 C 94.902 15.85 94.895 15.834 94.895 15.807 L 94.895 15.797 C 94.902 15.764 94.908 15.747 94.915 15.747 L 94.925 15.747 C 94.958 15.754 94.975 15.774 94.975 15.807 Z M 97.335 18.647 L 97.415 18.647 C 96.915 19.227 96.122 19.744 95.035 20.197 C 93.988 20.637 93.068 20.857 92.275 20.857 C 91.108 20.857 90.525 20.397 90.525 19.477 C 90.525 19.084 90.672 18.694 90.965 18.307 C 91.258 17.927 91.598 17.737 91.985 17.737 C 92.045 17.737 92.125 17.744 92.225 17.757 C 92.325 17.777 92.398 17.787 92.445 17.787 L 92.445 18.077 C 92.445 18.33 92.238 18.63 91.825 18.977 C 91.412 19.33 91.205 19.654 91.205 19.947 C 91.205 20.4 91.402 20.627 91.795 20.627 C 92.702 20.627 93.478 20.11 94.125 19.077 C 94.232 18.897 94.642 17.987 95.355 16.347 L 95.355 16.127 L 95.205 16.127 C 94.565 16.614 93.742 17.167 92.735 17.787 L 92.685 17.637 C 92.845 17.49 93.092 17.264 93.425 16.957 C 93.418 17.07 93.475 17.127 93.595 17.127 C 93.748 17.127 94.082 16.924 94.595 16.517 C 95.102 16.11 95.355 15.844 95.355 15.717 C 95.355 15.617 95.305 15.57 95.205 15.577 C 95.272 15.537 95.618 15.28 96.245 14.807 C 96.785 14.4 97.112 14.197 97.225 14.197 C 97.352 14.197 97.415 14.244 97.415 14.337 C 97.415 14.61 97.232 14.867 96.865 15.107 C 96.365 15.454 96.088 15.657 96.035 15.717 C 96.035 15.93 96.028 16.274 96.015 16.747 C 95.975 17.56 95.915 18.114 95.835 18.407 C 95.708 18.827 95.422 19.31 94.975 19.857 L 94.975 20.007 C 95.255 20 96.042 19.547 97.335 18.647 Z"/>
    <path d="M 130.44 4.337 C 130.44 4.644 130.117 4.904 129.47 5.117 C 129.19 5.204 128.817 5.417 128.35 5.757 C 127.85 6.13 127.57 6.434 127.51 6.667 C 127.31 6.854 127.033 7.137 126.68 7.517 L 122.31 13.267 C 122.737 13.154 123.213 12.907 123.74 12.527 C 124.513 11.96 124.957 11.64 125.07 11.567 L 125.07 11.667 C 125.07 12 124.657 12.37 123.83 12.777 C 123.43 12.944 122.847 13.204 122.08 13.557 C 121.56 14.17 120.917 14.92 120.15 15.807 C 117.17 19.12 113.337 20.777 108.65 20.777 C 107.423 20.777 106.32 20.62 105.34 20.307 C 105.28 20.294 105.093 20.21 104.78 20.057 C 104.507 19.924 104.34 19.857 104.28 19.857 C 104.147 19.857 103.917 19.834 103.59 19.787 C 103.443 19.767 103.213 19.744 102.9 19.717 C 101.947 19.617 101.107 19.344 100.38 18.897 C 99.46 18.344 99 17.647 99 16.807 C 99 15.967 99.403 15.29 100.21 14.777 C 100.85 14.364 101.643 14.114 102.59 14.027 C 102.757 14.02 103.017 14 103.37 13.967 C 103.557 13.94 103.88 13.74 104.34 13.367 C 104.947 12.887 105.28 12.627 105.34 12.587 C 107.14 11.494 109.347 10.927 111.96 10.887 C 112.073 10.394 112.243 10.06 112.47 9.887 L 112.47 9.937 C 112.47 10.004 112.433 10.13 112.36 10.317 C 112.28 10.51 112.24 10.7 112.24 10.887 C 113.48 11.067 114.383 11.357 114.95 11.757 C 115.17 11.904 115.37 11.977 115.55 11.977 C 115.73 11.89 116.16 11.784 116.84 11.657 C 117.48 11.537 117.997 11.357 118.39 11.117 C 119.143 8.744 121.56 7.114 125.64 6.227 C 125.987 6.174 126.483 6.07 127.13 5.917 C 127.35 5.797 127.67 5.624 128.09 5.397 C 128.737 5.044 129.52 4.69 130.44 4.337 Z M 128.17 5.597 L 128.17 5.587 C 128.163 5.54 128.147 5.517 128.12 5.517 L 128.11 5.517 C 128.077 5.517 128.06 5.54 128.06 5.587 L 128.06 5.597 C 128.06 5.657 128.077 5.687 128.11 5.687 L 128.12 5.687 C 128.153 5.687 128.17 5.657 128.17 5.597 Z M 127.98 5.687 C 127.707 5.774 127.57 5.86 127.57 5.947 L 127.6 5.967 C 127.673 5.954 127.8 5.86 127.98 5.687 Z M 120.47 10.187 L 126.28 6.427 C 126.18 6.427 126.13 6.427 126.13 6.427 C 124.463 6.847 123.167 7.304 122.24 7.797 C 120.88 8.524 119.923 9.477 119.37 10.657 L 119.54 10.657 C 119.76 10.557 120.07 10.4 120.47 10.187 Z M 127.2 6.287 L 127.09 6.287 C 126.957 6.287 126.51 6.534 125.75 7.027 C 124.937 7.58 123.713 8.407 122.08 9.507 C 121.813 9.68 121.073 10.11 119.86 10.797 C 119.727 10.864 119.54 10.967 119.3 11.107 C 119.2 11.174 119.15 11.447 119.15 11.927 C 119.15 12.86 119.61 13.327 120.53 13.327 C 120.563 13.314 120.593 13.294 120.62 13.267 C 122.227 11.114 123.69 9.45 125.01 8.277 C 125.503 7.844 126.233 7.18 127.2 6.287 Z M 113.34 11.437 L 113.62 11.437 C 113.207 11.284 112.833 11.207 112.5 11.207 L 112.24 11.207 L 112.33 11.347 C 113.143 11.407 113.48 11.437 113.34 11.437 Z M 120.3 13.727 L 120.3 13.647 C 119.067 13.36 118.403 12.7 118.31 11.667 L 118.16 11.667 C 118.233 11.667 117.823 11.79 116.93 12.037 C 116.65 12.117 116.24 12.244 115.7 12.417 C 116.067 12.97 116.25 13.544 116.25 14.137 C 116.25 15.47 115.357 16.66 113.57 17.707 C 112.357 18.427 110.873 19.017 109.12 19.477 L 109.12 19.517 C 109.12 19.577 109.323 19.65 109.73 19.737 C 110.097 19.817 110.353 19.857 110.5 19.857 L 111.3 19.857 C 113.14 19.857 114.847 19.244 116.42 18.017 C 116.92 17.617 117.58 16.974 118.4 16.087 C 119.22 15.2 119.803 14.494 120.15 13.967 C 120.25 13.82 120.3 13.74 120.3 13.727 Z M 115.72 13.907 C 115.72 13.254 115.48 12.814 115 12.587 C 114.373 12.547 113.983 12.517 113.83 12.497 C 113.417 12.444 113.043 12.337 112.71 12.177 L 112.5 12.177 C 111.227 12.177 110.013 12.67 108.86 13.657 C 107.647 14.684 107.04 15.82 107.04 17.067 C 107.04 17.527 107.203 18.004 107.53 18.497 C 107.877 19.037 108.27 19.307 108.71 19.307 C 109.217 19.307 109.907 19.137 110.78 18.797 C 112.047 18.29 112.717 17.98 112.79 17.867 L 112.68 17.867 C 112.54 17.867 112.337 17.877 112.07 17.897 C 111.803 17.917 111.603 17.927 111.47 17.927 C 110.683 17.927 109.867 17.697 109.02 17.237 L 109.02 17.187 C 109.02 17.107 109.053 17.05 109.12 17.017 C 110.04 17.43 110.853 17.637 111.56 17.637 C 112.707 17.637 113.673 17.307 114.46 16.647 C 115.3 15.947 115.72 15.034 115.72 13.907 Z M 112.01 11.437 L 112.05 11.347 L 112.05 11.317 C 112.05 11.224 112.02 11.157 111.96 11.117 L 111.16 11.117 C 110.02 11.117 108.917 11.287 107.85 11.627 C 106.643 12.014 105.683 12.56 104.97 13.267 L 104.37 13.877 L 104.37 13.967 C 105.557 14.12 106.37 14.444 106.81 14.937 C 106.93 14.864 107.057 14.714 107.19 14.487 C 107.343 14.2 107.45 14.027 107.51 13.967 C 108.81 12.494 110.31 11.65 112.01 11.437 Z M 112.99 17.797 L 112.99 17.777 C 112.99 17.724 112.973 17.697 112.94 17.697 L 112.93 17.697 C 112.903 17.697 112.887 17.724 112.88 17.777 L 112.88 17.797 C 112.887 17.844 112.903 17.867 112.93 17.867 L 112.94 17.867 C 112.973 17.867 112.99 17.844 112.99 17.797 Z M 107.87 19.477 L 108.04 19.397 C 108.02 19.39 107.993 19.36 107.96 19.307 C 107.86 19.227 107.71 19.1 107.51 18.927 C 106.89 18.434 106.58 17.664 106.58 16.617 C 106.58 16.457 106.603 16.227 106.65 15.927 C 106.697 15.62 106.72 15.39 106.72 15.237 C 106.72 14.95 106.393 14.687 105.74 14.447 C 105.187 14.254 104.72 14.157 104.34 14.157 C 103.987 14.157 103.7 14.51 103.48 15.217 C 103.307 15.764 103.22 16.274 103.22 16.747 C 103.22 18.06 103.757 19.02 104.83 19.627 L 106.44 19.627 C 106.527 19.627 107.003 19.577 107.87 19.477 Z M 112.11 20.177 L 110.72 20.177 C 110.48 20.177 110.07 20.087 109.49 19.907 C 108.917 19.72 108.56 19.627 108.42 19.627 C 108.06 19.627 107.523 19.667 106.81 19.747 C 106.097 19.82 105.56 19.857 105.2 19.857 L 105.28 19.947 C 106.593 20.347 107.457 20.547 107.87 20.547 L 108.98 20.547 C 109.993 20.547 111.037 20.424 112.11 20.177 Z M 103.97 19.547 C 103.05 18.74 102.59 17.777 102.59 16.657 C 102.59 16.264 102.683 15.837 102.87 15.377 C 103.063 14.99 103.257 14.597 103.45 14.197 C 103.41 14.197 103.353 14.19 103.28 14.177 C 103.2 14.164 103.14 14.157 103.1 14.157 C 102.233 14.157 101.45 14.364 100.75 14.777 C 99.923 15.27 99.51 15.92 99.51 16.727 C 99.51 17.62 100.03 18.34 101.07 18.887 C 101.943 19.34 102.873 19.567 103.86 19.567 C 103.88 19.56 103.917 19.554 103.97 19.547 Z M 130.816 17.867 L 130.816 17.957 C 130.582 18.197 130.219 18.55 129.726 19.017 C 129.546 19.164 129.276 19.387 128.916 19.687 C 127.922 20.567 127.166 21.007 126.646 21.007 C 126.412 21.007 126.159 20.93 125.886 20.777 C 125.586 20.597 125.436 20.397 125.436 20.177 C 125.436 19.73 125.772 19.084 126.446 18.237 C 126.952 17.657 127.462 17.074 127.976 16.487 L 127.976 16.147 C 127.929 16.147 127.859 16.14 127.766 16.127 C 127.672 16.107 127.599 16.097 127.546 16.097 C 127.352 16.097 126.959 16.277 126.366 16.637 C 125.586 17.104 124.746 17.764 123.846 18.617 C 123.572 18.877 122.829 19.644 121.616 20.917 C 121.276 20.977 120.912 21.007 120.526 21.007 L 120.326 21.007 C 120.399 20.94 120.436 20.87 120.436 20.797 C 120.436 20.777 120.426 20.744 120.406 20.697 C 120.392 20.657 120.386 20.627 120.386 20.607 C 120.386 20.214 121.206 18.997 122.846 16.957 C 122.986 16.784 123.056 16.544 123.056 16.237 C 122.976 16.217 122.849 16.197 122.676 16.177 C 122.322 16.35 121.926 16.627 121.486 17.007 C 121.119 17.32 120.752 17.637 120.386 17.957 C 120.306 18.024 120.192 18.12 120.046 18.247 L 119.976 18.247 C 121.762 16.467 122.739 15.577 122.906 15.577 L 122.846 15.657 L 122.886 15.807 C 122.966 15.807 123.089 15.794 123.256 15.767 C 123.422 15.734 123.546 15.717 123.626 15.717 C 123.699 15.717 123.809 15.734 123.956 15.767 C 124.102 15.794 124.212 15.807 124.286 15.807 C 124.399 15.807 124.456 15.7 124.456 15.487 C 124.456 15.28 124.316 15.177 124.036 15.177 C 123.922 15.177 123.762 15.217 123.556 15.297 C 123.356 15.384 123.199 15.427 123.086 15.427 C 123.506 15.16 123.869 15.027 124.176 15.027 C 124.676 15.027 124.926 15.317 124.926 15.897 C 124.926 16.29 124.562 16.997 123.836 18.017 L 123.836 18.127 C 123.869 18.14 123.926 18.16 124.006 18.187 C 124.299 18.074 124.769 17.717 125.416 17.117 C 126.122 16.464 126.622 16.057 126.916 15.897 C 126.909 15.99 126.952 16.037 127.046 16.037 C 127.232 16.037 127.502 15.974 127.856 15.847 C 128.202 15.72 128.469 15.657 128.656 15.657 C 128.716 15.604 128.746 15.52 128.746 15.407 C 128.746 15.254 128.622 15.177 128.376 15.177 C 128.296 15.177 128.182 15.204 128.036 15.257 C 127.882 15.317 127.766 15.347 127.686 15.347 C 127.952 15.134 128.239 15.027 128.546 15.027 C 128.986 15.027 129.206 15.4 129.206 16.147 C 129.206 16.574 128.826 17.244 128.066 18.157 C 127.299 19.07 126.916 19.657 126.916 19.917 C 126.916 20.124 127.009 20.227 127.196 20.227 C 127.629 20.227 128.256 19.917 129.076 19.297 C 129.662 18.824 130.242 18.347 130.816 17.867 Z M 127.516 20.517 L 127.406 20.517 C 127.366 20.517 127.169 20.574 126.816 20.687 L 126.816 20.897 C 127.282 20.897 127.516 20.77 127.516 20.517 Z M 141.57 17.867 L 141.57 17.957 C 141.336 18.197 140.973 18.55 140.48 19.017 C 140.3 19.164 140.03 19.387 139.67 19.687 C 138.676 20.567 137.92 21.007 137.4 21.007 C 137.166 21.007 136.913 20.93 136.64 20.777 C 136.34 20.597 136.19 20.397 136.19 20.177 C 136.19 19.73 136.526 19.084 137.2 18.237 C 137.706 17.657 138.216 17.074 138.73 16.487 L 138.73 16.147 C 138.683 16.147 138.613 16.14 138.52 16.127 C 138.426 16.107 138.353 16.097 138.3 16.097 C 138.106 16.097 137.713 16.277 137.12 16.637 C 136.34 17.104 135.5 17.764 134.6 18.617 C 134.326 18.877 133.583 19.644 132.37 20.917 C 132.03 20.977 131.666 21.007 131.28 21.007 L 131.08 21.007 C 131.153 20.94 131.19 20.87 131.19 20.797 C 131.19 20.777 131.18 20.744 131.16 20.697 C 131.146 20.657 131.14 20.627 131.14 20.607 C 131.14 20.214 131.96 18.997 133.6 16.957 C 133.74 16.784 133.81 16.544 133.81 16.237 C 133.73 16.217 133.603 16.197 133.43 16.177 C 133.076 16.35 132.68 16.627 132.24 17.007 C 131.873 17.32 131.506 17.637 131.14 17.957 C 131.06 18.024 130.946 18.12 130.8 18.247 L 130.73 18.247 C 132.516 16.467 133.493 15.577 133.66 15.577 L 133.6 15.657 L 133.64 15.807 C 133.72 15.807 133.843 15.794 134.01 15.767 C 134.176 15.734 134.3 15.717 134.38 15.717 C 134.453 15.717 134.563 15.734 134.71 15.767 C 134.856 15.794 134.966 15.807 135.04 15.807 C 135.153 15.807 135.21 15.7 135.21 15.487 C 135.21 15.28 135.07 15.177 134.79 15.177 C 134.676 15.177 134.516 15.217 134.31 15.297 C 134.11 15.384 133.953 15.427 133.84 15.427 C 134.26 15.16 134.623 15.027 134.93 15.027 C 135.43 15.027 135.68 15.317 135.68 15.897 C 135.68 16.29 135.316 16.997 134.59 18.017 L 134.59 18.127 C 134.623 18.14 134.68 18.16 134.76 18.187 C 135.053 18.074 135.523 17.717 136.17 17.117 C 136.876 16.464 137.376 16.057 137.67 15.897 C 137.663 15.99 137.706 16.037 137.8 16.037 C 137.986 16.037 138.256 15.974 138.61 15.847 C 138.956 15.72 139.223 15.657 139.41 15.657 C 139.47 15.604 139.5 15.52 139.5 15.407 C 139.5 15.254 139.376 15.177 139.13 15.177 C 139.05 15.177 138.936 15.204 138.79 15.257 C 138.636 15.317 138.52 15.347 138.44 15.347 C 138.706 15.134 138.993 15.027 139.3 15.027 C 139.74 15.027 139.96 15.4 139.96 16.147 C 139.96 16.574 139.58 17.244 138.82 18.157 C 138.053 19.07 137.67 19.657 137.67 19.917 C 137.67 20.124 137.763 20.227 137.95 20.227 C 138.383 20.227 139.01 19.917 139.83 19.297 C 140.416 18.824 140.996 18.347 141.57 17.867 Z M 138.27 20.517 L 138.16 20.517 C 138.12 20.517 137.923 20.574 137.57 20.687 L 137.57 20.897 C 138.036 20.897 138.27 20.77 138.27 20.517 Z"/>
  </g>
</svg>