<svg viewBox="0 0 176 35" xmlns="http://www.w3.org/2000/svg">
  <title>Secret Garden Inn</title>
  <g>
    <path d="M 4.333 19.769 L 4.333 19.789 C 4.333 19.809 4.263 19.882 4.123 20.009 C 3.983 20.136 3.886 20.216 3.833 20.249 C 3.833 20.256 3.833 20.262 3.833 20.269 C 3.833 20.276 3.813 20.279 3.773 20.279 C 3.546 20.472 3.28 20.652 2.973 20.819 C 2.893 20.852 2.78 20.909 2.633 20.989 C 2.6 21.009 2.583 21.036 2.583 21.069 C 2.583 21.116 2.636 21.139 2.743 21.139 C 2.783 21.139 2.836 21.126 2.903 21.099 C 2.976 21.072 3.033 21.059 3.073 21.059 C 2.92 21.146 2.79 21.189 2.683 21.189 C 2.616 21.189 2.49 21.139 2.303 21.039 C 2.11 20.932 2.013 20.856 2.013 20.809 C 2.013 20.769 2.016 20.716 2.023 20.649 C 2.023 20.576 2.023 20.522 2.023 20.489 C 1.983 20.496 1.856 20.566 1.643 20.699 C 1.623 20.672 1.583 20.659 1.523 20.659 C 1.25 20.826 0.956 20.949 0.643 21.029 L 0.643 21.059 C 0.643 21.112 0.693 21.139 0.793 21.139 C 0.826 21.139 0.876 21.132 0.943 21.119 C 1.003 21.106 1.05 21.099 1.083 21.099 C 0.976 21.159 0.876 21.189 0.783 21.189 C 0.29 21.189 0.043 20.936 0.043 20.429 C 0.043 19.856 0.3 19.326 0.813 18.839 C 1.333 18.359 1.88 18.119 2.453 18.119 L 2.673 18.119 C 2.786 18.119 2.9 18.306 3.013 18.679 C 3.033 18.746 3.08 18.779 3.153 18.779 C 3.366 18.426 3.486 18.239 3.513 18.219 C 3.566 18.179 3.766 18.159 4.113 18.159 L 3.893 18.489 L 3.893 18.569 L 4.063 18.569 L 4.063 18.669 C 3.796 18.989 3.53 19.309 3.263 19.629 C 2.87 20.122 2.673 20.452 2.673 20.619 C 2.673 20.712 2.716 20.759 2.803 20.759 C 2.99 20.759 3.25 20.626 3.583 20.359 C 4.07 19.979 4.32 19.782 4.333 19.769 Z M 2.913 18.539 C 2.913 18.306 2.846 18.189 2.713 18.189 L 2.493 18.189 C 2.213 18.189 1.993 18.262 1.833 18.409 C 1.713 18.516 1.573 18.652 1.413 18.819 L 1.413 18.889 L 1.493 18.889 C 1.993 18.656 2.466 18.539 2.913 18.539 Z M 2.893 18.759 L 2.893 18.709 L 2.853 18.669 L 2.713 18.669 C 2.466 18.669 2.16 18.829 1.793 19.149 C 0.986 19.856 0.583 20.362 0.583 20.669 C 0.583 20.762 0.603 20.819 0.643 20.839 C 0.663 20.839 0.693 20.839 0.733 20.839 C 0.766 20.846 0.793 20.849 0.813 20.849 C 1.213 20.849 1.66 20.602 2.153 20.109 C 2.646 19.609 2.893 19.159 2.893 18.759 Z M 9.529 19.629 L 9.529 19.679 C 9.416 19.792 9.239 19.959 8.999 20.179 C 8.919 20.252 8.792 20.362 8.619 20.509 C 8.139 20.929 7.776 21.139 7.529 21.139 C 7.416 21.139 7.292 21.102 7.159 21.029 C 7.019 20.942 6.949 20.846 6.949 20.739 C 6.949 20.526 7.109 20.216 7.429 19.809 C 7.676 19.529 7.922 19.249 8.169 18.969 L 8.169 18.809 C 8.142 18.809 8.106 18.806 8.059 18.799 C 8.019 18.786 7.986 18.779 7.959 18.779 C 7.866 18.779 7.676 18.866 7.389 19.039 C 7.016 19.266 6.616 19.582 6.189 19.989 C 6.056 20.116 5.696 20.486 5.109 21.099 C 4.949 21.126 4.776 21.139 4.589 21.139 L 4.489 21.139 C 4.529 21.106 4.549 21.072 4.549 21.039 C 4.549 21.026 4.542 21.009 4.529 20.989 C 4.522 20.969 4.519 20.956 4.519 20.949 C 4.519 20.762 4.916 20.176 5.709 19.189 C 5.776 19.109 5.809 18.996 5.809 18.849 C 5.769 18.842 5.706 18.832 5.619 18.819 C 5.452 18.906 5.262 19.039 5.049 19.219 C 4.876 19.372 4.699 19.526 4.519 19.679 C 4.479 19.706 4.426 19.752 4.359 19.819 L 4.329 19.819 C 5.182 18.959 5.652 18.529 5.739 18.529 L 5.709 18.569 L 5.719 18.639 C 5.759 18.639 5.819 18.632 5.899 18.619 C 5.979 18.606 6.039 18.599 6.079 18.599 C 6.112 18.599 6.166 18.606 6.239 18.619 C 6.306 18.632 6.359 18.639 6.399 18.639 C 6.452 18.639 6.479 18.589 6.479 18.489 C 6.479 18.389 6.409 18.339 6.269 18.339 C 6.216 18.339 6.142 18.359 6.049 18.399 C 5.949 18.439 5.872 18.459 5.819 18.459 C 6.019 18.332 6.192 18.269 6.339 18.269 C 6.579 18.269 6.699 18.406 6.699 18.679 C 6.699 18.872 6.526 19.212 6.179 19.699 L 6.179 19.759 C 6.192 19.766 6.219 19.776 6.259 19.789 C 6.399 19.729 6.626 19.556 6.939 19.269 C 7.279 18.956 7.519 18.759 7.659 18.679 C 7.652 18.732 7.672 18.759 7.719 18.759 C 7.812 18.759 7.942 18.726 8.109 18.659 C 8.276 18.599 8.406 18.569 8.499 18.569 C 8.526 18.542 8.539 18.502 8.539 18.449 C 8.539 18.376 8.479 18.339 8.359 18.339 C 8.319 18.339 8.262 18.352 8.189 18.379 C 8.116 18.406 8.062 18.419 8.029 18.419 C 8.156 18.319 8.292 18.269 8.439 18.269 C 8.652 18.269 8.759 18.449 8.759 18.809 C 8.759 19.009 8.576 19.329 8.209 19.769 C 7.842 20.209 7.659 20.492 7.659 20.619 C 7.659 20.712 7.702 20.759 7.789 20.759 C 7.996 20.759 8.296 20.612 8.689 20.319 C 8.976 20.092 9.256 19.862 9.529 19.629 Z M 7.939 20.909 L 7.889 20.909 C 7.869 20.909 7.776 20.936 7.609 20.989 L 7.609 21.089 C 7.829 21.089 7.939 21.029 7.939 20.909 Z M 15.791 14.499 L 15.791 15.199 L 12.641 19.439 C 12.561 19.579 12.444 19.786 12.291 20.059 C 12.098 20.399 12.001 20.586 12.001 20.619 C 12.001 20.712 12.051 20.759 12.151 20.759 C 12.364 20.759 12.908 20.392 13.781 19.659 L 13.811 19.659 C 13.611 19.886 13.418 20.112 13.231 20.339 C 12.964 20.612 12.728 20.749 12.521 20.749 L 12.511 20.749 C 12.418 20.796 12.278 20.862 12.091 20.949 C 12.018 20.962 11.904 20.986 11.751 21.019 C 11.698 21.026 11.671 21.052 11.671 21.099 C 11.671 21.192 11.734 21.236 11.861 21.229 C 11.808 21.262 11.758 21.279 11.711 21.279 C 11.464 21.279 11.341 21.089 11.341 20.709 C 11.341 20.669 11.351 20.609 11.371 20.529 C 11.398 20.449 11.411 20.389 11.411 20.349 L 11.351 20.349 C 10.998 20.676 10.744 20.839 10.591 20.839 C 10.524 20.839 10.418 20.869 10.271 20.929 C 10.131 20.996 10.014 21.029 9.921 21.029 C 9.901 21.029 9.868 21.026 9.821 21.019 C 9.774 21.012 9.738 21.012 9.711 21.019 C 9.711 21.152 9.798 21.219 9.971 21.219 C 10.024 21.219 10.081 21.216 10.141 21.209 C 10.021 21.256 9.911 21.279 9.811 21.279 C 9.484 21.279 9.321 21.049 9.321 20.589 C 9.321 19.982 9.631 19.412 10.251 18.879 C 10.844 18.359 11.451 18.099 12.071 18.099 C 12.371 18.099 12.521 18.219 12.521 18.459 C 12.521 18.506 12.518 18.569 12.511 18.649 C 12.498 18.729 12.491 18.792 12.491 18.839 C 12.544 18.832 12.571 18.839 12.571 18.859 C 12.584 18.846 12.608 18.819 12.641 18.779 L 15.771 14.499 L 15.791 14.499 Z M 11.971 21.199 L 11.971 21.209 C 11.971 21.222 11.968 21.229 11.961 21.229 C 11.954 21.229 11.944 21.222 11.931 21.209 C 11.931 21.196 11.934 21.186 11.941 21.179 C 11.961 21.186 11.971 21.192 11.971 21.199 Z M 10.321 21.129 C 10.321 21.142 10.314 21.149 10.301 21.149 C 10.294 21.149 10.284 21.142 10.271 21.129 L 10.291 21.109 C 10.304 21.116 10.314 21.122 10.321 21.129 Z M 12.281 18.699 L 12.431 18.699 C 12.431 18.499 12.424 18.382 12.411 18.349 C 12.384 18.242 12.294 18.189 12.141 18.189 C 11.981 18.189 11.784 18.239 11.551 18.339 C 11.284 18.459 11.151 18.582 11.151 18.709 C 11.238 18.709 11.371 18.686 11.551 18.639 C 11.731 18.586 11.868 18.559 11.961 18.559 C 12.134 18.559 12.234 18.596 12.261 18.669 C 12.161 18.649 12.078 18.639 12.011 18.639 C 11.744 18.639 11.328 18.912 10.761 19.459 C 10.201 19.999 9.921 20.402 9.921 20.669 C 9.921 20.742 9.944 20.799 9.991 20.839 C 10.278 20.839 10.521 20.782 10.721 20.669 C 10.981 20.522 11.284 20.279 11.631 19.939 C 12.004 19.566 12.228 19.262 12.301 19.029 C 12.301 19.022 12.294 18.989 12.281 18.929 C 12.281 18.869 12.281 18.792 12.281 18.699 Z"/>
    <path d="M 48.86 7.389 C 48.86 8.042 48.323 8.729 47.25 9.449 C 46.817 9.729 45.993 10.176 44.78 10.789 C 44.66 11.062 44.48 11.466 44.24 11.999 C 43.307 13.826 41.213 15.262 37.96 16.309 C 37.487 16.802 36.77 17.542 35.81 18.529 C 34.91 19.422 33.393 20.196 31.26 20.849 C 29.32 21.442 27.613 21.739 26.14 21.739 C 24.353 21.739 22.87 21.466 21.69 20.919 C 20.117 20.179 19.33 19.016 19.33 17.429 C 19.33 15.429 20.45 13.822 22.69 12.609 C 24.557 11.589 26.583 11.079 28.77 11.079 C 29.017 11.079 29.383 11.109 29.87 11.169 C 30.363 11.222 30.733 11.249 30.98 11.249 C 31.16 11.249 31.37 11.172 31.61 11.019 C 31.503 9.259 32.183 7.936 33.65 7.049 C 34.837 6.316 36.37 5.949 38.25 5.949 C 38.277 5.962 38.29 5.969 38.29 5.969 L 38.38 5.969 L 38.66 5.989 L 39.87 6.079 C 40.023 6.132 40.24 6.226 40.52 6.359 C 40.927 6.579 41.43 6.946 42.03 7.459 C 42.403 7.779 42.717 7.939 42.97 7.939 C 42.917 7.939 43.4 7.659 44.42 7.099 C 45.433 6.532 46.27 6.249 46.93 6.249 C 48.217 6.249 48.86 6.629 48.86 7.389 Z M 48.14 6.749 L 48.14 6.719 C 48.133 6.672 48.117 6.649 48.09 6.649 L 48.08 6.649 C 48.047 6.649 48.03 6.672 48.03 6.719 L 48.03 6.749 C 48.037 6.782 48.053 6.799 48.08 6.799 L 48.09 6.799 C 48.123 6.786 48.14 6.769 48.14 6.749 Z M 47.46 6.419 L 46.6 6.419 C 46.48 6.419 46.363 6.446 46.25 6.499 C 46.35 6.539 46.667 6.559 47.2 6.559 C 47.34 6.559 47.427 6.512 47.46 6.419 Z M 48.54 7.349 C 48.54 6.956 48.42 6.759 48.18 6.759 C 48.18 7.679 47.63 8.512 46.53 9.259 L 46.42 9.339 C 46.147 9.526 45.753 9.826 45.24 10.239 C 45.827 10.019 46.49 9.619 47.23 9.039 C 48.103 8.359 48.54 7.796 48.54 7.349 Z M 46.02 6.879 C 45.113 6.879 44.27 7.339 43.49 8.259 L 43.54 8.319 C 44.56 7.612 45.387 7.132 46.02 6.879 Z M 46.76 7.349 C 46.76 7.076 46.677 6.939 46.51 6.939 C 46.25 6.939 45.807 7.162 45.18 7.609 C 44.613 8.016 44.22 8.356 44 8.629 C 44 8.769 44.063 8.926 44.19 9.099 C 44.35 9.346 44.443 9.499 44.47 9.559 C 44.583 9.832 44.66 10.059 44.7 10.239 C 45.12 10.119 45.57 9.719 46.05 9.039 C 46.523 8.359 46.76 7.796 46.76 7.349 Z M 42.71 8.179 L 42.79 8.179 L 42.71 8.089 L 42.62 8.089 L 42.71 8.179 Z M 43.31 8.489 L 43.26 8.489 C 43.16 8.549 43.083 8.629 43.03 8.729 L 43.09 8.729 C 43.143 8.676 43.217 8.596 43.31 8.489 Z M 44.49 10.299 C 44.49 9.686 44.25 9.206 43.77 8.859 L 43.31 9.319 L 43.31 9.409 C 43.43 9.669 43.49 9.822 43.49 9.869 C 43.49 10.002 43.463 10.079 43.41 10.099 L 43.09 9.559 C 42.55 10.086 42.143 10.542 41.87 10.929 C 41.737 11.109 41.527 11.366 41.24 11.699 L 41.31 11.699 C 41.743 11.699 42.507 11.416 43.6 10.849 C 43.78 10.769 44.05 10.642 44.41 10.469 C 44.463 10.436 44.49 10.379 44.49 10.299 Z M 41.56 7.389 C 40.987 6.629 39.877 6.249 38.23 6.249 C 37.263 6.249 36.373 6.459 35.56 6.879 C 34.58 7.392 34.05 8.082 33.97 8.949 C 35.443 7.816 37.273 7.249 39.46 7.249 C 39.687 7.249 40.023 7.279 40.47 7.339 C 40.91 7.399 41.247 7.429 41.48 7.429 C 41.52 7.422 41.547 7.409 41.56 7.389 Z M 42.11 11.759 L 41.93 11.759 C 41.857 11.759 41.723 11.799 41.53 11.879 C 41.337 11.959 41.193 11.999 41.1 11.999 L 41.01 12.079 C 41.157 12.099 41.523 11.992 42.11 11.759 Z M 35.73 6.519 L 35.73 6.489 C 35.717 6.442 35.7 6.419 35.68 6.419 L 35.67 6.419 C 35.637 6.419 35.613 6.442 35.6 6.489 L 35.6 6.519 C 35.613 6.546 35.63 6.559 35.65 6.559 L 35.68 6.559 C 35.713 6.552 35.73 6.539 35.73 6.519 Z M 42.42 8.369 C 42.42 8.116 42.167 7.909 41.66 7.749 C 41.267 7.629 40.897 7.569 40.55 7.569 L 38.19 7.569 C 37.59 7.569 36.76 7.782 35.7 8.209 C 34.487 8.689 33.88 9.166 33.88 9.639 C 33.88 10.039 33.997 10.239 34.23 10.239 C 34.417 10.239 34.693 10.226 35.06 10.199 C 35.433 10.166 35.713 10.149 35.9 10.149 C 37.527 10.149 38.417 10.459 38.57 11.079 L 38.55 11.109 L 38.49 11.079 C 38.457 11.046 38.403 11.006 38.33 10.959 C 38.257 10.912 38.153 10.856 38.02 10.789 C 38.007 10.576 37.333 10.469 36 10.469 L 34.88 10.469 C 34.547 10.469 34.32 10.519 34.2 10.619 C 34.207 10.632 34.227 10.659 34.26 10.699 C 34.747 11.312 35.317 11.726 35.97 11.939 C 36.47 12.106 37.167 12.189 38.06 12.189 C 38.773 12.189 39.22 12.076 39.4 11.849 C 39.567 11.656 39.933 11.196 40.5 10.469 C 40.92 9.936 41.56 9.236 42.42 8.369 Z M 44.47 10.929 L 44.41 10.929 C 43.877 11.216 43.083 11.629 42.03 12.169 C 41.963 12.202 41.693 12.279 41.22 12.399 C 40.853 12.499 40.613 12.626 40.5 12.779 L 38.25 15.769 C 38.243 15.782 38.223 15.826 38.19 15.899 C 38.217 15.912 38.47 15.839 38.95 15.679 C 40.21 15.259 41.323 14.669 42.29 13.909 C 43.47 13.002 44.197 12.009 44.47 10.929 Z M 39.04 12.399 L 39.12 12.309 L 38.64 12.309 C 38.487 12.309 38.26 12.326 37.96 12.359 C 37.66 12.386 37.433 12.399 37.28 12.399 C 37.56 12.459 37.847 12.489 38.14 12.489 C 38.273 12.489 38.573 12.459 39.04 12.399 Z M 35.5 6.559 C 35.433 6.546 35.153 6.652 34.66 6.879 C 32.76 7.752 31.81 8.912 31.81 10.359 C 31.81 10.686 31.837 10.849 31.89 10.849 C 31.957 10.849 32.4 10.722 33.22 10.469 C 33.22 8.769 33.98 7.466 35.5 6.559 Z M 35.24 12.859 L 35.96 12.859 C 34.9 12.612 34.083 12.019 33.51 11.079 C 33.51 10.979 33.463 10.882 33.37 10.789 C 33.317 10.789 33.237 10.799 33.13 10.819 C 33.03 10.839 32.957 10.849 32.91 10.849 C 32.51 11.002 32.203 11.109 31.99 11.169 L 31.99 11.249 C 32.063 11.362 32.11 11.456 32.13 11.529 C 32.623 11.822 33.113 12.112 33.6 12.399 C 34.167 12.706 34.713 12.859 35.24 12.859 Z M 38.66 12.999 L 34.14 12.999 C 34.333 13.366 34.43 13.752 34.43 14.159 C 34.43 15.132 34.227 15.946 33.82 16.599 C 33.887 16.599 33.987 16.602 34.12 16.609 C 34.253 16.616 34.357 16.619 34.43 16.619 C 35.023 16.619 35.59 16.562 36.13 16.449 C 36.643 15.996 37.457 14.892 38.57 13.139 C 38.57 13.132 38.58 13.116 38.6 13.089 C 38.613 13.062 38.633 13.032 38.66 12.999 Z M 34.26 13.859 C 34.26 13.819 34.24 13.792 34.2 13.779 C 34.187 13.792 34.18 13.812 34.18 13.839 L 34.18 13.879 C 34.18 13.912 34.187 13.929 34.2 13.929 C 34.227 13.909 34.247 13.886 34.26 13.859 Z M 31.53 11.399 L 31.76 11.399 L 31.76 11.309 L 31.74 11.309 C 31.613 11.309 31.543 11.339 31.53 11.399 Z M 34.14 13.689 C 34.14 13.302 33.893 12.969 33.4 12.689 C 32.227 12.029 31.41 11.699 30.95 11.699 C 30.757 11.699 30.537 11.856 30.29 12.169 C 32.13 12.216 33.413 12.722 34.14 13.689 Z M 33.74 16.139 L 33.29 16.599 L 33.33 16.599 L 33.37 16.619 C 33.463 16.619 33.587 16.459 33.74 16.139 Z M 34.05 14.819 C 34.05 13.546 33.047 12.909 31.04 12.909 C 30.307 12.909 29.843 12.959 29.65 13.059 C 29.31 13.232 29.14 13.636 29.14 14.269 C 29.14 15.009 29.56 15.606 30.4 16.059 C 31.1 16.432 31.86 16.619 32.68 16.619 C 32.893 16.619 33.177 16.379 33.53 15.899 C 33.877 15.419 34.05 15.059 34.05 14.819 Z M 33.22 16.919 L 32.99 16.919 C 32.13 17.512 31.057 17.999 29.77 18.379 C 31.17 18.379 32.32 17.892 33.22 16.919 Z M 32.36 16.829 C 32.22 16.796 31.893 16.719 31.38 16.599 C 30.2 16.306 29.453 15.829 29.14 15.169 C 29.047 14.976 29 14.839 29 14.759 L 29 14.179 C 29 14.072 29.013 13.916 29.04 13.709 C 29.073 13.496 29.09 13.336 29.09 13.229 C 28.917 13.229 28.55 13.382 27.99 13.689 C 26.05 14.742 25.08 16.066 25.08 17.659 C 25.08 17.832 25.393 17.976 26.02 18.089 C 26.48 18.169 26.867 18.209 27.18 18.209 L 27.3 18.209 L 27.07 17.979 C 27.103 17.919 27.123 17.869 27.13 17.829 L 27.16 17.829 C 27.347 17.902 27.5 17.952 27.62 17.979 C 27.607 17.846 27.6 17.722 27.6 17.609 C 27.6 16.896 27.913 16.539 28.54 16.539 C 28.94 16.539 29.14 16.729 29.14 17.109 C 29.14 17.496 28.977 17.689 28.65 17.689 C 28.45 17.689 28.3 17.569 28.2 17.329 C 28.1 17.089 28.04 16.969 28.02 16.969 C 27.847 16.969 27.76 17.172 27.76 17.579 C 27.76 17.859 27.817 18.049 27.93 18.149 L 28.22 18.149 C 28.687 18.149 29.423 18.002 30.43 17.709 C 31.537 17.389 32.18 17.096 32.36 16.829 Z M 35.81 16.769 L 35.67 16.769 C 35.437 16.769 35.1 16.792 34.66 16.839 C 34.227 16.892 33.903 16.919 33.69 16.919 C 32.437 18.079 31.1 18.659 29.68 18.659 C 29.547 18.659 29.343 18.652 29.07 18.639 C 28.797 18.619 28.59 18.609 28.45 18.609 C 28.323 18.609 28.247 18.626 28.22 18.659 C 27.387 18.646 26.48 18.509 25.5 18.249 C 25.273 18.182 25.163 18.149 25.17 18.149 L 25.08 18.149 C 25.16 18.962 25.697 19.596 26.69 20.049 C 27.483 20.409 28.347 20.589 29.28 20.589 C 30.313 20.589 31.273 20.379 32.16 19.959 C 33.22 19.452 34.1 18.849 34.8 18.149 C 33.48 18.856 32.083 19.209 30.61 19.209 C 29.597 19.209 28.933 19.102 28.62 18.889 C 28.7 18.876 28.83 18.902 29.01 18.969 C 29.183 19.029 29.303 19.059 29.37 19.059 C 30.883 19.059 32.05 18.942 32.87 18.709 C 34.017 18.376 34.997 17.729 35.81 16.769 Z M 29.77 12.229 L 30.47 11.699 L 30.47 11.619 C 29.943 11.559 29.413 11.529 28.88 11.529 C 26.773 11.529 24.8 11.982 22.96 12.889 C 20.693 14.002 19.56 15.496 19.56 17.369 C 19.56 18.842 20.29 19.932 21.75 20.639 C 22.863 21.186 24.243 21.459 25.89 21.459 C 27.403 21.459 28.697 21.276 29.77 20.909 C 28.657 20.956 27.66 20.809 26.78 20.469 C 25.7 20.036 25.013 19.359 24.72 18.439 C 24.653 18.226 24.597 18.022 24.55 17.829 C 23.983 17.109 23.7 16.546 23.7 16.139 C 23.7 15.539 23.827 15.239 24.08 15.239 C 24.08 15.339 24.043 15.469 23.97 15.629 C 23.89 15.796 23.85 15.929 23.85 16.029 C 23.85 16.562 24.083 17.042 24.55 17.469 C 24.75 14.816 26.49 13.069 29.77 12.229 Z M 28.54 18.849 L 28.48 18.869 L 28.45 18.849 L 28.45 18.829 C 28.457 18.796 28.467 18.779 28.48 18.779 L 28.49 18.779 C 28.523 18.792 28.54 18.816 28.54 18.849 Z M 28.45 18.749 L 28.45 18.759 C 28.443 18.819 28.427 18.849 28.4 18.849 L 28.39 18.849 C 28.357 18.849 28.337 18.819 28.33 18.759 L 28.33 18.749 C 28.337 18.689 28.357 18.659 28.39 18.659 L 28.4 18.659 C 28.427 18.659 28.443 18.689 28.45 18.749 Z M 46.74 18.439 L 46.82 18.439 C 45.873 19.392 45.203 20.016 44.81 20.309 C 43.936 20.962 43.103 21.289 42.31 21.289 C 41.916 21.289 41.53 21.179 41.15 20.959 C 40.636 20.666 40.38 20.392 40.38 20.139 C 40.38 19.266 40.406 18.729 40.46 18.529 C 40.56 18.349 40.676 18.136 40.81 17.889 C 40.85 17.809 40.91 17.682 40.99 17.509 C 41.33 16.829 41.933 16.216 42.8 15.669 C 43.666 15.116 44.48 14.839 45.24 14.839 C 45.586 14.839 45.76 14.839 45.76 14.839 C 45.966 14.859 46.136 14.989 46.27 15.229 C 46.383 15.436 46.44 15.652 46.44 15.879 C 46.44 16.766 45.88 17.519 44.76 18.139 C 44.193 18.452 43.24 18.809 41.9 19.209 C 41.806 19.462 41.76 19.712 41.76 19.959 C 41.76 20.379 42.026 20.589 42.56 20.589 C 43.286 20.589 44.04 20.352 44.82 19.879 C 45.133 19.686 45.773 19.206 46.74 18.439 Z M 45.85 15.449 C 45.85 15.296 45.76 15.142 45.58 14.989 L 45.21 14.989 C 44.843 14.989 44.413 15.146 43.92 15.459 C 43.38 15.806 43.11 16.146 43.11 16.479 C 43.223 16.459 43.28 16.449 43.28 16.449 C 44.12 16.076 44.946 15.849 45.76 15.769 C 45.82 15.702 45.85 15.596 45.85 15.449 Z M 45.47 16.429 C 45.47 16.389 45.466 16.339 45.46 16.279 C 45.446 16.212 45.44 16.166 45.44 16.139 C 45.38 16.079 45.263 16.049 45.09 16.049 C 44.856 16.049 44.666 16.099 44.52 16.199 C 43.62 16.786 42.903 17.532 42.37 18.439 L 42.37 18.639 C 42.843 18.639 43.466 18.386 44.24 17.879 C 45.06 17.346 45.47 16.862 45.47 16.429 Z M 44.2 20.589 L 44.2 20.419 C 43.98 20.419 43.673 20.492 43.28 20.639 C 42.686 20.852 42.383 20.962 42.37 20.969 L 42.37 21.139 C 42.863 21.139 43.473 20.956 44.2 20.589 Z M 52.916 18.299 L 52.996 18.299 C 51.636 19.646 50.67 20.439 50.096 20.679 C 50.103 20.566 50.053 20.509 49.946 20.509 C 49.893 20.509 49.376 20.662 48.396 20.969 L 48.396 21.119 C 48.536 21.119 48.746 21.082 49.026 21.009 C 49.306 20.942 49.52 20.909 49.666 20.909 L 49.716 20.909 C 49.263 21.162 48.796 21.289 48.316 21.289 C 48.023 21.289 47.643 21.162 47.176 20.909 C 46.663 20.642 46.406 20.386 46.406 20.139 L 46.406 18.529 C 46.573 18.382 46.693 18.206 46.766 17.999 C 47.06 17.152 47.61 16.416 48.416 15.789 C 49.223 15.156 50.07 14.839 50.956 14.839 C 51.97 14.839 52.476 15.186 52.476 15.879 C 52.476 17.139 52.143 17.769 51.476 17.769 C 51.263 17.769 51.156 17.676 51.156 17.489 C 51.156 17.422 51.186 17.326 51.246 17.199 C 51.3 17.066 51.326 16.959 51.326 16.879 C 51.326 16.759 51.27 16.462 51.156 15.989 C 50.59 15.989 49.886 16.512 49.046 17.559 C 48.206 18.606 47.786 19.426 47.786 20.019 C 47.786 20.399 48.04 20.589 48.546 20.589 C 49.693 20.589 51.15 19.826 52.916 18.299 Z M 51.856 15.389 C 51.856 15.249 51.776 15.122 51.616 15.009 C 51.596 15.009 51.563 15.006 51.516 14.999 C 51.47 14.992 51.436 14.989 51.416 14.989 C 50.696 14.989 50.1 15.199 49.626 15.619 C 49.426 15.799 49.273 15.949 49.166 16.069 C 48.966 16.309 48.866 16.492 48.866 16.619 L 49.036 16.619 C 49.896 16.179 50.786 15.876 51.706 15.709 C 51.806 15.609 51.856 15.502 51.856 15.389 Z M 58.669 18.439 L 58.749 18.439 C 58.722 18.472 58.645 18.546 58.519 18.659 C 56.825 20.159 55.589 20.909 54.809 20.909 C 54.229 20.909 53.939 20.679 53.939 20.219 C 53.939 19.766 54.175 19.242 54.649 18.649 C 55.055 18.202 55.462 17.759 55.869 17.319 C 56.069 17.092 56.379 16.756 56.799 16.309 L 56.799 16.169 L 55.359 16.169 L 53.089 18.229 L 52.999 18.229 L 55.129 16.069 L 55.129 16.029 C 55.129 15.962 55.099 15.882 55.039 15.789 C 54.979 15.696 54.949 15.619 54.949 15.559 C 54.949 15.306 55.095 15.079 55.389 14.879 C 55.649 14.699 55.915 14.609 56.189 14.609 C 56.442 14.609 56.569 14.699 56.569 14.879 L 56.099 15.329 L 56.099 15.409 C 56.099 15.569 56.255 15.649 56.569 15.649 C 56.682 15.649 56.849 15.619 57.069 15.559 C 57.289 15.506 57.455 15.479 57.569 15.479 C 57.655 15.479 57.779 15.569 57.939 15.749 C 58.099 15.936 58.179 16.076 58.179 16.169 C 58.032 16.449 57.555 17.069 56.749 18.029 C 56.062 18.849 55.692 19.456 55.639 19.849 C 55.619 19.982 55.609 20.106 55.609 20.219 C 55.669 20.219 55.752 20.236 55.859 20.269 C 55.965 20.296 56.045 20.309 56.099 20.309 C 56.352 20.309 57.209 19.686 58.669 18.439 Z M 57.289 15.819 L 57.289 15.709 C 56.902 15.709 56.535 15.736 56.189 15.789 L 56.189 15.939 L 57.159 15.939 C 57.245 15.939 57.289 15.899 57.289 15.819 Z M 65.136 18.439 L 65.216 18.439 C 64.269 19.392 63.599 20.016 63.206 20.309 C 62.332 20.962 61.499 21.289 60.706 21.289 C 60.312 21.289 59.926 21.179 59.546 20.959 C 59.032 20.666 58.776 20.392 58.776 20.139 C 58.776 19.266 58.802 18.729 58.856 18.529 C 58.956 18.349 59.072 18.136 59.206 17.889 C 59.246 17.809 59.306 17.682 59.386 17.509 C 59.726 16.829 60.329 16.216 61.196 15.669 C 62.062 15.116 62.876 14.839 63.636 14.839 C 63.982 14.839 64.156 14.839 64.156 14.839 C 64.362 14.859 64.532 14.989 64.666 15.229 C 64.779 15.436 64.836 15.652 64.836 15.879 C 64.836 16.766 64.276 17.519 63.156 18.139 C 62.589 18.452 61.636 18.809 60.296 19.209 C 60.202 19.462 60.156 19.712 60.156 19.959 C 60.156 20.379 60.422 20.589 60.956 20.589 C 61.682 20.589 62.436 20.352 63.216 19.879 C 63.529 19.686 64.169 19.206 65.136 18.439 Z M 64.246 15.449 C 64.246 15.296 64.156 15.142 63.976 14.989 L 63.606 14.989 C 63.239 14.989 62.809 15.146 62.316 15.459 C 61.776 15.806 61.506 16.146 61.506 16.479 C 61.619 16.459 61.676 16.449 61.676 16.449 C 62.516 16.076 63.342 15.849 64.156 15.769 C 64.216 15.702 64.246 15.596 64.246 15.449 Z M 63.866 16.429 C 63.866 16.389 63.862 16.339 63.856 16.279 C 63.842 16.212 63.836 16.166 63.836 16.139 C 63.776 16.079 63.659 16.049 63.486 16.049 C 63.252 16.049 63.062 16.099 62.916 16.199 C 62.016 16.786 61.299 17.532 60.766 18.439 L 60.766 18.639 C 61.239 18.639 61.862 18.386 62.636 17.879 C 63.456 17.346 63.866 16.862 63.866 16.429 Z M 62.596 20.589 L 62.596 20.419 C 62.376 20.419 62.069 20.492 61.676 20.639 C 61.082 20.852 60.779 20.962 60.766 20.969 L 60.766 21.139 C 61.259 21.139 61.869 20.956 62.596 20.589 Z M 72.432 11.739 C 71.852 12.332 71.102 13.172 70.182 14.259 C 69.936 14.526 69.592 14.932 69.152 15.479 C 69.146 15.499 69.126 15.539 69.092 15.599 L 69.042 15.679 C 69.042 15.692 69.032 15.702 69.012 15.709 C 69.006 15.716 69.002 15.716 69.002 15.709 C 69.002 15.722 69.002 15.739 69.002 15.759 C 69.002 15.792 69.016 15.822 69.042 15.849 L 70.762 15.849 L 70.992 15.939 L 70.912 16.049 L 68.772 16.049 C 68.679 16.049 68.219 16.672 67.392 17.919 C 66.779 18.846 66.472 19.612 66.472 20.219 C 66.472 20.279 66.599 20.309 66.852 20.309 C 67.359 20.309 68.326 19.696 69.752 18.469 L 69.842 18.469 C 68.209 20.096 66.856 20.909 65.782 20.909 C 65.249 20.909 64.982 20.679 64.982 20.219 C 64.982 19.899 65.339 19.102 66.052 17.829 C 66.066 17.796 66.092 17.749 66.132 17.689 C 66.132 17.582 66.112 17.512 66.072 17.479 L 66.102 17.469 L 66.062 17.479 C 66.042 17.472 66.026 17.469 66.012 17.469 L 67.222 16.259 L 67.222 16.069 L 66.012 16.069 C 65.972 15.996 65.892 15.952 65.772 15.939 C 65.872 15.946 65.982 15.949 66.102 15.949 C 66.556 15.949 67.036 15.916 67.542 15.849 C 67.636 15.776 68.249 15.092 69.382 13.799 C 69.756 13.379 70.186 12.942 70.672 12.489 C 71.292 11.909 71.829 11.619 72.282 11.619 C 72.382 11.619 72.432 11.659 72.432 11.739 Z M 66.062 17.479 L 66.072 17.479 C 65.986 17.526 65.862 17.632 65.702 17.799 L 65.962 17.509 C 65.989 17.496 66.022 17.486 66.062 17.479 Z M 65.702 17.799 L 65.242 18.319 C 65.342 18.206 65.496 18.032 65.702 17.799 Z M 65.162 18.319 L 65.242 18.319 L 65.222 18.339 C 65.196 18.366 65.162 18.389 65.122 18.409 C 65.149 18.382 65.162 18.352 65.162 18.319 Z"/>
    <path d="M 97.123 7.479 C 97.123 9.086 95.793 10.696 93.133 12.309 C 92.906 12.449 92.573 12.632 92.133 12.859 L 86.923 14.759 C 86.036 15.079 84.826 15.339 83.293 15.539 C 83.046 15.692 82.923 16.066 82.923 16.659 C 82.923 18.259 83.383 19.059 84.303 19.059 C 85.349 19.059 86.306 18.756 87.173 18.149 C 87.453 17.956 88.063 17.389 89.003 16.449 C 89.623 15.842 90.156 15.539 90.603 15.539 C 90.736 15.539 90.803 15.576 90.803 15.649 C 90.803 15.669 90.799 15.712 90.793 15.779 C 90.779 15.839 90.773 15.879 90.773 15.899 L 90.883 15.899 L 91.293 15.679 L 91.353 15.679 L 90.143 16.919 C 90.143 16.859 90.113 16.829 90.053 16.829 C 90.033 16.829 89.526 17.212 88.533 17.979 C 88.439 18.146 88.363 18.299 88.303 18.439 L 88.303 18.529 L 89.823 17.149 L 89.913 17.149 L 88.423 18.929 C 88.256 19.102 88.003 19.399 87.663 19.819 C 87.616 19.892 87.353 20.462 86.873 21.529 C 86.886 21.522 86.903 21.519 86.923 21.519 C 87.549 20.719 88.623 19.559 90.143 18.039 C 90.189 17.979 90.266 17.909 90.373 17.829 L 87.393 21.359 C 87.086 21.706 86.596 22.296 85.923 23.129 C 85.923 23.129 85.206 24.089 83.773 26.009 L 79.473 31.769 C 79.206 32.136 78.929 32.319 78.643 32.319 C 78.316 32.319 78.153 32.129 78.153 31.749 C 78.153 30.969 78.946 29.349 80.533 26.889 C 80.446 26.889 80.403 26.889 80.403 26.889 C 80.223 26.902 79.783 26.966 79.083 27.079 C 78.543 27.166 78.099 27.209 77.753 27.209 C 76.353 27.209 75.149 26.902 74.143 26.289 C 72.943 25.556 72.343 24.539 72.343 23.239 C 72.343 21.886 72.943 20.746 74.143 19.819 C 75.256 18.959 76.509 18.529 77.903 18.529 C 78.909 18.529 79.789 18.776 80.543 19.269 C 81.423 19.842 81.863 20.609 81.863 21.569 C 81.863 22.596 81.419 23.432 80.533 24.079 C 79.739 24.666 78.813 24.959 77.753 24.959 C 77.286 24.959 76.769 24.902 76.203 24.789 C 75.409 24.636 75.013 24.426 75.013 24.159 C 76.166 24.506 77.059 24.679 77.693 24.679 C 78.686 24.679 79.553 24.419 80.293 23.899 C 81.133 23.312 81.553 22.546 81.553 21.599 C 81.553 20.779 81.206 20.162 80.513 19.749 C 79.939 19.389 79.219 19.209 78.353 19.209 C 76.959 19.209 75.736 19.592 74.683 20.359 C 73.529 21.206 72.953 22.299 72.953 23.639 C 72.953 24.739 73.486 25.596 74.553 26.209 C 75.433 26.702 76.469 26.949 77.663 26.949 C 78.869 26.949 79.789 26.802 80.423 26.509 C 80.749 26.362 81.209 25.886 81.803 25.079 C 82.469 24.139 83.503 22.759 84.903 20.939 C 85.236 20.519 85.756 19.916 86.463 19.129 L 86.463 19.059 C 85.576 19.526 84.716 19.759 83.883 19.759 C 81.863 19.759 80.853 18.859 80.853 17.059 C 80.853 16.899 80.876 16.662 80.923 16.349 C 80.976 16.036 81.003 15.802 81.003 15.649 C 79.223 15.649 77.976 15.229 77.263 14.389 C 77.216 14.329 77.159 14.252 77.093 14.159 L 76.223 12.489 C 75.943 11.936 75.803 11.332 75.803 10.679 C 75.803 9.052 76.396 7.706 77.583 6.639 C 78.729 5.612 80.129 5.099 81.783 5.099 C 81.949 5.099 82.206 5.112 82.553 5.139 C 82.899 5.172 83.159 5.189 83.333 5.189 C 83.533 5.189 83.776 5.106 84.063 4.939 C 84.456 4.726 84.693 4.606 84.773 4.579 C 86.106 4.106 87.386 3.869 88.613 3.869 C 89.319 3.869 89.963 3.912 90.543 3.999 C 91.196 4.112 91.846 4.456 92.493 5.029 C 92.686 5.196 92.793 5.296 92.813 5.329 C 92.999 5.596 93.126 5.729 93.193 5.729 C 93.346 5.729 93.579 5.716 93.893 5.689 C 94.206 5.662 94.439 5.649 94.593 5.649 C 96.279 5.649 97.123 6.259 97.123 7.479 Z M 95.573 7.939 L 95.573 6.999 C 95.573 6.866 95.473 6.719 95.273 6.559 C 95.073 6.406 94.899 6.329 94.753 6.329 L 93.363 6.329 C 93.363 6.476 93.349 6.696 93.323 6.989 C 93.296 7.276 93.283 7.489 93.283 7.629 L 93.283 7.709 L 94.803 7.709 C 94.896 7.709 95.026 7.749 95.193 7.829 C 95.359 7.902 95.486 7.939 95.573 7.939 Z M 95.663 9.069 L 95.663 9.009 C 95.263 9.489 94.976 9.869 94.803 10.149 C 94.996 9.996 95.249 9.732 95.563 9.359 L 95.613 9.269 C 95.646 9.209 95.663 9.142 95.663 9.069 Z M 93.083 6.709 L 93.073 6.389 C 92.413 6.389 91.583 6.626 90.583 7.099 C 89.696 7.526 88.956 7.989 88.363 8.489 C 88.363 8.722 88.496 8.972 88.763 9.239 C 90.289 8.546 91.669 8.066 92.903 7.799 C 93.029 7.672 93.089 7.309 93.083 6.709 Z M 92.813 5.779 L 92.813 5.729 C 92.759 5.616 92.713 5.539 92.673 5.499 C 91.806 4.559 90.466 4.089 88.653 4.089 C 86.519 4.089 84.946 4.502 83.933 5.329 C 85.373 5.882 86.616 6.676 87.663 7.709 L 87.843 7.709 C 89.356 6.862 91.013 6.219 92.813 5.779 Z M 92.903 8.029 C 92.556 8.029 92.229 8.086 91.923 8.199 C 91.043 8.526 90.173 8.949 89.313 9.469 C 89.239 9.496 89.149 9.552 89.043 9.639 L 89.043 9.789 C 89.189 10.082 89.423 10.492 89.743 11.019 C 89.829 11.012 90.133 10.859 90.653 10.559 C 91.866 9.866 92.616 9.022 92.903 8.029 Z M 95.513 8.199 C 95.513 8.112 95.433 8.032 95.273 7.959 C 95.113 7.892 94.986 7.859 94.893 7.859 L 93.513 7.859 C 93.346 7.859 93.126 8.122 92.853 8.649 C 92.499 9.302 92.303 9.652 92.263 9.699 C 91.103 11.006 89.619 11.659 87.813 11.659 C 87.753 11.659 87.656 11.652 87.523 11.639 C 87.389 11.626 87.286 11.619 87.213 11.619 L 87.063 11.529 L 87.153 11.479 C 88.086 11.586 88.823 11.482 89.363 11.169 C 89.176 10.776 88.946 10.359 88.673 9.919 L 88.593 9.919 C 88.439 10.026 88.206 10.182 87.893 10.389 C 87.813 10.442 87.106 10.999 85.773 12.059 C 85.333 12.399 84.689 12.942 83.843 13.689 C 83.843 13.942 84.613 14.069 86.153 14.069 C 87.519 14.069 89.203 13.512 91.203 12.399 C 92.129 11.886 92.993 11.296 93.793 10.629 C 94.939 9.669 95.513 8.859 95.513 8.199 Z M 88.363 9.469 C 88.363 9.369 88.316 9.242 88.223 9.089 C 88.129 8.936 88.039 8.859 87.953 8.859 L 87.893 8.859 C 87.046 9.426 86.183 10.242 85.303 11.309 C 85.249 11.376 85.223 11.432 85.223 11.479 C 86.376 10.632 87.423 9.962 88.363 9.469 Z M 87.293 8.029 L 87.293 7.939 C 85.913 6.446 84.656 5.699 83.523 5.699 C 83.243 5.699 82.803 6.016 82.203 6.649 C 81.609 7.282 81.313 7.749 81.313 8.049 L 81.313 8.089 C 82.433 7.782 83.199 7.629 83.613 7.629 L 83.753 7.629 C 83.273 7.749 82.793 7.869 82.313 7.989 C 81.626 8.196 81.209 8.399 81.063 8.599 C 80.923 8.799 80.853 9.309 80.853 10.129 C 80.853 11.302 81.283 12.259 82.143 12.999 C 82.216 12.999 82.676 12.446 83.523 11.339 C 83.956 10.779 84.549 10.189 85.303 9.569 C 85.976 9.056 86.639 8.542 87.293 8.029 Z M 90.633 15.729 C 90.426 15.729 90.253 15.786 90.113 15.899 C 89.706 16.226 89.276 16.686 88.823 17.279 C 89.089 17.239 89.459 17.029 89.933 16.649 C 90.399 16.276 90.633 15.969 90.633 15.729 Z M 89.273 17.149 L 88.673 17.509 L 88.593 17.689 C 88.779 17.689 89.006 17.509 89.273 17.149 Z M 82.843 5.549 C 82.516 5.496 82.119 5.469 81.653 5.469 C 80.266 5.469 79.046 5.892 77.993 6.739 C 76.873 7.639 76.313 8.769 76.313 10.129 C 76.313 10.822 76.446 11.396 76.713 11.849 C 76.846 11.709 76.979 11.486 77.113 11.179 C 77.286 10.819 77.413 10.582 77.493 10.469 C 78.099 9.616 79.096 8.929 80.483 8.409 C 80.976 7.456 81.743 6.536 82.783 5.649 C 82.803 5.622 82.823 5.589 82.843 5.549 Z M 86.153 14.289 C 85.786 14.289 85.249 14.232 84.543 14.119 C 84.069 14.046 83.836 14.009 83.843 14.009 L 83.693 14.009 C 83.639 14.149 83.583 14.332 83.523 14.559 C 84.483 14.559 85.359 14.469 86.153 14.289 Z M 82.003 13.379 L 82.003 13.229 C 81.929 13.182 81.826 13.106 81.693 12.999 C 81.139 12.446 80.769 12.006 80.583 11.679 C 80.336 11.232 80.213 10.679 80.213 10.019 C 80.213 9.886 80.229 9.696 80.263 9.449 C 80.296 9.202 80.313 9.019 80.313 8.899 L 80.313 8.769 C 79.599 9.082 78.913 9.556 78.253 10.189 C 77.479 10.949 77.093 11.649 77.093 12.289 L 77.093 12.459 C 78.339 13.799 79.709 14.469 81.203 14.469 L 81.343 14.469 C 81.356 14.469 81.576 14.106 82.003 13.379 Z M 80.313 15.539 L 80.313 15.509 C 80.306 15.489 80.283 15.479 80.243 15.479 L 80.213 15.479 C 80.173 15.479 80.153 15.489 80.153 15.509 C 80.153 15.562 80.183 15.589 80.243 15.589 L 80.263 15.589 C 80.289 15.596 80.306 15.579 80.313 15.539 Z M 85.743 21.069 L 85.743 21.039 C 85.736 20.992 85.723 20.969 85.703 20.969 L 85.673 20.969 C 85.646 20.969 85.629 20.992 85.623 21.039 L 85.623 21.069 C 85.629 21.116 85.646 21.139 85.673 21.139 L 85.703 21.139 C 85.723 21.139 85.736 21.116 85.743 21.069 Z M 80.083 15.449 C 79.136 15.256 78.139 14.699 77.093 13.779 C 77.093 14.199 77.446 14.599 78.153 14.979 C 78.786 15.312 79.339 15.479 79.813 15.479 C 79.839 15.479 79.879 15.472 79.933 15.459 C 79.993 15.446 80.043 15.442 80.083 15.449 Z M 83.443 19.539 L 83.443 19.519 C 83.429 19.466 83.413 19.439 83.393 19.439 L 83.383 19.439 C 83.349 19.439 83.333 19.466 83.333 19.519 L 83.333 19.539 C 83.339 19.572 83.356 19.589 83.383 19.589 L 83.393 19.589 C 83.426 19.582 83.443 19.566 83.443 19.539 Z M 83.243 19.529 C 83.236 19.496 83.219 19.476 83.193 19.469 L 83.183 19.469 C 83.169 19.482 83.163 19.499 83.163 19.519 L 83.163 19.539 C 83.163 19.566 83.166 19.579 83.173 19.579 L 83.183 19.579 C 83.203 19.572 83.223 19.556 83.243 19.529 Z M 82.693 19.299 L 82.843 19.299 C 82.516 19.066 82.163 18.682 81.783 18.149 C 81.783 18.422 81.866 18.682 82.033 18.929 C 82.206 19.176 82.426 19.299 82.693 19.299 Z M 85.543 21.289 C 85.443 21.342 84.956 21.942 84.083 23.089 C 83.216 24.236 82.783 24.832 82.783 24.879 C 83.603 24.152 84.493 23.002 85.453 21.429 C 85.473 21.396 85.503 21.349 85.543 21.289 Z M 79.153 31.859 L 84.223 24.809 C 83.796 25.189 83.276 25.556 82.663 25.909 C 82.456 26.002 82.189 26.146 81.863 26.339 C 81.596 26.572 81.079 27.326 80.313 28.599 C 79.646 29.719 79.183 30.549 78.923 31.089 C 78.776 31.416 78.703 31.672 78.703 31.859 C 78.703 32.012 78.739 32.089 78.813 32.089 L 78.873 32.089 C 78.946 32.049 79.039 31.972 79.153 31.859 Z M 85.373 7.479 C 85.326 7.519 85.243 7.539 85.123 7.539 L 85.003 7.539 C 84.883 7.539 84.806 7.519 84.773 7.479 C 84.779 7.466 84.796 7.459 84.823 7.459 L 85.283 7.459 C 85.323 7.459 85.353 7.466 85.373 7.479 Z M 84.323 7.539 C 84.323 7.572 84.269 7.592 84.163 7.599 L 84.123 7.599 C 84.076 7.599 84.033 7.589 83.993 7.569 L 83.993 7.549 C 83.993 7.529 84.036 7.519 84.123 7.519 L 84.183 7.519 C 84.223 7.519 84.269 7.526 84.323 7.539 Z M 99.647 18.299 L 99.647 18.319 C 99.647 18.366 99.507 18.519 99.227 18.779 C 98.94 19.039 98.74 19.206 98.627 19.279 C 98.627 19.299 98.627 19.312 98.627 19.319 C 98.627 19.346 98.587 19.359 98.507 19.359 C 98.027 19.759 97.463 20.129 96.817 20.469 C 96.657 20.542 96.427 20.659 96.127 20.819 C 96.06 20.859 96.027 20.916 96.027 20.989 C 96.027 21.089 96.133 21.139 96.347 21.139 C 96.427 21.139 96.54 21.109 96.687 21.049 C 96.84 20.996 96.957 20.969 97.037 20.969 C 96.71 21.156 96.443 21.249 96.237 21.249 C 96.097 21.249 95.827 21.142 95.427 20.929 C 95.027 20.709 94.827 20.546 94.827 20.439 C 94.827 20.366 94.83 20.256 94.837 20.109 C 94.85 19.962 94.857 19.856 94.857 19.789 C 94.77 19.796 94.5 19.939 94.047 20.219 C 94.007 20.166 93.93 20.139 93.817 20.139 C 93.237 20.479 92.623 20.736 91.977 20.909 L 91.977 20.969 C 91.977 21.082 92.08 21.139 92.287 21.139 C 92.36 21.139 92.463 21.126 92.597 21.099 C 92.723 21.066 92.823 21.049 92.897 21.049 C 92.67 21.182 92.46 21.249 92.267 21.249 C 91.233 21.249 90.717 20.716 90.717 19.649 C 90.717 18.462 91.257 17.362 92.337 16.349 C 93.41 15.342 94.547 14.839 95.747 14.839 L 96.207 14.839 C 96.447 14.839 96.683 15.236 96.917 16.029 C 96.957 16.156 97.053 16.219 97.207 16.219 C 97.647 15.486 97.897 15.099 97.957 15.059 C 98.07 14.972 98.483 14.929 99.197 14.929 L 98.737 15.619 L 98.737 15.789 L 99.097 15.789 L 99.097 15.989 C 98.543 16.656 97.987 17.322 97.427 17.989 C 96.613 19.016 96.207 19.702 96.207 20.049 C 96.207 20.256 96.293 20.359 96.467 20.359 C 96.853 20.359 97.397 20.079 98.097 19.519 C 99.11 18.719 99.627 18.312 99.647 18.299 Z M 96.697 15.729 C 96.697 15.236 96.563 14.989 96.297 14.989 L 95.827 14.989 C 95.24 14.989 94.78 15.142 94.447 15.449 C 94.2 15.676 93.913 15.962 93.587 16.309 L 93.587 16.449 L 93.757 16.449 C 94.797 15.969 95.777 15.729 96.697 15.729 Z M 96.657 16.169 L 96.657 16.069 L 96.577 15.989 L 96.297 15.989 C 95.783 15.989 95.14 16.326 94.367 16.999 C 92.68 18.466 91.837 19.519 91.837 20.159 C 91.837 20.346 91.883 20.462 91.977 20.509 C 92.023 20.509 92.083 20.512 92.157 20.519 C 92.23 20.532 92.287 20.539 92.327 20.539 C 93.167 20.539 94.097 20.022 95.117 18.989 C 96.143 17.949 96.657 17.009 96.657 16.169 Z M 105.466 18.439 L 105.546 18.439 C 105.519 18.472 105.443 18.546 105.316 18.659 C 103.623 20.159 102.386 20.909 101.606 20.909 C 101.026 20.909 100.736 20.679 100.736 20.219 C 100.736 19.766 100.973 19.242 101.446 18.649 C 101.853 18.202 102.259 17.759 102.666 17.319 C 102.866 17.092 103.176 16.756 103.596 16.309 L 103.596 16.169 L 102.156 16.169 L 99.886 18.229 L 99.796 18.229 L 101.926 16.069 L 101.926 16.029 C 101.926 15.962 101.896 15.882 101.836 15.789 C 101.776 15.696 101.746 15.619 101.746 15.559 C 101.746 15.306 101.893 15.079 102.186 14.879 C 102.446 14.699 102.713 14.609 102.986 14.609 C 103.239 14.609 103.366 14.699 103.366 14.879 L 102.896 15.329 L 102.896 15.409 C 102.896 15.569 103.053 15.649 103.366 15.649 C 103.479 15.649 103.646 15.619 103.866 15.559 C 104.086 15.506 104.253 15.479 104.366 15.479 C 104.453 15.479 104.576 15.569 104.736 15.749 C 104.896 15.936 104.976 16.076 104.976 16.169 C 104.829 16.449 104.353 17.069 103.546 18.029 C 102.859 18.849 102.489 19.456 102.436 19.849 C 102.416 19.982 102.406 20.106 102.406 20.219 C 102.466 20.219 102.549 20.236 102.656 20.269 C 102.763 20.296 102.843 20.309 102.896 20.309 C 103.149 20.309 104.006 19.686 105.466 18.439 Z M 104.086 15.819 L 104.086 15.709 C 103.699 15.709 103.333 15.736 102.986 15.789 L 102.986 15.939 L 103.956 15.939 C 104.043 15.939 104.086 15.899 104.086 15.819 Z M 118.853 7.309 L 118.853 8.769 L 112.273 17.599 C 112.119 17.886 111.879 18.316 111.553 18.889 C 111.153 19.589 110.953 19.976 110.953 20.049 C 110.953 20.256 111.056 20.359 111.263 20.359 C 111.709 20.359 112.839 19.592 114.653 18.059 L 114.713 18.059 C 114.306 18.532 113.903 19.006 113.503 19.479 C 112.956 20.046 112.469 20.329 112.043 20.329 L 112.013 20.329 C 111.819 20.429 111.526 20.569 111.133 20.749 C 110.979 20.776 110.746 20.819 110.433 20.879 C 110.319 20.906 110.263 20.962 110.263 21.049 C 110.263 21.249 110.396 21.346 110.663 21.339 C 110.549 21.399 110.443 21.429 110.343 21.429 C 109.829 21.429 109.573 21.036 109.573 20.249 C 109.573 20.156 109.596 20.029 109.643 19.869 C 109.689 19.709 109.713 19.586 109.713 19.499 L 109.603 19.499 C 108.869 20.172 108.339 20.509 108.013 20.509 C 107.866 20.509 107.643 20.576 107.343 20.709 C 107.049 20.842 106.806 20.909 106.613 20.909 C 106.566 20.909 106.496 20.902 106.403 20.889 C 106.303 20.876 106.229 20.872 106.183 20.879 C 106.183 21.159 106.363 21.299 106.723 21.299 C 106.823 21.299 106.939 21.296 107.073 21.289 C 106.819 21.382 106.586 21.429 106.373 21.429 C 105.706 21.429 105.373 20.949 105.373 19.989 C 105.373 18.722 106.016 17.536 107.303 16.429 C 108.543 15.356 109.806 14.819 111.093 14.819 C 111.726 14.819 112.043 15.066 112.043 15.559 C 112.043 15.652 112.033 15.782 112.013 15.949 C 111.993 16.122 111.983 16.252 111.983 16.339 C 112.076 16.332 112.123 16.349 112.123 16.389 C 112.156 16.362 112.206 16.306 112.273 16.219 L 118.803 7.309 L 118.853 7.309 Z M 110.893 21.269 L 110.893 21.289 C 110.893 21.309 110.886 21.319 110.873 21.319 C 110.853 21.319 110.829 21.309 110.803 21.289 C 110.803 21.256 110.813 21.236 110.833 21.229 C 110.873 21.236 110.893 21.249 110.893 21.269 Z M 107.443 21.119 C 107.443 21.139 107.433 21.152 107.413 21.159 C 107.386 21.152 107.366 21.139 107.353 21.119 L 107.393 21.079 C 107.413 21.086 107.429 21.099 107.443 21.119 Z M 111.533 16.049 L 111.843 16.049 C 111.843 15.636 111.833 15.392 111.813 15.319 C 111.746 15.099 111.553 14.989 111.233 14.989 C 110.906 14.989 110.499 15.096 110.013 15.309 C 109.453 15.556 109.173 15.809 109.173 16.069 C 109.359 16.069 109.639 16.019 110.013 15.919 C 110.386 15.819 110.673 15.769 110.873 15.769 C 111.226 15.769 111.433 15.842 111.493 15.989 C 111.286 15.956 111.116 15.939 110.983 15.939 C 110.416 15.939 109.546 16.502 108.373 17.629 C 107.199 18.756 106.613 19.599 106.613 20.159 C 106.613 20.319 106.659 20.436 106.753 20.509 C 107.359 20.509 107.869 20.392 108.283 20.159 C 108.816 19.852 109.446 19.346 110.173 18.639 C 110.953 17.866 111.419 17.236 111.573 16.749 C 111.566 16.729 111.553 16.656 111.533 16.529 C 111.533 16.409 111.533 16.249 111.533 16.049 Z M 120.649 18.439 L 120.729 18.439 C 119.782 19.392 119.112 20.016 118.719 20.309 C 117.845 20.962 117.012 21.289 116.219 21.289 C 115.825 21.289 115.439 21.179 115.059 20.959 C 114.545 20.666 114.289 20.392 114.289 20.139 C 114.289 19.266 114.315 18.729 114.369 18.529 C 114.469 18.349 114.585 18.136 114.719 17.889 C 114.759 17.809 114.819 17.682 114.899 17.509 C 115.239 16.829 115.842 16.216 116.709 15.669 C 117.575 15.116 118.389 14.839 119.149 14.839 C 119.495 14.839 119.669 14.839 119.669 14.839 C 119.875 14.859 120.045 14.989 120.179 15.229 C 120.292 15.436 120.349 15.652 120.349 15.879 C 120.349 16.766 119.789 17.519 118.669 18.139 C 118.102 18.452 117.149 18.809 115.809 19.209 C 115.715 19.462 115.669 19.712 115.669 19.959 C 115.669 20.379 115.935 20.589 116.469 20.589 C 117.195 20.589 117.949 20.352 118.729 19.879 C 119.042 19.686 119.682 19.206 120.649 18.439 Z M 119.759 15.449 C 119.759 15.296 119.669 15.142 119.489 14.989 L 119.119 14.989 C 118.752 14.989 118.322 15.146 117.829 15.459 C 117.289 15.806 117.019 16.146 117.019 16.479 C 117.132 16.459 117.189 16.449 117.189 16.449 C 118.029 16.076 118.855 15.849 119.669 15.769 C 119.729 15.702 119.759 15.596 119.759 15.449 Z M 119.379 16.429 C 119.379 16.389 119.375 16.339 119.369 16.279 C 119.355 16.212 119.349 16.166 119.349 16.139 C 119.289 16.079 119.172 16.049 118.999 16.049 C 118.765 16.049 118.575 16.099 118.429 16.199 C 117.529 16.786 116.812 17.532 116.279 18.439 L 116.279 18.639 C 116.752 18.639 117.375 18.386 118.149 17.879 C 118.969 17.346 119.379 16.862 119.379 16.429 Z M 118.109 20.589 L 118.109 20.419 C 117.889 20.419 117.582 20.492 117.189 20.639 C 116.595 20.852 116.292 20.962 116.279 20.969 L 116.279 21.139 C 116.772 21.139 117.382 20.956 118.109 20.589 Z M 131.445 17.999 L 131.445 18.089 C 131.212 18.329 130.849 18.682 130.355 19.149 C 130.175 19.296 129.905 19.519 129.545 19.819 C 128.552 20.699 127.795 21.139 127.275 21.139 C 127.042 21.139 126.789 21.062 126.515 20.909 C 126.215 20.729 126.065 20.529 126.065 20.309 C 126.065 19.862 126.402 19.216 127.075 18.369 C 127.582 17.789 128.092 17.206 128.605 16.619 L 128.605 16.279 C 128.559 16.279 128.489 16.272 128.395 16.259 C 128.302 16.239 128.229 16.229 128.175 16.229 C 127.982 16.229 127.589 16.409 126.995 16.769 C 126.215 17.236 125.375 17.896 124.475 18.749 C 124.202 19.009 123.459 19.776 122.245 21.049 C 121.905 21.109 121.542 21.139 121.155 21.139 L 120.955 21.139 C 121.029 21.072 121.065 21.002 121.065 20.929 C 121.065 20.909 121.055 20.876 121.035 20.829 C 121.022 20.789 121.015 20.759 121.015 20.739 C 121.015 20.346 121.835 19.129 123.475 17.089 C 123.615 16.916 123.685 16.676 123.685 16.369 C 123.605 16.349 123.479 16.329 123.305 16.309 C 122.952 16.482 122.555 16.759 122.115 17.139 C 121.749 17.452 121.382 17.769 121.015 18.089 C 120.935 18.156 120.822 18.252 120.675 18.379 L 120.605 18.379 C 122.392 16.599 123.369 15.709 123.535 15.709 L 123.475 15.789 L 123.515 15.939 C 123.595 15.939 123.719 15.926 123.885 15.899 C 124.052 15.866 124.175 15.849 124.255 15.849 C 124.329 15.849 124.439 15.866 124.585 15.899 C 124.732 15.926 124.842 15.939 124.915 15.939 C 125.029 15.939 125.085 15.832 125.085 15.619 C 125.085 15.412 124.945 15.309 124.665 15.309 C 124.552 15.309 124.392 15.349 124.185 15.429 C 123.985 15.516 123.829 15.559 123.715 15.559 C 124.135 15.292 124.499 15.159 124.805 15.159 C 125.305 15.159 125.555 15.449 125.555 16.029 C 125.555 16.422 125.192 17.129 124.465 18.149 L 124.465 18.259 C 124.499 18.272 124.555 18.292 124.635 18.319 C 124.929 18.206 125.399 17.849 126.045 17.249 C 126.752 16.596 127.252 16.189 127.545 16.029 C 127.539 16.122 127.582 16.169 127.675 16.169 C 127.862 16.169 128.132 16.106 128.485 15.979 C 128.832 15.852 129.099 15.789 129.285 15.789 C 129.345 15.736 129.375 15.652 129.375 15.539 C 129.375 15.386 129.252 15.309 129.005 15.309 C 128.925 15.309 128.812 15.336 128.665 15.389 C 128.512 15.449 128.395 15.479 128.315 15.479 C 128.582 15.266 128.869 15.159 129.175 15.159 C 129.615 15.159 129.835 15.532 129.835 16.279 C 129.835 16.706 129.455 17.376 128.695 18.289 C 127.929 19.202 127.545 19.789 127.545 20.049 C 127.545 20.256 127.639 20.359 127.825 20.359 C 128.259 20.359 128.885 20.049 129.705 19.429 C 130.292 18.956 130.872 18.479 131.445 17.999 Z M 128.145 20.649 L 128.035 20.649 C 127.995 20.649 127.799 20.706 127.445 20.819 L 127.445 21.029 C 127.912 21.029 128.145 20.902 128.145 20.649 Z"/>
    <path d="M 164.723 4.469 C 164.723 4.776 164.4 5.036 163.753 5.249 C 163.473 5.336 163.1 5.549 162.633 5.889 C 162.133 6.262 161.853 6.566 161.793 6.799 C 161.593 6.986 161.317 7.269 160.963 7.649 L 156.593 13.399 C 157.02 13.286 157.497 13.039 158.023 12.659 C 158.797 12.092 159.24 11.772 159.353 11.699 L 159.353 11.799 C 159.353 12.132 158.94 12.502 158.113 12.909 C 157.713 13.076 157.13 13.336 156.363 13.689 C 155.843 14.302 155.2 15.052 154.433 15.939 C 151.453 19.252 147.62 20.909 142.933 20.909 C 141.707 20.909 140.603 20.752 139.623 20.439 C 139.563 20.426 139.377 20.342 139.063 20.189 C 138.79 20.056 138.623 19.989 138.563 19.989 C 138.43 19.989 138.2 19.966 137.873 19.919 C 137.727 19.899 137.497 19.876 137.183 19.849 C 136.23 19.749 135.39 19.476 134.663 19.029 C 133.743 18.476 133.283 17.779 133.283 16.939 C 133.283 16.099 133.687 15.422 134.493 14.909 C 135.133 14.496 135.927 14.246 136.873 14.159 C 137.04 14.152 137.3 14.132 137.653 14.099 C 137.84 14.072 138.163 13.872 138.623 13.499 C 139.23 13.019 139.563 12.759 139.623 12.719 C 141.423 11.626 143.63 11.059 146.243 11.019 C 146.357 10.526 146.527 10.192 146.753 10.019 L 146.753 10.069 C 146.753 10.136 146.717 10.262 146.643 10.449 C 146.563 10.642 146.523 10.832 146.523 11.019 C 147.763 11.199 148.667 11.489 149.233 11.889 C 149.453 12.036 149.653 12.109 149.833 12.109 C 150.013 12.022 150.443 11.916 151.123 11.789 C 151.763 11.669 152.28 11.489 152.673 11.249 C 153.427 8.876 155.843 7.246 159.923 6.359 C 160.27 6.306 160.767 6.202 161.413 6.049 C 161.633 5.929 161.953 5.756 162.373 5.529 C 163.02 5.176 163.803 4.822 164.723 4.469 Z M 162.453 5.729 L 162.453 5.719 C 162.447 5.672 162.43 5.649 162.403 5.649 L 162.393 5.649 C 162.36 5.649 162.343 5.672 162.343 5.719 L 162.343 5.729 C 162.343 5.789 162.36 5.819 162.393 5.819 L 162.403 5.819 C 162.437 5.819 162.453 5.789 162.453 5.729 Z M 162.263 5.819 C 161.99 5.906 161.853 5.992 161.853 6.079 L 161.883 6.099 C 161.957 6.086 162.083 5.992 162.263 5.819 Z M 154.753 10.319 L 160.563 6.559 C 160.463 6.559 160.413 6.559 160.413 6.559 C 158.747 6.979 157.45 7.436 156.523 7.929 C 155.163 8.656 154.207 9.609 153.653 10.789 L 153.823 10.789 C 154.043 10.689 154.353 10.532 154.753 10.319 Z M 161.483 6.419 L 161.373 6.419 C 161.24 6.419 160.793 6.666 160.033 7.159 C 159.22 7.712 157.997 8.539 156.363 9.639 C 156.097 9.812 155.357 10.242 154.143 10.929 C 154.01 10.996 153.823 11.099 153.583 11.239 C 153.483 11.306 153.433 11.579 153.433 12.059 C 153.433 12.992 153.893 13.459 154.813 13.459 C 154.847 13.446 154.877 13.426 154.903 13.399 C 156.51 11.246 157.973 9.582 159.293 8.409 C 159.787 7.976 160.517 7.312 161.483 6.419 Z M 147.623 11.569 L 147.903 11.569 C 147.49 11.416 147.117 11.339 146.783 11.339 L 146.523 11.339 L 146.613 11.479 C 147.427 11.539 147.763 11.569 147.623 11.569 Z M 154.583 13.859 L 154.583 13.779 C 153.35 13.492 152.687 12.832 152.593 11.799 L 152.443 11.799 C 152.517 11.799 152.107 11.922 151.213 12.169 C 150.933 12.249 150.523 12.376 149.983 12.549 C 150.35 13.102 150.533 13.676 150.533 14.269 C 150.533 15.602 149.64 16.792 147.853 17.839 C 146.64 18.559 145.157 19.149 143.403 19.609 L 143.403 19.649 C 143.403 19.709 143.607 19.782 144.013 19.869 C 144.38 19.949 144.637 19.989 144.783 19.989 L 145.583 19.989 C 147.423 19.989 149.13 19.376 150.703 18.149 C 151.203 17.749 151.863 17.106 152.683 16.219 C 153.503 15.332 154.087 14.626 154.433 14.099 C 154.533 13.952 154.583 13.872 154.583 13.859 Z M 150.003 14.039 C 150.003 13.386 149.763 12.946 149.283 12.719 C 148.657 12.679 148.267 12.649 148.113 12.629 C 147.7 12.576 147.327 12.469 146.993 12.309 L 146.783 12.309 C 145.51 12.309 144.297 12.802 143.143 13.789 C 141.93 14.816 141.323 15.952 141.323 17.199 C 141.323 17.659 141.487 18.136 141.813 18.629 C 142.16 19.169 142.553 19.439 142.993 19.439 C 143.5 19.439 144.19 19.269 145.063 18.929 C 146.33 18.422 147 18.112 147.073 17.999 L 146.963 17.999 C 146.823 17.999 146.62 18.009 146.353 18.029 C 146.087 18.049 145.887 18.059 145.753 18.059 C 144.967 18.059 144.15 17.829 143.303 17.369 L 143.303 17.319 C 143.303 17.239 143.337 17.182 143.403 17.149 C 144.323 17.562 145.137 17.769 145.843 17.769 C 146.99 17.769 147.957 17.439 148.743 16.779 C 149.583 16.079 150.003 15.166 150.003 14.039 Z M 146.293 11.569 L 146.333 11.479 L 146.333 11.449 C 146.333 11.356 146.303 11.289 146.243 11.249 L 145.443 11.249 C 144.303 11.249 143.2 11.419 142.133 11.759 C 140.927 12.146 139.967 12.692 139.253 13.399 L 138.653 14.009 L 138.653 14.099 C 139.84 14.252 140.653 14.576 141.093 15.069 C 141.213 14.996 141.34 14.846 141.473 14.619 C 141.627 14.332 141.733 14.159 141.793 14.099 C 143.093 12.626 144.593 11.782 146.293 11.569 Z M 147.273 17.929 L 147.273 17.909 C 147.273 17.856 147.257 17.829 147.223 17.829 L 147.213 17.829 C 147.187 17.829 147.17 17.856 147.163 17.909 L 147.163 17.929 C 147.17 17.976 147.187 17.999 147.213 17.999 L 147.223 17.999 C 147.257 17.999 147.273 17.976 147.273 17.929 Z M 142.153 19.609 L 142.323 19.529 C 142.303 19.522 142.277 19.492 142.243 19.439 C 142.143 19.359 141.993 19.232 141.793 19.059 C 141.173 18.566 140.863 17.796 140.863 16.749 C 140.863 16.589 140.887 16.359 140.933 16.059 C 140.98 15.752 141.003 15.522 141.003 15.369 C 141.003 15.082 140.677 14.819 140.023 14.579 C 139.47 14.386 139.003 14.289 138.623 14.289 C 138.27 14.289 137.983 14.642 137.763 15.349 C 137.59 15.896 137.503 16.406 137.503 16.879 C 137.503 18.192 138.04 19.152 139.113 19.759 L 140.723 19.759 C 140.81 19.759 141.287 19.709 142.153 19.609 Z M 146.393 20.309 L 145.003 20.309 C 144.763 20.309 144.353 20.219 143.773 20.039 C 143.2 19.852 142.843 19.759 142.703 19.759 C 142.343 19.759 141.807 19.799 141.093 19.879 C 140.38 19.952 139.843 19.989 139.483 19.989 L 139.563 20.079 C 140.877 20.479 141.74 20.679 142.153 20.679 L 143.263 20.679 C 144.277 20.679 145.32 20.556 146.393 20.309 Z M 138.253 19.679 C 137.333 18.872 136.873 17.909 136.873 16.789 C 136.873 16.396 136.967 15.969 137.153 15.509 C 137.347 15.122 137.54 14.729 137.733 14.329 C 137.693 14.329 137.637 14.322 137.563 14.309 C 137.483 14.296 137.423 14.289 137.383 14.289 C 136.517 14.289 135.733 14.496 135.033 14.909 C 134.207 15.402 133.793 16.052 133.793 16.859 C 133.793 17.752 134.313 18.472 135.353 19.019 C 136.227 19.472 137.157 19.699 138.143 19.699 C 138.163 19.692 138.2 19.686 138.253 19.679 Z M 165.099 17.999 L 165.099 18.089 C 164.866 18.329 164.503 18.682 164.009 19.149 C 163.829 19.296 163.559 19.519 163.199 19.819 C 162.206 20.699 161.449 21.139 160.929 21.139 C 160.696 21.139 160.443 21.062 160.169 20.909 C 159.869 20.729 159.719 20.529 159.719 20.309 C 159.719 19.862 160.056 19.216 160.729 18.369 C 161.236 17.789 161.746 17.206 162.259 16.619 L 162.259 16.279 C 162.213 16.279 162.143 16.272 162.049 16.259 C 161.956 16.239 161.883 16.229 161.829 16.229 C 161.636 16.229 161.243 16.409 160.649 16.769 C 159.869 17.236 159.029 17.896 158.129 18.749 C 157.856 19.009 157.113 19.776 155.899 21.049 C 155.559 21.109 155.196 21.139 154.809 21.139 L 154.609 21.139 C 154.683 21.072 154.719 21.002 154.719 20.929 C 154.719 20.909 154.709 20.876 154.689 20.829 C 154.676 20.789 154.669 20.759 154.669 20.739 C 154.669 20.346 155.489 19.129 157.129 17.089 C 157.269 16.916 157.339 16.676 157.339 16.369 C 157.259 16.349 157.133 16.329 156.959 16.309 C 156.606 16.482 156.209 16.759 155.769 17.139 C 155.403 17.452 155.036 17.769 154.669 18.089 C 154.589 18.156 154.476 18.252 154.329 18.379 L 154.259 18.379 C 156.046 16.599 157.023 15.709 157.189 15.709 L 157.129 15.789 L 157.169 15.939 C 157.249 15.939 157.373 15.926 157.539 15.899 C 157.706 15.866 157.829 15.849 157.909 15.849 C 157.983 15.849 158.093 15.866 158.239 15.899 C 158.386 15.926 158.496 15.939 158.569 15.939 C 158.683 15.939 158.739 15.832 158.739 15.619 C 158.739 15.412 158.599 15.309 158.319 15.309 C 158.206 15.309 158.046 15.349 157.839 15.429 C 157.639 15.516 157.483 15.559 157.369 15.559 C 157.789 15.292 158.153 15.159 158.459 15.159 C 158.959 15.159 159.209 15.449 159.209 16.029 C 159.209 16.422 158.846 17.129 158.119 18.149 L 158.119 18.259 C 158.153 18.272 158.209 18.292 158.289 18.319 C 158.583 18.206 159.053 17.849 159.699 17.249 C 160.406 16.596 160.906 16.189 161.199 16.029 C 161.193 16.122 161.236 16.169 161.329 16.169 C 161.516 16.169 161.786 16.106 162.139 15.979 C 162.486 15.852 162.753 15.789 162.939 15.789 C 162.999 15.736 163.029 15.652 163.029 15.539 C 163.029 15.386 162.906 15.309 162.659 15.309 C 162.579 15.309 162.466 15.336 162.319 15.389 C 162.166 15.449 162.049 15.479 161.969 15.479 C 162.236 15.266 162.523 15.159 162.829 15.159 C 163.269 15.159 163.489 15.532 163.489 16.279 C 163.489 16.706 163.109 17.376 162.349 18.289 C 161.583 19.202 161.199 19.789 161.199 20.049 C 161.199 20.256 161.293 20.359 161.479 20.359 C 161.913 20.359 162.539 20.049 163.359 19.429 C 163.946 18.956 164.526 18.479 165.099 17.999 Z M 161.799 20.649 L 161.689 20.649 C 161.649 20.649 161.453 20.706 161.099 20.819 L 161.099 21.029 C 161.566 21.029 161.799 20.902 161.799 20.649 Z M 175.854 17.999 L 175.854 18.089 C 175.62 18.329 175.257 18.682 174.764 19.149 C 174.584 19.296 174.314 19.519 173.954 19.819 C 172.96 20.699 172.204 21.139 171.684 21.139 C 171.45 21.139 171.197 21.062 170.924 20.909 C 170.624 20.729 170.474 20.529 170.474 20.309 C 170.474 19.862 170.81 19.216 171.484 18.369 C 171.99 17.789 172.5 17.206 173.014 16.619 L 173.014 16.279 C 172.967 16.279 172.897 16.272 172.804 16.259 C 172.71 16.239 172.637 16.229 172.584 16.229 C 172.39 16.229 171.997 16.409 171.404 16.769 C 170.624 17.236 169.784 17.896 168.884 18.749 C 168.61 19.009 167.867 19.776 166.654 21.049 C 166.314 21.109 165.95 21.139 165.564 21.139 L 165.364 21.139 C 165.437 21.072 165.474 21.002 165.474 20.929 C 165.474 20.909 165.464 20.876 165.444 20.829 C 165.43 20.789 165.424 20.759 165.424 20.739 C 165.424 20.346 166.244 19.129 167.884 17.089 C 168.024 16.916 168.094 16.676 168.094 16.369 C 168.014 16.349 167.887 16.329 167.714 16.309 C 167.36 16.482 166.964 16.759 166.524 17.139 C 166.157 17.452 165.79 17.769 165.424 18.089 C 165.344 18.156 165.23 18.252 165.084 18.379 L 165.014 18.379 C 166.8 16.599 167.777 15.709 167.944 15.709 L 167.884 15.789 L 167.924 15.939 C 168.004 15.939 168.127 15.926 168.294 15.899 C 168.46 15.866 168.584 15.849 168.664 15.849 C 168.737 15.849 168.847 15.866 168.994 15.899 C 169.14 15.926 169.25 15.939 169.324 15.939 C 169.437 15.939 169.494 15.832 169.494 15.619 C 169.494 15.412 169.354 15.309 169.074 15.309 C 168.96 15.309 168.8 15.349 168.594 15.429 C 168.394 15.516 168.237 15.559 168.124 15.559 C 168.544 15.292 168.907 15.159 169.214 15.159 C 169.714 15.159 169.964 15.449 169.964 16.029 C 169.964 16.422 169.6 17.129 168.874 18.149 L 168.874 18.259 C 168.907 18.272 168.964 18.292 169.044 18.319 C 169.337 18.206 169.807 17.849 170.454 17.249 C 171.16 16.596 171.66 16.189 171.954 16.029 C 171.947 16.122 171.99 16.169 172.084 16.169 C 172.27 16.169 172.54 16.106 172.894 15.979 C 173.24 15.852 173.507 15.789 173.694 15.789 C 173.754 15.736 173.784 15.652 173.784 15.539 C 173.784 15.386 173.66 15.309 173.414 15.309 C 173.334 15.309 173.22 15.336 173.074 15.389 C 172.92 15.449 172.804 15.479 172.724 15.479 C 172.99 15.266 173.277 15.159 173.584 15.159 C 174.024 15.159 174.244 15.532 174.244 16.279 C 174.244 16.706 173.864 17.376 173.104 18.289 C 172.337 19.202 171.954 19.789 171.954 20.049 C 171.954 20.256 172.047 20.359 172.234 20.359 C 172.667 20.359 173.294 20.049 174.114 19.429 C 174.7 18.956 175.28 18.479 175.854 17.999 Z M 172.554 20.649 L 172.444 20.649 C 172.404 20.649 172.207 20.706 171.854 20.819 L 171.854 21.029 C 172.32 21.029 172.554 20.902 172.554 20.649 Z"/>
  </g>
</svg>
