<svg xmlns="http://www.w3.org/2000/svg" viewBox="0 0 91 27"><title>Del Mar</title><path d="M7.821 19.856q0 .123-.393.334-.305.17-.401.193-.097.024-.46.024.023 0-.489.387-.513.386-.988.386-.246 0-.474-.146-.299-.188-.299-.363 0-.129.02-.378.021-.249.021-.372 0-.071-.065-.065.182-.275.551-.814.276-.411.788-.683.513-.272 1.005-.272.293 0 .451.181.059.07.252.44.153.293.153.357 0 .188-.082.322-.288.463-.663.838v.059q.264 0 .346-.029.322-.118.727-.399zm-.703-.885q0-.41-.03-.527-.082-.287-.381-.287-.527 0-1.025.592v.082q.176 0 .51-.132.334-.132.51-.132.029 0 .046.006l.041.023q-.585.311-1.201.92-.732.733-.732 1.237 0 .017.012.064.005.047 0 .07l.087.071q.704 0 1.459-.844.071-.276.252-.504.194-.211.387-.416.065-.082.065-.223zM5.53 21.069v-.07h-.106v.07zm10.1-7.74q0 .345-.632 1.019-.059.065-.967.885-.322.305-.979.879-.398.328-1.201.967-.422.345-.937.72.017-.082-.071-.082-.099 0-.345.211-.246.211-.246.311 0 .07.041.07-.164.147-.446.44-.158.205-.779 1.072-.68.949-.68.984v.082q.293 0 .774-.246.433-.222.685-.457.27-.211.774-.662h.041q0 .106-.158.258-.059.053-.252.182-.094.076-.276.216-.457.346-.832.534-.211.082-.633.257-.369.17-.498.469-.199.557-.633 1.647-.796 1.798-1.769 2.882-.656.733-1.02.733-.304 0-.304-.334 0-.305.304-.926.809-1.646 2.983-4.553.017-.023.088-.263.041-.141.381-.358l.744-.967v-.064h-.153q.188-.147.375-.293.252-.199.288-.328l2.871-3.358q0 0 .621-.603.603-.598.767-.744.469-.428.832-.668.469-.299.844-.299.398 0 .398.387zM8.523 19.34l-.111.112h-.041l.111-.112zm6.803-6.07v-.135q-.082-.111-.235-.111-.357 0-1.16.797v.088q.381 0 .469.129.059.082.059.492h.052q.815-.756.815-1.26zm-.99.914q0-.129-.112-.17-.017 0-.05-.006-.032-.005-.049-.005-.381 0-.452.082l-2.982 3.603h.082q.047 0 .756-.521.639-.469.82-.61.059-.058.176-.17.633-.58 1.222-1.092.589-.513.589-1.111zM7.82 21.772v-.1q-.065 0-.141.1-.269.34-.808 1.02-1.108 1.447-1.881 2.8-.287.51-.287.75 0 .135.135.135.193 0 .345-.152l.446-.44q.169-.175.468-.638.258-.369.727-1.155.346-.656.914-2.115.041-.099.082-.205zM30.379 9.057h-.059q-.035 0-.164-.129h.082zm-.281-.211h-.082l-.082-.058h.023l.035-.024q.012.012.106.082zm12.808 1.207q0 1.641-1.289 2.672-1.207.973-2.883.973-.867 0-1.511-.41-.75-.481-.75-1.301 0-.363.258-.938.281-.668.574-.668h.14q-.75.891-.75 1.524 0 1.348 1.993 1.348 1.546 0 2.73-.821 1.324-.914 1.324-2.402 0-1.289-1.09-1.957-.914-.551-2.285-.551-2.613 0-5.461 1.84-.14.094-.14.305 0-.071.105.492.117.644.117 1.195 0 .961-.879 3.891-.128.433-.304.797-1.36 2.882-4.266 3.949-2.109.773-5.918.773-.328 0-.978-.041-.651-.041-.979-.041-.515 0-1.722.164-1.032.141-2.309.141-.527 0-.703-.117-.211-.153-.188-.633-.07-.117-.211-.352 0-.609 1.407-.609 1.453 0 2.648.469h-.223q.094 0-.761-.141-.95-.164-1.618-.164h-.796q-.141 0-.334.147-.194.146-.194.298 0 .223.223.223.281 0 .885-.152.603-.153 1.494-.153.199 0 2.121.387 1.16-.551 2.32-1.102 1.313-.679 2.016-1.558l4.418-5.438q.351-.433 1.547-1.617 1.265-1.277 1.265-1.242v-.059l-.023-.035q-1.277-1.265-2.391-1.699-.34-.141-.398-.141 0 0-1.113 0-.247 0-.516.082v.024q0 .41 1.019.691 1.161.328 1.348.61h-.082q-1.406-.586-1.898-.586 0 .176.041.515.041.34.041.504 0 1.278-.469 2.215v.059q0 .105.041.328.041.222.041.328 0 1.148-1.324 2.156-.094.071-.61.363 1.817-1.113 1.817-2.871h-.106q-.808 1.512-2.871 3.446.574-.223 1.031-.492l-1.558.937q-1.301.773-1.758.984-.961.422-1.969.422-1.687 0-2.718-.867-1.114-.926-1.114-2.59 0-1.945 1.289-3.574 1.137-1.43 3.047-2.379 2.555-1.277 4.055-1.277 1.078 0 3.094.304.351.129 1.101.305.34.047 1.653.281 1.277.223 2.015.903.293.281.445.281.34-.199 1.02-.586.539-.258 1.629-.797h.164q.012.188-.082.223-.586.269-1.383.738-1.078.645-1.078.867 0 .141.164.293 3.234-1.758 5.777-1.758h1.079q.175 0 .738.211 1.769.657 1.769 2.461zm-22.382 9.95v.011q-.012.047-.036.059-.023-.024-.023-.047v-.023q.012-.012.023-.012h.012q.024 0 .024.012zm-.211-.071q-.024.047-.094.082-.035-.023-.07-.082.011-.023.058-.023h.035q.035 0 .071.023zm-.211-.082q-.035.082-.106.117-.07-.093-.07-.117.012-.023.058-.023h.047q.036 0 .071.023zm-.246-.047q-.047.047-.106.047-.058 0-.117-.047.023-.035.094-.035h.035q.082 0 .094.035zM33.25 9.362v-.024q0-.281-.223-.281l-.503.528q0 .14.14.14h.082zm-.504-.738q0-.422-1.054-.856-.95-.387-1.477-.387h-.199q1.183.692 2.121 1.676h.058q.118 0 .334-.164.217-.164.217-.269zm.797 1.382q0-.199-.082-.281-.574.328-.574.692.656 0 .656-.411zm-3.609-2.707v-.023q-.012 0-.024-.012h-.011q-.024.012-.024.024v.011q.012.036.035.047.024-.023.024-.047zm2.484 2.508h-.105q-.071 0-.37.34-.298.34-.298.41.773-.258.773-.75zm1.348 1.43q0-.762-.129-1.066l-.61.386q.305.856.434 2.649.305-1.102.305-1.969zm-2.285-.492v-.059q0-.023-.012-.023-.035 0-.07.082l.023.023zm-3.668-3.727q-.329-.082-.633-.082h-.176q.117.164.363.164.188 0 .446-.082zm-.504.75q0-.246-.27-.246-.222 0-.551.164.375.082.422.082zm5.718 4.828q0-1.453-.246-1.828h-.035q-.152 0-.375.141.317-.235.317-.434h-.106l-.574.574h.023q.106 0 .246-.082-.269.2-.269.387 0 .199.064.604.065.404.065.615 0 1.582-.809 3.187-.797 1.559-2.062 2.602-.328.281-.657.633 1.981-.985 3.141-2.578 1.277-1.735 1.277-3.821zm-5.355-3.363q0-1.078-.305-1.277-.386-.047-.586-.047h-.879q-2.261 1.019-3.093 2.039.187-.012.363-.012.621 0 1.02.176.07 0 .527.223 1.16 0 1.394.035.61.117 1.172.679.387-.199.387-1.816zm-.891-2.074q-.199-.305-.902-.305-4.559 0-6.82 2.871 1.617-1.078 3.703-1.617 1.969-.434 3.937-.867zm.446 4.054q-.528-.738-1.852-.738h-.433q.738.961.738 1.981 0 .75-.434 1.687 1.981-1.992 1.981-2.93zm4.781 1.055q0-.855-.223-.855-.129 0-.222.082-1.782 1.465-3.868 4.465-1.617 2.332-3.281 3.117-.937.398-2.789 1.242-.012.164 1.406.164 4.993 0 7.547-3.656 1.43-2.028 1.43-4.559zm-6.68-.035q0-.48-.234-.996-.27-.633-.68-.633-.82 0-2.847 1.406.773-.937 2.707-1.535-.2-.304-1.102-.304-.363 0-.668.082-1.43 1.347-1.898 2.507l.222-.164q-.832.774-.832 2.203 0 1.196 1.488 1.196 1.465 0 2.655-1.149 1.189-1.148 1.189-2.613zm3.199 6.855v-.023q-.011-.07-.046-.07h-.012q-.047 0-.059.07v.023q.012.047.047.047h.024q.046-.011.046-.047zm0 .305v-.023q-.011-.071-.046-.071h-.012q-.047 0-.059.071v.023q.012.047.047.047h.024q.046-.012.046-.047zm-.14.059v-.024q-.012-.07-.047-.07h-.012q-.047 0-.047.07v.024q0 .07.047.07h.012q.047 0 .047-.07zm-.164.082v-.024q-.012-.07-.047-.07h-.012q-.047 0-.047.07v.024q0 .047.047.047h.012q.047-.012.047-.047zm-.141.082v-.024q-.012-.07-.047-.07h-.011q-.047 0-.047.07v.024q.011.047.047.047h.011q.047-.012.047-.047zm-.14.058v-.023q0-.07-.047-.07h-.012q-.047 0-.047.07v.023q.012.071.047.071h.012q.047 0 .047-.071zM24.274 8.038h-.082q-.258 0-1.547.445-1.793.621-3.411 2.063-1.886 1.699-1.886 3.316 0 .234.152.633.152.398.152.609-.269-.211-.515-.82-.235-.574-.235-.949.012-.024.036-.082-.012-.047 0-.047.55-2.285 2.918-4.723-.247.094-.575.363-.281.2-.808.645-1.922 1.734-1.922 3.902 0 1.5.891 2.379.89.879 2.39.879.996 0 1.735-.305-.188.035-.879.035-1.957 0-2.649-.914h.024q1.324.739 2.683.739-1.629-.457-1.629-2.039 0-3.446 5.157-6.129zm3.503 11.718v-.035q-.011-.058-.046-.058h-.012q-.047 0-.047.058v.035q.012.036.047.047h.012q.046-.011.046-.047zm-.187.047q-.023-.035-.059-.035l-.023.035.047.047q.035-.023.035-.047zm-.164.094v-.023q-.012-.071-.059-.071h-.011q-.036 0-.047.071v.023q.011.07.047.07h.011q.047 0 .059-.07zm-.223.07v-.023q-.011-.059-.047-.059h-.011q-.047 0-.059.059v.023q.012.047.047.047h.023q.047 0 .047-.047zm-4.476-.527l-1.676.668h.129q1.137 0 1.547-.668zm-6.012.961q0-.141-.117-.246h-.129q-.176 0-.363.082.058.164.457.164zm.141.223q-.34-.082-.997-.246 0 .246.188.246zm4.546-8.532q0 .118-.222.223-.012 0-.012 0 0-.094.234-.223zm-3.398 3.329q0 .046-.035.046h-.024q-.046-.011-.046-.046v-.024-.023q-.012.011-.024.011h-.012q-.046-.011-.046-.047v-.011h-.012q-.035 0-.047-.071v-.011q-.012 0-.012 0h-.023q-.047-.012-.047-.047v-.024q.012-.07.047-.07h.011q.047 0 .059.07 0-.011.012-.011h.023q.035 0 .047.082h0q.047 0 .047.07v.023q.012-.011.023-.011h.012q.047 0 .047.07zm20.846 3.14q-1.371 1.371-1.934 1.793-1.254.938-2.402.938-.563 0-1.113-.317-.739-.422-.739-.785 0-1.254.082-1.547.141-.258.328-.609.059-.117.176-.363.492-.985 1.74-1.776 1.249-.791 2.338-.791.504 0 .504 0 .293.024.492.375.165.293.165.621 0 1.278-1.618 2.168-.82.457-2.742 1.031-.14.364-.14.715 0 .61.773.61 1.043 0 2.168-.68.445-.281 1.84-1.383zm-.938-2.871q0-.223-.257-.445h-.352q-.527 0-1.242.457-.774.492-.774.972.164-.023.164-.023 1.207-.539 2.379-.656.082-.094.082-.305zm-.363.938q0-.059-.012-.147-.011-.088-.011-.135-.094-.082-.34-.082-.34 0-.551.141-1.289.844-2.063 2.156v.188q.68 0 1.793-.727 1.184-.773 1.184-1.394zm-1.219 3.996v-.164q-.316 0-.879.211-.855.304-.879.316v.164q.715 0 1.758-.527zM53.862 5.448q0 .726-.891 1.652l-1.652 1.735q-.235.281-.832.867 0 0-2.649 2.144l-5.297 4.313q-.375.304-1.218 1.652-.774 1.219-1.079 1.875 0 .035-.011.088-.012.053-.012.076 0 .059.023.211.012.141 0 .211l.094.082q.856 0 2.285-1.113h.059q-.469.597-1.336 1.148-.961.621-1.594.621-.937 0-.937-.714 0-.645.633-1.934.058-.07.14-.223l.024-.023q0-.199-.164-.199.351-.305.972-.961L47.1 8.87q.387-.481 2.285-2.039 2.508-2.075 3.621-2.075.856 0 .856.692zm-9.996 12.773q-.118.106-.329.305l-.035-.023.305-.305h.035zm-.75.668l-.211.223h-.059q.082-.082.246-.246zm-3.833-.832q-.14.153-.363.328zM53.276 5.424q0-.527-.551-.527-.27 0-.762.246-.539.281-.539.492v.082q.106 0 .305.03.199.029.304.029.083.082.223.082.504.609.574.609.2 0 .34-.433.106-.352.106-.61zm-.879 1.043q0-.328-.305-.468-1.078 0-1.242.164-.516.457-1.406 1.383l-5.661 6.761v.164q.188 0 .305-.082 1.043-.75 2.918-2.203.492-.445 1.606-1.453l3.199-2.883q.586-.527.586-1.383z"/><path d="M86.647 8.483q0 1.652-2.144 2.414-1.5.539-3.516.539-1.207 0-1.629-.058-.691-.094-1.593-.223-.715-.106-.692-.106h-.164l-.164.141q-.117.082-.281.246l-3.528 4.641q-.093.105-.855 1.347-1.195 1.911-1.195 2.508 0 .422.75.422.586 0 1.16-.469.68-.515 1.676-1.382.527-.586.527-1.407v-.363q-.328-.387-.691-.387-.856 0-1.571.844-.679.785-.738 1.676h-.117q0-1.02.691-1.817.715-.843 1.711-.843 1.02 0 1.02 1.031 0 1.805-2.731 3.164-1.219.609-1.629.609.012 0-.797-.164-.761-.152-.808-.175-.387-.165-.387-.68 0-.797 1.195-2.485.575-.832 1.758-2.484.949-1.277 4.067-4.113v-.082q-.071-.071-.235-.071-.047 0-.07.012-.094.024-9.938 9.551-.679.668-1.183.914-.258 0-.539-.422-.27-.387-.27-.656 0-.692 1.055-2.098 2.859-3.82 5.051-6.129l-4.91 4.723q-4.829 4.641-10.301 4.641-2.531 0-4.184-.891-2.086-1.125-2.086-3.445 0-2.039 1.793-3.703 1.594-1.5 3.739-1.981 1.089-.246 2.73-.504 2.016-2.203 6.094-2.203.246 0 .72.041.475.041.721.041.645 0 .469-.023l6.422.996 4.254-2.602q.269-.164.55-.164.422 0 .422.305 0 .492-2.461 2.953v.059q1.137.222 1.219.21l.024.036 4.277-3.036q.187-.128.527-.14.856-.387 1.711-.785 1.02-.399 1.817-.399.855 0 1.183.352.094.129.281.387.926.269 1.254.515.539.399.539 1.172zm-2.074-1.687q0-.434-1.324-.434-1.289 0-3.469 1.16-.445.234-.445.469.07 0 .193-.041.123-.041.194-.041l.058.023v.024l-.281.386q2.789-1.464 5.074-1.546zm1.852 1.664q0-.727-.645-1.114-.539-.328-1.312-.328-1.875 0-3.879 1.207-.926.563-3.293 2.461v.082q.269.035.82.094 2.391.269 2.848.269 1.945 0 3.363-.468 2.098-.68 2.098-2.203zm-6.985-.387q-.269 0-.902.773h.082q.41-.281.82-.773zm-.902.328q-.937.68-2.648 2.156h.433zm-2.566-1.242v-.082l-.082-.059q-.528 0-1.196.891h.305v.047l-2.063 1.992q1.149-.738 3.036-2.789zm-1.278 1.019v-.164q-.363 0-1.242 1.125zm.809 2.297v-.012q-.012-.07-.059-.07h-.011q-.036 0-.047.07v.012q.011.082.047.082h.011q.047 0 .059-.082zm-3.012-1.336q-.269.188-.797.586h.129q.071 0 .34-.246.27-.246.328-.34zm-.715.188v-.012-.035h-.047-.011-.024l-.011.035v.012l.011.035.024.012h.023l.035-.012zm.879.926q-.011-.024-.023-.024-.164 0-.164.141.011.011.041.023.029.012.064.012.082 0 .082-.152zm-1.101-.809q-.2.059-.305.223.164-.082.305-.223zm-.61.445h-.058q-1.336.949-2.285 1.91.328-.246 1.3-1.031.973-.785 1.043-.879zm4.278.797q-.645.504-1.852 1.547l-5.215 5.297zm-6.762 1.195q-.387.176-.387.352h0q.246-.082.387-.352zm6.316-1.277q-.515-.223-1.101-.223h-.141q-4.289 4.008-7.277 7.957-.34.434-.492.704-.282.468-.282.785h.188l7.476-7.817q.575-.48 1.629-1.406zm-3.222-.656q-.176 0-.387.164-.809.609-2.344 1.898l-7.125 6.715q1.43-.926 2.238-1.605.247-.176.692-.551zm-1.629 10.676q0-.129-.041-.387-.041-.258-.041-.387 0-.164.041-.48.041-.317.041-.481v-.023q-.668.469-.668 1.406v.211q0 .141.14.141zm.797-10.817q-.364-.094-1.102-.222l-5.133-.575q-.246-.035-1.242-.035-2.18 0-3.328.246-1.852.387-2.859 1.547 5.519.199 5.519 3.375 0 1.008-.469 1.653-.726.996-2.261 2.156-1.278.961-3.305 1.043.082.832-.469.832-.07 0-.187-.041-.117-.041-.176-.041-.141 0-.141.14 0 .059.041.164.041.106.041.164v.059q-.304-.246-.304-.726 0-.434.386-.68-.304-.188-1.488-.551-.984-.305-1.383-.691 0 .023-.011.082-.012.058-.012.082v.187q0 1.137.89 1.946.856.785 2.004.785h.504q-.164-.082-.445-.305.164 0 .434.111.269.112.421.112 2.379 0 4.969-2.426l7.289-6.844q.844-.68 1.817-1.547zm-8.309 4.383q0-1.582-1.699-2.309-1.231-.527-3.07-.527h-.973q-.246.422-.246 1.57.269 0 .826-.082.557-.082.826-.082 1.313 0 2.203.586 1.031.68 1.031 1.922 0 .457-.222 1.242 1.324-.855 1.324-2.32zm2.215 6.797q-.012-.024-.082-.024-.059 0-.059.024.024.035.059.082.047-.023.082-.082zm-3.234-2.215q0-.012-.012-.012-.141 0-.141.153 0 .023.012.035.141 0 .141-.176zm-.293.258l-.012-.035h-.047l-.035.047q.012.023.035.035h.047 0l.012-.024zm-.235.223v-.024q0-.07-.047-.07h-.011q-.036 0-.047.07v.024q.011.046.047.046h.011q.047-.011.047-.046zm.035-3.68q0-2.016-2.707-2.016-.914 0-1.441.141v.082q.656.668 1.043.879.539.304 1.336.304.387 0 .633-.082 0 .094-.223.223-1.09 0-1.699-.211-.797-.293-1.301-1.113h-.082q-.281.141-.445.141-2.485 1.183-3.094 3.035-.012.093-.059.281.094.316.879.609.692.27 1.113.27.176 0 .516.012.34.011.504.011 2.203 0 3.879-.797.223-.093.621-.328.07-.058.141-.14.386-.457.386-1.301zm-1.277 2.262q-1.488.55-3.609.808.363.082.961.082.668 0 1.429-.222.926-.258 1.219-.668zm-3.223-6.399h-.304q-2.532 0-4.828 1.488-2.684 1.735-2.684 4.008 0 2.016 1.898 3.024 1.5.808 3.703.808h.282q-2.039-1.09-2.039-2.566 0-1.125-.164-1.547v-.738l.164-.141q-.035.152-.035.527 0 .223.082.352.152-.234.281-.551.797-1.875 3.422-3.058l.058-.059q-.07-.937.164-1.547zm-.609 8.918q-.012.047-.047.047h-.012q-.047 0-.047-.047v-.023q0-.059.047-.059h.012q.035 0 .047.059zm28.556-1.91q0 .07-.41.445-.41.375-.575.481 0 .023 0 .035 0 .035-.117.035-.691.574-1.617 1.066-.234.106-.668.34-.094.059-.094.164 0 .141.305.141.117 0 .334-.082.217-.082.334-.082-.469.269-.773.269-.2 0-.774-.31-.574-.311-.574-.463 0-.105.012-.316.011-.211.011-.317-.117.012-.773.422-.059-.082-.223-.082-.832.492-1.769.738v.059q0 .164.304.164.106 0 .293-.041.188-.041.293-.041-.328.187-.609.187-1.488 0-1.488-1.535 0-1.711 1.552-3.164 1.553-1.453 3.276-1.453h.445q.34 0 .68 1.137.058.187.281.187.633-1.054.715-1.113.164-.129 1.195-.129l-.445.668v.164h.352v.188q-.797.961-1.606 1.922-1.172 1.476-1.172 1.98 0 .293.246.293.563 0 1.571-.809 1.453-1.148 1.488-1.171zm-2.836-2.484q0-.715-.387-.715h-.445q-.844 0-1.324.445-.364.328-.832.82v.141h.164q1.5-.691 2.824-.691zm-.035.421v-.093l-.082-.082h-.27q-.738 0-1.851.972-2.426 2.11-2.426 3.035 0 .27.129.329.07 0 .176.017.105.018.164.018 1.207 0 2.683-1.494 1.477-1.495 1.477-2.702zm8.532 2.18q-.035.047-.223.211-2.437 2.156-3.562 2.156-.832 0-.832-.656 0-.656.679-1.512.586-.644 1.172-1.277.293-.328.891-.973v-.129h-1.383l-2.18 1.981h-.082l2.039-2.074v-.047q0-.094-.082-.229-.082-.134-.082-.216 0-.364.422-.657.375-.258.762-.258.363 0 .363.258l-.445.434v.082q0 .223.445.223.164 0 .481-.082.316-.083.48-.083.129 0 .358.264.228.264.228.404-.211.399-1.371 1.782-.984 1.183-1.066 1.746-.024.199-.024.363.082 0 .235.041.152.041.234.041.363 0 2.461-1.793zm-1.406-2.519v-.106q-.551 0-1.055.082v.141h.937q.118 0 .118-.117z"/></svg>