<svg xmlns="http://www.w3.org/2000/svg" viewBox="0 0 176 35"><title>Secret Garden Inn</title><path d="M4.333 19.769v.02c0 .02-.07.093-.21.22l-.29.24c0 .027-.02.03-.06.03-.227.193-.493.373-.8.54a3.89 3.89 0 0 0-.34.17c-.033.02-.05.047-.05.08 0 .047.053.07.16.07.04 0 .093-.013.16-.04.073-.027.13-.04.17-.04-.153.087-.283.13-.39.13-.067 0-.193-.05-.38-.15-.193-.107-.29-.183-.29-.23a1.59 1.59 0 0 1 .01-.16v-.16c-.04.007-.167.077-.38.21-.02-.027-.06-.04-.12-.04a3.19 3.19 0 0 1-.88.37v.03c0 .053.05.08.15.08.033 0 .083-.007.15-.02a.72.72 0 0 1 .14-.02c-.107.06-.207.09-.3.09-.493 0-.74-.253-.74-.76 0-.573.257-1.103.77-1.59.52-.48 1.067-.72 1.64-.72h.22c.113 0 .227.187.34.56.02.067.067.1.14.1l.36-.56c.053-.04.253-.06.6-.06l-.22.33v.08h.17v.1l-.8.96c-.393.493-.59.823-.59.99 0 .093.043.14.13.14.187 0 .447-.133.78-.4l.75-.59zm-1.42-1.23c0-.233-.067-.35-.2-.35h-.22c-.28 0-.5.073-.66.22l-.42.41v.07h.08c.5-.233.973-.35 1.42-.35zm-.02.22v-.05l-.04-.04h-.14c-.247 0-.553.16-.92.48-.807.707-1.21 1.213-1.21 1.52 0 .093.02.15.06.17h.09a.4.4 0 0 0 .08.01c.4 0 .847-.247 1.34-.74.493-.5.74-.95.74-1.35zm6.636.87v.05l-.53.5-.38.33c-.48.42-.843.63-1.09.63a.78.78 0 0 1-.37-.11c-.14-.087-.21-.183-.21-.29 0-.213.16-.523.48-.93l.74-.84v-.16c-.027 0-.063-.003-.11-.01-.04-.013-.073-.02-.1-.02-.093 0-.283.087-.57.26-.373.227-.773.543-1.2.95l-1.08 1.11a3.13 3.13 0 0 1-.52.04h-.1c.04-.033.06-.067.06-.1 0-.013-.007-.03-.02-.05-.007-.02-.01-.033-.01-.04 0-.187.397-.773 1.19-1.76.067-.08.1-.193.1-.34l-.19-.03a3.23 3.23 0 0 0-.57.4l-.53.46a1.19 1.19 0 0 0-.16.14h-.03l1.41-1.29-.03.04.01.07a1.25 1.25 0 0 0 .18-.02 1.25 1.25 0 0 1 .18-.02c.033 0 .087.007.16.02.067.013.12.02.16.02.053 0 .08-.05.08-.15s-.07-.15-.21-.15c-.053 0-.127.02-.22.06-.1.04-.177.06-.23.06.2-.127.373-.19.52-.19.24 0 .36.137.36.41 0 .193-.173.533-.52 1.02v.06c.013.007.04.017.08.03.14-.06.367-.233.68-.52.34-.313.58-.51.72-.59-.007.053.013.08.06.08.093 0 .223-.033.39-.1.167-.06.297-.09.39-.09.027-.027.04-.067.04-.12 0-.073-.06-.11-.18-.11-.04 0-.097.013-.17.04a.53.53 0 0 1-.16.04.65.65 0 0 1 .41-.15c.213 0 .32.18.32.54 0 .2-.183.52-.55.96s-.55.723-.55.85c0 .093.043.14.13.14.207 0 .507-.147.9-.44l.84-.69zm-1.59 1.28h-.05c-.02 0-.113.027-.28.08v.1c.22 0 .33-.06.33-.18zm7.852-6.41v.7l-3.15 4.24-.35.62-.29.56c0 .093.05.14.15.14.213 0 .757-.367 1.63-1.1h.03l-.58.68c-.267.273-.503.41-.71.41h-.01l-.42.2-.34.07c-.053.007-.08.033-.08.08 0 .093.063.137.19.13-.053.033-.103.05-.15.05-.247 0-.37-.19-.37-.57a.82.82 0 0 1 .03-.18c.027-.08.04-.14.04-.18h-.06c-.353.327-.607.49-.76.49-.067 0-.173.03-.32.09-.14.067-.257.1-.35.1-.02 0-.053-.003-.1-.01s-.083-.007-.11 0c0 .133.087.2.26.2a1.47 1.47 0 0 0 .17-.01.91.91 0 0 1-.33.07c-.327 0-.49-.23-.49-.69 0-.607.31-1.177.93-1.71.593-.52 1.2-.78 1.82-.78.3 0 .45.12.45.36 0 .047-.003.11-.01.19-.013.08-.02.143-.02.19.053-.007.08 0 .08.02.013-.013.037-.04.07-.08l3.13-4.28h.02zm-3.82 6.7v.01c0 .013-.003.02-.01.02s-.017-.007-.03-.02c0-.013.003-.023.01-.03.02.007.03.013.03.02zm-1.65-.07c0 .013-.007.02-.02.02-.007 0-.017-.007-.03-.02l.02-.02c.013.007.023.013.03.02zm1.96-2.43h.15c0-.2-.007-.317-.02-.35-.027-.107-.117-.16-.27-.16-.16 0-.357.05-.59.15-.267.12-.4.243-.4.37a1.76 1.76 0 0 0 .4-.07c.18-.053.317-.08.41-.08.173 0 .273.037.3.11-.1-.02-.183-.03-.25-.03-.267 0-.683.273-1.25.82-.56.54-.84.943-.84 1.21 0 .073.023.13.07.17.287 0 .53-.057.73-.17.26-.147.563-.39.91-.73.373-.373.597-.677.67-.91 0-.007-.007-.04-.02-.1v-.23zM48.86 7.389c0 .653-.537 1.34-1.61 2.06-.433.28-1.257.727-2.47 1.34l-.54 1.21c-.933 1.827-3.027 3.263-6.28 4.31l-2.15 2.22c-.9.893-2.417 1.667-4.55 2.32-1.94.593-3.647.89-5.12.89-1.787 0-3.27-.273-4.45-.82-1.573-.74-2.36-1.903-2.36-3.49 0-2 1.12-3.607 3.36-4.82 1.867-1.02 3.893-1.53 6.08-1.53.247 0 .613.03 1.1.09l1.11.08c.18 0 .39-.077.63-.23-.107-1.76.573-3.083 2.04-3.97 1.187-.733 2.72-1.1 4.6-1.1l.04.02h.09l.28.02 1.21.09c.153.053.37.147.65.28.407.22.91.587 1.51 1.1.373.32.687.48.94.48-.053 0 .43-.28 1.45-.84 1.013-.567 1.85-.85 2.51-.85 1.287 0 1.93.38 1.93 1.14zm-.72-.64v-.03c-.007-.047-.023-.07-.05-.07h-.01c-.033 0-.05.023-.05.07v.03c.007.033.023.05.05.05h.01c.033-.013.05-.03.05-.05zm-.68-.33h-.86c-.12 0-.237.027-.35.08.1.04.417.06.95.06.14 0 .227-.047.26-.14zm1.08.93c0-.393-.12-.59-.36-.59 0 .92-.55 1.753-1.65 2.5l-.11.08c-.273.187-.667.487-1.18.9.587-.22 1.25-.62 1.99-1.2.873-.68 1.31-1.243 1.31-1.69zm-2.52-.47c-.907 0-1.75.46-2.53 1.38l.05.06c1.02-.707 1.847-1.187 2.48-1.44zm.74.47c0-.273-.083-.41-.25-.41-.26 0-.703.223-1.33.67-.567.407-.96.747-1.18 1.02 0 .14.063.297.19.47l.28.46c.113.273.19.5.23.68.42-.12.87-.52 1.35-1.2.473-.68.71-1.243.71-1.69zm-4.05.83h.08l-.08-.09h-.09l.09.09zm.6.31h-.05a.61.61 0 0 0-.23.24h.06l.22-.24zm1.18 1.81c0-.613-.24-1.093-.72-1.44l-.46.46v.09c.12.26.18.413.18.46 0 .133-.027.21-.08.23l-.32-.54c-.54.527-.947.983-1.22 1.37-.133.18-.343.437-.63.77h.07c.433 0 1.197-.283 2.29-.85l.81-.38c.053-.033.08-.09.08-.17zm-2.93-2.91c-.573-.76-1.683-1.14-3.33-1.14a5.73 5.73 0 0 0-2.67.63c-.98.513-1.51 1.203-1.59 2.07 1.473-1.133 3.303-1.7 5.49-1.7.227 0 .563.03 1.01.09l1.01.09c.04-.007.067-.02.08-.04zm.55 4.37h-.18c-.073 0-.207.04-.4.12s-.337.12-.43.12l-.09.08c.147.02.513-.087 1.1-.32zm-6.38-5.24v-.03c-.013-.047-.03-.07-.05-.07h-.01c-.033 0-.057.023-.07.07v.03c.013.027.03.04.05.04h.03c.033-.007.05-.02.05-.04zm6.69 1.85c0-.253-.253-.46-.76-.62-.393-.12-.763-.18-1.11-.18h-2.36c-.6 0-1.43.213-2.49.64-1.213.48-1.82.957-1.82 1.43 0 .4.117.6.35.6l.83-.04.84-.05c1.627 0 2.517.31 2.67.93l-.02.03-.06-.03a1.02 1.02 0 0 0-.16-.12 3.62 3.62 0 0 0-.31-.17c-.013-.213-.687-.32-2.02-.32h-1.12c-.333 0-.56.05-.68.15a.67.67 0 0 0 .06.08c.487.613 1.057 1.027 1.71 1.24.5.167 1.197.25 2.09.25.713 0 1.16-.113 1.34-.34l1.1-1.38c.42-.533 1.06-1.233 1.92-2.1zm2.05 2.56h-.06l-2.38 1.24c-.067.033-.337.11-.81.23-.367.1-.607.227-.72.38l-2.25 2.99c-.007.013-.027.057-.06.13.027.013.28-.06.76-.22 1.26-.42 2.373-1.01 3.34-1.77 1.18-.907 1.907-1.9 2.18-2.98zm-5.43 1.47l.08-.09h-.48c-.153 0-.38.017-.68.05l-.68.04c.28.06.567.09.86.09.133 0 .433-.03.9-.09zm-3.54-5.84c-.067-.013-.347.093-.84.32-1.9.873-2.85 2.033-2.85 3.48 0 .327.027.49.08.49.067 0 .51-.127 1.33-.38 0-1.7.76-3.003 2.28-3.91zm-.26 6.3h.72c-1.06-.247-1.877-.84-2.45-1.78 0-.1-.047-.197-.14-.29a1.44 1.44 0 0 0-.24.03c-.1.02-.173.03-.22.03l-.92.32v.08a1.09 1.09 0 0 1 .14.28l1.47.87c.567.307 1.113.46 1.64.46zm3.42.14h-4.52c.193.367.29.753.29 1.16 0 .973-.203 1.787-.61 2.44l.3.01.31.01c.593 0 1.16-.057 1.7-.17.513-.453 1.327-1.557 2.44-3.31 0-.007.01-.023.03-.05.013-.027.033-.057.06-.09zm-4.4.86c0-.04-.02-.067-.06-.08-.013.013-.02.033-.02.06v.04c0 .033.007.05.02.05a.19.19 0 0 0 .06-.07zm-2.73-2.46h.23v-.09h-.02c-.127 0-.197.03-.21.09zm2.61 2.29c0-.387-.247-.72-.74-1-1.173-.66-1.99-.99-2.45-.99-.193 0-.413.157-.66.47 1.84.047 3.123.553 3.85 1.52zm-.4 2.45l-.45.46h.04l.04.02c.093 0 .217-.16.37-.48zm.31-1.32c0-1.273-1.003-1.91-3.01-1.91-.733 0-1.197.05-1.39.15-.34.173-.51.577-.51 1.21 0 .74.42 1.337 1.26 1.79.7.373 1.46.56 2.28.56.213 0 .497-.24.85-.72.347-.48.52-.84.52-1.08zm-.83 2.1h-.23c-.86.593-1.933 1.08-3.22 1.46 1.4 0 2.55-.487 3.45-1.46zm-.86-.09l-.98-.23c-1.18-.293-1.927-.77-2.24-1.43-.093-.193-.14-.33-.14-.41v-.58c0-.107.013-.263.04-.47.033-.213.05-.373.05-.48-.173 0-.54.153-1.1.46-1.94 1.053-2.91 2.377-2.91 3.97 0 .173.313.317.94.43.46.08.847.12 1.16.12h.12l-.23-.23c.033-.06.053-.11.06-.15h.03c.187.073.34.123.46.15l-.02-.37c0-.713.313-1.07.94-1.07.4 0 .6.19.6.57 0 .387-.163.58-.49.58-.2 0-.35-.12-.45-.36s-.16-.36-.18-.36c-.173 0-.26.203-.26.61 0 .28.057.47.17.57h.29c.467 0 1.203-.147 2.21-.44 1.107-.32 1.75-.613 1.93-.88zm3.45-.06h-.14c-.233 0-.57.023-1.01.07l-.97.08c-1.253 1.16-2.59 1.74-4.01 1.74-.133 0-.337-.007-.61-.02l-.62-.03c-.127 0-.203.017-.23.05-.833-.013-1.74-.15-2.72-.41l-.33-.1h-.09c.08.813.617 1.447 1.61 1.9.793.36 1.657.54 2.59.54 1.033 0 1.993-.21 2.88-.63 1.06-.507 1.94-1.11 2.64-1.81-1.32.707-2.717 1.06-4.19 1.06-1.013 0-1.677-.107-1.99-.32.08-.013.21.013.39.08.173.06.293.09.36.09 1.513 0 2.68-.117 3.5-.35 1.147-.333 2.127-.98 2.94-1.94zm-6.04-4.54l.7-.53v-.08c-.527-.06-1.057-.09-1.59-.09-2.107 0-4.08.453-5.92 1.36-2.267 1.113-3.4 2.607-3.4 4.48 0 1.473.73 2.563 2.19 3.27 1.113.547 2.493.82 4.14.82 1.513 0 2.807-.183 3.88-.55-1.113.047-2.11-.1-2.99-.44-1.08-.433-1.767-1.11-2.06-2.03l-.17-.61c-.567-.72-.85-1.283-.85-1.69 0-.6.127-.9.38-.9 0 .1-.037.23-.11.39-.08.167-.12.3-.12.4 0 .533.233 1.013.7 1.44.2-2.653 1.94-4.4 5.22-5.24zm-1.23 6.62l-.06.02-.03-.02v-.02c.007-.033.017-.05.03-.05h.01c.033.013.05.037.05.07zm-.09-.1v.01c-.007.06-.023.09-.05.09h-.01c-.033 0-.053-.03-.06-.09v-.01c.007-.06.027-.09.06-.09h.01c.027 0 .043.03.05.09zm18.29-.31h.08l-2.01 1.87c-.874.653-1.707.98-2.5.98-.394 0-.78-.11-1.16-.33-.514-.293-.77-.567-.77-.82 0-.873.026-1.41.08-1.61l.35-.64.18-.38c.34-.68.943-1.293 1.81-1.84.866-.553 1.68-.83 2.44-.83h.52c.206.02.376.15.51.39.113.207.17.423.17.65 0 .887-.56 1.64-1.68 2.26-.567.313-1.52.67-2.86 1.07a2.14 2.14 0 0 0-.14.75c0 .42.266.63.8.63.726 0 1.48-.237 2.26-.71.313-.193.953-.673 1.92-1.44zm-.89-2.99c0-.153-.09-.307-.27-.46h-.37c-.367 0-.797.157-1.29.47-.54.347-.81.687-.81 1.02l.17-.03c.84-.373 1.666-.6 2.48-.68.06-.067.09-.173.09-.32zm-.38.98a1.6 1.6 0 0 0-.01-.15c-.014-.067-.02-.113-.02-.14-.06-.06-.177-.09-.35-.09-.234 0-.424.05-.57.15-.9.587-1.617 1.333-2.15 2.24v.2c.473 0 1.096-.253 1.87-.76.82-.533 1.23-1.017 1.23-1.45zm-1.27 4.16v-.17c-.22 0-.527.073-.92.22l-.91.33v.17c.493 0 1.103-.183 1.83-.55zm8.716-2.29h.08c-1.36 1.347-2.326 2.14-2.9 2.38.007-.113-.043-.17-.15-.17-.053 0-.57.153-1.55.46v.15c.14 0 .35-.037.63-.11.28-.067.494-.1.64-.1h.05c-.453.253-.92.38-1.4.38-.293 0-.673-.127-1.14-.38-.513-.267-.77-.523-.77-.77v-1.61a1.25 1.25 0 0 0 .36-.53c.294-.847.844-1.583 1.65-2.21.807-.633 1.654-.95 2.54-.95 1.014 0 1.52.347 1.52 1.04 0 1.26-.333 1.89-1 1.89-.213 0-.32-.093-.32-.28 0-.067.03-.163.09-.29.054-.133.08-.24.08-.32 0-.12-.056-.417-.17-.89-.566 0-1.27.523-2.11 1.57s-1.26 1.867-1.26 2.46c0 .38.254.57.76.57 1.147 0 2.604-.763 4.37-2.29zm-1.06-2.91c0-.14-.08-.267-.24-.38-.02 0-.053-.003-.1-.01a.74.74 0 0 0-.1-.01c-.72 0-1.316.21-1.79.63l-.46.45c-.2.24-.3.423-.3.55h.17a9.6 9.6 0 0 1 2.67-.91c.1-.1.15-.207.15-.32zm6.813 3.05h.08c-.027.033-.104.107-.23.22-1.694 1.5-2.93 2.25-3.71 2.25-.58 0-.87-.23-.87-.69 0-.453.236-.977.71-1.57l1.22-1.33.93-1.01v-.14h-1.44l-2.27 2.06h-.09l2.13-2.16v-.04c0-.067-.03-.147-.09-.24s-.09-.17-.09-.23c0-.253.146-.48.44-.68.26-.18.526-.27.8-.27.253 0 .38.09.38.27l-.47.45v.08c0 .16.156.24.47.24.113 0 .28-.03.5-.09.22-.053.386-.08.5-.08.086 0 .21.09.37.27.16.187.24.327.24.42-.147.28-.624.9-1.43 1.86-.687.82-1.057 1.427-1.11 1.82-.02.133-.03.257-.03.37.06 0 .143.017.25.05.106.027.186.04.24.04.253 0 1.11-.623 2.57-1.87zm-1.38-2.62v-.11c-.387 0-.754.027-1.1.08v.15h.97c.086 0 .13-.04.13-.12zm7.847 2.62h.08l-2.01 1.87c-.874.653-1.707.98-2.5.98-.394 0-.78-.11-1.16-.33-.514-.293-.77-.567-.77-.82 0-.873.026-1.41.08-1.61l.35-.64.18-.38c.34-.68.943-1.293 1.81-1.84.866-.553 1.68-.83 2.44-.83h.52c.206.02.376.15.51.39.113.207.17.423.17.65 0 .887-.56 1.64-1.68 2.26-.567.313-1.52.67-2.86 1.07a2.14 2.14 0 0 0-.14.75c0 .42.266.63.8.63.726 0 1.48-.237 2.26-.71.313-.193.953-.673 1.92-1.44zm-.89-2.99c0-.153-.09-.307-.27-.46h-.37c-.367 0-.797.157-1.29.47-.54.347-.81.687-.81 1.02l.17-.03c.84-.373 1.666-.6 2.48-.68.06-.067.09-.173.09-.32zm-.38.98a1.6 1.6 0 0 0-.01-.15c-.014-.067-.02-.113-.02-.14-.06-.06-.177-.09-.35-.09-.234 0-.424.05-.57.15-.9.587-1.617 1.333-2.15 2.24v.2c.473 0 1.096-.253 1.87-.76.82-.533 1.23-1.017 1.23-1.45zm-1.27 4.16v-.17c-.22 0-.527.073-.92.22l-.91.33v.17c.493 0 1.103-.183 1.83-.55zm9.836-8.85l-2.25 2.52-1.03 1.22a.78.78 0 0 1-.06.12l-.05.08c0 .013-.01.023-.03.03-.01.013-.01.03-.01.05 0 .033.014.063.04.09h1.72l.23.09-.08.11h-2.14c-.093 0-.553.623-1.38 1.87-.613.927-.92 1.693-.92 2.3 0 .06.127.09.38.09.507 0 1.474-.613 2.9-1.84h.09c-1.633 1.627-2.986 2.44-4.06 2.44-.533 0-.8-.23-.8-.69 0-.32.357-1.117 1.07-2.39a.92.92 0 0 1 .08-.14c0-.107-.02-.177-.06-.21l.03-.01-.04.01c-.02-.007-.036-.01-.05-.01l1.21-1.21v-.19h-1.21c-.04-.073-.12-.117-.24-.13l.33.01c.454 0 .934-.033 1.44-.1.094-.073.707-.757 1.84-2.05l1.29-1.31c.62-.58 1.157-.87 1.61-.87.1 0 .15.04.15.12zm-6.37 5.74h.01c-.086.047-.21.153-.37.32l.26-.29c.027-.013.06-.023.1-.03zm-.36.32l-.46.52.46-.52zm-.54.52h.08l-.02.02c-.026.027-.06.05-.1.07.027-.027.04-.057.04-.09z"/><path d="M97.123 7.479c0 1.607-1.33 3.217-3.99 4.83l-1 .55-5.21 1.9c-.887.32-2.097.58-3.63.78-.247.153-.37.527-.37 1.12 0 1.6.46 2.4 1.38 2.4 1.046 0 2.003-.303 2.87-.91.28-.193.89-.76 1.83-1.7.62-.607 1.153-.91 1.6-.91.133 0 .2.037.2.11 0 .02-.004.063-.01.13a.64.64 0 0 0-.02.12h.11l.41-.22h.06l-1.21 1.24c0-.06-.03-.09-.09-.09-.02 0-.527.383-1.52 1.15l-.23.46v.09l1.52-1.38h.09l-1.49 1.78c-.167.173-.42.47-.76.89-.047.073-.31.643-.79 1.71.013-.007.03-.01.05-.01.626-.8 1.7-1.96 3.22-3.48.046-.06.123-.13.23-.21l-2.98 3.53-1.47 1.77-2.15 2.88-4.3 5.76c-.267.367-.544.55-.83.55-.327 0-.49-.19-.49-.57 0-.78.793-2.4 2.38-4.86h-.13c-.18.013-.62.077-1.32.19-.54.087-.984.13-1.33.13-1.4 0-2.604-.307-3.61-.92-1.2-.733-1.8-1.75-1.8-3.05 0-1.353.6-2.493 1.8-3.42a5.99 5.99 0 0 1 3.76-1.29c1.006 0 1.886.247 2.64.74.88.573 1.32 1.34 1.32 2.3 0 1.027-.444 1.863-1.33 2.51-.794.587-1.72.88-2.78.88-.467 0-.984-.057-1.55-.17-.794-.153-1.19-.363-1.19-.63 1.153.347 2.046.52 2.68.52.993 0 1.86-.26 2.6-.78.84-.587 1.26-1.353 1.26-2.3 0-.82-.347-1.437-1.04-1.85-.574-.36-1.294-.54-2.16-.54-1.394 0-2.617.383-3.67 1.15-1.154.847-1.73 1.94-1.73 3.28 0 1.1.533 1.957 1.6 2.57.88.493 1.916.74 3.11.74 1.206 0 2.126-.147 2.76-.44.326-.147.786-.623 1.38-1.43l3.1-4.14 1.56-1.81v-.07c-.887.467-1.747.7-2.58.7-2.02 0-3.03-.9-3.03-2.7 0-.16.023-.397.07-.71.053-.313.08-.547.08-.7-1.78 0-3.027-.42-3.74-1.26l-.17-.23-.87-1.67a3.95 3.95 0 0 1-.42-1.81c0-1.627.593-2.973 1.78-4.04 1.146-1.027 2.546-1.54 4.2-1.54.166 0 .423.013.77.04l.78.05c.2 0 .443-.083.73-.25l.71-.36c1.333-.473 2.613-.71 3.84-.71.706 0 1.35.043 1.93.13.653.113 1.303.457 1.95 1.03l.32.3c.186.267.313.4.38.4.153 0 .386-.013.7-.04l.7-.04c1.686 0 2.53.61 2.53 1.83zm-1.55.46v-.94c0-.133-.1-.28-.3-.44-.2-.153-.374-.23-.52-.23h-1.39c0 .147-.014.367-.04.66l-.04.64v.08h1.52c.093 0 .223.04.39.12.166.073.293.11.38.11zm.09 1.13v-.06l-.86 1.14c.193-.153.446-.417.76-.79l.05-.09a.41.41 0 0 0 .05-.2zm-2.58-2.36l-.01-.32c-.66 0-1.49.237-2.49.71-.887.427-1.627.89-2.22 1.39 0 .233.133.483.4.75 1.526-.693 2.906-1.173 4.14-1.44.126-.127.186-.49.18-1.09zm-.27-.93v-.05a.9.9 0 0 0-.14-.23c-.867-.94-2.207-1.41-4.02-1.41-2.134 0-3.707.413-4.72 1.24 1.44.553 2.683 1.347 3.73 2.38h.18c1.513-.847 3.17-1.49 4.97-1.93zm.09 2.25c-.347 0-.674.057-.98.17-.88.327-1.75.75-2.61 1.27-.074.027-.164.083-.27.17v.15c.146.293.38.703.7 1.23.086-.007.39-.16.91-.46 1.213-.693 1.963-1.537 2.25-2.53zm2.61.17c0-.087-.08-.167-.24-.24-.16-.067-.287-.1-.38-.1h-1.38c-.167 0-.387.263-.66.79l-.59 1.05c-1.16 1.307-2.644 1.96-4.45 1.96-.06 0-.157-.007-.29-.02l-.31-.02-.15-.09.09-.05c.933.107 1.67.003 2.21-.31a12.91 12.91 0 0 0-.69-1.25h-.08l-.7.47c-.08.053-.787.61-2.12 1.67l-1.93 1.63c0 .253.77.38 2.31.38 1.366 0 3.05-.557 5.05-1.67.926-.513 1.79-1.103 2.59-1.77 1.146-.96 1.72-1.77 1.72-2.43zm-7.15 1.27c0-.1-.047-.227-.14-.38s-.184-.23-.27-.23h-.06c-.847.567-1.71 1.383-2.59 2.45-.054.067-.08.123-.08.17 1.153-.847 2.2-1.517 3.14-2.01zm-1.07-1.44v-.09c-1.38-1.493-2.637-2.24-3.77-2.24-.28 0-.72.317-1.32.95-.594.633-.89 1.1-.89 1.4v.04c1.12-.307 1.886-.46 2.3-.46h.14l-1.44.36c-.687.207-1.104.41-1.25.61-.14.2-.21.71-.21 1.53 0 1.173.43 2.13 1.29 2.87.073 0 .533-.553 1.38-1.66.433-.56 1.026-1.15 1.78-1.77l1.99-1.54zm3.34 7.7a.8.8 0 0 0-.52.17c-.407.327-.837.787-1.29 1.38.266-.04.636-.25 1.11-.63.466-.373.7-.68.7-.92zm-1.36 1.42l-.6.36-.08.18c.186 0 .413-.18.68-.54zm-6.43-11.6a7.58 7.58 0 0 0-1.19-.08c-1.387 0-2.607.423-3.66 1.27-1.12.9-1.68 2.03-1.68 3.39 0 .693.133 1.267.4 1.72.133-.14.266-.363.4-.67l.38-.71c.606-.853 1.603-1.54 2.99-2.06.493-.953 1.26-1.873 2.3-2.76.02-.027.04-.06.06-.1zm3.31 8.74c-.367 0-.904-.057-1.61-.17l-.7-.11h-.15a5.47 5.47 0 0 0-.17.55c.96 0 1.836-.09 2.63-.27zm-4.15-.91v-.15c-.074-.047-.177-.123-.31-.23-.554-.553-.924-.993-1.11-1.32-.247-.447-.37-1-.37-1.66 0-.133.016-.323.05-.57l.05-.55v-.13c-.714.313-1.4.787-2.06 1.42-.774.76-1.16 1.46-1.16 2.1v.17c1.246 1.34 2.616 2.01 4.11 2.01h.14c.013 0 .233-.363.66-1.09zm-1.69 2.16v-.03c-.007-.02-.03-.03-.07-.03h-.03c-.04 0-.06.01-.06.03 0 .053.03.08.09.08h.02c.026.007.043-.01.05-.05zm5.43 5.53v-.03c-.007-.047-.02-.07-.04-.07h-.03c-.027 0-.044.023-.05.07v.03c.006.047.023.07.05.07h.03c.02 0 .033-.023.04-.07zm-5.66-5.62c-.947-.193-1.944-.75-2.99-1.67 0 .42.353.82 1.06 1.2.633.333 1.186.5 1.66.5a.58.58 0 0 0 .12-.02c.06-.013.11-.017.15-.01zm3.36 4.09v-.02c-.014-.053-.03-.08-.05-.08h-.01c-.034 0-.05.027-.05.08v.02c.006.033.023.05.05.05h.01c.033-.007.05-.023.05-.05zm-.2-.01c-.007-.033-.024-.053-.05-.06h-.01c-.014.013-.02.03-.02.05v.02c0 .027.003.04.01.04h.01c.02-.007.04-.023.06-.05zm-.55-.23h.15c-.327-.233-.68-.617-1.06-1.15a1.37 1.37 0 0 0 .25.78c.173.247.393.37.66.37zm2.85 1.99c-.1.053-.587.653-1.46 1.8l-1.3 1.79c.82-.727 1.71-1.877 2.67-3.45l.09-.14zm-6.39 10.57l5.07-7.05c-.427.38-.947.747-1.56 1.1-.207.093-.474.237-.8.43-.267.233-.784.987-1.55 2.26l-1.39 2.49c-.147.327-.22.583-.22.77 0 .153.036.23.11.23h.06c.073-.04.166-.117.28-.23zm6.22-24.38c-.047.04-.13.06-.25.06h-.12c-.12 0-.197-.02-.23-.06.006-.013.023-.02.05-.02h.46c.04 0 .07.007.09.02zm-1.05.06c0 .033-.054.053-.16.06h-.04c-.047 0-.09-.01-.13-.03v-.02c0-.02.043-.03.13-.03h.06a.61.61 0 0 1 .14.02zm15.324 10.76v.02c0 .047-.14.2-.42.46l-.6.5v.04c0 .027-.04.04-.12.04-.48.4-1.044.77-1.69 1.11l-.69.35c-.067.04-.1.097-.1.17 0 .1.106.15.32.15.08 0 .193-.03.34-.09.153-.053.27-.08.35-.08-.327.187-.594.28-.8.28-.14 0-.41-.107-.81-.32-.4-.22-.6-.383-.6-.49l.01-.33.02-.32c-.087.007-.357.15-.81.43-.04-.053-.117-.08-.23-.08a7.42 7.42 0 0 1-1.84.77v.06c0 .113.103.17.31.17a1.68 1.68 0 0 0 .31-.04c.126-.033.226-.05.3-.05-.227.133-.437.2-.63.2-1.034 0-1.55-.533-1.55-1.6 0-1.187.54-2.287 1.62-3.3 1.073-1.007 2.21-1.51 3.41-1.51h.46c.24 0 .476.397.71 1.19.04.127.136.19.29.19l.75-1.16c.113-.087.526-.13 1.24-.13l-.46.69v.17h.36v.2l-1.67 2c-.814 1.027-1.22 1.713-1.22 2.06 0 .207.086.31.26.31.386 0 .93-.28 1.63-.84l1.55-1.22zm-2.95-2.57c0-.493-.134-.74-.4-.74h-.47c-.587 0-1.047.153-1.38.46l-.86.86v.14h.17c1.04-.48 2.02-.72 2.94-.72zm-.04.44v-.1l-.08-.08h-.28c-.514 0-1.157.337-1.93 1.01-1.687 1.467-2.53 2.52-2.53 3.16 0 .187.046.303.14.35.046 0 .106.003.18.01.073.013.13.02.17.02.84 0 1.77-.517 2.79-1.55 1.026-1.04 1.54-1.98 1.54-2.82zm8.809 2.27h.08c-.027.033-.103.107-.23.22-1.693 1.5-2.93 2.25-3.71 2.25-.58 0-.87-.23-.87-.69 0-.453.237-.977.71-1.57l1.22-1.33.93-1.01v-.14h-1.44l-2.27 2.06h-.09l2.13-2.16v-.04c0-.067-.03-.147-.09-.24s-.09-.17-.09-.23c0-.253.147-.48.44-.68a1.39 1.39 0 0 1 .8-.27c.253 0 .38.09.38.27l-.47.45v.08c0 .16.157.24.47.24.113 0 .28-.03.5-.09a2.35 2.35 0 0 1 .5-.08c.087 0 .21.09.37.27.16.187.24.327.24.42-.147.28-.623.9-1.43 1.86-.687.82-1.057 1.427-1.11 1.82-.02.133-.03.257-.03.37.06 0 .143.017.25.05a1.08 1.08 0 0 0 .24.04c.253 0 1.11-.623 2.57-1.87zm-1.38-2.62v-.11c-.387 0-.753.027-1.1.08v.15h.97c.087 0 .13-.04.13-.12zm14.767-8.51v1.46l-6.58 8.83-.72 1.29-.6 1.16a.27.27 0 0 0 .31.31c.446 0 1.576-.767 3.39-2.3h.06l-1.21 1.42c-.547.567-1.034.85-1.46.85h-.03l-.88.42-.7.13c-.114.027-.17.083-.17.17 0 .2.133.297.4.29a.69.69 0 0 1-.32.09c-.514 0-.77-.393-.77-1.18 0-.093.023-.22.07-.38s.07-.283.07-.37h-.11c-.734.673-1.264 1.01-1.59 1.01-.147 0-.37.067-.67.2-.294.133-.537.2-.73.2-.047 0-.117-.007-.21-.02-.1-.013-.174-.017-.22-.01 0 .28.18.42.54.42l.35-.01a2.05 2.05 0 0 1-.7.14c-.667 0-1-.48-1-1.44 0-1.267.643-2.453 1.93-3.56 1.24-1.073 2.503-1.61 3.79-1.61.633 0 .95.247.95.74 0 .093-.01.223-.03.39l-.03.39c.093-.007.14.01.14.05a1.15 1.15 0 0 0 .15-.17l6.53-8.91h.05zm-7.96 13.96v.02c0 .02-.007.03-.02.03-.02 0-.044-.01-.07-.03 0-.033.01-.053.03-.06.04.007.06.02.06.04zm-3.45-.15c0 .02-.01.033-.03.04-.027-.007-.047-.02-.06-.04l.04-.04c.02.007.036.02.05.04zm4.09-5.07h.31l-.03-.73c-.067-.22-.26-.33-.58-.33-.327 0-.734.107-1.22.32-.56.247-.84.5-.84.76.186 0 .466-.05.84-.15s.66-.15.86-.15c.353 0 .56.073.62.22-.207-.033-.377-.05-.51-.05-.567 0-1.437.563-2.61 1.69s-1.76 1.97-1.76 2.53c0 .16.046.277.14.35.606 0 1.116-.117 1.53-.35.533-.307 1.163-.813 1.89-1.52.78-.773 1.246-1.403 1.4-1.89-.007-.02-.02-.093-.04-.22v-.48zm9.116 2.39h.08l-2.01 1.87c-.874.653-1.707.98-2.5.98-.394 0-.78-.11-1.16-.33-.514-.293-.77-.567-.77-.82 0-.873.026-1.41.08-1.61l.35-.64.18-.38c.34-.68.943-1.293 1.81-1.84.866-.553 1.68-.83 2.44-.83h.52c.206.02.376.15.51.39.113.207.17.423.17.65 0 .887-.56 1.64-1.68 2.26-.567.313-1.52.67-2.86 1.07a2.14 2.14 0 0 0-.14.75c0 .42.266.63.8.63.726 0 1.48-.237 2.26-.71.313-.193.953-.673 1.92-1.44zm-.89-2.99c0-.153-.09-.307-.27-.46h-.37c-.367 0-.797.157-1.29.47-.54.347-.81.687-.81 1.02l.17-.03c.84-.373 1.666-.6 2.48-.68.06-.067.09-.173.09-.32zm-.38.98a1.6 1.6 0 0 0-.01-.15c-.014-.067-.02-.113-.02-.14-.06-.06-.177-.09-.35-.09-.234 0-.424.05-.57.15-.9.587-1.617 1.333-2.15 2.24v.2c.473 0 1.096-.253 1.87-.76.82-.533 1.23-1.017 1.23-1.45zm-1.27 4.16v-.17c-.22 0-.527.073-.92.22l-.91.33v.17c.493 0 1.103-.183 1.83-.55zm13.336-2.59v.09l-1.09 1.06-.81.67c-.993.88-1.75 1.32-2.27 1.32-.233 0-.486-.077-.76-.23-.3-.18-.45-.38-.45-.6 0-.447.337-1.093 1.01-1.94l1.53-1.75v-.34c-.046 0-.116-.007-.21-.02a1.11 1.11 0 0 0-.22-.03c-.193 0-.586.18-1.18.54-.78.467-1.62 1.127-2.52 1.98l-2.23 2.3a6.27 6.27 0 0 1-1.09.09h-.2c.074-.067.11-.137.11-.21 0-.02-.01-.053-.03-.1a.33.33 0 0 1-.02-.09c0-.393.82-1.61 2.46-3.65.14-.173.21-.413.21-.72-.08-.02-.206-.04-.38-.06-.353.173-.75.45-1.19.83l-1.1.95-.34.29h-.07l2.93-2.67-.06.08.04.15c.08 0 .204-.013.37-.04.167-.033.29-.05.37-.05.074 0 .184.017.33.05a2 2 0 0 0 .33.04c.114 0 .17-.107.17-.32 0-.207-.14-.31-.42-.31-.113 0-.273.04-.48.12-.2.087-.356.13-.47.13.42-.267.784-.4 1.09-.4.5 0 .75.29.75.87 0 .393-.363 1.1-1.09 2.12v.11l.17.06c.294-.113.764-.47 1.41-1.07.707-.653 1.207-1.06 1.5-1.22-.006.093.037.14.13.14.187 0 .457-.063.81-.19.347-.127.614-.19.8-.19.06-.053.09-.137.09-.25 0-.153-.123-.23-.37-.23-.08 0-.193.027-.34.08-.153.06-.27.09-.35.09.267-.213.554-.32.86-.32.44 0 .66.373.66 1.12 0 .427-.38 1.097-1.14 2.01-.766.913-1.15 1.5-1.15 1.76 0 .207.094.31.28.31.434 0 1.06-.31 1.88-.93l1.74-1.43zm-3.3 2.65h-.11c-.04 0-.236.057-.59.17v.21c.467 0 .7-.127.7-.38z"/><path d="M164.723 4.469c0 .307-.323.567-.97.78-.28.087-.653.3-1.12.64-.5.373-.78.677-.84.91l-.83.85-4.37 5.75c.427-.113.904-.36 1.43-.74l1.33-.96v.1c0 .333-.413.703-1.24 1.11l-1.75.78-1.93 2.25c-2.98 3.313-6.813 4.97-11.5 4.97-1.226 0-2.33-.157-3.31-.47-.06-.013-.246-.097-.56-.25-.273-.133-.44-.2-.5-.2-.133 0-.363-.023-.69-.07a15.52 15.52 0 0 0-.69-.07c-.953-.1-1.793-.373-2.52-.82-.92-.553-1.38-1.25-1.38-2.09s.404-1.517 1.21-2.03c.64-.413 1.434-.663 2.38-.75.167-.007.427-.027.78-.06.187-.027.51-.227.97-.6l1-.78c1.8-1.093 4.007-1.66 6.62-1.7.114-.493.284-.827.51-1v.05c0 .067-.036.193-.11.38a1.48 1.48 0 0 0-.12.57c1.24.18 2.144.47 2.71.87.22.147.42.22.6.22.18-.087.61-.193 1.29-.32.64-.12 1.157-.3 1.55-.54.754-2.373 3.17-4.003 7.25-4.89.347-.053.844-.157 1.49-.31l.96-.52c.647-.353 1.43-.707 2.35-1.06zm-2.27 1.26v-.01c-.006-.047-.023-.07-.05-.07h-.01c-.033 0-.05.023-.05.07v.01c0 .06.017.09.05.09h.01c.034 0 .05-.03.05-.09zm-.19.09c-.273.087-.41.173-.41.26l.03.02c.074-.013.2-.107.38-.28zm-7.51 4.5l5.81-3.76h-.15c-1.666.42-2.963.877-3.89 1.37-1.36.727-2.316 1.68-2.87 2.86h.17c.22-.1.53-.257.93-.47zm6.73-3.9h-.11c-.133 0-.58.247-1.34.74l-3.67 2.48c-.266.173-1.006.603-2.22 1.29a11.08 11.08 0 0 0-.56.31c-.1.067-.15.34-.15.82 0 .933.46 1.4 1.38 1.4.034-.013.064-.033.09-.06 1.607-2.153 3.07-3.817 4.39-4.99.494-.433 1.224-1.097 2.19-1.99zm-13.86 5.15h.28c-.413-.153-.786-.23-1.12-.23h-.26l.09.14c.814.06 1.15.09 1.01.09zm6.96 2.29v-.08c-1.233-.287-1.896-.947-1.99-1.98h-.15c.074 0-.336.123-1.23.37a44.44 44.44 0 0 0-1.23.38c.367.553.55 1.127.55 1.72 0 1.333-.893 2.523-2.68 3.57-1.213.72-2.696 1.31-4.45 1.77v.04c0 .06.204.133.61.22.367.08.624.12.77.12h.8c1.84 0 3.547-.613 5.12-1.84.5-.4 1.16-1.043 1.98-1.93s1.404-1.593 1.75-2.12c.1-.147.15-.227.15-.24zm-4.58.18c0-.653-.24-1.093-.72-1.32l-1.17-.09a3.65 3.65 0 0 1-1.12-.32h-.21c-1.273 0-2.486.493-3.64 1.48-1.213 1.027-1.82 2.163-1.82 3.41 0 .46.164.937.49 1.43.347.54.74.81 1.18.81.507 0 1.197-.17 2.07-.51 1.267-.507 1.937-.817 2.01-.93h-.11a8.83 8.83 0 0 0-.61.03c-.266.02-.466.03-.6.03-.786 0-1.603-.23-2.45-.69v-.05c0-.08.034-.137.1-.17.92.413 1.734.62 2.44.62 1.147 0 2.114-.33 2.9-.99.84-.7 1.26-1.613 1.26-2.74zm-3.71-2.47l.04-.09v-.03c0-.093-.03-.16-.09-.2h-.8c-1.14 0-2.243.17-3.31.51-1.206.387-2.166.933-2.88 1.64l-.6.61v.09c1.187.153 2 .477 2.44.97.12-.073.247-.223.38-.45.154-.287.26-.46.32-.52 1.3-1.473 2.8-2.317 4.5-2.53zm.98 6.36v-.02c0-.053-.016-.08-.05-.08h-.01c-.026 0-.043.027-.05.08v.02c.007.047.024.07.05.07h.01c.034 0 .05-.023.05-.07zm-5.12 1.68l.17-.08c-.02-.007-.046-.037-.08-.09-.1-.08-.25-.207-.45-.38-.62-.493-.93-1.263-.93-2.31 0-.16.024-.39.07-.69.047-.307.07-.537.07-.69 0-.287-.326-.55-.98-.79-.553-.193-1.02-.29-1.4-.29-.353 0-.64.353-.86 1.06-.173.547-.26 1.057-.26 1.53 0 1.313.537 2.273 1.61 2.88h1.61c.087 0 .564-.05 1.43-.15zm4.24.7h-1.39c-.24 0-.65-.09-1.23-.27-.573-.187-.93-.28-1.07-.28-.36 0-.896.04-1.61.12-.713.073-1.25.11-1.61.11l.08.09c1.314.4 2.177.6 2.59.6h1.11a13.93 13.93 0 0 0 3.13-.37zm-8.14-.63c-.92-.807-1.38-1.77-1.38-2.89 0-.393.094-.82.28-1.28l.58-1.18a1.07 1.07 0 0 1-.17-.02 1.25 1.25 0 0 0-.18-.02c-.866 0-1.65.207-2.35.62-.826.493-1.24 1.143-1.24 1.95 0 .893.52 1.613 1.56 2.16a5.98 5.98 0 0 0 2.79.68c.02-.007.057-.013.11-.02zm26.846-1.68v.09c-.233.24-.596.593-1.09 1.06l-.81.67c-.993.88-1.75 1.32-2.27 1.32-.233 0-.486-.077-.76-.23-.3-.18-.45-.38-.45-.6 0-.447.337-1.093 1.01-1.94l1.53-1.75v-.34c-.046 0-.116-.007-.21-.02a1.11 1.11 0 0 0-.22-.03c-.193 0-.586.18-1.18.54-.78.467-1.62 1.127-2.52 1.98-.273.26-1.016 1.027-2.23 2.3a6.27 6.27 0 0 1-1.09.09h-.2c.074-.067.11-.137.11-.21 0-.02-.01-.053-.03-.1a.33.33 0 0 1-.02-.09c0-.393.82-1.61 2.46-3.65.14-.173.21-.413.21-.72-.08-.02-.206-.04-.38-.06-.353.173-.75.45-1.19.83l-1.1.95-.34.29h-.07c1.787-1.78 2.764-2.67 2.93-2.67l-.06.08.04.15c.08 0 .204-.013.37-.04.167-.033.29-.05.37-.05.074 0 .184.017.33.05a2 2 0 0 0 .33.04c.114 0 .17-.107.17-.32 0-.207-.14-.31-.42-.31-.113 0-.273.04-.48.12-.2.087-.356.13-.47.13.42-.267.784-.4 1.09-.4.5 0 .75.29.75.87 0 .393-.363 1.1-1.09 2.12v.11c.034.013.09.033.17.06.294-.113.764-.47 1.41-1.07.707-.653 1.207-1.06 1.5-1.22-.006.093.037.14.13.14.187 0 .457-.063.81-.19.347-.127.614-.19.8-.19.06-.053.09-.137.09-.25 0-.153-.123-.23-.37-.23-.08 0-.193.027-.34.08-.153.06-.27.09-.35.09.267-.213.554-.32.86-.32.44 0 .66.373.66 1.12 0 .427-.38 1.097-1.14 2.01-.766.913-1.15 1.5-1.15 1.76 0 .207.094.31.28.31.434 0 1.06-.31 1.88-.93l1.74-1.43zm-3.3 2.65h-.11c-.04 0-.236.057-.59.17v.21c.467 0 .7-.127.7-.38zm14.055-2.65v.09c-.234.24-.597.593-1.09 1.06l-.81.67c-.994.88-1.75 1.32-2.27 1.32-.234 0-.487-.077-.76-.23-.3-.18-.45-.38-.45-.6 0-.447.336-1.093 1.01-1.94l1.53-1.75v-.34c-.047 0-.117-.007-.21-.02a1.13 1.13 0 0 0-.22-.03c-.194 0-.587.18-1.18.54-.78.467-1.62 1.127-2.52 1.98-.274.26-1.017 1.027-2.23 2.3a6.28 6.28 0 0 1-1.09.09h-.2c.073-.067.11-.137.11-.21 0-.02-.01-.053-.03-.1-.014-.04-.02-.07-.02-.09 0-.393.82-1.61 2.46-3.65.14-.173.21-.413.21-.72-.08-.02-.207-.04-.38-.06-.354.173-.75.45-1.19.83l-1.1.95-.34.29h-.07c1.786-1.78 2.763-2.67 2.93-2.67l-.06.08.04.15c.08 0 .203-.013.37-.04.166-.033.29-.05.37-.05.073 0 .183.017.33.05.146.027.256.04.33.04.113 0 .17-.107.17-.32 0-.207-.14-.31-.42-.31-.114 0-.274.04-.48.12-.2.087-.357.13-.47.13.42-.267.783-.4 1.09-.4.5 0 .75.29.75.87 0 .393-.364 1.1-1.09 2.12v.11c.033.013.09.033.17.06.293-.113.763-.47 1.41-1.07.706-.653 1.206-1.06 1.5-1.22-.007.093.036.14.13.14.186 0 .456-.063.81-.19.346-.127.613-.19.8-.19.06-.053.09-.137.09-.25 0-.153-.124-.23-.37-.23-.08 0-.194.027-.34.08-.154.06-.27.09-.35.09a1.35 1.35 0 0 1 .86-.32c.44 0 .66.373.66 1.12 0 .427-.38 1.097-1.14 2.01-.767.913-1.15 1.5-1.15 1.76 0 .207.093.31.28.31.433 0 1.06-.31 1.88-.93l1.74-1.43zm-3.3 2.65h-.11c-.04 0-.237.057-.59.17v.21c.466 0 .7-.127.7-.38z"/></svg>